<svg width="1920" height="960" viewBox="0 0 1920 960" fill="none" xmlns="http://www.w3.org/2000/svg">
<path d="M634.345 452.491C628.882 505.29 624.452 572.031 647.958 615.749C668.943 654.778 721.262 694.646 756.218 721.464C808.812 761.813 858.967 790 945.186 790C1016.67 790 1055.39 760.504 1106.28 721.464C1124.11 707.787 1189.22 683.316 1220.16 625.771C1243.67 582.053 1257 532.079 1257 479C1257 432.1 1232.73 399.472 1227.95 347.746C1220.16 263.369 1168.7 255.474 1124.11 224.261C1079.52 193.048 1011.76 168 945.186 168C844.382 168 796.591 217.081 740.66 270.158C680.958 326.813 647.958 320.914 634.345 452.491Z" fill="#FCFCFC"/>
<path d="M1075 844.5C1064.6 847.3 1039.67 837.666 1028.5 832.5H943C887.4 848.5 852.167 839.166 841.5 832.5C834.3 816.099 806.167 812.333 793 812.5C763 786.9 716.833 801.833 697.5 812.5C675.5 786.9 602 775.833 568 773.5C532.4 742.3 471.5 760.5 445.5 773.5C396.7 774.3 375.167 829.166 370.5 856.5C298.9 875.7 291.333 941.166 296.5 971.5L1593.5 1004C1666.5 971.5 1641 918.5 1607.5 915.5C1584.7 874.7 1521.67 872.5 1493 876.5C1507.4 846.9 1475.33 821.5 1457.5 812.5C1421.5 743.3 1324.17 762.333 1280 780.499C1214.4 754.899 1155.67 791.166 1134.5 812.5C1092.1 811.3 1077.17 833.333 1075 844.5Z" fill="#5944AE"/>
<path d="M846.5 876C894.5 885.6 907.5 855.501 914.5 847.501C914.5 844.167 915.9 836.101 921.5 830.501C928.5 823.501 963.5 832.501 979.5 830.501C992.3 828.901 995.833 841.167 996 847.501C1048.8 903.5 1101 870.5 1125.5 860C1175.78 838.45 1213.5 858.834 1231 881.501C1289.5 840.5 1383 881.501 1383 911.5C1426.2 913.5 1431.33 953.334 1428.5 973C1122.17 977.334 509.5 983.4 509.5 973C509.5 962.6 525.167 948.334 533 942.5C543.8 895.7 597.167 893 622.5 897.5C640.5 869.1 685.667 875.001 706 881.501C761.5 819 826.5 872 846.5 876Z" fill="url(#paint0_radial)"/>
<path d="M895.5 882.5C899.1 865.7 912 851.167 918 846H934.5C967.5 928 929.5 957.5 925 963C921.4 967.4 914.833 1004.17 912 1022C902 1000.67 884 983.444 884 967C884 932 903.61 912.765 895.5 915.5C885.121 919 888 919.5 876 919.5C887.5 911.5 891 903.5 895.5 882.5Z" fill="url(#paint1_linear)"/>
<path d="M968.495 862.503C971.609 854.786 976.008 849.369 976.991 845.62C976.68 843.982 978.406 841.279 987.798 843.566C999.538 846.423 1012.09 865.284 1016.12 880.895C1019.62 894.432 1025.12 909.906 1031.62 919.395C1022.62 919.395 1015.68 911.724 1013.64 909.906C1014.25 918.444 1025.55 929.656 1031.62 950.895C1036.48 967.887 1015.94 997.858 1007.52 1006.24C994.153 989.445 977.838 980.79 970.624 950.895C962.624 917.745 970.335 903.393 969.5 899C966.979 885.737 964.755 898.163 965.581 900.72C956.861 889.654 965.537 869.835 968.495 862.503Z" fill="url(#paint2_linear)"/>
<path d="M938.5 872C937.373 856.539 945.006 847.5 956 847.5C982.5 847.5 971.5 899 956 974C944.005 934.957 939.627 887.461 938.5 872Z" fill="white"/>
<path d="M1226.81 1106.88C1056.86 954.71 924.96 1060.2 874.347 1106.88C762.87 1168.06 757.515 1199.36 744.826 1260.93C733.553 1315.64 769.882 1309.36 769.882 1443.66C769.882 1561.75 860.241 1588.95 918.439 1588.95C949.579 1579.16 1040.52 1565.45 1155.17 1588.95C1298.47 1618.31 1341.57 1428.79 1345.07 1407.97C1348.57 1387.16 1345.07 1402.36 1345.07 1317.91C1345.07 1196.73 1307.22 1180.69 1284.69 1172.15C1266.66 1165.31 1237.17 1117.91 1226.81 1106.88Z" fill="#FCFCFC"/>
<g filter="url(#filter0_d)">
<path d="M945.451 422L945.45 422C929.597 421.506 893.666 423.08 854.206 432.365C815.884 441.383 774.047 457.717 744.084 486.667L744.66 380.942C744.739 380.876 744.828 380.803 744.926 380.722C745.452 380.289 746.249 379.649 747.315 378.83C749.448 377.193 752.662 374.844 756.961 372.016C765.56 366.36 778.5 358.791 795.825 351.175C830.47 335.945 882.658 320.521 952.733 319.847L952.751 319.847L952.827 319.847C952.895 319.847 952.997 319.848 953.133 319.849C953.405 319.85 953.812 319.854 954.348 319.862C955.419 319.878 957.005 319.909 959.055 319.972C963.156 320.097 969.116 320.349 976.539 320.855C991.386 321.865 1012.08 323.889 1035.45 327.939C1082.08 336.019 1139.19 352.134 1181.91 384.212C1181.91 384.237 1181.92 384.263 1181.92 384.289C1182.01 384.704 1182.13 385.317 1182.28 386.106C1182.59 387.684 1183.03 389.969 1183.55 392.79C1184.59 398.433 1185.95 406.218 1187.21 414.789C1189.64 431.234 1191.69 450.376 1190.6 462.877C1190.49 462.849 1190.37 462.82 1190.25 462.79C1188.92 462.467 1186.97 461.993 1184.47 461.39C1179.46 460.186 1172.26 458.468 1163.46 456.417C1145.88 452.314 1121.92 446.875 1096.47 441.529C1071.02 436.183 1044.05 430.928 1020.44 427.197C996.9 423.477 976.549 421.246 964.357 422C962.154 422 959.789 422.016 957.453 422.031C952.849 422.062 948.359 422.092 945.451 422Z" stroke="#DFE6FF" stroke-width="3"/>
</g>
<g opacity="0.85" filter="url(#filter1_d)">
<path d="M1102.08 420.979C1116.14 420.08 1158.3 414.834 1182.56 384.256C1182.84 383.905 1183.4 384.032 1183.49 384.475C1185.13 392.776 1195.14 445.22 1191.34 470.044C1190.48 475.667 1187.1 480.584 1182.17 483.398C1170.81 489.871 1144.6 502.932 1111.89 507.047C1108.6 507.459 1105.66 504.974 1105.54 501.656C1105.02 486.873 1103.26 448.467 1098.44 425.773C1097.93 423.398 1099.66 421.132 1102.08 420.979Z" fill="#CFD7F8"/>
</g>
<path opacity="0.87" d="M743.44 380.907C745.466 385.557 759.315 413.418 803.737 423.192C807.654 424.055 810.419 427.57 810.384 431.585L809.758 503.997C809.719 508.537 806.087 512.223 801.554 512.337C785.421 512.745 749.526 505.386 743.16 492.159C742.661 491.129 742.569 489.946 742.578 488.797L743.164 380.968C743.164 380.806 743.374 380.758 743.44 380.907Z" fill="#CFD7F8"/>
<path opacity="0.88" d="M1111.29 429.411C1115.27 428.824 1123.29 427.57 1128.62 426.22C1130.13 425.839 1131.62 426.869 1131.83 428.407L1135.11 452.767C1135.29 454.055 1134.46 455.269 1133.2 455.58C1128.93 456.645 1119.56 458.898 1115.12 459.319C1114.19 459.407 1113.36 458.745 1113.21 457.82L1109.26 432.181C1109.05 430.853 1109.96 429.608 1111.29 429.411Z" fill="#4D6DE9"/>
<path opacity="0.87" d="M1142.71 423.122C1146.65 421.956 1154.93 419.418 1158.96 417.543C1160.06 417.03 1161.35 417.665 1161.56 418.827C1162.62 424.708 1165.14 438.992 1165.5 444.194C1165.58 445.233 1165.02 446.219 1164.08 446.723C1161.44 448.139 1155.25 450.939 1146.75 451.566C1145.88 451.632 1145.11 451.036 1144.97 450.203L1140.89 425.958C1140.68 424.704 1141.46 423.494 1142.71 423.122Z" fill="#4D6DE9"/>
<path opacity="0.88" d="M1116.13 482.219L1116.56 492.913C1116.61 494.026 1117.6 494.855 1118.7 494.697C1127.32 493.435 1160.75 487.886 1175.69 475.798C1176.28 475.321 1176.61 474.589 1176.56 473.83L1176.05 464.973C1175.98 463.741 1174.69 462.966 1173.57 463.487C1164.89 467.515 1134.02 478.695 1118.13 480.282C1116.83 480.413 1116.09 481.106 1116.13 482.219Z" fill="#4D6DE9"/>
<path d="M1055.99 342.426C1070.19 345.196 1106.82 353.449 1135.11 369.468C1136.65 370.344 1137.6 371.992 1137.58 373.767L1137.55 377.839C1137.52 381.314 1133.98 383.65 1130.78 382.3C1114.55 375.459 1073.08 360.04 1054.11 356.955C1052.06 356.622 1050.42 355.083 1050.36 353.002L1050.18 347.374C1050.08 344.241 1052.91 341.826 1055.99 342.426Z" fill="#CFD7F8"/>
<path d="M1053.93 363.706C1062.89 365.451 1086 370.65 1103.84 380.74C1104.82 381.293 1105.42 382.331 1105.4 383.449L1105.38 386.013C1105.36 388.203 1103.13 389.674 1101.11 388.824C1090.87 384.514 1064.71 374.802 1052.75 372.858C1051.46 372.649 1050.42 371.68 1050.38 370.368L1050.27 366.823C1050.21 364.849 1051.99 363.328 1053.93 363.706Z" fill="#E9EFFF" fill-opacity="0.6"/>
<g filter="url(#filter2_d)">
<path d="M790.382 337.504L843.197 319.289C845.809 318.39 848.645 319.832 849.463 322.475L855.817 343.065C856.604 345.612 855.283 348.333 852.797 349.289L800.976 369.217C799.059 369.954 796.919 368.95 796.254 367.004L787.914 342.557C787.205 340.479 788.308 338.218 790.382 337.504Z" fill="#8C9FE8"/>
</g>
<path opacity="0.71" d="M821.682 428.722C824.314 428.722 826.447 426.586 826.447 423.95C826.447 421.314 824.314 419.177 821.682 419.177C819.05 419.177 816.917 421.314 816.917 423.95C816.917 426.586 819.05 428.722 821.682 428.722Z" fill="white"/>
<path opacity="0.71" d="M827.775 408.734C827.788 407.218 826.625 405.98 825.177 405.967C823.73 405.955 822.546 407.173 822.533 408.688C822.519 410.203 823.682 411.442 825.13 411.454C826.577 411.467 827.762 410.249 827.775 408.734Z" stroke="white" stroke-width="3" stroke-miterlimit="10"/>
<path d="M1130.4 486C1130.4 486 1133.94 481.332 1140.12 483.862C1146.31 486.392 1149.2 480.805 1149.2 480.805C1149.2 480.805 1151.91 475.935 1157.04 477.997C1162.16 480.063 1165.4 475 1165.4 475" stroke="white" stroke-width="4" stroke-miterlimit="10" stroke-linecap="round"/>
<path d="M1113.36 457.337C1113.07 458.424 1114 459.45 1115.12 459.323C1120.04 458.753 1134.53 456.198 1135.14 454.037C1135.6 452.376 1131.75 449.032 1126.35 448.274C1124.36 447.993 1122.38 448.331 1120.54 449.155C1117.78 450.378 1114.13 454.462 1113.36 457.337Z" fill="white"/>
<path d="M1128.23 439.877C1128.26 436.847 1125.65 434.367 1122.41 434.339C1119.17 434.311 1116.52 436.745 1116.5 439.775C1116.47 442.806 1119.08 445.285 1122.32 445.314C1125.56 445.342 1128.21 442.908 1128.23 439.877Z" fill="white"/>
<path d="M1158.8 432.097C1158.83 429.067 1156.22 426.587 1152.98 426.559C1149.74 426.531 1147.09 428.965 1147.06 431.995C1147.04 435.026 1149.64 437.505 1152.88 437.533C1156.13 437.561 1158.77 435.128 1158.8 432.097Z" fill="white"/>
<path d="M1145.02 449.703C1144.87 450.751 1145.75 451.654 1146.81 451.566C1151.59 451.15 1164.81 448.34 1165.49 445.833C1165.94 444.164 1162.67 440.351 1157.38 439.57C1155.42 439.281 1153.48 439.632 1151.67 440.486C1148.85 441.81 1145.47 446.548 1145.02 449.703Z" fill="white"/>
<g filter="url(#filter3_d)">
<path d="M737.676 404.039C744.485 410.718 764.639 428.486 789.292 431.694C790.583 431.86 791.55 432.961 791.541 434.262L791.016 495.139C791.003 496.73 789.612 497.961 788.036 497.768C779.381 496.721 753.556 492.54 735.278 478.445C734.464 477.818 733.992 476.845 734.009 475.82L735.147 405.077C735.164 403.767 736.74 403.118 737.676 404.039Z" fill="#6688FF"/>
</g>
<g filter="url(#filter4_d)">
<path d="M1167.96 606.698L1101.78 606.124C1094.14 606.058 1087.94 599.738 1088.01 592.086L1088.18 572.403C1088.24 564.746 1094.55 558.54 1102.19 558.606L1168.38 559.18C1176.02 559.246 1182.22 565.566 1182.15 573.218L1181.98 592.901C1181.91 600.553 1175.61 606.764 1167.96 606.698Z" fill="#5071F3"/>
</g>
<path d="M1119.02 590.832L1118.74 590.829C1117.86 590.821 1117.14 590.093 1117.15 589.206L1117.28 574.594C1117.28 573.71 1118.01 572.993 1118.9 573L1119.17 573.004C1120.06 573.011 1120.77 573.739 1120.77 574.626L1120.64 589.238C1120.63 590.122 1119.9 590.839 1119.02 590.832Z" fill="white"/>
<path d="M1110.4 581.907L1110.41 581.629C1110.41 580.746 1111.14 580.028 1112.03 580.035L1126.62 580.161C1127.5 580.169 1128.21 580.897 1128.21 581.784L1128.2 582.062C1128.2 582.945 1127.47 583.663 1126.58 583.656L1111.99 583.53C1111.11 583.522 1110.4 582.79 1110.4 581.907Z" fill="white"/>
<path d="M1151.9 582C1154.94 582 1157.4 579.538 1157.4 576.5C1157.4 573.462 1154.94 571 1151.9 571C1148.87 571 1146.4 573.462 1146.4 576.5C1146.4 579.538 1148.87 582 1151.9 582Z" fill="white"/>
<path d="M1142.4 592.837L1162.38 593C1163.18 593.006 1163.67 592.1 1163.25 591.407C1161.87 589.172 1158.66 585.354 1152.6 585.003C1152.57 585.003 1152.55 585 1152.53 585C1151.92 585.003 1144.13 585.185 1141.49 591.382C1141.2 592.066 1141.68 592.831 1142.4 592.837Z" fill="white"/>
<path d="M787.316 648.053L751.463 647.742C747.322 647.706 743.966 644.282 744.001 640.137L744.094 629.474C744.129 625.327 747.547 621.965 751.686 622L787.539 622.311C791.68 622.347 795.036 625.771 795.001 629.916L794.908 640.579C794.873 644.724 791.457 648.088 787.316 648.053Z" fill="#CBD5FF"/>
<path d="M760.801 639.458L760.651 639.456C760.173 639.452 759.785 639.057 759.789 638.577L759.857 630.661C759.861 630.183 760.255 629.794 760.735 629.798L760.885 629.8C761.363 629.804 761.751 630.198 761.747 630.679L761.679 638.594C761.673 639.073 761.279 639.462 760.801 639.458Z" fill="white"/>
<path d="M756.134 634.623L756.136 634.473C756.14 633.994 756.534 633.605 757.013 633.609L764.916 633.678C765.394 633.682 765.782 634.076 765.778 634.557L765.776 634.707C765.772 635.186 765.378 635.575 764.899 635.571L756.996 635.502C756.518 635.498 756.13 635.102 756.134 634.623Z" fill="white"/>
<path d="M778.615 634.674C780.261 634.674 781.595 633.34 781.595 631.694C781.595 630.049 780.261 628.715 778.615 628.715C776.97 628.715 775.636 630.049 775.636 631.694C775.636 633.34 776.97 634.674 778.615 634.674Z" fill="white"/>
<path d="M773.469 640.544L784.293 640.633C784.723 640.636 784.992 640.145 784.761 639.77C784.015 638.559 782.274 636.491 778.994 636.301C778.98 636.301 778.967 636.299 778.953 636.299C778.625 636.301 774.403 636.399 772.974 639.756C772.817 640.127 773.078 640.541 773.469 640.544Z" fill="white"/>
<path d="M1074.62 293.031L1040.17 292.732C1036.19 292.698 1032.97 289.408 1033 285.426L1033.09 275.181C1033.12 271.196 1036.41 267.966 1040.38 268L1074.83 268.299C1078.81 268.333 1082.03 271.623 1082 275.605L1081.91 285.85C1081.88 289.833 1078.6 293.065 1074.62 293.031Z" fill="#CBD5FF"/>
<path d="M1049.14 284.773L1049 284.771C1048.54 284.768 1048.17 284.389 1048.17 283.927L1048.23 276.322C1048.24 275.862 1048.62 275.488 1049.08 275.492L1049.22 275.494C1049.68 275.498 1050.05 275.877 1050.05 276.339L1049.98 283.944C1049.98 284.404 1049.6 284.777 1049.14 284.773Z" fill="white"/>
<path d="M1044.66 280.128L1044.66 279.984C1044.66 279.524 1045.04 279.151 1045.5 279.154L1053.1 279.22C1053.55 279.224 1053.93 279.603 1053.92 280.065L1053.92 280.209C1053.92 280.669 1053.54 281.042 1053.08 281.039L1045.49 280.973C1045.03 280.969 1044.65 280.588 1044.66 280.128Z" fill="white"/>
<path d="M1066.26 280.176C1067.84 280.176 1069.12 278.895 1069.12 277.314C1069.12 275.733 1067.84 274.451 1066.26 274.451C1064.68 274.451 1063.4 275.733 1063.4 277.314C1063.4 278.895 1064.68 280.176 1066.26 280.176Z" fill="white"/>
<path d="M1061.31 285.817L1071.71 285.902C1072.13 285.905 1072.38 285.434 1072.16 285.073C1071.45 283.91 1069.77 281.923 1066.62 281.74C1066.61 281.74 1066.6 281.738 1066.58 281.738C1066.27 281.74 1062.21 281.835 1060.84 285.06C1060.69 285.416 1060.94 285.814 1061.31 285.817Z" fill="white"/>
<path d="M929.267 261.023C924.348 266.865 915.554 278.045 912.227 286.965C911.906 287.827 912.137 288.81 912.781 289.265C914.681 290.609 919.055 293.029 925.234 292.361C925.903 292.291 926.472 291.663 926.617 290.853L931.717 262.611C932.034 260.855 930.334 259.754 929.267 261.023Z" fill="white"/>
<path d="M842.266 331.302L819.569 338.917C818.707 339.205 817.769 338.721 817.485 337.834C817.203 336.952 817.676 335.99 818.54 335.698L841.238 328.083C842.1 327.795 843.038 328.279 843.322 329.166C843.604 330.052 843.128 331.013 842.266 331.302Z" fill="#E8E7F7" fill-opacity="0.55"/>
<path opacity="0.87" d="M844.259 337.14L816.582 345.921C815.715 346.195 814.772 345.735 814.485 344.891C814.202 344.052 814.677 343.137 815.547 342.86L843.225 334.079C844.092 333.805 845.035 334.265 845.322 335.109C845.605 335.952 845.126 336.866 844.259 337.14Z" fill="#E8E7F7" fill-opacity="0.55"/>
<path opacity="0.87" d="M846.266 343.302L823.569 350.917C822.707 351.205 821.769 350.721 821.485 349.834C821.203 348.952 821.676 347.99 822.54 347.698L845.238 340.083C846.1 339.795 847.038 340.279 847.322 341.166C847.604 342.052 847.128 343.013 846.266 343.302Z" fill="#E8E7F7" fill-opacity="0.55"/>
<path d="M762.045 423.319C760.859 423.428 759.664 423.214 758.557 422.775C755.897 421.724 751.328 421.079 747.662 426.518C742.131 434.723 741.864 429.577 738.648 434.521C736.097 438.439 736.569 435.402 735.37 440.845C734.561 444.536 733.734 452.78 734.346 455.65C734.959 458.521 738.284 463.912 742.56 462.961C746.839 462.01 736.394 463.658 743.969 468.987C751.547 474.317 775.509 482.933 779.403 476.162C783.298 469.39 784.116 469.596 781.862 464.88C779.609 460.16 786.982 465.086 787.8 459.959C788.404 456.189 790.224 452.482 788.378 449.497C787.376 447.88 787.078 445.969 787.301 444.08C787.398 443.274 787.175 442.217 786.369 440.841C783.74 436.362 786.102 433.057 780.992 431.905C779.876 431.655 779.39 429.626 778.301 429.279C776.546 428.718 773.395 427.386 771.006 427.136C769.527 426.983 768.136 426.365 766.941 425.471C765.458 424.362 763.506 423.183 762.045 423.319Z" fill="#22283F"/>
<path d="M770.411 458.354C770.411 458.354 769.938 474.597 770.393 476.819C770.848 479.041 761.441 480.584 761.441 480.584L758.509 467.26L770.411 458.354Z" fill="#F9D79E"/>
<path d="M759.135 434.521C759.135 434.521 741.519 436.985 749.509 464.679C749.509 464.679 755.245 478.016 767.738 465.705C767.738 465.705 772.039 462.216 772.245 460.577C772.451 458.938 775.522 463.448 778.389 459.963C781.255 456.475 781.666 450.466 778.389 450.703C775.111 450.939 774.499 451.864 774.499 451.864C774.499 451.864 779.614 434.521 759.135 434.521Z" fill="#F9E7CB"/>
<path fill-rule="evenodd" clip-rule="evenodd" d="M791.072 488.665L791.016 495.139C791.003 496.73 789.612 497.961 788.036 497.768C779.381 496.721 753.556 492.54 735.278 478.445C734.464 477.818 733.992 476.845 734.009 475.82L734.073 471.854C739.429 469.721 759.988 474.777 759.988 474.777C760.195 474.779 760.453 475.326 760.794 476.053C762.09 478.812 764.601 484.156 770.197 472.067C770.197 472.067 787.116 483.81 791.072 488.665Z" fill="#FFC14F"/>
<path d="M748.905 453.345C751.993 453.345 754.497 450.837 754.497 447.744C754.497 444.65 751.993 442.143 748.905 442.143C745.816 442.143 743.312 444.65 743.312 447.744C743.312 450.837 745.816 453.345 748.905 453.345Z" stroke="#E68F46" stroke-width="2" stroke-miterlimit="10"/>
<path d="M764.464 457.171C767.553 457.171 770.056 454.663 770.056 451.57C770.056 448.476 767.553 445.969 764.464 445.969C761.376 445.969 758.872 448.476 758.872 451.57C758.872 454.663 761.376 457.171 764.464 457.171Z" stroke="#E68F46" stroke-width="2" stroke-miterlimit="10"/>
<path d="M993.871 473.408L976.142 472.69L954.501 471.781L915.13 473.408C905.13 483.311 899.479 496.801 899.479 510.818V823.784H954.452H1009.47V510.818C1009.47 496.801 1003.87 483.358 993.871 473.408Z" fill="url(#paint3_linear)"/>
<path d="M993.871 473.408L976.142 472.69L954.501 471.781L915.13 473.408C905.13 483.311 899.479 496.801 899.479 510.818V823.784H954.452H1009.47V510.818C1009.47 496.801 1003.87 483.358 993.871 473.408Z" fill="url(#paint4_linear)"/>
<path d="M993.87 328.216V522.205H915.129V328.216C928.027 329.699 941.167 330.512 954.499 330.512C967.832 330.512 980.924 329.747 993.87 328.216Z" fill="#A190FF"/>
<path d="M993.87 328.216V522.205H915.129V328.216C928.027 329.699 941.167 330.512 954.499 330.512C967.832 330.512 980.924 329.747 993.87 328.216Z" fill="url(#paint5_linear)"/>
<path d="M993.871 293.532V327.498C980.393 328.837 966.529 329.555 952.423 329.555C946.239 329.555 940.104 329.411 934.018 329.172C927.689 328.885 921.409 328.455 915.178 327.928V293.58C915.178 293.58 915.178 260.188 945.611 230.671C948.075 228.279 951.312 227.083 954.548 227.083C957.785 227.083 960.973 228.279 963.485 230.671C993.871 260.14 993.871 293.532 993.871 293.532Z" fill="#A9BBFF"/>
<path d="M938.123 417.819C928.752 440.734 927.689 447.24 935.37 464.127C943.051 481.015 941.988 483.741 938.655 495.175C936.433 502.781 916.095 522.204 932.906 522.204H915.129V293.532C915.129 293.532 915.129 260.14 945.563 230.623C948.026 228.231 951.263 227.035 954.5 227.035C954.5 227.035 926.578 259.04 934.838 273.822C943.099 288.604 929.573 292.432 933.293 312.859C934.5 319.461 934.452 324.484 933.969 329.124C932.954 338.788 930.008 346.729 932.616 363.952C936.481 389.498 947.495 394.951 938.123 417.819Z" fill="#A190FF"/>
<path d="M933.293 312.907C934.5 319.509 934.452 324.532 933.969 329.172C927.641 328.885 921.361 328.455 915.129 327.928V293.58C915.129 293.58 915.129 260.188 945.563 230.671C948.026 228.279 951.263 227.083 954.5 227.083C954.5 227.083 926.578 259.088 934.838 273.87C943.099 288.652 929.573 292.432 933.293 312.907Z" fill="#A190FF"/>
<path d="M959.91 234.451H949.041C946.722 234.451 944.79 232.585 944.79 230.241V215.363C944.79 210.723 948.606 206.943 953.292 206.943H955.611C960.297 206.943 964.113 210.723 964.113 215.363V230.241C964.161 232.585 962.277 234.451 959.91 234.451Z" fill="#A9BBFF"/>
<path d="M957.253 223.734H951.746V149.727C951.746 148.196 953.002 147 954.5 147C956.045 147 957.253 148.244 957.253 149.727V223.734Z" fill="#A9BBFF"/>
<path d="M1009.47 604.439V659.503C997.446 660.938 985.321 661.943 973.051 662.421V633.526C973.051 629.842 970.007 626.828 966.288 626.828H942.617C938.897 626.828 935.854 629.842 935.854 633.526V662.373C923.584 661.895 911.459 660.89 899.479 659.455V604.439C917.497 606.592 935.854 607.74 954.452 607.74C973.051 607.74 991.456 606.64 1009.47 604.439Z" fill="#6952C5"/>
<path d="M993.87 326.254V346.49C980.972 348.021 967.832 348.834 954.499 348.834C941.167 348.834 928.075 348.021 915.129 346.49V326.254C928.027 327.785 941.167 328.598 954.499 328.598C967.832 328.598 980.924 327.785 993.87 326.254Z" fill="#6952C5"/>
<path d="M1011.65 823.784H975.369V756.139C975.369 737.482 990.634 722.316 1009.52 722.316V754.512C1009.52 760.492 1010.39 766.472 1012.13 772.069L1022.32 805.318C1025.03 814.312 1019.52 823.784 1011.65 823.784Z" fill="#6952C5"/>
<path d="M897.353 823.784H933.631V756.139C933.631 737.482 918.366 722.316 899.478 722.316V754.512C899.478 760.492 898.609 766.472 896.869 772.069L886.677 805.318C883.971 814.312 889.478 823.784 897.353 823.784Z" fill="#6952C5"/>
<path d="M1005.46 835.409H903.536C900.299 835.409 897.69 832.826 897.69 829.621C897.69 826.415 900.299 823.832 903.536 823.832H1005.51C1008.75 823.832 1011.36 826.415 1011.36 829.621C1011.36 832.826 1008.7 835.409 1005.46 835.409Z" fill="#FFD78D"/>
<path d="M938.027 845.503L936.047 838.04C935.612 836.462 934.211 835.361 932.568 835.361H924.888H917.255C915.612 835.361 914.163 836.462 913.777 838.04L911.796 845.503C911.217 847.752 912.907 850 915.274 850H924.888H934.501C936.868 850 938.607 847.8 938.027 845.503Z" fill="#4F3AA2"/>
<path d="M998.508 845.503L996.528 838.04C996.093 836.462 994.692 835.361 993.049 835.361H985.417H977.784C976.142 835.361 974.693 836.462 974.306 838.04L972.326 845.503C971.746 847.752 973.437 850 975.804 850H985.417H995.03C997.349 850 999.088 847.8 998.508 845.503Z" fill="#4F3AA2"/>
<path d="M968.268 845.503L966.287 838.04C965.853 836.462 964.452 835.361 962.809 835.361H955.177H947.544C945.902 835.361 944.452 836.462 944.066 838.04L942.085 845.503C941.506 847.752 943.196 850 945.563 850H955.177H964.741C967.109 850 968.848 847.8 968.268 845.503Z" fill="#4F3AA2"/>
<path d="M846.5 906.464C846.5 907.293 847.172 907.964 848 907.964C848.828 907.964 849.5 907.293 849.5 906.464H846.5ZM848 527V525.5C847.172 525.5 846.5 526.172 846.5 527H848ZM1062 527H1063.5C1063.5 526.172 1062.83 525.5 1062 525.5V527ZM1060.5 952C1060.5 952.828 1061.17 953.5 1062 953.5C1062.83 953.5 1063.5 952.828 1063.5 952H1060.5ZM849.5 901.599C849.5 900.771 848.828 900.099 848 900.099C847.172 900.099 846.5 900.771 846.5 901.599H849.5ZM846.5 882.14C846.5 882.968 847.172 883.64 848 883.64C848.828 883.64 849.5 882.968 849.5 882.14H846.5ZM849.5 872.41C849.5 871.581 848.828 870.91 848 870.91C847.172 870.91 846.5 871.581 846.5 872.41H849.5ZM846.5 852.95C846.5 853.779 847.172 854.45 848 854.45C848.828 854.45 849.5 853.779 849.5 852.95H846.5ZM849.5 843.22C849.5 842.392 848.828 841.72 848 841.72C847.172 841.72 846.5 842.392 846.5 843.22H849.5ZM846.5 823.761C846.5 824.589 847.172 825.261 848 825.261C848.828 825.261 849.5 824.589 849.5 823.761H846.5ZM849.5 814.031C849.5 813.202 848.828 812.531 848 812.531C847.172 812.531 846.5 813.202 846.5 814.031H849.5ZM846.5 794.571C846.5 795.399 847.172 796.071 848 796.071C848.828 796.071 849.5 795.399 849.5 794.571H846.5ZM849.5 784.841C849.5 784.013 848.828 783.341 848 783.341C847.172 783.341 846.5 784.013 846.5 784.841H849.5ZM846.5 765.381C846.5 766.21 847.172 766.881 848 766.881C848.828 766.881 849.5 766.21 849.5 765.381H846.5ZM849.5 755.652C849.5 754.823 848.828 754.152 848 754.152C847.172 754.152 846.5 754.823 846.5 755.652H849.5ZM846.5 736.192C846.5 737.02 847.172 737.692 848 737.692C848.828 737.692 849.5 737.02 849.5 736.192H846.5ZM849.5 726.462C849.5 725.634 848.828 724.962 848 724.962C847.172 724.962 846.5 725.634 846.5 726.462H849.5ZM846.5 707.002C846.5 707.831 847.172 708.502 848 708.502C848.828 708.502 849.5 707.831 849.5 707.002H846.5ZM849.5 697.272C849.5 696.444 848.828 695.772 848 695.772C847.172 695.772 846.5 696.444 846.5 697.272H849.5ZM846.5 677.813C846.5 678.641 847.172 679.313 848 679.313C848.828 679.313 849.5 678.641 849.5 677.813H846.5ZM849.5 668.083C849.5 667.254 848.828 666.583 848 666.583C847.172 666.583 846.5 667.254 846.5 668.083H849.5ZM846.5 648.623C846.5 649.452 847.172 650.123 848 650.123C848.828 650.123 849.5 649.452 849.5 648.623H846.5ZM849.5 638.893C849.5 638.065 848.828 637.393 848 637.393C847.172 637.393 846.5 638.065 846.5 638.893H849.5ZM846.5 619.434C846.5 620.262 847.172 620.934 848 620.934C848.828 620.934 849.5 620.262 849.5 619.434H846.5ZM849.5 609.704C849.5 608.875 848.828 608.204 848 608.204C847.172 608.204 846.5 608.875 846.5 609.704H849.5ZM846.5 590.244C846.5 591.072 847.172 591.744 848 591.744C848.828 591.744 849.5 591.072 849.5 590.244H846.5ZM849.5 580.514C849.5 579.686 848.828 579.014 848 579.014C847.172 579.014 846.5 579.686 846.5 580.514H849.5ZM846.5 561.054C846.5 561.883 847.172 562.554 848 562.554C848.828 562.554 849.5 561.883 849.5 561.054H846.5ZM849.5 551.325C849.5 550.496 848.828 549.825 848 549.825C847.172 549.825 846.5 550.496 846.5 551.325H849.5ZM846.5 531.865C846.5 532.693 847.172 533.365 848 533.365C848.828 533.365 849.5 532.693 849.5 531.865H846.5ZM853.095 528.5C853.924 528.5 854.595 527.828 854.595 527C854.595 526.172 853.924 525.5 853.095 525.5V528.5ZM873.476 525.5C872.648 525.5 871.976 526.172 871.976 527C871.976 527.828 872.648 528.5 873.476 528.5V525.5ZM883.667 528.5C884.495 528.5 885.167 527.828 885.167 527C885.167 526.172 884.495 525.5 883.667 525.5V528.5ZM904.048 525.5C903.219 525.5 902.548 526.172 902.548 527C902.548 527.828 903.219 528.5 904.048 528.5V525.5ZM914.238 528.5C915.067 528.5 915.738 527.828 915.738 527C915.738 526.172 915.067 525.5 914.238 525.5V528.5ZM934.619 525.5C933.791 525.5 933.119 526.172 933.119 527C933.119 527.828 933.791 528.5 934.619 528.5V525.5ZM944.81 528.5C945.638 528.5 946.31 527.828 946.31 527C946.31 526.172 945.638 525.5 944.81 525.5V528.5ZM965.19 525.5C964.362 525.5 963.69 526.172 963.69 527C963.69 527.828 964.362 528.5 965.19 528.5V525.5ZM975.381 528.5C976.209 528.5 976.881 527.828 976.881 527C976.881 526.172 976.209 525.5 975.381 525.5V528.5ZM995.762 525.5C994.933 525.5 994.262 526.172 994.262 527C994.262 527.828 994.933 528.5 995.762 528.5V525.5ZM1005.95 528.5C1006.78 528.5 1007.45 527.828 1007.45 527C1007.45 526.172 1006.78 525.5 1005.95 525.5V528.5ZM1026.33 525.5C1025.5 525.5 1024.83 526.172 1024.83 527C1024.83 527.828 1025.5 528.5 1026.33 528.5V525.5ZM1036.52 528.5C1037.35 528.5 1038.02 527.828 1038.02 527C1038.02 526.172 1037.35 525.5 1036.52 525.5V528.5ZM1056.9 525.5C1056.08 525.5 1055.4 526.172 1055.4 527C1055.4 527.828 1056.08 528.5 1056.9 528.5V525.5ZM1060.5 532.06C1060.5 532.888 1061.17 533.56 1062 533.56C1062.83 533.56 1063.5 532.888 1063.5 532.06H1060.5ZM1063.5 552.298C1063.5 551.469 1062.83 550.798 1062 550.798C1061.17 550.798 1060.5 551.469 1060.5 552.298H1063.5ZM1060.5 562.417C1060.5 563.245 1061.17 563.917 1062 563.917C1062.83 563.917 1063.5 563.245 1063.5 562.417H1060.5ZM1063.5 582.655C1063.5 581.826 1062.83 581.155 1062 581.155C1061.17 581.155 1060.5 581.826 1060.5 582.655H1063.5ZM1060.5 592.774C1060.5 593.602 1061.17 594.274 1062 594.274C1062.83 594.274 1063.5 593.602 1063.5 592.774H1060.5ZM1063.5 613.012C1063.5 612.183 1062.83 611.512 1062 611.512C1061.17 611.512 1060.5 612.183 1060.5 613.012H1063.5ZM1060.5 623.131C1060.5 623.959 1061.17 624.631 1062 624.631C1062.83 624.631 1063.5 623.959 1063.5 623.131H1060.5ZM1063.5 643.369C1063.5 642.541 1062.83 641.869 1062 641.869C1061.17 641.869 1060.5 642.541 1060.5 643.369H1063.5ZM1060.5 653.488C1060.5 654.317 1061.17 654.988 1062 654.988C1062.83 654.988 1063.5 654.317 1063.5 653.488H1060.5ZM1063.5 673.726C1063.5 672.898 1062.83 672.226 1062 672.226C1061.17 672.226 1060.5 672.898 1060.5 673.726H1063.5ZM1060.5 683.845C1060.5 684.674 1061.17 685.345 1062 685.345C1062.83 685.345 1063.5 684.674 1063.5 683.845H1060.5ZM1063.5 704.083C1063.5 703.255 1062.83 702.583 1062 702.583C1061.17 702.583 1060.5 703.255 1060.5 704.083H1063.5ZM1060.5 714.202C1060.5 715.031 1061.17 715.702 1062 715.702C1062.83 715.702 1063.5 715.031 1063.5 714.202H1060.5ZM1063.5 734.441C1063.5 733.612 1062.83 732.941 1062 732.941C1061.17 732.941 1060.5 733.612 1060.5 734.441H1063.5ZM1060.5 744.56C1060.5 745.388 1061.17 746.06 1062 746.06C1062.83 746.06 1063.5 745.388 1063.5 744.56H1060.5ZM1063.5 764.798C1063.5 763.969 1062.83 763.298 1062 763.298C1061.17 763.298 1060.5 763.969 1060.5 764.798H1063.5ZM1060.5 774.917C1060.5 775.745 1061.17 776.417 1062 776.417C1062.83 776.417 1063.5 775.745 1063.5 774.917H1060.5ZM1063.5 795.155C1063.5 794.326 1062.83 793.655 1062 793.655C1061.17 793.655 1060.5 794.326 1060.5 795.155H1063.5ZM1060.5 805.274C1060.5 806.102 1061.17 806.774 1062 806.774C1062.83 806.774 1063.5 806.102 1063.5 805.274H1060.5ZM1063.5 825.512C1063.5 824.684 1062.83 824.012 1062 824.012C1061.17 824.012 1060.5 824.684 1060.5 825.512H1063.5ZM1060.5 835.631C1060.5 836.459 1061.17 837.131 1062 837.131C1062.83 837.131 1063.5 836.459 1063.5 835.631H1060.5ZM1063.5 855.869C1063.5 855.041 1062.83 854.369 1062 854.369C1061.17 854.369 1060.5 855.041 1060.5 855.869H1063.5ZM1060.5 865.988C1060.5 866.817 1061.17 867.488 1062 867.488C1062.83 867.488 1063.5 866.817 1063.5 865.988H1060.5ZM1063.5 886.226C1063.5 885.398 1062.83 884.726 1062 884.726C1061.17 884.726 1060.5 885.398 1060.5 886.226H1063.5ZM1060.5 896.345C1060.5 897.174 1061.17 897.845 1062 897.845C1062.83 897.845 1063.5 897.174 1063.5 896.345H1060.5ZM1063.5 916.583C1063.5 915.755 1062.83 915.083 1062 915.083C1061.17 915.083 1060.5 915.755 1060.5 916.583H1063.5ZM1060.5 926.702C1060.5 927.531 1061.17 928.202 1062 928.202C1062.83 928.202 1063.5 927.531 1063.5 926.702H1060.5ZM1063.5 946.941C1063.5 946.112 1062.83 945.441 1062 945.441C1061.17 945.441 1060.5 946.112 1060.5 946.941H1063.5ZM849.5 906.464V901.599H846.5V906.464H849.5ZM849.5 882.14V872.41H846.5V882.14H849.5ZM849.5 852.95V843.22H846.5V852.95H849.5ZM849.5 823.761V814.031H846.5V823.761H849.5ZM849.5 794.571V784.841H846.5V794.571H849.5ZM849.5 765.381V755.652H846.5V765.381H849.5ZM849.5 736.192V726.462H846.5V736.192H849.5ZM849.5 707.002V697.272H846.5V707.002H849.5ZM849.5 677.813V668.083H846.5V677.813H849.5ZM849.5 648.623V638.893H846.5V648.623H849.5ZM849.5 619.434V609.704H846.5V619.434H849.5ZM849.5 590.244V580.514H846.5V590.244H849.5ZM849.5 561.054V551.325H846.5V561.054H849.5ZM849.5 531.865V527H846.5V531.865H849.5ZM848 528.5H853.095V525.5H848V528.5ZM873.476 528.5H883.667V525.5H873.476V528.5ZM904.048 528.5H914.238V525.5H904.048V528.5ZM934.619 528.5H944.81V525.5H934.619V528.5ZM965.19 528.5H975.381V525.5H965.19V528.5ZM995.762 528.5H1005.95V525.5H995.762V528.5ZM1026.33 528.5H1036.52V525.5H1026.33V528.5ZM1056.9 528.5H1062V525.5H1056.9V528.5ZM1060.5 527V532.06H1063.5V527H1060.5ZM1060.5 552.298V562.417H1063.5V552.298H1060.5ZM1060.5 582.655V592.774H1063.5V582.655H1060.5ZM1060.5 613.012V623.131H1063.5V613.012H1060.5ZM1060.5 643.369V653.488H1063.5V643.369H1060.5ZM1060.5 673.726V683.845H1063.5V673.726H1060.5ZM1060.5 704.083V714.202H1063.5V704.083H1060.5ZM1060.5 734.441V744.56H1063.5V734.441H1060.5ZM1060.5 764.798V774.917H1063.5V764.798H1060.5ZM1060.5 795.155V805.274H1063.5V795.155H1060.5ZM1060.5 825.512V835.631H1063.5V825.512H1060.5ZM1060.5 855.869V865.988H1063.5V855.869H1060.5ZM1060.5 886.226V896.345H1063.5V886.226H1060.5ZM1060.5 916.583V926.702H1063.5V916.583H1060.5ZM1060.5 946.941V952H1063.5V946.941H1060.5Z" fill="url(#paint6_linear)"/>
<rect x="945" y="872" width="20" height="30" rx="10" stroke="white" stroke-opacity="0.6" stroke-width="2"/>
<path d="M954 881C954 881.552 954.448 882 955 882C955.552 882 956 881.552 956 881L954 881ZM954 872L954 881L956 881L956 872L954 872Z" fill="white" fill-opacity="0.6"/>
<line x1="956" y1="929" x2="956" y2="1047" stroke="white" stroke-opacity="0.6" stroke-width="2" stroke-linecap="round"/>
<g filter="url(#filter5_d)">
<rect x="912" y="501" width="86" height="55" rx="10" fill="white"/>
</g>
<circle cx="930" cy="520" r="4" fill="#FFC14F"/>
<circle cx="930" cy="536" r="4" fill="#FFC14F"/>
<rect x="943" y="517" width="40" height="6" rx="3" fill="#DFE6FF"/>
<rect x="943" y="533" width="40" height="6" rx="3" fill="#DFE6FF"/>
<defs>
<filter id="filter0_d" x="702.564" y="282.347" width="529.836" height="251.936" filterUnits="userSpaceOnUse" color-interpolation-filters="sRGB">
<feFlood flood-opacity="0" result="BackgroundImageFix"/>
<feColorMatrix in="SourceAlpha" type="matrix" values="0 0 0 0 0 0 0 0 0 0 0 0 0 0 0 0 0 0 127 0"/>
<feOffset dy="4"/>
<feGaussianBlur stdDeviation="20"/>
<feColorMatrix type="matrix" values="0 0 0 0 0.945833 0 0 0 0 0.842974 0 0 0 0 0.756667 0 0 0 0.82 0"/>
<feBlend mode="normal" in2="BackgroundImageFix" result="effect1_dropShadow"/>
<feBlend mode="normal" in="SourceGraphic" in2="effect1_dropShadow" result="shape"/>
</filter>
<filter id="filter1_d" x="1078.35" y="369.054" width="133.847" height="163.038" filterUnits="userSpaceOnUse" color-interpolation-filters="sRGB">
<feFlood flood-opacity="0" result="BackgroundImageFix"/>
<feColorMatrix in="SourceAlpha" type="matrix" values="0 0 0 0 0 0 0 0 0 0 0 0 0 0 0 0 0 0 127 0"/>
<feOffset dy="5"/>
<feGaussianBlur stdDeviation="10"/>
<feColorMatrix type="matrix" values="0 0 0 0 0 0 0 0 0 0 0 0 0 0 0 0 0 0 0.2 0"/>
<feBlend mode="normal" in2="BackgroundImageFix" result="effect1_dropShadow"/>
<feBlend mode="normal" in="SourceGraphic" in2="effect1_dropShadow" result="shape"/>
</filter>
<filter id="filter2_d" x="777.699" y="309.021" width="88.3446" height="70.4376" filterUnits="userSpaceOnUse" color-interpolation-filters="sRGB">
<feFlood flood-opacity="0" result="BackgroundImageFix"/>
<feColorMatrix in="SourceAlpha" type="matrix" values="0 0 0 0 0 0 0 0 0 0 0 0 0 0 0 0 0 0 127 0"/>
<feOffset/>
<feGaussianBlur stdDeviation="5"/>
<feColorMatrix type="matrix" values="0 0 0 0 0 0 0 0 0 0 0 0 0 0 0 0 0 0 0.2 0"/>
<feBlend mode="normal" in2="BackgroundImageFix" result="effect1_dropShadow"/>
<feBlend mode="normal" in="SourceGraphic" in2="effect1_dropShadow" result="shape"/>
</filter>
<filter id="filter3_d" x="714.009" y="387.607" width="97.5327" height="134.181" filterUnits="userSpaceOnUse" color-interpolation-filters="sRGB">
<feFlood flood-opacity="0" result="BackgroundImageFix"/>
<feColorMatrix in="SourceAlpha" type="matrix" values="0 0 0 0 0 0 0 0 0 0 0 0 0 0 0 0 0 0 127 0"/>
<feOffset dy="4"/>
<feGaussianBlur stdDeviation="10"/>
<feColorMatrix type="matrix" values="0 0 0 0 0 0 0 0 0 0 0 0 0 0 0 0 0 0 0.1 0"/>
<feBlend mode="normal" in2="BackgroundImageFix" result="effect1_dropShadow"/>
<feBlend mode="normal" in="SourceGraphic" in2="effect1_dropShadow" result="shape"/>
</filter>
<filter id="filter4_d" x="1063.01" y="537.605" width="144.145" height="98.093" filterUnits="userSpaceOnUse" color-interpolation-filters="sRGB">
<feFlood flood-opacity="0" result="BackgroundImageFix"/>
<feColorMatrix in="SourceAlpha" type="matrix" values="0 0 0 0 0 0 0 0 0 0 0 0 0 0 0 0 0 0 127 0"/>
<feOffset dy="4"/>
<feGaussianBlur stdDeviation="12.5"/>
<feColorMatrix type="matrix" values="0 0 0 0 0 0 0 0 0 0 0 0 0 0 0 0 0 0 0.2 0"/>
<feBlend mode="normal" in2="BackgroundImageFix" result="effect1_dropShadow"/>
<feBlend mode="normal" in="SourceGraphic" in2="effect1_dropShadow" result="shape"/>
</filter>
<filter id="filter5_d" x="892" y="481" width="126" height="95" filterUnits="userSpaceOnUse" color-interpolation-filters="sRGB">
<feFlood flood-opacity="0" result="BackgroundImageFix"/>
<feColorMatrix in="SourceAlpha" type="matrix" values="0 0 0 0 0 0 0 0 0 0 0 0 0 0 0 0 0 0 127 0"/>
<feOffset/>
<feGaussianBlur stdDeviation="10"/>
<feColorMatrix type="matrix" values="0 0 0 0 0 0 0 0 0 0 0 0 0 0 0 0 0 0 0.2 0"/>
<feBlend mode="normal" in2="BackgroundImageFix" result="effect1_dropShadow"/>
<feBlend mode="normal" in="SourceGraphic" in2="effect1_dropShadow" result="shape"/>
</filter>
<radialGradient id="paint0_radial" cx="0" cy="0" r="1" gradientUnits="userSpaceOnUse" gradientTransform="translate(969 892.5) rotate(90) scale(99.5 606.173)">
<stop offset="0.046875" stop-color="#FFF9ED"/>
<stop offset="0.427083" stop-color="#FFB94E"/>
<stop offset="1" stop-color="#FF7448"/>
</radialGradient>
<linearGradient id="paint1_linear" x1="919.5" y1="971" x2="925" y2="845.5" gradientUnits="userSpaceOnUse">
<stop stop-color="#FDD67B"/>
<stop offset="0.619792" stop-color="white"/>
</linearGradient>
<linearGradient id="paint2_linear" x1="983.355" y1="842.162" x2="1018" y2="980" gradientUnits="userSpaceOnUse">
<stop offset="0.302083" stop-color="white"/>
<stop offset="1" stop-color="#FFC14F"/>
</linearGradient>
<linearGradient id="paint3_linear" x1="954.477" y1="471.781" x2="954.477" y2="823.784" gradientUnits="userSpaceOnUse">
<stop stop-color="#A088FF"/>
<stop offset="0.0001" stop-color="#A088FF"/>
<stop offset="1" stop-color="#A9BCFF"/>
</linearGradient>
<linearGradient id="paint4_linear" x1="962" y1="886.5" x2="962" y2="679" gradientUnits="userSpaceOnUse">
<stop stop-color="#FFCF76"/>
<stop offset="1" stop-color="white" stop-opacity="0"/>
</linearGradient>
<linearGradient id="paint5_linear" x1="954" y1="399" x2="954.499" y2="522.205" gradientUnits="userSpaceOnUse">
<stop stop-color="#A9BBFF"/>
<stop offset="1" stop-color="#A190FF"/>
</linearGradient>
<linearGradient id="paint6_linear" x1="955" y1="527" x2="955" y2="952" gradientUnits="userSpaceOnUse">
<stop stop-color="#C9D3FF"/>
<stop offset="0.828125" stop-color="#FCFCFC" stop-opacity="0"/>
</linearGradient>
</defs>
</svg>
