<svg width="692" height="671" viewBox="0 0 692 671" fill="none" xmlns="http://www.w3.org/2000/svg">
<path d="M69.3448 284.491C63.882 337.29 59.4517 404.031 82.9583 447.749C103.943 486.778 156.262 526.646 191.218 553.464C243.812 593.813 293.967 622 380.186 622C451.669 622 490.391 592.504 541.279 553.464C559.106 539.787 624.22 515.316 655.161 457.771C678.668 414.053 692 364.079 692 311C692 264.1 667.728 231.472 662.952 179.746C655.161 95.369 603.697 87.4744 559.106 56.2611C514.516 25.0477 446.76 0 380.186 0C279.382 0 231.591 49.0808 175.66 102.158C115.958 158.813 82.9583 152.914 69.3448 284.491Z" fill="#FCFCFC"/>
<path fill-rule="evenodd" clip-rule="evenodd" d="M47.7251 378.246C44.262 409.043 88.4516 480.349 90.1785 481.447L92.3736 485.692L100.516 474.78C99.9927 458.399 95.9721 442.336 90.7086 428.016C97.2481 395.904 88.5395 376.799 88.5395 376.799C83.4392 367.321 79.5507 376.96 79.5507 376.96C76.9499 381.612 75.592 387.781 75.0397 394.481C67.8384 381.771 61.9242 373.955 61.9242 373.955C51.0507 361.521 47.7251 378.246 47.7251 378.246Z" fill="url(#paint0_linear)"/>
<path d="M70.5045 488.172C70.5045 488.172 9.77847 430.376 2.40831 390.312C2.40831 390.312 -5.04242 350.705 14.2713 374.545C14.2713 374.545 47.1386 423.493 54.4584 439.476C54.4584 439.476 52.5142 417.521 63.6477 436.103C63.6477 436.103 81.1637 472.819 80.3004 488.007C80.3004 500.233 70.5045 488.172 70.5045 488.172Z" fill="#FE774C"/>
<path d="M106.091 511.779C106.091 511.779 61.5169 470.707 64.2643 444.435C66.9257 418.179 93.3749 444.707 93.3749 444.707C93.3749 444.707 74.2023 393.833 91.8769 382.602C109.551 371.371 132.534 445.984 134.186 455.012C134.186 455.012 139.758 416.494 150.239 455.807C150.239 455.807 160.759 408.386 178.236 416.474C178.236 416.474 192.36 411.58 180.197 473.34C168.035 535.101 130.385 526.528 130.385 526.528L106.091 511.779Z" fill="#FEBA4B"/>
<path d="M165.445 538.131C134.422 533.261 104.071 522.385 80.896 501.195C66.6536 488.172 55.1287 474.278 61.139 467.377C70.8882 453.577 87.4909 470.496 90.8451 474.171C90.8451 474.171 85.6956 444.705 104.107 468.28C104.107 468.28 123.159 488.128 124.277 489.353C125.395 490.578 115.049 442.952 144.65 480.303C144.65 480.303 150.407 456.226 165.832 462.955C181.257 469.685 284.48 480.303 284.48 480.303C312.438 509.349 287.475 557.287 247.648 551.035L165.445 538.131Z" fill="white"/>
<path fill-rule="evenodd" clip-rule="evenodd" d="M632.368 378.246C636.834 403.78 591.641 480.349 589.915 481.447L587.719 485.692L579.577 474.78C580.097 458.514 584.065 442.561 589.274 428.317C584.282 402.024 591.553 376.799 591.553 376.799C596.283 369.846 600.542 376.961 600.542 376.961C603.594 380.095 604.98 386.402 605.37 393.924C612.427 381.543 618.169 373.955 618.169 373.955C630.814 360.08 632.368 378.246 632.368 378.246Z" fill="url(#paint1_linear)"/>
<path d="M609.589 488.172C609.589 488.172 674.793 430.248 677.685 390.312C677.685 390.312 682.175 359.913 665.822 374.544C665.822 374.544 640.016 401.198 625.635 439.475C625.635 439.475 627.579 417.52 616.445 436.103C616.445 436.103 598.929 472.818 599.793 488.006C600.569 503.19 609.589 488.172 609.589 488.172Z" fill="#FE774C"/>
<path d="M574.003 511.779C574.003 511.779 618.576 470.706 615.829 444.434C613.168 418.178 586.718 444.706 586.718 444.706C586.718 444.706 605.891 393.832 588.216 382.601C570.542 371.37 547.559 445.983 545.907 455.011C545.907 455.011 540.335 416.493 529.854 455.806C529.854 455.806 519.334 408.385 501.857 416.473C501.857 416.473 481.21 423.237 493.373 484.998C505.535 546.759 549.708 526.527 549.708 526.527L574.003 511.779Z" fill="#DEE5FE"/>
<path d="M472.609 431.335C483.179 434.732 490.856 455.087 493.373 464.84L497.148 485.604C489.975 469.371 500.732 475.253 479.107 479.655C457.946 490.849 445.42 516.998 440.623 535.229C440.589 535.361 440.555 535.494 440.519 535.626C440.553 535.494 440.588 535.362 440.623 535.229C442.269 528.684 440.758 522.658 438.1 517.699C433.24 508.63 416.591 505.004 418.179 515.171C418.613 517.944 419.896 520.799 421.171 522.885C409.467 519.864 411.261 534.525 413.62 542.233C411.352 534.824 408.807 522.507 389.553 513.446C365.485 502.121 384.362 542.233 381.53 542.233C378.699 542.233 362.182 520.053 342.362 513.446C322.542 506.84 348.025 537.514 336.699 542.233C327.639 546.008 318.501 517.348 308.857 505.896C296.776 491.55 278.654 504.952 271.104 513.446C256.758 499.1 243.104 507.469 238.07 513.446C238.07 497.244 240.807 453.892 251.756 410.099C265.441 355.358 325.373 371.875 299.418 397.358C278.654 417.744 268.43 450.84 265.913 464.84C270.475 450.368 283.562 420.481 299.418 416.706C315.275 412.93 289.98 461.065 275.351 485.604C281.391 485.604 283.531 491.582 283.845 494.57C286.111 484.377 295.171 470.503 299.418 464.84C305.454 456.792 313.638 486.435 315.296 493.463C314.435 483.45 318.504 421.901 331.98 431.335C346.137 441.245 326.789 499.289 336.699 494.57C344.627 490.795 363.283 496.143 371.62 499.289C364.07 473.335 353.499 422.274 371.62 425.672C389.742 429.069 391.126 476.166 389.553 499.289C393.706 491.361 407.328 492.84 413.62 494.57C391.441 481.829 388.609 456.346 404.654 455.874C417.49 455.496 425.418 475.537 427.777 485.604C424.002 462.166 420.321 416.517 435.8 421.425C455.148 427.56 453.26 472.391 454.676 464.84C456.092 457.29 459.395 427.088 472.609 431.335Z" fill="url(#paint2_linear)"/>
<path d="M537.029 534.617C553.341 532.057 569.039 526.228 582.127 516.162C601.208 501.489 625.847 479.359 618.954 467.376C609.205 453.577 592.602 470.495 589.248 474.17C589.248 474.17 594.398 444.704 575.986 468.279C575.986 468.279 556.934 488.127 555.816 489.352C554.698 490.577 565.044 442.951 535.444 480.302C535.444 480.302 529.686 456.225 514.261 462.955C498.836 469.684 477.8 480.302 477.8 480.302C445.661 497.448 462.038 546.389 498.023 540.74L537.029 534.617Z" fill="#FCFCFC"/>
<g filter="url(#filter0_d)">
<path d="M630.438 88.0493V299.11C630.438 311.861 620.157 322.159 607.427 322.159H153.208C140.539 322.159 130.197 311.861 130.197 299.11V88.0493C130.197 75.2986 140.478 65 153.208 65H607.489C620.157 65 630.438 75.2986 630.438 88.0493Z" fill="url(#paint3_linear)"/>
</g>
<path d="M389.62 182.025C389.62 182.025 385.213 175.956 390.783 161.305C396.352 146.654 402.41 143.711 402.41 148.125C402.41 152.539 393.231 178.408 389.62 182.025Z" fill="#4D6BD7"/>
<path d="M382.276 105.152V248.046C382.276 253.44 377.869 257.854 372.484 257.854H343.353C337.968 257.854 333.561 253.44 333.561 248.046V105.152C333.561 99.7575 337.968 95.3438 343.353 95.3438H372.484C377.869 95.3438 382.276 99.7575 382.276 105.152Z" fill="#7D9AFF"/>
<path d="M327.992 105.152V248.046C327.992 253.44 323.586 257.854 318.2 257.854H289.07C283.684 257.854 279.278 253.44 279.278 248.046V105.152C279.278 99.7575 283.684 95.3438 289.07 95.3438H318.2C323.586 95.3438 327.992 99.7575 327.992 105.152Z" fill="#7D9AFF"/>
<path d="M247.821 105.152V248.046C247.821 253.44 243.415 257.854 238.03 257.854H208.899C203.513 257.854 199.107 253.44 199.107 248.046V105.152C199.107 99.7575 203.513 95.3438 208.899 95.3438H238.03C243.415 95.3438 247.821 99.7575 247.821 105.152Z" fill="#7D9AFF"/>
<path d="M193.538 105.152V248.046C193.538 253.44 189.132 257.854 183.746 257.854H154.615C149.23 257.854 144.823 253.44 144.823 248.046V105.152C144.823 99.7575 149.23 95.3438 154.615 95.3438H183.746C189.132 95.3438 193.538 99.7575 193.538 105.152Z" fill="#7D9AFF"/>
<path d="M236.622 174.056C229.645 191.649 235.031 215.679 231.971 218.683C230.563 220.093 228.911 228.491 225.851 237.809C222.24 248.844 216.671 261.043 207.308 264.291C190.111 270.36 134.481 274.529 130.197 261.717V209.672C140.845 192.201 130.38 172.83 138.52 164.677C146.659 156.524 150.821 145.06 156.329 139.543C161.837 134.026 176.096 126.609 184.786 135.375C184.786 135.375 200.331 122.747 213.366 131.39C226.402 139.972 243.599 156.462 236.622 174.056Z" fill="#212841"/>
<path d="M275.667 322.099H153.208C140.539 322.099 130.197 311.8 130.197 299.049V251.97C141.335 246.698 164.346 236.644 180.441 234.928C181.971 234.744 183.44 234.683 184.786 234.683C190.967 234.683 198.373 234.499 206.145 234.928C212.632 235.296 219.364 236.093 225.851 237.87C238.397 241.242 250.086 248.046 257.552 261.839C267.895 280.781 276.218 306.344 275.667 322.099Z" fill="#3E59B8"/>
<path d="M182.823 219.335C182.823 219.335 180.498 229.695 180.498 238.093C180.498 245.511 199.374 252.819 206.568 242.139C206.568 238.645 205.589 221.174 205.589 217.925C205.589 214.676 182.823 213.082 182.823 219.335Z" fill="#88A3FF"/>
<path d="M161.898 186.868C161.898 186.868 158.777 161.979 181.849 158.547C204.921 155.114 217.161 167.19 217.895 197.657C218.446 221.932 198.862 229.595 193.844 229.166C188.825 228.737 166.365 224.078 161.898 186.868Z" fill="#B4C4FF"/>
<path d="M184.786 155.603C184.786 155.603 184.603 167.679 179.401 170.07C169.425 174.668 174.321 186.989 167.528 192.016C155.227 201.15 156.206 210.284 154.309 193.549C152.412 176.813 161.347 126.056 184.786 155.603Z" fill="#212841"/>
<path d="M184.787 155.604C184.787 155.604 189.438 170.071 198.618 170.071C207.797 170.071 202.106 182.821 209.633 185.151C217.1 187.48 226.035 195.633 226.035 188.522C226.035 181.411 212.571 118.7 184.787 155.604Z" fill="#212841"/>
<path d="M388.824 322.098H198.617C198.617 297.945 201.922 241.977 279.706 228.061C370.709 211.817 394.087 296.596 388.824 322.098Z" fill="white"/>
<path d="M256.573 200.231C256.573 200.231 252.962 198.944 249.78 194.837C246.598 190.73 237.418 145.673 244.15 138.501C250.881 131.329 263.182 122.501 283.256 117.536C303.329 112.57 323.892 131.697 326.585 134.271C329.216 136.785 324.932 196.615 319.486 196.737C313.978 196.86 269.731 201.641 256.573 200.231Z" fill="#212841"/>
<path d="M269.119 213.35V232.599C269.119 236.522 270.955 240.2 274.137 242.529C280.991 247.495 293.598 253.686 304.125 242.407C306.205 240.139 307.368 237.196 307.368 234.131V213.35C307.368 213.35 269.119 205.013 269.119 213.35Z" fill="#88A3FF"/>
<path d="M395.924 205.564C395.924 205.564 390.171 197.595 397.454 178.469C404.736 159.343 412.692 155.42 412.692 161.182C412.692 166.944 400.697 200.783 395.924 205.564Z" fill="#4D6BD7"/>
<path d="M395.923 205.565C395.923 205.565 375.299 188.462 360.795 194.96C346.291 201.457 379.889 215.189 395.923 205.565Z" fill="#4D6BD7"/>
<path d="M406.939 231.802C406.939 231.802 400.636 223.894 407.184 203.787C413.732 183.741 421.688 179.266 421.994 185.213C422.3 191.159 411.651 226.591 406.939 231.802Z" fill="#878787"/>
<path d="M406.939 231.802C406.939 231.802 384.785 215.251 370.22 222.668C355.654 230.024 390.966 242.53 406.939 231.802Z" fill="#4D6BD7"/>
<path d="M420.709 261.594C420.709 261.594 411.896 250.56 421.015 222.668C430.134 194.776 441.211 188.584 441.578 196.86C442.006 205.136 427.196 254.422 420.709 261.594Z" fill="#878787"/>
<path d="M420.709 261.595C420.709 261.595 389.926 238.546 369.669 248.906C349.351 259.204 398.432 276.491 420.709 261.595Z" fill="#878787"/>
<path d="M261.285 149.167C261.285 149.167 251.371 156.83 251.922 178.531C252.473 200.231 266.916 221.38 274.688 227.265C286.805 236.399 312.203 231.618 319.302 201.948C326.401 172.278 316.303 147.512 306.879 146.041C297.515 144.508 261.285 149.167 261.285 149.167Z" fill="#B4C4FF"/>
<path d="M251.677 170.07C251.677 170.07 254.003 151.68 270.22 151.251C286.499 150.822 309.082 143.22 317.833 159.097C323.402 169.212 327.503 144.201 320.465 137.519C313.427 130.837 252.901 127.404 253.207 138.132C253.574 148.921 251.677 170.07 251.677 170.07Z" fill="#212841"/>
<path d="M630.438 88.0493V299.11C630.438 311.861 620.157 322.159 607.427 322.159H396.352V65H607.488C620.157 65 630.438 75.2986 630.438 88.0493Z" fill="white"/>
<path d="M432.399 116.771C441.727 116.771 449.29 109.196 449.29 99.8518C449.29 90.5076 441.727 82.9326 432.399 82.9326C423.07 82.9326 415.508 90.5076 415.508 99.8518C415.508 109.196 423.07 116.771 432.399 116.771Z" fill="#6385FB"/>
<path d="M498.739 98.1346H462.876C461.162 98.1346 459.755 96.7246 459.755 95.0082C459.755 93.2918 461.162 91.8818 462.876 91.8818H498.739C500.452 91.8818 501.86 93.2918 501.86 95.0082C501.921 96.7246 500.514 98.1346 498.739 98.1346Z" fill="#A9BCFF"/>
<path d="M537.171 108.095H461.651C460.794 108.095 460.06 107.421 460.06 106.501C460.06 105.643 460.733 104.907 461.651 104.907H537.232C538.089 104.907 538.823 105.582 538.823 106.501C538.762 107.421 538.089 108.095 537.171 108.095Z" fill="#A9BCFF"/>
<path d="M426.951 174.239C433.103 174.239 438.089 169.243 438.089 163.082C438.089 156.92 433.103 151.925 426.951 151.925C420.8 151.925 415.813 156.92 415.813 163.082C415.813 169.243 420.8 174.239 426.951 174.239Z" fill="#B5C5FF"/>
<path d="M559.57 156.708H461.835C460.856 156.708 460.06 155.911 460.06 154.93C460.06 153.949 460.856 153.152 461.835 153.152H559.57C560.549 153.152 561.345 153.949 561.345 154.93C561.345 155.911 560.549 156.708 559.57 156.708Z" fill="#ECF0FF"/>
<path d="M436.315 185.58H417.526C416.547 185.58 415.752 184.783 415.752 183.802C415.752 182.821 416.547 182.024 417.526 182.024H436.315C437.294 182.024 438.089 182.821 438.089 183.802C438.089 184.783 437.294 185.58 436.315 185.58Z" fill="#ECF0FF"/>
<path d="M569.79 164.86H461.835C460.856 164.86 460.06 164.063 460.06 163.082C460.06 162.102 460.856 161.305 461.835 161.305H569.79C570.769 161.305 571.565 162.102 571.565 163.082C571.504 164.063 570.708 164.86 569.79 164.86Z" fill="#ECF0FF"/>
<path d="M559.57 173.074H461.835C460.856 173.074 460.06 172.277 460.06 171.296C460.06 170.315 460.856 169.519 461.835 169.519H559.57C560.549 169.519 561.345 170.315 561.345 171.296C561.345 172.277 560.549 173.074 559.57 173.074Z" fill="#ECF0FF"/>
<path d="M559.57 181.289H461.835C460.856 181.289 460.06 180.492 460.06 179.511C460.06 178.53 460.856 177.733 461.835 177.733H559.57C560.549 177.733 561.345 178.53 561.345 179.511C561.345 180.492 560.549 181.289 559.57 181.289Z" fill="#ECF0FF"/>
<path d="M559.57 189.441H461.835C460.856 189.441 460.06 188.644 460.06 187.663C460.06 186.683 460.856 185.886 461.835 185.886H559.57C560.549 185.886 561.345 186.683 561.345 187.663C561.345 188.644 560.549 189.441 559.57 189.441Z" fill="#ECF0FF"/>
<path d="M559.57 197.656H461.835C460.856 197.656 460.06 196.859 460.06 195.878C460.06 194.897 460.856 194.101 461.835 194.101H559.57C560.549 194.101 561.345 194.897 561.345 195.878C561.345 196.859 560.549 197.656 559.57 197.656Z" fill="#ECF0FF"/>
<path d="M559.57 205.871H461.835C460.856 205.871 460.06 205.074 460.06 204.093C460.06 203.112 460.856 202.315 461.835 202.315H559.57C560.549 202.315 561.345 203.112 561.345 204.093C561.345 205.074 560.549 205.871 559.57 205.871Z" fill="#ECF0FF"/>
<path d="M559.57 214.024H461.835C460.856 214.024 460.06 213.227 460.06 212.246C460.06 211.266 460.856 210.469 461.835 210.469H559.57C560.549 210.469 561.345 211.266 561.345 212.246C561.345 213.227 560.549 214.024 559.57 214.024Z" fill="#ECF0FF"/>
<path d="M559.57 222.238H461.835C460.856 222.238 460.06 221.441 460.06 220.46C460.06 219.48 460.856 218.683 461.835 218.683H559.57C560.549 218.683 561.345 219.48 561.345 220.46C561.345 221.441 560.549 222.238 559.57 222.238Z" fill="#ECF0FF"/>
<path d="M559.57 230.391H461.835C460.856 230.391 460.06 229.594 460.06 228.614C460.06 227.633 460.856 226.836 461.835 226.836H559.57C560.549 226.836 561.345 227.633 561.345 228.614C561.345 229.656 560.549 230.391 559.57 230.391Z" fill="#ECF0FF"/>
<path d="M559.57 238.605H461.835C460.856 238.605 460.06 237.808 460.06 236.828C460.06 235.847 460.856 235.05 461.835 235.05H559.57C560.549 235.05 561.345 235.847 561.345 236.828C561.345 237.808 560.549 238.605 559.57 238.605Z" fill="#ECF0FF"/>
<path d="M550.145 270.666H435.213C434.234 270.666 433.438 269.869 433.438 268.888C433.438 267.907 434.234 267.11 435.213 267.11H550.145C551.124 267.11 551.92 267.907 551.92 268.888C551.92 269.869 551.124 270.666 550.145 270.666Z" fill="#ECF0FF"/>
<path d="M550.145 278.881H435.213C434.234 278.881 433.438 278.084 433.438 277.103C433.438 276.122 434.234 275.325 435.213 275.325H550.145C551.124 275.325 551.92 276.122 551.92 277.103C551.92 278.084 551.124 278.881 550.145 278.881Z" fill="#ECF0FF"/>
<path d="M550.145 287.096H435.213C434.234 287.096 433.438 286.299 433.438 285.318C433.438 284.337 434.234 283.54 435.213 283.54H550.145C551.124 283.54 551.92 284.337 551.92 285.318C551.92 286.299 551.124 287.096 550.145 287.096Z" fill="#ECF0FF"/>
<path d="M550.145 295.249H435.213C434.234 295.249 433.438 294.452 433.438 293.471C433.438 292.49 434.234 291.693 435.213 291.693H550.145C551.124 291.693 551.92 292.49 551.92 293.471C551.92 294.452 551.124 295.249 550.145 295.249Z" fill="#ECF0FF"/>
<path d="M550.145 303.463H435.213C434.234 303.463 433.438 302.666 433.438 301.685C433.438 300.704 434.234 299.907 435.213 299.907H550.145C551.124 299.907 551.92 300.704 551.92 301.685C551.92 302.666 551.124 303.463 550.145 303.463Z" fill="#ECF0FF"/>
<path d="M525.359 246.82H461.835C460.856 246.82 460.06 246.023 460.06 245.042C460.06 244.062 460.856 243.265 461.835 243.265H525.359C526.339 243.265 527.134 244.062 527.134 245.042C527.134 246.023 526.339 246.82 525.359 246.82Z" fill="#ECF0FF"/>
<path d="M339.682 91.3598C345.968 91.3598 351.065 86.2549 351.065 79.9577C351.065 73.6605 345.968 68.5557 339.682 68.5557C333.395 68.5557 328.299 73.6605 328.299 79.9577C328.299 86.2549 333.395 91.3598 339.682 91.3598Z" fill="#BECCFF"/>
<path d="M368.017 76.6472C368.017 77.5667 367.649 78.3636 367.037 78.9766C366.609 79.4058 366.058 79.7123 365.385 79.8962C365.14 79.9575 364.896 79.9575 364.651 79.9575H314.529C314.284 79.9575 314.039 79.9575 313.794 79.8962C312.325 79.5897 311.224 78.241 311.224 76.6472C311.224 75.7277 311.591 74.9307 312.203 74.3177C312.815 73.7047 313.611 73.3369 314.529 73.3369H364.651C366.548 73.3369 368.017 74.8081 368.017 76.6472Z" fill="#809CFF"/>
<path d="M365.446 79.8962C365.202 79.9575 364.957 79.9575 364.712 79.9575H314.59C314.345 79.9575 314.1 79.9575 313.855 79.8962C314.1 77.6281 314.712 75.3599 315.508 73.337C316.732 70.2106 318.568 67.3908 320.893 65H358.408C360.673 67.3908 362.57 70.2106 363.794 73.337C364.59 75.4212 365.202 77.6281 365.446 79.8962Z" fill="#809CFF"/>
<path d="M373.647 135.312C368.69 130.102 365.507 142.975 373.647 147.634C389.742 156.952 380.256 142.239 373.647 135.312Z" fill="#4D6BD7"/>
<path d="M382.521 108.217C380.501 97.428 365.63 110.424 372.239 123.359C385.336 148.921 385.275 122.562 382.521 108.217Z" fill="#4D6BD7"/>
<path d="M384.846 164.675C384.846 164.675 381.848 147.205 390.783 134.454C399.656 121.703 390.844 155.542 384.846 164.675Z" fill="#4D6BD7"/>
<path d="M386.131 134.884C386.131 134.884 383.867 121.704 390.599 112.018C397.331 102.333 390.66 127.957 386.131 134.884Z" fill="#4D6BD7"/>
<path d="M384.969 164.859C384.969 164.859 374.504 151.189 364.528 153.151C354.491 155.112 373.524 168.599 384.969 164.859Z" fill="#4D6BD7"/>
<path d="M389.62 182.025C389.62 182.025 373.83 168.968 362.753 173.933C351.676 178.899 377.38 189.381 389.62 182.025Z" fill="#4D6BD7"/>
<path d="M385.764 108.034C385.764 108.034 382.153 90.8083 387.967 88.8466C393.72 86.9463 388.151 110.486 385.764 108.034Z" fill="#4D6BD7"/>
<path d="M129.952 524.086C129.952 530.952 129.952 537.818 129.952 544.745C129.952 548.668 136.072 548.668 136.072 544.745C136.072 537.879 136.072 531.013 136.072 524.086C136.072 520.102 129.952 520.102 129.952 524.086Z" fill="#212841"/>
<path d="M186.255 524.086C186.255 530.952 186.255 537.818 186.255 544.745C186.255 548.668 192.375 548.668 192.375 544.745C192.375 537.879 192.375 531.013 192.375 524.086C192.375 520.102 186.255 520.102 186.255 524.086Z" fill="#212841"/>
<path d="M224.335 91.3598C230.622 91.3598 235.718 86.2549 235.718 79.9577C235.718 73.6605 230.622 68.5557 224.335 68.5557C218.049 68.5557 212.952 73.6605 212.952 79.9577C212.952 86.2549 218.049 91.3598 224.335 91.3598Z" fill="#BECCFF"/>
<path d="M252.732 76.6472C252.732 77.5667 252.364 78.3636 251.752 78.9766C251.324 79.4058 250.773 79.7123 250.1 79.8962C249.855 79.9575 249.61 79.9575 249.366 79.9575H199.305C199.06 79.9575 198.815 79.9575 198.57 79.8962C197.102 79.5897 196 78.241 196 76.6472C196 75.7277 196.367 74.9307 196.979 74.3177C197.591 73.7047 198.387 73.3369 199.305 73.3369H249.427C251.263 73.3369 252.732 74.8081 252.732 76.6472Z" fill="#809CFF"/>
<path d="M250.1 79.8962C249.855 79.9575 249.61 79.9575 249.366 79.9575H199.305C199.06 79.9575 198.815 79.9575 198.57 79.8962C198.815 77.6281 199.427 75.3599 200.223 73.337C201.447 70.2106 203.283 67.3908 205.608 65H243.062C245.326 67.3908 247.224 70.2106 248.448 73.337C249.304 75.4212 249.855 77.6281 250.1 79.8962Z" fill="#809CFF"/>
<path d="M238.642 524.086C238.642 530.952 238.642 537.818 238.642 544.745C238.642 548.668 244.762 548.668 244.762 544.745C244.762 537.879 244.762 531.013 244.762 524.086C244.762 520.102 238.642 520.102 238.642 524.086Z" fill="#212841"/>
<path d="M245.501 528.414H127.763C121.394 528.414 116.318 525.287 116.318 521.363V389.673H256.947V521.363C256.947 525.287 251.771 528.414 245.501 528.414Z" fill="#A4B8FF"/>
<path d="M245.501 528.414H127.763C121.394 528.414 116.318 525.287 116.318 521.363V389.673H256.947V521.363C256.947 525.287 251.771 528.414 245.501 528.414Z" fill="url(#paint4_linear)"/>
<path d="M195.741 528.746H123.281C119.365 528.746 116.243 525.619 116.243 521.696V390.021H202.718V521.696C202.779 525.619 199.597 528.746 195.741 528.746Z" fill="#4E6EE9"/>
<path d="M189.499 432.502H129.523C126.158 432.502 123.404 429.743 123.404 426.372V410.004C123.404 406.633 126.158 403.874 129.523 403.874H189.499C192.865 403.874 195.618 406.633 195.618 410.004V426.372C195.618 429.805 192.865 432.502 189.499 432.502Z" fill="#6E8AF1"/>
<path d="M189.499 467.751H129.523C126.158 467.751 123.404 464.992 123.404 461.621V445.253C123.404 441.882 126.158 439.123 129.523 439.123H189.499C192.865 439.123 195.618 441.882 195.618 445.253V461.621C195.618 465.054 192.865 467.751 189.499 467.751Z" fill="#6E8AF1"/>
<path d="M189.499 502.999H129.523C126.158 502.999 123.404 500.24 123.404 496.869V480.501C123.404 477.13 126.158 474.371 129.523 474.371H189.499C192.865 474.371 195.618 477.13 195.618 480.501V496.869C195.618 500.302 192.865 502.999 189.499 502.999Z" fill="#6E8AF1"/>
<path d="M109.817 393.085C127.076 393.085 144.334 393.085 161.592 393.085C189.131 393.085 216.671 393.085 244.211 393.085C250.575 393.085 256.879 393.085 263.244 393.085C267.16 393.085 267.16 386.955 263.244 386.955C245.985 386.955 228.727 386.955 211.469 386.955C183.93 386.955 156.39 386.955 128.85 386.955C122.486 386.955 116.182 386.955 109.817 386.955C105.901 386.955 105.901 393.085 109.817 393.085Z" fill="url(#paint5_linear)"/>
<path d="M140.539 426.494H132.584C131.666 426.494 130.931 425.758 130.931 424.839C130.931 423.919 131.666 423.184 132.584 423.184H140.539C141.457 423.184 142.192 423.919 142.192 424.839C142.192 425.758 141.457 426.494 140.539 426.494Z" fill="#4E6EE9"/>
<path d="M140.539 462.968H132.584C131.666 462.968 130.931 462.233 130.931 461.313C130.931 460.394 131.666 459.658 132.584 459.658H140.539C141.457 459.658 142.192 460.394 142.192 461.313C142.192 462.233 141.457 462.968 140.539 462.968Z" fill="#4E6EE9"/>
<path d="M140.539 497.604H132.584C131.666 497.604 130.931 496.869 130.931 495.949C130.931 495.03 131.666 494.294 132.584 494.294H140.539C141.457 494.294 142.192 495.03 142.192 495.949C142.192 496.869 141.457 497.604 140.539 497.604Z" fill="#4E6EE9"/>
<path d="M132.522 339.14C132.828 339.692 133.746 339.569 133.807 338.895C134.603 333.93 136.072 320.934 129.462 320.934C122.792 320.934 129.83 334.359 132.522 339.14Z" fill="#FFC14F"/>
<path d="M135.338 322.772C135.705 323.262 136.5 323.14 136.623 322.466C137.235 318.42 138.581 307.569 134.603 307.569C130.074 307.631 131.91 317.929 135.338 322.772Z" fill="#FFC14F"/>
<path d="M134.542 343.492C134.542 343.492 134.97 327.554 140.6 326.757C146.231 325.96 135.949 342.082 134.542 343.492Z" fill="#FFC14F"/>
<path d="M139.254 323.446C138.703 323.998 137.847 323.446 138.091 322.711C139.499 318.481 142.865 309.715 145.864 310.512C148.985 311.37 142.681 319.891 139.254 323.446Z" fill="#FFC14F"/>
<path d="M140.478 305.424C140.356 306.16 139.315 306.221 139.132 305.485C138.336 303.095 137.479 299.355 139.132 298.865C141.029 298.313 141.09 302.42 140.478 305.424Z" fill="#FFC14F"/>
<path d="M145.558 297.394C145.313 298.129 144.211 298.007 144.211 297.271C143.967 293.961 143.905 288.934 145.497 288.934C147.149 288.873 146.537 294.022 145.558 297.394Z" fill="#FFC14F"/>
<path d="M145.558 306.037C145.007 306.588 144.089 305.914 144.456 305.179C146.476 301.255 149.964 295.432 152.902 295.432C156.268 295.493 149.658 302.113 145.558 306.037Z" fill="#FFC14F"/>
<path d="M142.544 356.533C141.443 354.694 140.892 352.549 140.892 350.403V342.311C140.892 341.392 140.157 340.595 139.178 340.595H133.609H128.04C127.122 340.595 126.326 341.33 126.326 342.311V350.403C126.326 352.549 125.776 354.694 124.674 356.533C120.145 364.257 106.62 386.142 133.609 387C160.598 386.142 147.073 364.196 142.544 356.533Z" fill="#A4B8FF"/>
<path d="M357.161 162.408C357.161 162.408 341.678 163.634 341.678 173.013C341.678 182.392 338.74 188.032 337.394 189.381C336.047 190.729 341.066 193.059 341.066 193.856C341.066 194.653 339.842 204.461 341.249 205.932C342.657 207.342 360.037 215.924 361.017 215.924C362.057 215.924 359.364 228.798 359.364 228.798C359.364 228.798 356.304 241.242 367.748 241.242C379.193 241.242 384.089 221.441 384.089 221.441C384.089 221.441 383.599 188.216 385.313 186.5C387.026 184.783 391.861 179.94 389.413 177.488C386.965 175.036 388.985 158.056 384.333 158.056C379.621 158.117 357.161 162.408 357.161 162.408Z" fill="#FEDEAC"/>
<path d="M230.793 290H198.207C189.807 290 183 283.286 183 275C183 266.714 189.807 260 198.207 260H230.793C239.193 260 246 266.714 246 275C246 283.286 239.193 290 230.793 290Z" fill="#FE774C"/>
<path d="M326.793 290H294.207C285.807 290 279 283.286 279 275C279 266.714 285.807 260 294.207 260H326.793C335.193 260 342 266.714 342 275C342 283.286 335.193 290 326.793 290Z" fill="#23BF79"/>
<path d="M205.768 278.589L209.812 278.661C210.607 278.661 211.257 278.012 211.257 277.147V275.129C211.329 275.129 211.474 275.056 211.546 275.056C212.557 274.768 213.93 274.408 215.735 274.408C217.613 274.408 218.914 274.84 219.925 275.129C219.997 275.129 220.142 275.201 220.214 275.201V276.57V277.219C220.214 278.012 220.864 278.733 221.658 278.733L225.703 278.805C226.498 278.805 227.148 278.156 227.148 277.291V276.138C227.076 275.705 227.003 275.273 226.787 274.84C226.642 274.408 226.426 274.119 226.137 273.759C224.259 271.236 221.225 270.227 215.735 270.155C208.223 270.082 205.406 273.326 205.262 273.471C204.973 273.759 204.829 274.119 204.612 274.48C204.395 274.912 204.323 275.345 204.251 275.777V276.931C204.323 277.868 204.973 278.589 205.768 278.589Z" fill="white"/>
<path d="M321.897 279.598L318.502 276.858C317.852 276.354 316.841 276.426 316.263 277.147L314.891 278.805C314.819 278.732 314.674 278.732 314.602 278.66C313.591 278.228 312.146 277.651 310.629 276.354C309.112 275.128 308.246 273.831 307.595 272.966C307.523 272.893 307.451 272.749 307.379 272.677L308.318 271.524L308.751 270.947C309.329 270.226 309.257 269.217 308.534 268.712L305.14 265.973C304.489 265.396 303.478 265.541 302.9 266.261L302.106 267.199C301.889 267.559 301.672 268.064 301.528 268.496C301.384 268.929 301.384 269.361 301.311 269.794C301.239 273.182 303.117 276.065 307.668 279.742C313.952 284.86 318.502 283.923 318.719 283.923C319.152 283.851 319.586 283.707 319.947 283.49C320.38 283.274 320.814 282.986 321.103 282.625L321.897 281.688C322.619 281.111 322.547 280.102 321.897 279.598Z" fill="white"/>
<path d="M373.624 181.473C373.624 181.473 379.927 187.174 381.457 182.883C382.987 178.591 386.108 174.729 388.617 175.649C391.127 176.569 392.351 158.239 388.617 154.5C384.884 150.761 378.642 145.305 347.92 144.201C317.198 143.098 314.138 142.485 319.646 151.558C325.154 160.63 334.089 169.641 342.963 168.722C351.837 167.802 362.975 164.737 367.871 167.189C372.767 169.641 370.747 179.45 373.624 181.473Z" fill="#FF9B00"/>
<path d="M373.624 181.473C373.624 181.473 379.927 187.174 381.457 182.883C382.987 178.591 386.108 174.729 388.617 175.649C391.127 176.569 392.351 158.239 388.617 154.5C384.884 150.761 378.642 145.305 347.92 144.201C317.198 143.098 314.138 142.485 319.646 151.558C325.154 160.63 334.089 169.641 342.963 168.722C351.837 167.802 362.975 164.737 367.871 167.189C372.767 169.641 370.747 179.45 373.624 181.473Z" fill="url(#paint6_linear)"/>
<path d="M316.158 270.054C316.158 270.054 307.1 288.505 310.283 291.693C313.465 294.881 328.459 290.896 330.662 283.356C332.804 275.755 318.789 264.352 316.158 270.054Z" fill="#FFD5AE"/>
<path d="M345.411 234.192C345.411 234.192 320.625 241.916 314.138 266.13C311.69 275.387 315.607 277.778 332.804 275.755C349.94 273.732 345.411 234.192 345.411 234.192Z" fill="#A4B8FF"/>
<path d="M427.234 299.355C426.071 311.676 423.991 324.427 420.441 336.319C419.951 338.036 419.401 339.752 418.789 341.407C417.993 343.798 416.28 345.76 413.893 347.231C395.166 359.062 334.334 344.227 329.683 328.718C304.591 244.858 359.364 223.096 359.364 223.096C359.364 223.096 366.096 237.195 368.544 237.195C370.992 237.195 381.58 220.644 385.252 220.644C388.924 220.644 423.195 230.574 425.643 238.605C427.357 243.938 429.927 270.359 427.234 299.355Z" fill="#4E6EE9"/>
<path d="M427.234 299.355C426.071 311.676 423.991 324.427 420.441 336.319C419.951 338.036 419.401 339.752 418.789 341.407C417.993 343.798 416.28 345.76 413.893 347.231C395.166 359.062 334.334 344.227 329.683 328.718C304.591 244.858 359.364 223.096 359.364 223.096C359.364 223.096 366.096 237.195 368.544 237.195C370.992 237.195 381.58 220.644 385.252 220.644C388.924 220.644 423.195 230.574 425.643 238.605C427.357 243.938 429.927 270.359 427.234 299.355Z" fill="url(#paint7_linear)"/>
<path d="M427.234 299.355C426.071 311.677 423.991 324.428 420.441 336.32C419.951 338.037 419.401 339.753 418.789 341.408C417.993 343.799 416.279 345.761 413.893 347.232C402.204 350.849 385.252 347.416 374.848 340.734C374.848 340.734 380.968 335.891 390.086 332.09C399.205 328.29 401.653 330.803 401.653 324.244C401.653 317.685 401.469 310.512 405.753 306.221C408.385 303.585 419.401 300.949 427.234 299.355Z" fill="#354FAE"/>
<path d="M335.558 199.679C335.558 199.679 336.047 193.549 341.8 194.591C347.492 195.633 347.43 202.07 351.47 202.07C355.57 202.07 355.325 199.189 359.425 200.66C363.526 202.07 365.974 196.185 369.401 196.185C372.828 196.185 376.01 192.139 376.928 191.219C377.846 190.3 379.56 193.488 379.56 196.614C379.56 198.576 380.968 208.752 373.012 212.184C368.789 213.962 369.707 220.031 364.872 222.422C354.346 227.694 353 231.617 349.756 231.617C346.512 231.617 338.128 237.318 334.64 237.318C331.151 237.318 323.012 240.567 318.728 236.276C314.444 231.985 315.79 226.161 319.952 221.993C324.114 217.824 321.176 216.476 325.644 212.001C330.233 207.526 335.558 203.48 335.558 199.679Z" fill="url(#paint8_linear)"/>
<path d="M431.09 274.528C431.09 274.528 432.008 307.324 426.928 309.102C404.896 316.703 349.022 298.987 350.613 295.554C352.265 292.06 370.135 281.761 384.272 283.233C402.449 285.133 401.351 282.222 401.351 272.168C401.412 268.674 431.09 274.528 431.09 274.528Z" fill="#FFB26A"/>
<path d="M400.674 241.241C400.674 241.241 404.774 227.142 420.319 232.659C435.863 238.176 436.659 279.371 434.517 279.371C432.375 279.371 399.021 279.371 397.491 273.547C395.961 267.724 395.9 252.46 400.674 241.241Z" fill="#A4B8FF"/>
<path d="M302.816 295.248C302.816 295.248 302.571 315.723 318.911 312.044C335.252 308.366 375.276 283.11 396.94 284.152C396.94 284.152 396.083 273.363 377.724 274.589C359.303 275.877 301.592 281.394 302.816 295.248Z" fill="#FFD5AE"/>
<path d="M361.078 525.804L358.201 538.37H347.002C347.002 538.37 346.206 522.432 349.878 520.164C353.489 517.957 361.078 525.804 361.078 525.804Z" fill="#4B6AE3"/>
<path d="M369.523 501.036C369.523 501.036 375.704 500.3 375.704 509.005C375.704 517.71 371.849 516.545 372.706 522.982C373.012 525.434 378.887 540.943 373.991 543.027C369.095 545.112 359.732 544.866 358.997 543.027C354.836 532.177 363.097 538.92 363.281 531.748C363.465 524.576 349.389 514.584 359.915 506.614C364.566 503.12 367.443 500.975 367.443 500.975H369.523V501.036Z" fill="#212841"/>
<path d="M336.598 337.73C336.598 337.73 297.859 405.039 300.491 421.406C303.122 437.835 359.609 527.948 359.609 527.948L365.912 515.811C365.912 515.811 346.512 421.713 343.514 415.338C340.515 408.962 375.459 368.074 380.661 362.864C385.863 357.653 340.515 330.067 336.598 337.73Z" fill="url(#paint9_linear)"/>
<path d="M351.8 340.122C351.8 340.122 339.531 357.111 363.748 369.381C356.588 420.856 342.358 525.243 344.432 527.274C347.186 529.971 356.978 532.729 362.547 527.274C368.116 521.818 383.783 438.754 387.026 428.456C390.27 418.157 419.584 350.051 416.218 343.982C412.791 337.975 351.8 333.747 351.8 340.122Z" fill="#FFC14F"/>
<path d="M331.702 332.458C331.702 332.458 416.708 338.711 418.789 340.795C420.869 342.88 417.626 350.42 416.096 351.952C414.566 353.485 330.845 353.669 330.845 349.132C330.845 342.88 328.948 332.275 331.702 332.458Z" fill="#334379"/>
<path d="M370.526 346.373L324.32 349.132H223.281V343.431H370.465C371.138 343.431 371.689 343.982 371.689 344.657V345.147C371.689 345.821 371.199 346.373 370.526 346.373Z" fill="#4E6EE9"/>
<path d="M187.173 296.413H267.222C274.443 296.413 281.236 299.723 285.704 305.424L314.957 342.941C315.753 343.983 315.018 345.454 313.733 345.454H224.199C220.833 345.454 217.65 343.983 215.447 341.408L183.624 304.076C181.053 301.072 183.195 296.413 187.173 296.413Z" fill="#BECDFF"/>
<path d="M187.173 296.413H267.222C274.443 296.413 281.236 299.723 285.704 305.424L314.957 342.941C315.753 343.983 315.018 345.454 313.733 345.454H224.199C220.833 345.454 217.65 343.983 215.447 341.408L183.624 304.076C181.053 301.072 183.195 296.413 187.173 296.413Z" fill="url(#paint10_linear)"/>
<path d="M249.855 328.107C251.39 325.796 249.853 322.067 246.42 319.778C242.988 317.49 238.96 317.508 237.425 319.819C235.889 322.13 237.427 325.858 240.859 328.147C244.291 330.436 248.319 330.418 249.855 328.107Z" fill="#98AFFF"/>
<path d="M359.793 532.974C360.16 532.791 362.791 538.062 362.302 547.442C362.302 547.442 345.656 549.219 342.473 547.809C339.291 546.399 337.761 545.357 335.129 547.748C332.498 550.139 309.12 548.484 308.202 547.38C307.284 546.277 308.936 537.817 317.076 538.246C325.215 538.675 342.106 528.193 344.799 529.664C347.492 531.135 353.306 535.856 359.793 532.974Z" fill="#212841"/>
<path d="M574.144 544.683C574.144 522.86 574.144 501.037 574.144 479.152C574.144 444.578 574.144 410.004 574.144 375.491C574.144 367.522 574.144 359.553 574.144 351.584C574.144 349.929 572.736 348.519 571.084 348.519C561.537 348.519 552.051 348.519 542.504 348.519C519.615 348.519 496.788 348.519 473.9 348.519C446.36 348.519 418.759 348.519 391.22 348.519C367.291 348.519 343.362 348.519 319.433 348.519C307.805 348.519 296.116 348.028 284.55 348.519C284.366 348.519 284.244 348.519 284.06 348.519C282.408 348.519 281 349.929 281 351.584C281 373.407 281 395.23 281 417.115C281 451.689 281 486.263 281 520.776C281 528.745 281 536.714 281 544.683C281 548.607 287.12 548.607 287.12 544.683C287.12 522.86 287.12 501.037 287.12 479.152C287.12 444.578 287.12 410.004 287.12 375.491C287.12 367.522 287.12 359.553 287.12 351.584C286.08 352.626 285.1 353.607 284.06 354.649C293.607 354.649 303.093 354.649 312.64 354.649C335.528 354.649 358.356 354.649 381.244 354.649C408.784 354.649 436.385 354.649 463.924 354.649C487.853 354.649 511.782 354.649 535.711 354.649C543.605 354.649 551.439 354.649 559.334 354.649C562.944 354.649 567.045 355.201 570.655 354.649C570.839 354.649 570.961 354.649 571.145 354.649C570.105 353.607 569.125 352.626 568.085 351.584C568.085 373.407 568.085 395.23 568.085 417.115C568.085 451.689 568.085 486.263 568.085 520.776C568.085 528.745 568.085 536.714 568.085 544.683C568.024 548.668 574.144 548.668 574.144 544.683Z" fill="url(#paint11_linear)"/>
<path d="M463.487 544.683C463.487 522.86 463.487 501.037 463.487 479.152C463.487 444.578 463.487 410.004 463.487 375.491C463.487 367.522 463.487 359.553 463.487 351.584C463.487 349.929 462.08 348.519 460.427 348.519C450.88 348.519 441.394 348.519 431.847 348.519C408.959 348.519 386.132 348.519 363.243 348.519C335.703 348.519 308.103 348.519 280.563 348.519C256.634 348.519 232.705 348.519 208.777 348.519C197.149 348.519 185.46 348.028 173.893 348.519C173.709 348.519 173.587 348.519 173.403 348.519C171.751 348.519 170.344 349.929 170.344 351.584C170.344 373.407 170.344 395.23 170.344 417.115C170.344 451.689 170.344 486.263 170.344 520.776C170.344 528.745 170.344 536.714 170.344 544.683C170.344 548.607 176.463 548.607 176.463 544.683C176.463 522.86 176.463 501.037 176.463 479.152C176.463 444.578 176.463 410.004 176.463 375.491C176.463 367.522 176.463 359.553 176.463 351.584C175.423 352.626 174.444 353.607 173.403 354.649C182.951 354.649 192.436 354.649 201.983 354.649C224.872 354.649 247.699 354.649 270.588 354.649C298.127 354.649 325.728 354.649 353.268 354.649C377.196 354.649 401.125 354.649 425.054 354.649C432.949 354.649 440.782 354.649 448.677 354.649C452.288 354.649 456.388 355.201 459.999 354.649C460.182 354.649 460.305 354.649 460.488 354.649C459.448 353.607 458.469 352.626 457.428 351.584C457.428 373.407 457.428 395.23 457.428 417.115C457.428 451.689 457.428 486.263 457.428 520.776C457.428 528.745 457.428 536.714 457.428 544.683C457.367 548.668 463.487 548.668 463.487 544.683Z" fill="#212841"/>
<path d="M551.675 455.798C551.675 455.798 561.651 533.405 563.364 560.01C563.548 563.32 566.363 565.895 569.668 565.895C572.973 565.895 575.727 563.381 575.971 560.071C577.685 537.757 583.744 458.679 583.744 450.526C583.744 441.024 551.675 455.798 551.675 455.798Z" fill="url(#paint12_linear)"/>
<path d="M594.331 449.238L589.619 560.5C589.496 563.565 586.987 565.956 583.988 565.956H583.927C580.99 565.956 578.542 563.749 578.297 560.807C576.216 538.003 567.71 447.093 566.302 442.801C564.65 437.836 594.637 441.943 594.331 449.238Z" fill="#FEDEAC"/>
<path d="M608.223 377.788C600.573 405 597.82 447.522 593.964 458.495C593.903 458.617 593.903 458.678 593.842 458.801C593.168 460.701 588.823 461.682 583.132 462.173C578.848 462.54 573.707 462.602 568.689 462.479C562.446 462.357 556.388 461.989 552.41 461.744C549.595 461.56 547.82 461.376 547.82 461.376C543.658 438.449 530.928 382.58 528.423 355.442C528.423 334.171 545.8 309.471 545.8 309.471C545.8 309.226 545.923 308.98 546.167 308.797C549.533 305.793 574.747 303.954 582.459 306.099C583.377 306.344 583.989 306.651 584.356 307.019C585.457 308.122 587.905 309.287 590.904 311.187C591.822 311.739 592.74 312.352 593.719 313.088C595.922 314.62 598.248 316.643 600.573 319.218C602.409 321.241 604.245 323.693 605.959 326.574C606.204 327.003 606.51 327.493 606.755 327.984C607.244 328.903 607.795 329.884 608.223 330.926C610.243 335.156 612.018 340.244 613.364 346.313C613.67 347.662 613.915 349.133 614.098 350.665C614.833 355.815 610.672 369.076 608.223 377.788Z" fill="url(#paint13_linear)"/>
<path d="M588.211 158.853C588.211 158.853 595.983 169.642 611.038 171.052C626.093 172.462 641.76 183.864 638.639 202.683C635.518 221.503 625.849 236.031 611.895 236.031C597.942 236.031 527.93 236.031 525.91 230.637C523.891 225.242 518.383 223.649 523.891 218.07C529.399 212.492 522.483 210.653 525.604 203.235C528.726 195.818 535.825 197.228 535.825 188.707C535.947 180.186 580.745 154.378 588.211 158.853Z" fill="#212841"/>
<path d="M531.847 161.121C531.847 161.121 530.133 173.872 526.155 177.856C522.177 181.841 522.911 182.209 526.155 185.458C529.399 188.707 521.993 198.025 529.582 198.025C537.171 198.025 546.84 195.573 549.288 198.025C551.736 200.477 554.613 221.197 554.613 221.197C554.613 221.197 562.568 228.43 577.011 221.197C577.011 221.197 575.481 189.32 577.011 177.856C578.541 166.454 556.877 145.551 547.819 150.822C538.762 156.094 531.847 156.524 531.847 161.121Z" fill="#FFCF85"/>
<path d="M553.267 135.743C553.267 135.743 544.576 143.589 542.74 141.75C540.904 139.911 518.261 129.49 516.853 138.869C515.446 148.248 522.239 156.83 526.523 156.83C530.807 156.83 530.011 163.083 534.968 163.083C539.925 163.083 550.696 163.39 557.245 158.853C562.936 154.93 558.652 179.328 563.242 179.328C567.832 179.328 572.973 169.336 574.931 174.179C576.889 179.021 571.259 188.707 577.073 197.841C582.887 206.975 603.633 184.171 591.394 163.941C579.154 143.712 562.936 126.057 553.267 135.743Z" fill="#212841"/>
<path d="M457.934 347.443C459.359 346.933 462.041 346.718 463.018 346.585L467.796 344.097L470.385 347.443C469.024 348.274 466.203 350.381 465.805 352.16C465.307 354.385 463.703 356.551 461.823 357.835C460.523 358.723 457.556 360.622 454.083 362.116C450.61 363.609 446.58 362.723 444.302 362.116C443.389 361.872 439.922 362.016 441.315 360.125C442.709 358.233 454.083 351.902 454.083 351.395C454.083 350.887 451.229 350.126 449.327 349.936C447.425 349.746 446.093 348.541 447.805 348.224C449.517 347.907 450.079 347.443 452.875 347.443C455.671 347.443 455.75 348.224 457.934 347.443Z" fill="#FFCF85"/>
<path d="M645.799 276.246C645.799 281.15 619.484 310.758 610.182 320.934C609.814 321.363 609.264 321.547 608.713 321.425C608.407 321.363 608.04 321.241 607.795 320.934L604.062 317.195C603.878 317.011 603.756 316.766 603.633 316.521C603.511 316.153 603.511 315.785 603.694 315.417C607.795 306.406 624.869 277.778 624.869 275.51C624.869 273.242 608.774 251.296 608.774 251.296C608.407 252.522 591.699 304.444 591.699 310.084C591.699 310.513 591.455 310.881 591.026 311.187C589.741 312.168 586.62 312.659 582.581 312.842C569.912 313.455 548.309 310.82 546.351 308.858C546.351 308.858 546.351 308.858 546.29 308.797C543.474 305.609 536.192 263.556 533.927 268.951C531.663 274.345 523.891 311.003 520.158 314.743C516.424 318.482 469.73 353.792 467.832 351.891C467.526 351.585 467.22 351.095 466.914 350.543C466.058 348.888 465.323 346.374 465.568 343.861C465.69 341.961 466.364 340.06 467.894 338.589C471.137 335.34 492.067 316.827 501.125 308.858C503.756 306.528 505.47 303.279 505.837 299.724C507.428 284.399 511.957 243.817 523.401 226.162C525.91 222.362 528.725 219.603 531.908 218.438C541.761 214.822 547.452 212.492 553.022 211.45C553.083 211.45 553.144 211.45 553.205 211.45C555.469 211.021 557.673 210.837 560.182 210.837C564.894 210.837 569.301 210.04 575.298 210.347C575.788 210.347 576.277 210.408 576.767 210.469C581.602 210.898 587.538 212.063 595.371 214.944C603.266 217.825 611.834 225.488 619.667 234.499C633.927 251.235 645.799 272.567 645.799 276.246Z" fill="#4E6EE9"/>
<path d="M551.735 201.474L553.031 211.313C553.031 211.313 557.288 227.314 576.617 210.447C576.678 210.447 555.039 195.221 551.735 201.474Z" fill="#FFCF85"/>
<path d="M575.971 560.071C575.971 560.071 575.971 571.596 575.971 575.887C575.971 580.178 566.669 579.32 562.936 579.32C559.264 579.32 559.509 579.32 555.837 579.32C553.144 579.32 543.903 579.381 539.252 579.381C537.722 579.381 536.62 577.971 536.988 576.5C537.722 573.557 539.374 569.205 543.046 567.918C548.738 565.895 561.773 560.193 563.303 558.477C564.956 556.699 565.262 564.055 569.24 562.768C570.953 562.216 575.971 560.071 575.971 560.071Z" fill="#212841"/>
<path d="M606.387 315.846C605.469 315.54 604.429 315.785 603.756 316.459C601.614 318.482 596.779 322.835 594.576 322.835C591.699 322.835 604.368 335.034 605.53 332.336C606.693 329.639 608.407 321.363 609.631 318.973C610.488 317.44 608.101 316.398 606.387 315.846Z" fill="#FFCF85"/>
<path d="M589.619 560.07C589.619 560.07 589.619 571.595 589.619 575.886C589.619 580.177 580.316 579.319 576.583 579.319C572.85 579.319 573.156 579.319 569.484 579.319C566.791 579.319 557.55 579.38 552.899 579.38C551.369 579.38 550.268 577.97 550.635 576.499C551.369 573.557 553.022 569.204 556.693 567.917C562.385 565.894 576.277 559.335 577.991 557.618C579.704 555.902 578.909 564.055 582.887 562.768C584.6 562.216 589.619 560.07 589.619 560.07Z" fill="#405294"/>
<path d="M554.49 348.826L580.439 387.2C582.642 390.511 587.232 391.124 590.292 388.61L616.669 366.542C619.117 364.519 619.79 361.025 618.26 358.205L597.942 320.504C596.044 317.01 591.638 315.907 588.333 318.114L556.265 339.508C553.205 341.592 552.41 345.761 554.49 348.826Z" fill="#4E6EE9"/>
<path d="M601.369 322.896C600.267 324.489 598.676 326.451 596.412 328.719C589.129 336.014 584.478 341.654 587.844 341.654C591.271 341.654 593.168 342.635 598.493 340.918C603.817 339.202 605.224 338.343 606.51 336.504C608.59 333.439 609.508 330.129 606.02 326.635L601.369 322.896Z" fill="#FFCF85"/>
<path d="M589.741 320.199C579.215 327.31 568.688 334.421 558.162 341.532C556.632 342.574 558.101 345.026 559.57 343.984C570.096 336.873 580.622 329.762 591.149 322.651C592.679 321.67 591.271 319.218 589.741 320.199Z" fill="#3C4D8C"/>
<path d="M559.998 218.5C558.835 227.879 555.102 236.277 553.144 245.35C551.92 250.989 552.165 256.874 554.123 262.33C555.041 264.905 556.449 267.234 557.673 269.748C559.509 273.426 560.61 277.349 561.345 281.334C563.181 291.571 563.303 302.176 563.303 312.536C563.303 313.026 564.098 313.026 564.098 312.536C564.098 303.279 563.915 293.962 562.691 284.766C562.079 280.291 561.161 275.755 559.386 271.525C558.285 268.889 556.755 266.499 555.653 263.924C553.327 258.713 552.654 252.828 553.633 247.25C554.368 243.02 555.898 238.974 557.183 234.928C558.897 229.534 560.182 224.139 560.855 218.5C560.794 218.009 560.059 218.009 559.998 218.5Z" fill="#212841"/>
<path d="M608.774 251.294C608.407 252.52 591.699 304.504 591.699 310.082C591.699 310.512 591.455 310.879 591.026 311.186C589.741 312.167 586.62 312.657 582.581 312.841C582.52 311.799 582.52 310.695 582.52 309.469C582.52 308.366 582.52 307.263 582.581 306.098C583.805 279.248 596.167 248.413 598.737 245.839C601.981 242.59 608.774 251.294 608.774 251.294Z" fill="#354FAE"/>
<path d="M545.31 311.738C559.815 316.703 576.828 316.029 591.638 313.454C594.515 312.964 593.291 308.489 590.414 309.04C576.4 311.492 560.243 312.044 546.534 307.324C543.719 306.343 542.556 310.757 545.31 311.738Z" fill="#354FAE"/>
<path fill-rule="evenodd" clip-rule="evenodd" d="M568.682 462.519C568.463 460.675 568.256 458.844 568.05 457.019C567.807 454.865 567.565 452.721 567.305 450.577C566.387 442.608 565.454 434.654 564.521 426.7C563.587 418.746 562.654 410.792 561.736 402.823C561.185 397.858 560.634 392.954 560.022 388.049C559.891 386.963 559.74 385.863 559.587 384.753C558.888 379.662 558.161 374.363 559.166 369.23C559.227 368.74 560.022 368.923 559.9 369.414C558.878 374.726 559.636 380.039 560.389 385.321C560.583 386.682 560.777 388.041 560.94 389.398C562.378 401.594 563.801 413.805 565.223 426.016C566.642 438.195 568.061 450.373 569.494 462.536C569.478 462.536 569.461 462.535 569.444 462.535C569.19 462.53 568.936 462.524 568.682 462.519Z" fill="#FFCD70"/>
<path d="M591.026 242.652C590.904 242.897 586.864 251.295 586.864 256.751C586.864 256.751 567.832 255.831 567.832 252.337C567.832 243.203 571.075 237.625 571.075 237.625C571.075 237.625 584.049 239.035 591.026 242.652Z" fill="#5F7FFD"/>
<path d="M591.026 242.651C586.252 243.755 579.398 248.291 575.543 247.801C572.85 247.494 571.014 237.563 571.014 237.563C571.014 237.563 584.049 239.035 591.026 242.651Z" fill="#4E6EE9"/>
<path d="M577.78 244.861C578.05 244.095 577.726 243.282 577.057 243.045C576.388 242.809 575.626 243.238 575.356 244.004C575.086 244.77 575.41 245.583 576.079 245.82C576.748 246.057 577.51 245.628 577.78 244.861Z" fill="#212841"/>
<path fill-rule="evenodd" clip-rule="evenodd" d="M444.557 111.596C441.485 114.786 437.173 116.771 432.399 116.771C427.681 116.771 423.415 114.834 420.351 111.71C423.102 107.993 427.518 105.584 432.497 105.584C437.424 105.584 441.801 107.944 444.557 111.596Z" fill="#7E9BFF"/>
<circle cx="443.822" cy="111.247" r="5.27527" fill="#23BF79" stroke="white" stroke-width="3"/>
<circle cx="434.856" cy="170.236" r="3.35954" fill="#23BF79" stroke="white" stroke-width="2"/>
<circle cx="432.497" cy="97.0897" r="5.6629" fill="#7E9BFF"/>
<path d="M593.836 98.7526C593.423 99.1195 593.386 99.7516 593.753 100.164C594.12 100.577 594.752 100.614 595.164 100.247L593.836 98.7526ZM599 95.5L599.664 94.7526C599.285 94.4158 598.715 94.4158 598.336 94.7526L599 95.5ZM602.836 100.247C603.248 100.614 603.88 100.577 604.247 100.164C604.614 99.7516 604.577 99.1195 604.164 98.7526L602.836 100.247ZM595.164 100.247L599.664 96.2474L598.336 94.7526L593.836 98.7526L595.164 100.247ZM598.336 96.2474L602.836 100.247L604.164 98.7526L599.664 94.7526L598.336 96.2474Z" fill="#A9BCFF"/>
<circle cx="159.5" cy="83.5" r="2.5" fill="white"/>
<circle cx="168.5" cy="83.5" r="2.5" fill="white"/>
<path fill-rule="evenodd" clip-rule="evenodd" d="M148.146 85.2301C147.951 85.4254 147.951 85.742 148.146 85.9372C148.342 86.1325 148.658 86.1325 148.854 85.9372L150.583 84.2074L152.313 85.9372C152.508 86.1325 152.825 86.1325 153.02 85.9372C153.215 85.742 153.215 85.4254 153.02 85.2301L151.29 83.5003L153.02 81.7705C153.215 81.5753 153.215 81.2587 153.02 81.0634C152.825 80.8682 152.508 80.8682 152.313 81.0634L150.583 82.7932L148.854 81.0634C148.658 80.8682 148.342 80.8682 148.146 81.0634C147.951 81.2587 147.951 81.5753 148.146 81.7705L149.876 83.5003L148.146 85.2301Z" fill="white"/>
<defs>
<filter id="filter0_d" x="100.197" y="35" width="560.241" height="317.159" filterUnits="userSpaceOnUse" color-interpolation-filters="sRGB">
<feFlood flood-opacity="0" result="BackgroundImageFix"/>
<feColorMatrix in="SourceAlpha" type="matrix" values="0 0 0 0 0 0 0 0 0 0 0 0 0 0 0 0 0 0 127 0"/>
<feOffset/>
<feGaussianBlur stdDeviation="15"/>
<feColorMatrix type="matrix" values="0 0 0 0 0.813021 0 0 0 0 0.852385 0 0 0 0 1 0 0 0 1 0"/>
<feBlend mode="normal" in2="BackgroundImageFix" result="effect1_dropShadow"/>
<feBlend mode="normal" in="SourceGraphic" in2="effect1_dropShadow" result="shape"/>
</filter>
<linearGradient id="paint0_linear" x1="35.2674" y1="303.387" x2="96.2437" y2="494.917" gradientUnits="userSpaceOnUse">
<stop stop-color="#AFC0FF"/>
<stop offset="1" stop-color="white"/>
</linearGradient>
<linearGradient id="paint1_linear" x1="644.97" y1="302.409" x2="583.508" y2="494.855" gradientUnits="userSpaceOnUse">
<stop stop-color="#AFC0FF"/>
<stop offset="1" stop-color="white" stop-opacity="0"/>
</linearGradient>
<linearGradient id="paint2_linear" x1="442.407" y1="419.403" x2="262.61" y2="512.369" gradientUnits="userSpaceOnUse">
<stop stop-color="#DEE5FE"/>
<stop offset="1" stop-color="white" stop-opacity="0"/>
</linearGradient>
<linearGradient id="paint3_linear" x1="395.688" y1="65" x2="130.475" y2="55.5618" gradientUnits="userSpaceOnUse">
<stop stop-color="#6688FF"/>
<stop offset="1" stop-color="#4D6BD7"/>
</linearGradient>
<linearGradient id="paint4_linear" x1="205.738" y1="405.372" x2="205.738" y2="570.559" gradientUnits="userSpaceOnUse">
<stop stop-color="#D6DFFF"/>
<stop offset="0.494792" stop-color="#EAEFFF"/>
<stop offset="1" stop-color="#A4B8FF"/>
</linearGradient>
<linearGradient id="paint5_linear" x1="125.756" y1="393.448" x2="246.565" y2="393.448" gradientUnits="userSpaceOnUse">
<stop stop-color="#4E6EE9"/>
<stop offset="1" stop-color="#A4B8FF"/>
</linearGradient>
<linearGradient id="paint6_linear" x1="317" y1="136" x2="344" y2="190.5" gradientUnits="userSpaceOnUse">
<stop offset="0.202707" stop-color="#FFF0BC"/>
<stop offset="1" stop-color="#FF9B00"/>
</linearGradient>
<linearGradient id="paint7_linear" x1="357" y1="245" x2="386.5" y2="341" gradientUnits="userSpaceOnUse">
<stop stop-color="#4E6EE9"/>
<stop offset="1" stop-color="#3C5BC8"/>
</linearGradient>
<linearGradient id="paint8_linear" x1="324" y1="238" x2="359" y2="196.5" gradientUnits="userSpaceOnUse">
<stop stop-color="#FFD89E"/>
<stop offset="1" stop-color="#FF9B00"/>
</linearGradient>
<linearGradient id="paint9_linear" x1="340.946" y1="292.46" x2="340.719" y2="527.948" gradientUnits="userSpaceOnUse">
<stop stop-color="#FFC14F"/>
<stop offset="1" stop-color="#F48B30"/>
</linearGradient>
<linearGradient id="paint10_linear" x1="242.79" y1="303.314" x2="248.452" y2="347.673" gradientUnits="userSpaceOnUse">
<stop stop-color="#C9D6FF"/>
<stop offset="0.55664" stop-color="#B1C3FF"/>
<stop offset="1" stop-color="#8AA4FF"/>
</linearGradient>
<linearGradient id="paint11_linear" x1="405" y1="354" x2="462.5" y2="530.5" gradientUnits="userSpaceOnUse">
<stop stop-color="#9AB0FF"/>
<stop offset="0.910907" stop-color="white" stop-opacity="0"/>
<stop offset="1" stop-color="white" stop-opacity="0"/>
</linearGradient>
<linearGradient id="paint12_linear" x1="573.125" y1="563.336" x2="560.384" y2="456.685" gradientUnits="userSpaceOnUse">
<stop stop-color="#FEDEAC"/>
<stop offset="1" stop-color="#FFB26A"/>
</linearGradient>
<linearGradient id="paint13_linear" x1="549.058" y1="310.865" x2="604.743" y2="458.1" gradientUnits="userSpaceOnUse">
<stop stop-color="#FFC14F"/>
<stop offset="1" stop-color="#F59234"/>
</linearGradient>
</defs>
</svg>
