<svg width="783" height="622" viewBox="0 0 783 622" fill="none" xmlns="http://www.w3.org/2000/svg">
<path d="M116.816 284.491C111.353 337.29 106.922 404.031 130.429 447.749C151.414 486.778 203.733 526.646 238.689 553.464C291.283 593.813 341.438 622 427.657 622C499.139 622 537.861 592.504 588.75 553.464C606.577 539.787 671.691 515.316 702.632 457.771C726.138 414.053 739.471 364.079 739.471 311C739.471 264.1 715.199 231.472 710.423 179.746C702.632 95.369 651.168 87.4744 606.577 56.2611C561.987 25.0477 494.23 0 427.657 0C326.852 0 279.062 49.0808 223.13 102.158C163.429 158.813 130.429 152.914 116.816 284.491Z" fill="#FCFCFC"/>
<path d="M512.033 178.964C512.033 178.964 485.902 76.205 501.142 37.0065C501.142 37.0065 508.635 13.0546 515.316 22.2382C517.805 25.6586 518.198 30.1581 518.565 34.3761C519.991 50.7787 523.585 94.4343 522.811 109.559C522.811 109.559 548.111 73.5049 540.711 105.42C540.711 105.42 524.87 161.874 527.759 183.127C520.402 197.09 512.033 178.964 512.033 178.964Z" fill="url(#paint0_linear)"/>
<path d="M501.561 226.521C499.425 224.825 442.377 112.544 459.713 83.8283C459.713 83.8283 464.515 66.8889 479.13 80.1247C479.13 80.1247 526.302 120.202 513.523 231.958L503.877 232.453L501.561 226.521Z" fill="url(#paint1_linear)"/>
<path d="M543.154 249.543C543.154 249.543 546.8 172.926 556.063 122.619C565.326 72.3116 582.506 85.4225 581.272 120.328C580.038 155.233 572.165 169.234 572.165 169.234C572.165 169.234 599.01 123.834 606.936 127.455C614.862 131.075 603.743 150.094 587.909 184.153C587.909 184.153 603.681 162.11 609.904 165.342C609.904 165.342 622.737 168.425 599.727 206.832L539.026 297.474L538.508 260.58L543.154 249.543Z" fill="url(#paint2_linear)"/>
<path d="M328.664 210.751C344.672 228.563 346.571 204.399 332.27 193.439C318.558 165.382 336.324 136.659 336.935 133.008C339.317 117.358 329.524 107.178 317.543 126.405C306.823 145.405 307.202 144.842 305.792 143.518C303.484 141.351 301.419 111.567 292.644 104.946C283.753 98.3323 279.822 109.287 285.043 123.225C290.381 137.156 279.21 125.305 275.252 115.146C271.58 105.903 254.202 83.3199 248.366 89.4829C247.262 90.5952 247.128 92.3528 247.562 93.8448C248.126 95.5629 249.228 98.5339 250.329 101.505C251.696 105.044 248.507 108.491 244.836 107.532C237.248 105.394 228.038 103.465 226.909 106.212C224.956 110.872 241.455 119.972 249.833 123.699C258.095 127.432 271.862 137.736 256.966 136.362C242.077 135.103 218.241 136.567 240.485 146.16C240.724 146.263 241.08 146.359 241.319 146.463C245.688 147.382 281.611 155.385 284.812 158.354C289.966 162.267 297.844 170.1 282.948 168.725C268.408 167.447 243.812 165.804 261.051 177.663C261.905 178.315 265.233 179.41 266.3 179.699C269.978 180.775 279.945 183.711 289.543 186.319C296.058 188.05 304.193 293.386 305.792 296.912C306.99 299.528 320.452 227.875 322.809 226.226L328.664 210.751Z" fill="#D1DBFD"/>
<path d="M227.651 245L631.471 245" stroke="#E5EBFF" stroke-width="2" stroke-linecap="round" stroke-dasharray="20 40"/>
<path d="M188.471 368H652.471" stroke="#E5EBFF" stroke-width="2" stroke-linecap="round" stroke-dasharray="20 30"/>
<path d="M206.471 455H582.471" stroke="#E5EBFF" stroke-width="2" stroke-linecap="round" stroke-dasharray="20 30"/>
<path d="M221.285 570.201C222.419 565.03 225.696 552.119 227.019 546.582C230.102 545.815 236.267 545.201 236.267 548.885C236.267 553.491 238.629 563.162 245.052 563.162C251.988 563.162 253.375 569.149 251.988 570.992C250.601 572.834 239.504 574.676 236.267 573.755C233.678 573.018 231.797 564.544 231.181 560.399L223.533 571.116C223.349 571.374 223.078 571.556 222.769 571.627C221.878 571.834 221.089 571.094 221.285 570.201Z" fill="#212841"/>
<path d="M263.751 578.451C261.513 578.762 260.581 572.174 257.498 563.685C257.498 561.244 256.839 552.497 262.107 555.694C268.692 559.689 273.301 563.685 277.252 560.356C280.413 557.692 284.715 561.466 286.471 563.685C285.813 564.795 283.047 567.948 277.252 571.677C271.458 575.406 266.058 570.123 264.082 567.015C264.082 572.112 265.988 578.14 263.751 578.451Z" fill="#212841"/>
<path d="M214.259 429.313C201.229 500.478 196.592 419.305 173.14 422.421C149.689 425.537 155.696 479.475 120.471 516.869V537.027L722.471 568V516.869C617.595 516.869 633.308 378.79 606.507 365.979C579.705 353.168 575.137 477.127 530.628 477.127C486.118 477.127 493.776 415.843 453.574 422.421C413.372 428.999 427.251 464.316 389.442 477.127C351.633 489.938 363.922 380.653 338.078 377.536C312.234 374.42 301.917 545.269 288.937 415.843C255.84 85.8308 236.436 308.193 214.259 429.313Z" fill="url(#paint3_linear)" fill-opacity="0.4"/>
<g filter="url(#filter0_d)">
<rect x="307.471" y="115" width="251" height="441" rx="20" fill="url(#paint4_linear)"/>
</g>
<path d="M569.838 296.29C569.04 296.918 568.123 296.316 568.252 295.315C569.041 288.326 571.773 268.821 578.987 271.166C591.489 275.186 576.212 291.005 569.838 296.29Z" fill="#CCD6F7"/>
<g clip-path="url(#clip0)">
<path d="M455.581 245C453.96 273.335 411.362 273.568 411.362 245C411.362 216.432 453.96 216.665 455.581 245C456.044 253.826 469.934 254.058 469.471 245C468.314 225.49 453.728 209 433.355 209C413.908 209 397.471 225.49 397.471 245C397.471 264.045 412.982 280.303 431.735 281C452.802 281.929 468.082 265.206 469.24 245C469.934 236.174 456.044 236.174 455.581 245Z" fill="#E5EAFF"/>
<path d="M411.593 248.716C409.741 218.29 453.728 214.11 455.581 245C456.044 253.826 469.934 254.058 469.471 245C468.314 224.793 452.802 208.071 431.735 209C410.899 209.929 396.314 228.51 397.703 248.716C398.166 257.774 412.056 257.774 411.593 248.716Z" fill="url(#paint5_linear)"/>
<ellipse cx="463.147" cy="244.675" rx="4.67532" ry="4.67533" fill="white"/>
</g>
<path d="M484.999 244.493C484.226 272.539 462.056 295.954 433.183 295.954C404.827 295.954 381.626 272.539 381.368 244.236C381.368 216.19 405.085 192.776 433.183 192.776C462.056 192.776 484.226 216.19 484.999 244.493C485.257 254.528 500.724 254.528 500.466 244.493C499.693 216.448 483.452 191.747 456.9 181.712C430.348 171.42 399.413 179.911 381.368 201.782C342.184 249.382 385.235 321.426 445.557 310.362C477.781 304.445 499.693 276.141 500.466 244.493C500.724 234.459 485.257 234.459 484.999 244.493Z" fill="#E4EAFF"/>
<path d="M401.948 285.136C372.204 260.138 377.191 212.511 414.437 196.791C444.964 183.906 483.913 208.179 484.947 244.516C485.206 254.567 500.725 254.567 500.466 244.516C499.19 194.941 451.323 163.853 406.836 182.665C360.279 202.251 352.519 264.617 390.541 296.574C398.3 303.016 409.449 291.579 401.948 285.136Z" fill="white"/>
<path d="M401.948 285.136C372.204 260.138 377.191 212.511 414.437 196.791C444.964 183.906 483.913 208.179 484.947 244.516C485.206 254.567 500.725 254.567 500.466 244.516C499.19 194.941 451.323 163.853 406.836 182.665C360.279 202.251 352.519 264.617 390.541 296.574C398.3 303.016 409.449 291.579 401.948 285.136Z" fill="url(#paint6_linear)"/>
<ellipse cx="395.147" cy="289.675" rx="4.67532" ry="4.67533" fill="white"/>
<path d="M119.262 467.238L109.471 451.812C112.391 446.419 135.753 429.671 157.884 438.547C185.549 449.642 219.208 463.974 230.735 480.154C239.68 492.71 255.421 535.57 262.81 557.258C263.232 558.494 263.078 559.851 262.397 560.966C260.86 563.481 257.635 563.579 256.068 561.084C251.915 554.469 244.921 542.985 240.417 536.875C211.83 498.042 222.435 496.797 206.759 495.872C196.262 495.253 159.837 486.071 137.067 480.202C129.697 478.303 123.34 473.664 119.262 467.238Z" fill="#F48B30"/>
<path d="M130.443 493.411C111.765 484.842 109.305 464.984 114.407 455.265C123.663 451.701 145.7 447.016 154.956 439.948C166.526 431.114 225.765 432.974 242.426 439.948C255.191 445.292 244.92 511.05 237.389 547.369C236.826 550.086 234.429 552 231.655 552C228.402 552 225.809 549.402 225.953 546.153C226.906 524.565 230.967 460.616 225.765 461.897C186.567 471.544 157.311 505.735 130.443 493.411Z" fill="#FFC14F"/>
<circle cx="364.483" cy="340.854" r="4.62541" fill="#6688FF"/>
<rect x="379.284" y="338.078" width="128.586" height="5.55049" rx="2.77524" fill="#E4EAFF"/>
<rect x="333.955" y="138.261" width="45.329" height="15.7264" rx="7.86319" fill="#E4EAFF"/>
<g filter="url(#filter1_d)">
<rect x="191.471" y="279" width="138" height="89" rx="15" fill="white"/>
</g>
<path d="M226.471 321.982C235.249 321.982 233.421 335 241.255 335C254.385 335 249.86 303 260.572 303C271.284 303 270.031 337.439 279.6 324.711C292.262 307.869 296.271 335 305.471 335" stroke="#6688FF" stroke-width="4" stroke-linecap="round"/>
<path d="M189.007 289.731C187.469 289.731 180.932 294.577 177.855 297L172.471 293.175C174.266 291.644 178.855 287.666 182.854 283.993C187.854 279.402 187.469 279.02 193.622 276.724C199.775 274.429 210.927 278.255 211.312 279.02C211.696 279.785 211.312 280.55 210.927 280.167C210.543 279.785 204.774 279.02 202.467 279.02C200.16 279.02 195.16 283.228 194.776 283.993C194.391 284.758 195.16 287.436 198.237 285.906C201.313 284.375 202.852 285.141 202.467 285.906C202.082 286.671 199.006 288.201 196.699 289.731C194.391 291.262 190.93 289.731 189.007 289.731Z" fill="#FFCA78"/>
<path d="M171.413 289.855C166.922 292.283 161.385 294.727 157.382 296.891L110.18 326.992C114.324 331.496 135.937 332.444 141.009 330.412C145.661 328.549 166.15 309.763 178.24 298.316C180.01 296.641 180.293 293.938 178.929 291.919L178.612 291.448C177.048 289.133 173.872 288.527 171.413 289.855Z" fill="#5772D1"/>
<path d="M122.81 327.616L124.36 299.157C123.295 298.166 119.587 294.308 113.28 286.8C105.396 277.416 123.038 251.513 139.16 253.51C155.282 255.508 164.698 277.848 164.516 281.196C164.334 284.545 164.963 293.534 163.695 296.263C162.427 298.992 167.085 305.962 166.872 309.868C166.659 313.774 162.874 311.33 162.601 316.352C160.664 331.357 142.675 322.542 140.534 320.746C138.393 318.951 137.622 322.826 135.177 326.611C132.733 330.395 136.395 335.072 131.191 338.147C127.027 340.607 123.869 332.151 122.81 327.616Z" fill="#FCE7C7"/>
<path d="M130.437 311.251C127.878 310.755 122.574 309.147 125.419 309.147C93.9404 291.193 116.458 268.359 105.978 265.546C95.4984 262.734 97.2435 312.641 96.1131 333.288C94.9826 353.934 54.9502 338.87 49.2945 360.388C43.6389 381.906 19.1559 389.52 13.7978 395.383C8.43956 401.246 -2.14654 420.815 0.78016 398.029C3.70686 375.242 15.5777 373.093 7.24449 341.295C-1.08877 309.496 28.7689 316.168 50.9574 268.69C73.1459 221.213 89.1305 246.154 101.032 243.448C112.934 240.742 112.758 254.164 131.539 248.476C150.32 242.788 162.483 255.767 165.586 260.415C168.69 265.062 170.264 280.933 165.586 284.594C162.047 287.365 149.486 284.889 145.202 283.519C146.515 286.53 143.54 297.375 140.613 297.375C135.742 297.375 134.268 294.018 131.539 292.75C128.81 291.481 128.963 295.629 131.539 299.688C134.115 303.747 135.318 312.197 130.437 311.251Z" fill="#212841"/>
<rect x="337.655" y="453.713" width="199.818" height="59.2052" rx="10" fill="#E5EAFF"/>
<path d="M510.646 478.69L514.346 482.853L510.646 487.016" stroke="#6688FF" stroke-width="2" stroke-linecap="round" stroke-linejoin="round"/>
<rect x="360.782" y="487.016" width="97.1336" height="6.47557" rx="3.23779" fill="white"/>
<rect x="360.782" y="474.064" width="111.935" height="6.47557" rx="3.23779" fill="white"/>
<ellipse cx="394.971" cy="264" rx="4.5" ry="5" fill="white"/>
<rect x="337.655" y="526.795" width="199.818" height="59.2052" rx="10" fill="#4E6EE8"/>
<rect x="360.782" y="562.873" width="153.564" height="5.55049" rx="2.77524" fill="white"/>
<rect x="360.782" y="562.873" width="79.557" height="5.55049" rx="2.77524" fill="#ADBDFF"/>
<path d="M517.121 538.821C518.168 539.868 523.008 544.708 524.317 546.017" stroke="white" stroke-width="2" stroke-linecap="round"/>
<path d="M524.316 538.821C523.27 539.868 518.429 544.708 517.121 546.017" stroke="white" stroke-width="2" stroke-linecap="round"/>
<path d="M531.922 141.961C532.969 143.008 537.809 147.848 539.118 149.156" stroke="#E5EBFF" stroke-width="2" stroke-linecap="round"/>
<path d="M539.118 141.961C538.071 143.008 533.231 147.848 531.922 149.156" stroke="#E5EBFF" stroke-width="2" stroke-linecap="round"/>
<g filter="url(#filter2_d)">
<circle cx="255.971" cy="244.433" r="10" fill="white"/>
</g>
<path d="M599.963 365.508V529.034H601.963V365.508H599.963ZM570.963 558.034H537.473V560.034H570.963V558.034ZM599.963 529.034C599.963 545.05 586.979 558.034 570.963 558.034V560.034C588.084 560.034 601.963 546.155 601.963 529.034H599.963ZM637.47 328C616.756 328 599.963 344.793 599.963 365.508H601.963C601.963 345.897 617.86 330 637.47 330V328Z" fill="#6688FF"/>
<g filter="url(#filter3_d)">
<circle cx="306.971" cy="335.5" r="4.5" fill="white"/>
</g>
<path d="M267.821 363.004C263.1 361.186 260.709 362.246 260.103 363.004C259.014 363.631 257.228 369.929 256.471 373C259.195 371.94 265.733 370.001 270.091 370.728C275.539 371.637 286.889 368.456 290.067 368.002C292.61 367.638 291.127 366.336 290.067 365.73C288.1 365.427 283.53 365.003 280.987 365.73C277.809 366.639 273.723 365.275 267.821 363.004Z" fill="#FFCC7D"/>
<path fill-rule="evenodd" clip-rule="evenodd" d="M121.138 323.52C125.625 324.014 137.039 327.43 146.804 337.14C159.009 349.278 184.562 363.347 192.748 364.932C197.392 365.832 217.068 365.419 234.232 365.059C245.213 364.828 255.165 364.619 259.494 364.789C260.638 364.834 261.545 365.627 261.875 366.723L263.211 371.164C263.702 372.796 262.749 374.506 261.087 374.886C242.613 379.112 199.175 385.514 192.827 383.555C184.917 381.114 165.799 374.583 156.746 370.909C157.523 374.075 158.274 377.345 159.042 380.692C162.914 397.556 167.238 416.388 177.616 433.824C180.812 439.192 111.936 477.765 108.235 452.787C109.9 431.816 106.773 409.706 103.96 389.82C98.9565 354.444 94.9487 326.108 120.683 323.739C120.739 323.755 120.795 323.771 120.85 323.789C120.946 323.699 121.042 323.609 121.138 323.52Z" fill="#4E6EE9"/>
<path d="M108.471 267C109.431 260.389 113.271 252.361 120.471 250" stroke="#FFC14F" stroke-width="5" stroke-linecap="round"/>
<path d="M204.443 297.375H213.694" stroke="#AEBEF3" stroke-width="3" stroke-linecap="round"/>
<path d="M204.443 309.401H213.694" stroke="#AEBEF3" stroke-width="3" stroke-linecap="round"/>
<path d="M204.443 321.427H213.694" stroke="#AEBEF3" stroke-width="3" stroke-linecap="round"/>
<path d="M204.443 333.453H213.694" stroke="#AEBEF3" stroke-width="3" stroke-linecap="round"/>
<path d="M204.443 345.479H213.694" stroke="#AEBEF3" stroke-width="3" stroke-linecap="round"/>
<rect x="379.284" y="362.131" width="89.7329" height="5.55049" rx="2.77524" fill="#E4EAFF"/>
<rect x="359.471" y="393" width="89.7329" height="5.55049" rx="2.77524" fill="#E4EAFF"/>
<rect x="359.471" y="406" width="119" height="6" rx="3" fill="#E4EAFF"/>
<rect x="359.471" y="419" width="108" height="6" rx="3" fill="#E4EAFF"/>
<rect x="359.471" y="432" width="125" height="6" rx="3" fill="#E4EAFF"/>
<circle cx="364.482" cy="364.906" r="4.62541" fill="#FFC14F"/>
<path d="M681.339 440.285C680.003 438.666 675.207 433.809 672.976 431.583C671.766 430.515 668.15 431.08 663.359 441.881C661.463 446.154 662.737 450.671 656.797 457.073C651.153 461.21 650.827 467.735 658.715 463.931C663.223 461.758 668.137 454.67 670.872 451.701C668.381 446.534 674.746 446.295 675.962 446.416C677.101 444.169 680.021 441.392 681.339 440.285Z" fill="#212841"/>
<path d="M750.471 330.548V324.424C729.758 313.692 635.221 325.47 625.622 328.537C617.943 330.99 650.681 403.417 664.321 438L676.209 434.305C674.592 416.315 665.163 375.591 664.321 357.874L719.025 360.513C736.141 361.339 750.471 347.684 750.471 330.548Z" fill="#F48B30"/>
<path d="M704.686 439.966C703.346 438.23 698.506 432.996 696.253 430.596C695.027 429.44 691.232 429.907 685.862 441.019C683.737 445.415 684.914 450.174 678.494 456.655C672.461 460.781 671.898 467.581 680.263 463.879C685.042 461.764 690.414 454.533 693.37 451.526C690.946 446.048 697.599 446.015 698.864 446.183C700.13 443.876 703.273 441.077 704.686 439.966Z" fill="#212841"/>
<path d="M773.471 334.274V324.424C752.758 313.692 658.221 325.47 648.622 328.537C640.943 330.99 673.681 403.417 687.321 438L699.209 434.305C697.592 416.315 684.477 376.275 683.635 358.558L740.547 364.131C758.187 365.858 773.471 351.998 773.471 334.274Z" fill="#FFC14F"/>
<path d="M681.97 243C680.37 234.2 684.637 227 686.97 224.5C693.97 231.5 706.971 323.5 704.971 328.5C703.371 332.5 692.304 320.5 686.97 314C685.97 294 683.57 251.8 681.97 243Z" fill="#B2C3FC"/>
<path d="M709.971 205.5C685.11 217.929 672.23 218.5 703.471 319C709.537 338.514 765.879 326.667 771.44 327.694C777 328.721 772.859 268.061 763.857 242.96C753.471 214 722.971 199 709.971 205.5Z" fill="#4E6EE9"/>
<path d="M703.273 301.439C700.009 303.641 701.913 317.261 703.273 321.389C705.993 322.764 712.112 321.389 716.192 321.389C720.271 321.389 717.503 308.318 722.311 308.318C726.391 308.318 730.471 308.318 730.471 303.503L729.111 299.376C726.844 299.376 722.447 298 717.552 298C711.432 298 707.352 298.688 703.273 301.439Z" fill="#FCE7C7"/>
<path d="M681.333 292H606.461C603.825 292 602.47 295.156 604.287 297.067L633.751 328.067C634.318 328.663 635.104 329 635.926 329H709.665C712.273 329 713.639 325.901 711.879 323.976L683.548 292.976C682.979 292.354 682.176 292 681.333 292Z" fill="#212841"/>
<rect x="653.471" y="322" width="101" height="7" rx="3.5" fill="#212841"/>
<path d="M708.67 231C701.429 231 698.412 224.672 697.808 221.509C695.161 215.926 708.67 187.452 717.721 200.293C726.773 213.134 717.721 231 708.67 231Z" fill="#FFD696"/>
<path d="M694.511 223.879C683.751 225.63 671.977 214.749 667.435 209.089C621.883 163.926 682.332 158.908 693.316 157.513C704.299 156.117 710.342 176.603 714.801 193.859C719.261 211.116 707.962 221.691 694.511 223.879Z" fill="#FCE7C7"/>
<path d="M660.578 205.882C644.586 201.352 644.935 184.501 648.356 173.713C653.261 152.445 683.593 145.974 701.147 156.738C713.41 164.258 708.733 172.155 714.471 190C715.756 194.617 713.673 194.257 711.471 191.5C709.406 186.538 707.65 194.497 705.522 195.181C703.393 195.866 701.801 186.532 697.303 184.228C692.804 181.924 695.279 188.161 692.813 193.642C690.348 199.123 669.88 208.517 660.578 205.882Z" fill="#212841"/>
<path d="M726.471 306.962V302.742C726.471 300.533 728.257 298.742 730.464 298.845C742.021 299.382 759.106 301.907 766.971 303.242C762.471 300.242 739.471 255.242 733.971 242.742C728.471 230.242 743.971 214.242 756.471 226.242C768.971 238.242 792.471 321.742 778.471 326.742C767.817 330.547 741.843 318.066 728.432 310.384C727.206 309.681 726.471 308.375 726.471 306.962Z" fill="#B2C3FC"/>
<ellipse cx="653.531" cy="312.85" rx="7" ry="4" transform="rotate(28.4255 653.531 312.85)" fill="#84C201"/>
<path d="M696.471 366.5C696.471 362.91 699.572 360 703.398 360H770.543C774.369 360 777.471 362.91 777.471 366.5C777.471 370.09 774.369 373 770.543 373H703.398C699.572 373 696.471 370.09 696.471 366.5Z" fill="#212841"/>
<path d="M706.471 583V375C706.471 373.895 707.366 373 708.471 373H764.471C765.575 373 766.471 373.895 766.471 375V583C766.471 584.105 765.575 585 764.471 585H708.471C707.366 585 706.471 584.105 706.471 583Z" stroke="url(#paint7_linear)" stroke-width="2"/>
<defs>
<filter id="filter0_d" x="267.471" y="75" width="331" height="521" filterUnits="userSpaceOnUse" color-interpolation-filters="sRGB">
<feFlood flood-opacity="0" result="BackgroundImageFix"/>
<feColorMatrix in="SourceAlpha" type="matrix" values="0 0 0 0 0 0 0 0 0 0 0 0 0 0 0 0 0 0 127 0"/>
<feOffset/>
<feGaussianBlur stdDeviation="20"/>
<feColorMatrix type="matrix" values="0 0 0 0 0 0 0 0 0 0 0 0 0 0 0 0 0 0 0.1 0"/>
<feBlend mode="normal" in2="BackgroundImageFix" result="effect1_dropShadow"/>
<feBlend mode="normal" in="SourceGraphic" in2="effect1_dropShadow" result="shape"/>
</filter>
<filter id="filter1_d" x="151.471" y="239" width="218" height="169" filterUnits="userSpaceOnUse" color-interpolation-filters="sRGB">
<feFlood flood-opacity="0" result="BackgroundImageFix"/>
<feColorMatrix in="SourceAlpha" type="matrix" values="0 0 0 0 0 0 0 0 0 0 0 0 0 0 0 0 0 0 127 0"/>
<feOffset/>
<feGaussianBlur stdDeviation="20"/>
<feColorMatrix type="matrix" values="0 0 0 0 0 0 0 0 0 0 0 0 0 0 0 0 0 0 0.14 0"/>
<feBlend mode="normal" in2="BackgroundImageFix" result="effect1_dropShadow"/>
<feBlend mode="normal" in="SourceGraphic" in2="effect1_dropShadow" result="shape"/>
</filter>
<filter id="filter2_d" x="230.971" y="219.433" width="50" height="50" filterUnits="userSpaceOnUse" color-interpolation-filters="sRGB">
<feFlood flood-opacity="0" result="BackgroundImageFix"/>
<feColorMatrix in="SourceAlpha" type="matrix" values="0 0 0 0 0 0 0 0 0 0 0 0 0 0 0 0 0 0 127 0"/>
<feOffset/>
<feGaussianBlur stdDeviation="7.5"/>
<feColorMatrix type="matrix" values="0 0 0 0 0 0 0 0 0 0 0 0 0 0 0 0 0 0 0.15 0"/>
<feBlend mode="normal" in2="BackgroundImageFix" result="effect1_dropShadow"/>
<feBlend mode="normal" in="SourceGraphic" in2="effect1_dropShadow" result="shape"/>
</filter>
<filter id="filter3_d" x="297.471" y="326" width="19" height="19" filterUnits="userSpaceOnUse" color-interpolation-filters="sRGB">
<feFlood flood-opacity="0" result="BackgroundImageFix"/>
<feColorMatrix in="SourceAlpha" type="matrix" values="0 0 0 0 0 0 0 0 0 0 0 0 0 0 0 0 0 0 127 0"/>
<feOffset/>
<feGaussianBlur stdDeviation="2.5"/>
<feColorMatrix type="matrix" values="0 0 0 0 0.238819 0 0 0 0 0.353341 0 0 0 0 0.754167 0 0 0 0.5 0"/>
<feBlend mode="normal" in2="BackgroundImageFix" result="effect1_dropShadow"/>
<feBlend mode="normal" in="SourceGraphic" in2="effect1_dropShadow" result="shape"/>
</filter>
<linearGradient id="paint0_linear" x1="510.645" y1="70.2671" x2="497.127" y2="177.202" gradientUnits="userSpaceOnUse">
<stop stop-color="#CED7FB"/>
<stop offset="1" stop-color="white" stop-opacity="0"/>
</linearGradient>
<linearGradient id="paint1_linear" x1="462.591" y1="74.3683" x2="485.561" y2="135.616" gradientUnits="userSpaceOnUse">
<stop stop-color="#CAD5FB"/>
<stop offset="1" stop-color="white" stop-opacity="0"/>
</linearGradient>
<linearGradient id="paint2_linear" x1="592.978" y1="102.646" x2="579.101" y2="291.362" gradientUnits="userSpaceOnUse">
<stop stop-color="#C9D4FA"/>
<stop offset="1" stop-color="white" stop-opacity="0"/>
</linearGradient>
<linearGradient id="paint3_linear" x1="388.485" y1="350.673" x2="388.485" y2="537.026" gradientUnits="userSpaceOnUse">
<stop stop-color="#6688FF"/>
<stop offset="0.78125" stop-color="white"/>
<stop offset="1" stop-color="white" stop-opacity="0"/>
</linearGradient>
<linearGradient id="paint4_linear" x1="432.971" y1="115" x2="432.971" y2="556" gradientUnits="userSpaceOnUse">
<stop offset="0.747141" stop-color="white"/>
<stop offset="1" stop-color="white" stop-opacity="0"/>
</linearGradient>
<linearGradient id="paint5_linear" x1="392.328" y1="263.702" x2="436.744" y2="243.13" gradientUnits="userSpaceOnUse">
<stop stop-color="#FF7448"/>
<stop offset="1" stop-color="#FFC14F"/>
</linearGradient>
<linearGradient id="paint6_linear" x1="412.811" y1="307.817" x2="462.318" y2="233.197" gradientUnits="userSpaceOnUse">
<stop stop-color="#6688FF"/>
<stop offset="0.0001" stop-color="#4E6EE9"/>
<stop offset="1" stop-color="#B19DFF"/>
</linearGradient>
<linearGradient id="paint7_linear" x1="736.471" y1="373" x2="740.971" y2="589.5" gradientUnits="userSpaceOnUse">
<stop stop-color="#212841"/>
<stop offset="1" stop-color="white" stop-opacity="0"/>
</linearGradient>
<clipPath id="clip0">
<rect width="72" height="72" fill="white" transform="translate(397.471 209)"/>
</clipPath>
</defs>
</svg>
