<svg width="642" height="622" viewBox="0 0 642 622" fill="none" xmlns="http://www.w3.org/2000/svg">
<path d="M19.3448 284.491C13.882 337.29 9.45166 404.031 32.9583 447.749C53.9434 486.778 106.262 526.646 141.218 553.464C193.812 593.813 243.967 622 330.186 622C401.669 622 440.391 592.504 491.279 553.464C509.106 539.787 574.22 515.316 605.161 457.771C628.668 414.053 642 364.079 642 311C642 264.1 617.728 231.472 612.952 179.746C605.161 95.369 553.697 87.4744 509.106 56.2611C464.516 25.0477 396.76 0 330.186 0C229.382 0 181.591 49.0808 125.66 102.158C65.9583 158.813 32.9583 152.914 19.3448 284.491Z" fill="white"/>
<g clip-path="url(#clip0)">
<path d="M568.255 326.675C574.339 285.427 622.406 197.67 494.619 203.042C492.782 203.113 490.965 203.382 489.118 203.735C476.779 206.143 420.483 214.212 386.839 166.879C386.224 165.981 396.678 189.814 386.839 158.582C370.635 107.144 267 43.0821 214.505 177.582C226.13 172.496 176.977 185.628 214.505 177.582C164.135 192.199 216.516 228.842 144.736 242.613C129.526 245.561 115.44 252.36 103.521 262.262C76.007 285.254 41.1548 329.779 85.9674 386.933C87.7186 389.117 89.5534 391.331 91.4509 393.379C94.4534 396.794 103.916 411.405 83.925 446.563C65.5025 479.073 149.672 516.452 185.176 530.475C194.628 534.221 205.254 533.836 214.505 529.505L437.001 542.582C566.001 513.082 552.501 400.582 568.255 326.675Z" fill="#EAEEFD"/>
<path d="M189.337 364.414C187.375 363.701 124.326 296.282 124.327 270.969C124.327 270.969 122.106 251.634 137.525 263.569C137.525 263.569 185.056 304.05 198.165 355.498L192.458 368.159L189.337 364.414Z" fill="#FFC14F"/>
<path d="M197.891 349.307C197.891 347.385 171.544 303.906 177.743 285.683C177.743 285.683 181.721 276.006 186.661 283.543C186.661 283.543 203.783 315.018 199.681 347.385L193.706 353.804L197.891 349.307Z" fill="#FFC14F"/>
<path d="M190.08 383.751C190.704 383.394 191.239 382.77 191.507 382.057C194.093 375.726 207.469 342.557 208.094 339.793C210.591 327.934 203.546 319.731 193.558 333.908C183.57 348.085 185.532 347.015 183.838 346.48C182.143 345.945 181.876 321.871 175.455 316.432C168.945 310.992 165.467 319.196 168.856 330.074C172.334 340.952 164.308 331.411 161.722 323.476C159.314 316.253 147.008 298.242 142.281 302.7C141.39 303.503 141.211 304.84 141.479 305.999C141.836 307.337 142.549 309.655 143.262 311.973C144.154 314.737 141.568 317.234 138.804 316.342C133.096 314.381 126.141 312.508 125.16 314.559C123.465 318.036 135.682 325.705 141.925 328.915C148.078 332.125 158.155 340.595 146.829 338.901C135.504 337.296 117.223 337.385 133.81 345.678C137.038 347.291 164.843 354.505 167.162 356.912C169.569 359.498 176.614 366.453 165.289 364.759C154.231 363.154 135.504 360.836 148.167 370.644C148.791 371.179 151.288 372.16 152.091 372.427C154.855 373.408 162.346 376.083 169.569 378.49C174.474 380.095 176.793 383.573 177.863 386.337C178.665 388.388 181.073 389.279 182.946 388.12L190.08 383.751Z" fill="#FF7C3F"/>
<path d="M166.582 327.911L518.205 329.873L428.137 462.193L214.827 467.097L166.582 327.911Z" fill="#513825"/>
<path d="M201.507 163.58C199.85 163.58 198.507 164.923 198.507 166.58V376.757C198.507 377.719 198.968 378.623 199.748 379.187L349.538 487.627C350.616 488.407 352.078 488.384 353.131 487.571L500.273 373.929C501.009 373.361 501.439 372.484 501.439 371.555V354.571V166.58C501.439 164.923 500.096 163.58 498.439 163.58H201.507Z" fill="#4E6EE9"/>
<path d="M509.389 520.203C509.389 517.35 565.659 399.117 600.349 395.105C600.349 395.105 623.745 389.631 615.687 408.747C615.687 408.747 588.976 488.505 513.091 532.314L506 525.909L509.389 520.203Z" fill="#FFECE5"/>
<path d="M222.013 183.176C219.799 183.176 218.006 184.975 218.013 187.189L218.619 378.357C218.623 379.647 219.249 380.856 220.301 381.604L360.265 481.142C361.792 482.228 363.869 482.108 365.261 480.854L481.678 375.959C482.519 375.2 483 374.12 483 372.987V357.655V187.176C483 184.967 481.209 183.176 479 183.176L222.013 183.176Z" fill="#FCFCFC"/>
<path opacity="0.69" d="M453.462 336.114H241.847C239.171 336.114 236.942 333.885 236.942 331.21V331.121C236.942 328.446 239.171 326.217 241.847 326.217H453.462C456.138 326.217 458.367 328.446 458.367 331.121V331.21C458.278 333.974 456.138 336.114 453.462 336.114Z" fill="#D1DEFF" fill-opacity="0.72"/>
<path opacity="0.69" d="M450.876 238.122H239.35C236.674 238.122 234.445 235.893 234.445 233.218V233.129C234.445 230.454 236.674 228.225 239.35 228.225H450.965C453.641 228.225 455.87 230.454 455.87 233.129V233.218C455.781 235.893 453.552 238.122 450.876 238.122Z" fill="#D1DEFF" fill-opacity="0.72"/>
<path d="M496.656 529.738C496.656 529.738 512.53 450.381 529.562 442.802C529.562 442.802 538.748 436.649 536.607 447.082L520.556 487.117C520.556 487.117 535.002 463.577 544.098 466.787C544.098 466.787 550.519 471.87 528.046 497.014C528.046 497.014 539.015 486.047 542.225 488.454C542.225 488.454 549.181 491.397 532.594 510.924L510.925 535.533H493L496.656 529.738Z" fill="#FF7C3F"/>
<path d="M289.199 420.91C289.199 420.91 225.884 358.406 225.081 317.568C225.081 317.568 220.941 281.211 238.012 302.143C238.012 302.143 268.867 353.769 275.466 370.443C275.466 370.443 274.664 347.973 285.008 367.5C285.008 367.5 300.881 405.841 299.187 421.267C297.582 436.692 289.199 420.91 289.199 420.91Z" fill="url(#paint0_linear)"/>
<path opacity="0.69" d="M451.768 302.231H240.152C237.477 302.231 235.248 300.002 235.248 297.327V297.238C235.248 294.563 237.477 292.334 240.152 292.334H451.768C454.443 292.334 456.673 294.563 456.673 297.238V297.327C456.584 300.002 454.443 302.231 451.768 302.231Z" fill="#D1DEFF" fill-opacity="0.72"/>
<path d="M327.099 429.737C327.099 429.737 289.913 380.339 297.493 354.482C304.984 328.624 326.654 360.099 326.654 360.099C326.654 360.099 316.755 305.53 336.552 297.505C356.349 289.481 365.713 368.57 365.713 377.932C365.713 377.932 378.376 340.304 381.675 381.677C381.675 381.677 400.331 335.896 416.989 347.348C416.989 347.348 426.535 352.685 408.518 404.771C384.975 464.511 348.769 448.996 348.769 448.996L327.099 429.737Z" fill="url(#paint1_linear)"/>
<path d="M299.187 421.267C299.187 421.267 270.205 376.417 285.008 367.5C299.812 358.673 308.283 381.321 309.888 386.136C309.888 386.136 317.29 356.533 324.692 386.136C324.692 386.136 334.234 412.529 334.769 414.133C335.304 415.738 345.381 367.054 357.509 414.133C357.509 414.133 372.847 394.071 384.44 406.733C396.033 419.394 402.9 432.145 402.9 432.145L318.36 465.492L299.187 421.267Z" fill="#FCFCFC"/>
<path opacity="0.69" d="M451.233 270.31H239.617C236.942 270.31 234.712 268.081 234.712 265.406V265.317C234.712 262.642 236.942 260.413 239.617 260.413H451.233C453.908 260.413 456.138 262.642 456.138 265.317V265.406C456.138 268.081 453.908 270.31 451.233 270.31Z" fill="#D1DEFF" fill-opacity="0.72"/>
<path d="M166.582 327.911L166.047 548.505H488.205C504.773 548.505 518.205 535.073 518.205 518.505V329.873L348.77 433.571L166.582 327.911Z" fill="url(#paint2_linear)"/>
<path d="M377.2 203.639C371.746 204.561 368.076 209.735 369.01 215.188L376.79 260.617C377.717 266.032 382.838 269.684 388.259 268.798L504.328 249.824C509.811 248.928 513.513 243.734 512.57 238.259L504.646 192.218C503.712 186.787 498.559 183.136 493.125 184.054L377.2 203.639Z" fill="#FFC14F"/>
<path d="M479.948 214.404L437.946 221.538C436.786 221.716 435.627 220.913 435.449 219.754C435.27 218.595 436.073 217.436 437.232 217.258L479.234 210.124C480.394 209.946 481.553 210.749 481.731 211.908C481.91 213.067 481.107 214.226 479.948 214.404Z" fill="#FCFCFC"/>
<path d="M493.771 198.354L434.201 208.43C433.041 208.608 431.882 207.806 431.704 206.647L431.525 205.844C431.347 204.685 432.15 203.526 433.309 203.347L492.879 193.272C494.038 193.094 495.197 193.896 495.376 195.055L495.554 195.858C495.732 197.106 494.93 198.176 493.771 198.354Z" fill="white"/>
<path d="M407.5 254C419.374 254 429 244.374 429 232.5C429 220.626 419.374 211 407.5 211C395.626 211 386 220.626 386 232.5C386 244.374 395.626 254 407.5 254Z" fill="white"/>
<path d="M424.033 164.395C424.033 164.395 422.695 146.473 437.142 146.027C437.142 146.027 449.359 144.779 450.786 159.312L450.875 205.946C450.875 206.302 450.875 206.57 450.875 206.926C451.053 209.334 451.945 223.065 440.084 223.511C427.511 223.868 428.937 203.449 428.937 203.449V177.591" stroke="#212841" stroke-width="5" stroke-miterlimit="10" stroke-linecap="round" stroke-linejoin="round"/>
<path fill-rule="evenodd" clip-rule="evenodd" d="M514.269 433.093L552.003 432.412C567.965 432.055 580.807 418.77 580.539 402.898V402.542C580.272 386.581 566.985 373.741 551.022 374.009L511.517 374.722C495.554 374.99 482.713 388.275 482.98 404.236V404.593C483.166 415.703 489.662 425.302 498.978 430.019L496.535 441.418C496.089 443.38 498.408 444.895 500.013 443.647L514.269 433.093Z" fill="#4E6EE9"/>
<path d="M516.497 407.007C519.004 406.962 521.001 404.994 520.958 402.613C520.915 400.232 518.847 398.339 516.341 398.384C513.834 398.43 511.837 400.397 511.88 402.778C511.923 405.159 513.991 407.053 516.497 407.007Z" fill="white"/>
<path d="M533.672 407.158C536.178 407.113 538.175 405.146 538.132 402.765C538.089 400.383 536.022 398.49 533.515 398.536C531.008 398.581 529.011 400.548 529.054 402.93C529.098 405.311 531.165 407.204 533.672 407.158Z" fill="white"/>
<path d="M550.619 406.705C553.126 406.66 555.123 404.693 555.08 402.311C555.037 399.93 552.97 398.037 550.463 398.083C547.956 398.128 545.959 400.095 546.002 402.476C546.045 404.858 548.113 406.751 550.619 406.705Z" fill="white"/>
<path opacity="0.91" d="M120.582 360.018C118.941 360.013 117.601 361.327 117.574 362.967L117.001 396.907C117 396.978 116.997 397.038 116.993 397.108C116.921 398.408 116.564 412.721 135.081 423.431C135.153 423.473 135.227 423.512 135.301 423.549C136.314 424.051 144.002 428.063 145.001 434.641C145.982 441.774 137.243 442.755 133.497 445.519C126.631 450.423 112.897 459.072 112.273 483.86C111.675 504.626 112.079 536.031 112.226 545.675C112.251 547.305 113.576 548.599 115.206 548.607L184.959 548.936C186.555 548.944 187.874 547.728 187.953 546.134C188.615 532.79 191.002 475.999 184.481 462.325C184.436 462.23 184.393 462.154 184.335 462.065C183.43 460.665 175.087 448.079 163.728 441.685C161.499 440.436 159.804 438.475 159.447 435.889C159.002 433.036 159.358 429.38 162.479 426.616C168.543 421.177 182.366 412.706 181.652 394.427C181.126 380.945 181.182 368.724 181.248 363.238C181.268 361.559 179.916 360.184 178.237 360.18L120.582 360.018Z" fill="#FCFCFC"/>
<path d="M324.424 423.406L173.359 546.275L175.5 550.555L327.902 426.081L324.424 423.406Z" fill="white"/>
<path d="M127.755 398.066C127.518 396.489 128.861 395.23 130.455 395.23H170.995C172.748 395.23 174.047 396.72 173.508 398.389C172.161 402.552 168.428 410.401 158.199 419.305C156.237 420.999 155.078 423.407 154.9 425.992C154.008 439.189 155.167 479 155.167 491.974C155.167 508 179.5 521.5 179.5 521.5C179.5 521.5 148.124 526.755 130.728 522.351C128.414 521.765 128.192 518.825 130.148 517.457C137.275 512.47 150.084 502.099 150.084 491.974C150.084 479.67 150.441 444.182 150.084 431.253C149.995 427.151 148.033 423.228 144.823 420.732C138.687 415.888 129.115 407.097 127.755 398.066Z" fill="url(#paint3_linear)"/>
<path d="M109.34 518.603C109.335 516.664 111.141 515.204 113.047 515.565C123.354 517.517 153.837 522.161 188.527 516.809C190.379 516.523 192.067 517.955 192.046 519.83L191.757 546.332C191.741 547.793 190.693 549.024 189.246 549.227C178.867 550.683 138.262 555.63 111.517 548.145C110.258 547.793 109.417 546.635 109.413 545.327L109.34 518.603Z" fill="#6885FD"/>
<path d="M371.42 422.426L510.5 538.5L508 541.5L367.942 425.012L371.42 422.426Z" fill="white"/>
<path d="M112.329 538.106C110.484 537.751 108.723 539.095 108.644 540.972L108.434 545.959C108.383 547.176 109.059 548.288 110.203 548.705C117.27 551.282 144.47 559.264 190.485 549.965C191.834 549.692 192.835 548.521 192.885 547.146L193.198 538.577C193.228 537.744 192.78 537.322 191.953 537.429C184.083 538.444 141.961 543.797 112.329 538.106Z" fill="#4763B2"/>
<path d="M86.9467 438.743C90.0679 439.099 95.7752 438.832 100.056 433.928C100.056 433.928 108.098 425.898 115.572 442.755C115.751 443.379 116.197 443.914 116.642 444.271C118.872 445.787 124.758 451.137 121.101 463.174C120.834 464.066 121.369 464.957 122.261 465.136C127.344 465.938 141.879 469.326 142.95 481.364C142.95 481.364 147.587 501.782 124.936 503.387C124.936 503.387 123.866 514.979 108.26 511.145C92.7432 507.311 82.042 486 82.042 486C82.042 486 75.7996 476.905 82.9338 468.88C82.9338 468.88 73.8378 449.621 81.9528 440.704C83.2013 439.189 85.074 438.564 86.9467 438.743Z" fill="#212841"/>
<path d="M84.3444 481C84.3444 481 63.8397 513.111 61.7887 513.378C59.7376 513.646 68.8277 515.953 68.8277 515.953L85.7712 494.821L84.3444 481Z" fill="#FEBA4B"/>
<path d="M41.0208 556.886C41.0208 556.886 32.3707 562.771 28.8928 561.255C28.8928 561.255 25.0582 562.146 28.6253 564.286C32.1924 566.426 42.2693 563.216 42.8935 564.286C43.5178 565.356 45.4797 564.911 45.4797 564.911L46.8173 555.994L41.0208 556.886Z" fill="#402B59"/>
<path d="M90.5141 480.739C90.5141 480.739 81.7748 474.855 80.5263 487.962C78.7428 506.241 78.2969 516.494 78.2969 516.494L100.323 524.43C100.323 524.43 110.935 522.825 114.057 527.105C117.178 531.385 110.311 505.26 113.522 483.236C113.7 482.166 113.343 481.096 112.63 480.294C111.292 478.867 108.528 477.173 103.445 478.154C95.1512 479.759 90.5141 480.739 90.5141 480.739Z" fill="#FF8D2E"/>
<path d="M24.0771 548.059C24.0771 548.059 15.0703 551.714 12.1275 549.664C12.1275 549.664 8.47124 549.753 11.2357 552.339C14.0002 554.924 23.8988 554.033 24.2555 555.103C24.6122 556.173 26.4849 556.173 26.4849 556.173L29.5169 548.326L24.0771 548.059Z" fill="#402B59"/>
<path d="M91.4062 467.097C91.4062 467.097 94.7058 477.173 87.75 479.847C87.75 479.847 89.7119 490.815 96.1326 489.923C96.1326 489.923 101.751 490.815 109.242 478.064C109.242 478.064 96.9352 476.994 100.591 463.709C104.069 450.423 91.4062 467.097 91.4062 467.097Z" fill="#E8C997"/>
<path d="M86.5907 446.411C86.5907 446.411 82.8453 473.071 90.8711 470.575C90.8711 470.575 99.6996 469.326 104.337 461.123C104.337 461.123 110.044 455.417 108.796 450.691C107.815 447.035 104.515 451.404 103.088 453.633C102.553 454.347 101.84 454.882 100.948 454.971C97.5594 455.238 90.2469 453.544 86.5907 446.411Z" fill="#F4E0BD"/>
<path d="M73.214 517.832C73.214 517.832 56.2705 510.877 54.6653 511.68C53.0601 512.393 21.9375 547.881 21.9375 547.881C21.9375 547.881 28.8041 552.339 29.1608 552.25C29.6067 552.16 55.3787 523.36 57.4298 524.609C59.4808 525.857 73.214 517.832 73.214 517.832Z" fill="#FCFCFC"/>
<path d="M58.9461 522.201C58.9461 522.201 55.1115 520.418 51.4552 524.341C47.799 528.264 26.5596 550.809 26.5596 550.809L29.1373 552.349C29.1373 552.349 58.1435 521.31 60.6404 523.895" fill="#D8DFFF"/>
<path d="M105.561 503.589C105.577 503.573 105.591 503.56 105.607 503.543C106.006 503.126 111.602 497.176 111 491.501C110.381 485.661 104.59 486.979 98.241 496.479C98.1443 496.624 98.0486 496.751 97.924 496.873C94.9094 499.816 79.9882 509.488 71.6193 514.831C69.7215 516.042 71.0502 518.718 72.1437 520.686C73.0355 522.291 79.6346 518.278 88.9981 514.622C97.6248 511.172 105.083 504.051 105.561 503.589Z" fill="#FEBA4B"/>
<path d="M100.413 522.112C100.324 522.112 100.145 522.112 100.056 522.112L71.1629 513.374C70.5387 513.196 69.8253 512.928 69.201 512.661C67.8634 512.126 64.0288 511.68 59.2133 519.883C53.8627 529.156 40.2187 552.339 37.2759 557.332C37.0083 557.778 37.2759 558.402 37.8109 558.581L46.6394 561.077C46.6394 561.077 67.5959 531.653 68.9335 531.653C70.3603 531.653 92.5 549.664 104.693 549.664C113.5 549.664 114.806 544.621 116.5 541.5C118.284 538.379 122 520 100.413 522.112Z" fill="#FCFCFC"/>
<path d="M166.314 333.529L348.591 439.367L518.205 335.722V329.873L348.77 433.571L166.582 327.911L166.314 333.529Z" fill="white"/>
<path d="M406.199 234.02C410.435 234.02 413.868 230.707 413.868 226.619C413.868 222.532 410.435 219.219 406.199 219.219C401.963 219.219 398.53 222.532 398.53 226.619C398.53 230.707 401.963 234.02 406.199 234.02Z" fill="#DBE0F0"/>
<path d="M395.319 250.516C395.319 250.516 402.989 227.244 428.671 238.924C428.671 238.924 425.55 248.733 417.346 252.477C417.346 252.477 406.11 257.917 395.319 250.516Z" fill="#DBE0F0"/>
<path d="M575.456 487.694C576.786 487.694 577.864 486.616 577.864 485.286C577.864 483.957 576.786 482.879 575.456 482.879C574.126 482.879 573.048 483.957 573.048 485.286C573.048 486.616 574.126 487.694 575.456 487.694Z" stroke="url(#paint4_linear)" stroke-width="2" stroke-miterlimit="10"/>
<path d="M293.659 210.838C313.457 210.838 329.507 194.79 329.507 174.994C329.507 155.197 313.457 139.149 293.659 139.149C273.86 139.149 257.81 155.197 257.81 174.994C257.81 194.79 273.86 210.838 293.659 210.838Z" fill="#FF7C3F"/>
<path d="M481.91 224.747L439.907 231.88C438.748 232.059 437.589 231.256 437.411 230.097C437.232 228.938 438.035 227.779 439.194 227.6L481.196 220.467C482.355 220.289 483.515 221.091 483.693 222.25C483.872 223.41 483.069 224.569 481.91 224.747Z" fill="#FCFCFC"/>
<path d="M484.139 234.912L442.137 242.045C440.978 242.224 439.818 241.421 439.64 240.262C439.462 239.103 440.264 237.944 441.424 237.765L483.426 230.632C484.585 230.454 485.744 231.256 485.923 232.416C486.101 233.575 485.298 234.645 484.139 234.912Z" fill="#FCFCFC"/>
<path d="M117.793 359.484C115.999 359.703 114.828 361.466 115.297 363.211L115.368 363.475C115.744 364.876 117.045 365.811 118.492 365.705C127.925 365.015 161.991 362.859 179.62 366.241C181.354 366.574 183.071 365.465 183.371 363.726L183.453 363.254C183.77 361.42 182.395 359.488 180.548 359.261C171.714 358.171 147.164 355.884 117.793 359.484Z" fill="#526BC7"/>
<path d="M431.614 371.691C431.614 371.691 444.099 344.139 452.838 350.469C461.667 356.8 436.876 370.888 431.614 371.691Z" fill="url(#paint5_linear)"/>
<path d="M280.282 349.043C280.014 350.024 278.855 350.202 278.32 349.4C274.485 343.872 264.23 328.09 271.81 324.969C284.919 319.53 282.243 341.019 280.282 349.043Z" fill="#BFCDFD"/>
<path d="M466.928 418.056L458.724 419.84C458.189 419.929 457.654 419.572 457.564 419.037C457.475 418.502 457.832 417.967 458.367 417.878L466.571 416.095C467.106 416.006 467.641 416.362 467.731 416.897C467.82 417.432 467.463 417.967 466.928 418.056Z" fill="#FCFCFC"/>
<path d="M467.641 409.051H459.259C458.724 409.051 458.278 408.605 458.278 408.07C458.278 407.535 458.724 407.089 459.259 407.089H467.641C468.176 407.089 468.622 407.535 468.622 408.07C468.622 408.605 468.176 409.051 467.641 409.051Z" fill="#FCFCFC"/>
<path d="M472.903 424.476L465.858 429.024C465.412 429.291 464.788 429.202 464.52 428.756C464.253 428.31 464.342 427.686 464.788 427.419L471.833 422.871C472.278 422.604 472.903 422.693 473.17 423.139C473.527 423.495 473.349 424.119 472.903 424.476Z" fill="#FCFCFC"/>
<path d="M582.679 377.397L589.1 372.047C589.546 371.691 589.546 371.067 589.189 370.621C588.832 370.175 588.208 370.175 587.762 370.532L581.342 375.882C580.896 376.238 580.896 376.862 581.252 377.308C581.698 377.665 582.323 377.754 582.679 377.397Z" fill="#6885FD"/>
<path d="M575.099 372.493L580.182 365.895C580.539 365.449 580.45 364.825 580.004 364.468C579.558 364.111 578.934 364.201 578.577 364.646L573.494 371.245C573.137 371.69 573.227 372.315 573.672 372.671C574.118 373.028 574.743 372.939 575.099 372.493Z" fill="#6885FD"/>
<path d="M584.106 386.046L592.043 383.282C592.578 383.104 592.846 382.569 592.667 382.034C592.489 381.499 591.954 381.231 591.419 381.41L583.482 384.174C582.947 384.352 582.679 384.887 582.858 385.422C583.036 385.957 583.571 386.224 584.106 386.046Z" fill="#6885FD"/>
<path d="M288.843 358.583C290.961 358.583 292.677 356.867 292.677 354.749C292.677 352.632 290.961 350.915 288.843 350.915C286.725 350.915 285.008 352.632 285.008 354.749C285.008 356.867 286.725 358.583 288.843 358.583Z" stroke="white" stroke-width="2" stroke-miterlimit="10"/>
<path d="M291 191.247C291 190.224 291.327 189.286 292.047 188.518C292.701 187.751 293.551 187.409 294.467 187.409C295.449 187.409 296.234 187.751 296.953 188.518C297.607 189.286 298 190.139 298 191.247C298 192.271 297.673 193.124 296.953 193.891C296.299 194.659 295.449 195 294.467 195C293.551 195 292.766 194.659 292.047 193.891C291.393 193.124 291 192.186 291 191.247ZM291.523 157.729C291.72 156.791 292.047 156.109 292.505 155.682C292.963 155.256 293.551 155 294.14 155C294.729 155 295.318 155.171 295.776 155.597C296.234 156.023 296.626 156.62 296.888 157.473V179.904C296.822 180.928 296.561 181.78 296.037 182.292C295.514 182.804 294.925 183.06 294.271 183.06C293.617 183.06 293.028 182.804 292.505 182.292C291.981 181.78 291.654 181.098 291.523 180.075V157.729Z" fill="white"/>
</g>
<defs>
<linearGradient id="paint0_linear" x1="262.09" y1="297.686" x2="262.09" y2="428.031" gradientUnits="userSpaceOnUse">
<stop stop-color="#BFCDFD"/>
<stop offset="1" stop-color="white"/>
</linearGradient>
<linearGradient id="paint1_linear" x1="359.107" y1="296.935" x2="359.107" y2="450.809" gradientUnits="userSpaceOnUse">
<stop stop-color="#CED7FB"/>
<stop offset="1" stop-color="white"/>
</linearGradient>
<linearGradient id="paint2_linear" x1="21.5" y1="580.5" x2="518.176" y2="438.228" gradientUnits="userSpaceOnUse">
<stop stop-color="#FF7549"/>
<stop offset="0.640625" stop-color="#FFC14F"/>
<stop offset="0.9999" stop-color="#FFC14F"/>
</linearGradient>
<linearGradient id="paint3_linear" x1="127.565" y1="458.915" x2="174.189" y2="458.915" gradientUnits="userSpaceOnUse">
<stop stop-color="#ED8945"/>
<stop offset="0.9986" stop-color="#FEE7B9"/>
</linearGradient>
<linearGradient id="paint4_linear" x1="572.199" y1="485.271" x2="578.744" y2="485.271" gradientUnits="userSpaceOnUse">
<stop stop-color="#FCFCFC"/>
<stop offset="0.9986" stop-color="#FCFCFC"/>
</linearGradient>
<linearGradient id="paint5_linear" x1="432" y1="366.5" x2="457.5" y2="351" gradientUnits="userSpaceOnUse">
<stop stop-color="white"/>
<stop offset="1" stop-color="#B2C3FC"/>
</linearGradient>
<clipPath id="clip0">
<rect width="627" height="474" fill="white" transform="translate(0 91)"/>
</clipPath>
</defs>
</svg>
