<svg width="785" height="622" viewBox="0 0 785 622" fill="none" xmlns="http://www.w3.org/2000/svg">
<path d="M31.3448 284.491C25.882 337.29 21.4517 404.031 44.9583 447.749C65.9434 486.778 118.262 526.646 153.218 553.464C205.812 593.813 255.967 622 342.186 622C413.669 622 452.391 592.504 503.279 553.464C521.106 539.787 586.22 515.316 617.161 457.771C640.668 414.053 654 364.079 654 311C654 264.1 629.728 231.472 624.952 179.746C617.161 95.369 565.697 87.4744 521.106 56.2611C476.516 25.0477 408.76 0 342.186 0C241.382 0 193.591 49.0808 137.66 102.158C77.9583 158.813 44.9583 152.914 31.3448 284.491Z" fill="#FCFCFC"/>
<path d="M470.155 458.033C470.155 458.033 469.574 396.206 491.029 379.904C512.413 363.549 511.154 401.742 511.154 401.742C511.154 401.742 535.599 351.961 556.292 357.262C576.986 362.563 537.548 431.754 531.987 439.287C531.987 439.287 564.522 416.535 542.606 451.78C542.606 451.78 580.837 429.09 590.132 442.54C591.226 444.122 591.604 446.139 590.999 447.965C589.361 452.917 582.012 464.736 550.486 486.301C496.065 520.383 476.15 486.398 476.15 486.398L470.155 458.033Z" fill="url(#paint0_linear)"/>
<path d="M259.001 508.788C259.001 508.788 226.915 399.277 194.152 378.588C194.152 378.588 176.032 367.093 183.903 386.368L215.16 446.185C215.16 446.185 186.416 408.611 175.412 418.244C175.412 418.244 164.518 428.29 205.111 462.784C205.111 462.784 186.355 447.437 181.757 451.695C181.757 451.695 171.434 457.378 200.265 485.168L237.787 520.071L265.593 517.236L259.001 508.788Z" fill="url(#paint1_linear)"/>
<g filter="url(#filter0_d)">
<path d="M515.987 356.952H172.01C163.239 356.952 156.13 349.848 156.13 341.083V234.176C156.13 225.411 163.239 218.307 172.01 218.307H515.987C524.759 218.307 531.868 225.411 531.868 234.176V341.025C531.925 349.791 524.759 356.952 515.987 356.952Z" fill="url(#paint2_linear)"/>
</g>
<g filter="url(#filter1_d)">
<path d="M545.558 282.745H429.753C423.274 282.745 418 277.474 418 271V249.745C418 243.271 423.274 238 429.753 238H545.558C552.036 238 557.311 243.271 557.311 249.745V271C557.311 277.474 552.036 282.745 545.558 282.745Z" fill="#FFD381"/>
</g>
<path d="M448 247.982C456.778 247.982 454.95 261 462.784 261C475.914 261 471.389 229 482.101 229C492.813 229 491.56 263.439 501.129 250.711C513.791 233.869 517.799 261 527 261" stroke="white" stroke-width="4" stroke-linecap="round"/>
<g filter="url(#filter2_d)">
<circle cx="528.5" cy="261.5" r="4.5" fill="white"/>
</g>
<g filter="url(#filter3_d)">
<path d="M106.158 322.578H51.5806C45.217 322.578 40 317.422 40 311.005V256.464C40 250.104 45.1597 244.891 51.5806 244.891H106.158C112.522 244.891 117.739 250.047 117.739 256.464V311.005C117.739 317.422 112.522 322.578 106.158 322.578Z" fill="#4E6EE9"/>
</g>
<path d="M68.7873 263.89C71.751 270.747 74.6566 277.604 77.6203 284.461C77.6784 283.88 77.7946 283.299 77.8527 282.718C74.889 285.333 71.9835 287.948 69.0198 290.505C67.6251 291.725 69.659 293.817 71.0537 292.539C74.0174 289.924 76.9229 287.309 79.8866 284.752C80.4096 284.287 80.3515 283.59 80.1191 283.009C77.1554 276.151 74.2498 269.294 71.2861 262.437C70.5888 260.694 68.0319 262.205 68.7873 263.89Z" fill="white"/>
<path d="M77.3877 254.824C77.3877 255.754 77.3877 256.684 77.3877 257.672C77.3877 259.531 80.2933 259.531 80.2933 257.672C80.2933 256.742 80.2933 255.812 80.2933 254.824C80.2933 252.965 77.3877 252.965 77.3877 254.824Z" fill="white"/>
<path d="M80.2933 312.645C80.2933 311.716 80.2933 310.786 80.2933 309.798C80.2933 307.938 77.3877 307.938 77.3877 309.798C77.3877 310.728 77.3877 311.658 77.3877 312.645C77.3877 314.505 80.2933 314.505 80.2933 312.645Z" fill="white"/>
<path d="M49.9591 285.159C50.8889 285.159 51.8187 285.159 52.8066 285.159C54.6661 285.159 54.6661 282.253 52.8066 282.253C51.8768 282.253 50.947 282.253 49.9591 282.253C48.0996 282.253 48.0996 285.159 49.9591 285.159Z" fill="white"/>
<path d="M107.78 282.253C106.85 282.253 105.92 282.253 104.932 282.253C103.073 282.253 103.073 285.159 104.932 285.159C105.862 285.159 106.792 285.159 107.78 285.159C109.639 285.159 109.639 282.253 107.78 282.253Z" fill="white"/>
<g filter="url(#filter4_d)">
<path d="M106.158 228.688H51.5806C45.217 228.688 40 223.531 40 217.115V162.573C40 156.214 45.1597 151 51.5806 151H106.158C112.522 151 117.739 156.156 117.739 162.573V217.115C117.739 223.531 112.522 228.688 106.158 228.688Z" fill="#FFC14F"/>
</g>
<g filter="url(#filter5_d)">
<path d="M106.158 416.688H51.5806C45.217 416.688 40 411.531 40 405.115V350.573C40 344.214 45.1597 339 51.5806 339H106.158C112.522 339 117.739 344.156 117.739 350.573V405.115C117.739 411.474 112.522 416.688 106.158 416.688Z" fill="#F6A612"/>
</g>
<path d="M56.7594 377.897C56.7594 379.039 56.642 380.24 57.2585 381.266C58.0511 382.613 59.1961 382.672 60.5171 383.111C61.574 383.463 62.5721 385.455 62.1317 386.51C61.9556 386.978 61.5446 387.33 61.3098 387.769C60.8694 388.56 60.6933 389.498 60.9281 390.377C61.1923 391.49 62.1024 392.31 62.8363 393.131C63.6289 394.009 64.3922 395.123 65.5078 395.591C66.9169 396.177 68.1499 395.679 69.4123 394.976C70.4985 394.361 71.8195 394.244 72.759 395.269C73.17 395.709 73.1993 396.412 73.3461 396.998C73.5516 397.789 73.9039 398.462 74.5204 398.99C75.6066 399.956 77.0157 399.839 78.3661 399.839C80.8908 399.839 83.5623 399.986 84.3549 396.998C84.4724 396.529 84.5017 395.884 84.7659 395.445C85.0595 395.005 86.0283 394.537 86.5274 394.449C87.7016 394.244 88.6704 395.357 89.7273 395.709C92.4575 396.558 94.3363 393.804 95.8629 392.017C96.8904 390.787 97.2133 389.205 96.3913 387.769C96.1564 387.33 95.7748 386.978 95.5693 386.51C95.2757 385.777 95.628 385.221 95.9216 384.518C96.2151 383.844 96.4206 383.346 97.1839 383.111C97.683 382.936 98.1821 382.936 98.6811 382.76C100.178 382.174 100.883 380.826 100.942 379.274C101.03 376.93 101.265 373.912 98.5343 372.975C98.094 372.828 97.6536 372.828 97.2133 372.682C96.4207 372.418 96.2151 371.95 95.9216 371.246C95.6867 370.719 95.3051 370.104 95.4519 369.489C95.5987 368.932 96.0977 368.493 96.3913 368.024C97.9179 365.299 95.3344 363.102 93.6024 361.257C92.5749 360.173 91.1951 359.616 89.7273 360.085C88.6117 360.436 87.6429 361.608 86.4393 361.315C85.9696 361.198 85.2357 360.876 84.9127 360.524C84.4724 360.055 84.4724 359.294 84.2962 358.708C83.8559 357.067 82.5642 356.042 80.8615 355.954C78.9826 355.866 75.9882 355.515 74.491 356.804C73.9039 357.331 73.5516 357.975 73.3461 358.708C73.17 359.323 73.17 360.055 72.7296 360.524C71.7902 361.549 70.4691 361.403 69.3829 360.817C68.0618 360.085 66.7701 359.587 65.3023 360.29C64.2748 360.788 63.5409 361.842 62.807 362.663C62.0143 363.542 61.0749 364.391 60.8694 365.622C60.7226 366.383 60.84 367.174 61.1923 367.848C61.4859 368.405 62.073 368.903 62.2198 369.489C62.484 370.514 61.3978 372.36 60.4878 372.653C59.1667 373.092 58.0218 373.151 57.2291 374.498C56.6714 375.553 56.7594 376.725 56.7594 377.897C56.7594 379.391 59.108 379.391 59.108 377.897C59.108 376.783 58.8438 375.524 60.1942 375.143C61.3978 374.791 62.4547 374.674 63.2473 373.532C63.8051 372.77 64.3042 371.627 64.539 370.719C64.9207 369.225 64.1574 368.317 63.5115 367.116C62.807 365.827 63.8344 365.124 64.6271 364.245C65.2729 363.512 66.0949 362.135 67.1811 362.34C68.238 362.546 69.06 363.483 70.1462 363.688C71.2618 363.922 72.4654 363.424 73.4635 362.926C74.8727 362.223 75.2249 361.081 75.5772 359.675C75.9589 358.151 77.0744 358.298 78.3661 358.298C79.1881 358.298 80.0395 358.21 80.8321 358.298C82.3293 358.473 82.0651 360.143 82.5642 361.227C83.122 362.428 84.2082 362.956 85.3824 363.395C86.7916 363.952 87.9365 363.688 89.2282 362.985C90.285 362.399 91.0483 362.018 92.0171 363.014C92.751 363.776 93.573 364.567 94.1895 365.417C95.0409 366.588 93.896 367.35 93.4262 368.405C92.8097 369.782 93.2795 370.953 93.8372 372.213C94.3363 373.385 94.9528 374.41 96.2445 374.85C97.3894 375.231 98.5931 375.055 98.6518 376.637C98.6811 377.457 98.6811 378.336 98.6518 379.186C98.5931 380.768 97.3894 380.563 96.2445 380.973C94.0721 381.705 92.5162 385.367 93.4556 387.418C93.9253 388.502 95.0702 389.234 94.1895 390.435C93.573 391.256 92.7804 392.047 92.0758 392.808C91.0483 393.863 90.285 393.365 89.1695 392.779C87.9365 392.105 86.7916 391.9 85.4412 392.427C84.2669 392.896 83.21 393.394 82.6229 394.595C82.1238 395.679 82.388 397.32 80.8908 397.525C80.0982 397.613 79.2175 397.525 78.4248 397.525C77.1038 397.525 76.0176 397.671 75.6359 396.148C75.2543 394.742 74.902 393.599 73.5222 392.896C72.5241 392.398 71.3498 391.9 70.2049 392.134C69.1187 392.34 68.2967 393.277 67.2399 393.482C66.1536 393.687 65.3317 392.31 64.6858 391.578C63.8932 390.699 62.8657 389.967 63.5702 388.707C64.2161 387.506 64.9794 386.598 64.5977 385.103C64.3629 384.195 63.8638 383.053 63.306 382.291C62.484 381.119 61.4272 381.061 60.1942 380.68C58.9025 380.27 59.1373 379.01 59.1373 377.926C59.108 376.373 56.7594 376.373 56.7594 377.897Z" fill="#F7F7F7"/>
<path d="M84.9713 377.897C84.8832 381.207 82.2705 383.961 78.8944 383.961C75.5771 383.961 72.8175 381.207 72.8175 377.897C72.8175 374.586 75.5771 371.832 78.8944 371.832C82.2705 371.832 84.8539 374.586 84.9713 377.897C85.0007 379.391 87.3492 379.391 87.3199 377.897C87.2318 374.352 85.1181 371.246 81.7714 370.016C78.4834 368.815 74.667 369.87 72.4653 372.535C67.5333 378.453 72.8763 387.506 80.4503 386.158C84.4722 385.426 87.2318 381.91 87.3492 377.897C87.3492 376.373 85.0007 376.373 84.9713 377.897Z" fill="#F7F7F7"/>
<path d="M182.612 126.208C189.578 126.208 195.225 120.565 195.225 113.604C195.225 106.643 189.578 101 182.612 101C175.647 101 170 106.643 170 113.604C170 120.565 175.647 126.208 182.612 126.208Z" fill="#FFD381"/>
<path d="M180.845 21.375C180.845 35.9844 180.845 50.5365 180.845 65.1458C180.845 67.2083 180.845 69.3281 180.845 71.3906C180.845 73.224 183.712 73.224 183.712 71.3906C183.712 56.7812 183.712 42.2292 183.712 27.6198C183.712 25.5573 183.712 23.4375 183.712 21.375C183.712 19.5417 180.845 19.5417 180.845 21.375Z" fill="#FFD381"/>
<g filter="url(#filter6_d)">
<path d="M225.218 100.438H139.338C146.161 83.4219 162.843 71.3906 182.278 71.3906C201.713 71.3906 218.396 83.4219 225.218 100.438Z" fill="url(#paint3_linear)"/>
</g>
<path d="M228.543 108.458H136.013C133.777 108.458 132 106.682 132 104.448C132 102.214 133.777 100.438 136.013 100.438H228.486C230.721 100.438 232.499 102.214 232.499 104.448C232.556 106.682 230.721 108.458 228.543 108.458Z" fill="#F9A63F"/>
<path d="M278.07 108.676L279.102 112.4C279.389 113.431 280.306 114.118 281.395 114.061L285.294 113.889C287.587 113.775 288.561 116.754 286.612 118.014L283.344 120.134C282.427 120.707 282.083 121.853 282.484 122.827L283.86 126.436C284.663 128.613 282.14 130.447 280.363 129.014L277.325 126.551C276.522 125.863 275.318 125.863 274.516 126.551L271.477 129.014C269.7 130.447 267.12 128.613 267.98 126.436L269.356 122.827C269.757 121.853 269.356 120.707 268.496 120.134L265.228 118.014C263.279 116.754 264.254 113.775 266.547 113.889L270.445 114.061C271.534 114.118 272.452 113.431 272.738 112.4L273.77 108.676C274.344 106.441 277.497 106.441 278.07 108.676Z" fill="#F6A612"/>
<path d="M314.933 108.676L315.965 112.4C316.251 113.431 317.169 114.118 318.258 114.061L322.156 113.889C324.45 113.775 325.424 116.754 323.475 118.014L320.207 120.134C319.29 120.707 318.946 121.853 319.347 122.827L320.723 126.436C321.526 128.613 319.003 130.447 317.226 129.014L314.188 126.551C313.385 125.863 312.181 125.863 311.378 126.551L308.34 129.014C306.563 130.447 303.983 128.613 304.843 126.436L306.219 122.827C306.62 121.853 306.219 120.707 305.359 120.134L302.091 118.014C300.142 116.754 301.116 113.775 303.41 113.889L307.308 114.061C308.397 114.118 309.315 113.431 309.601 112.4L310.633 108.676C311.206 106.441 314.36 106.441 314.933 108.676Z" fill="#F6A612"/>
<path d="M352.828 108.676L353.86 112.4C354.146 113.431 355.063 114.118 356.153 114.061L360.051 113.889C362.344 113.775 363.319 116.754 361.37 118.014L358.102 120.134C357.185 120.707 356.841 121.853 357.242 122.827L358.618 126.436C359.42 128.613 356.898 130.447 355.121 129.014L352.082 126.551C351.28 125.863 350.076 125.863 349.273 126.551L346.235 129.014C344.457 130.447 341.878 128.613 342.738 126.436L344.114 122.827C344.515 121.853 344.114 120.707 343.254 120.134L339.986 118.014C338.037 116.754 339.011 113.775 341.304 113.889L345.203 114.061C346.292 114.118 347.209 113.431 347.496 112.4L348.528 108.676C349.044 106.441 352.197 106.441 352.828 108.676Z" fill="#F6A612"/>
<path d="M390.665 108.676L391.697 112.4C391.984 113.431 392.901 114.118 393.99 114.061L397.889 113.889C400.182 113.775 401.156 116.754 399.207 118.014L395.939 120.134C395.022 120.707 394.678 121.853 395.079 122.827L396.455 126.436C397.258 128.613 394.735 130.447 392.958 129.014L389.92 126.551C389.117 125.863 387.913 125.863 387.111 126.551L384.072 129.014C382.295 130.447 379.715 128.613 380.575 126.436L381.951 122.827C382.352 121.853 381.951 120.707 381.091 120.134L377.823 118.014C375.874 116.754 376.849 113.775 379.142 113.889L383.04 114.061C384.129 114.118 385.047 113.431 385.333 112.4L386.365 108.676C386.881 106.441 390.034 106.441 390.665 108.676Z" fill="#F6A612"/>
<path d="M428.159 108.676L429.191 112.4C429.477 113.431 430.394 114.118 431.484 114.061L435.382 113.889C437.675 113.775 438.65 116.754 436.701 118.014L433.433 120.134C432.516 120.707 432.172 121.853 432.573 122.827L433.949 126.436C434.752 128.613 432.229 130.447 430.452 129.014L427.413 126.551C426.611 125.863 425.407 125.863 424.604 126.551L421.566 129.014C419.789 130.447 417.209 128.613 418.069 126.436L419.445 122.827C419.846 121.853 419.445 120.707 418.585 120.134L415.317 118.014C413.368 116.754 414.342 113.775 416.635 113.889L420.534 114.061C421.566 114.118 422.54 113.431 422.827 112.4L423.859 108.676C424.432 106.441 427.585 106.441 428.159 108.676Z" fill="#4E6EE9"/>
<path d="M193.968 297.14C211.969 297.14 229.971 297.14 247.915 297.14C276.465 297.14 305.015 297.14 333.565 297.14C340.101 297.14 346.636 297.14 353.229 297.14C356.898 297.14 356.898 291.411 353.229 291.411C335.228 291.411 317.226 291.411 299.282 291.411C270.732 291.411 242.182 291.411 213.632 291.411C207.096 291.411 200.561 291.411 193.968 291.411C190.241 291.411 190.241 297.14 193.968 297.14Z" fill="#FFD381"/>
<path d="M193.968 310.776C213.804 310.776 233.697 310.776 253.533 310.776C256.342 310.776 259.094 310.776 261.903 310.776C265.572 310.776 265.572 305.047 261.903 305.047C242.067 305.047 222.174 305.047 202.338 305.047C199.529 305.047 196.777 305.047 193.968 305.047C190.241 305.047 190.241 310.776 193.968 310.776Z" fill="#FFD381"/>
<path d="M193.968 326.015C205.892 326.015 217.817 326.015 229.741 326.015C233.41 326.015 233.41 320.286 229.741 320.286C217.817 320.286 205.892 320.286 193.968 320.286C190.241 320.286 190.241 326.015 193.968 326.015Z" fill="#FFD381"/>
<path d="M193.968 274.739C205.892 274.739 217.817 274.739 229.741 274.739C233.41 274.739 233.41 269.01 229.741 269.01C217.817 269.01 205.892 269.01 193.968 269.01C190.241 269.01 190.241 274.739 193.968 274.739Z" fill="#FFD381"/>
<path d="M178.374 239.276C180.59 239.276 182.387 237.48 182.387 235.265C182.387 233.05 180.59 231.255 178.374 231.255C176.158 231.255 174.361 233.05 174.361 235.265C174.361 237.48 176.158 239.276 178.374 239.276Z" fill="#FF7448"/>
<path d="M193.28 239.276C195.496 239.276 197.293 237.48 197.293 235.265C197.293 233.05 195.496 231.255 193.28 231.255C191.063 231.255 189.267 233.05 189.267 235.265C189.267 237.48 191.063 239.276 193.28 239.276Z" fill="#F48B30"/>
<path d="M209.504 239.276C211.72 239.276 213.517 237.48 213.517 235.265C213.517 233.05 211.72 231.255 209.504 231.255C207.287 231.255 205.491 233.05 205.491 235.265C205.491 237.48 207.287 239.276 209.504 239.276Z" fill="#FFD381"/>
<path d="M414.285 520.177H316.309C286.268 520.177 261.846 495.828 261.846 465.75V350.536C261.846 320.516 286.211 296.109 316.309 296.109H414.285C444.326 296.109 468.748 320.458 468.748 350.536V465.75C468.748 495.828 444.383 520.177 414.285 520.177Z" fill="#212841"/>
<path d="M481.418 451.083C481.418 458.932 480.959 466.609 480.157 474.172C479.469 480.245 478.551 486.203 477.347 492.047C471.844 518.974 461.008 543.036 446.447 562H284.262C266.547 538.911 254.336 508.375 250.552 474.172C249.692 466.667 249.291 458.932 249.291 451.083C249.291 365.49 301.288 296.109 365.383 296.109C390.608 296.109 413.941 306.823 432.974 325.042C462.27 353.229 481.418 399.177 481.418 451.083Z" fill="#4E6EE9"/>
<path d="M345.489 474.168C345.489 456.47 345.489 438.715 345.489 421.017C345.489 394.096 345.489 367.175 345.489 340.254C345.489 330.396 344.105 319.847 350.97 311.777C351.546 311.085 350.566 310.047 349.931 310.739C345.893 315.524 344.047 321.115 344.047 327.341C344.047 330.051 344.047 332.76 344.047 335.527C344.047 346.826 344.047 358.125 344.047 369.423C344.047 397.67 344.047 425.86 344.047 454.107C344.047 460.794 344.047 467.481 344.047 474.168C344.047 475.09 345.489 475.09 345.489 474.168Z" fill="#B2C3FC"/>
<path d="M360.051 257.38C360.051 257.38 360.051 264.599 366.529 295.594V297.37C366.529 305.677 359.822 312.38 351.509 312.38C343.77 312.38 337.234 306.479 336.546 298.802C336.03 292.844 334.425 285.396 330.469 277.432C321.067 258.526 362.459 246.38 360.051 257.38Z" fill="#F3CFAC"/>
<path d="M481.418 451.083C481.418 465.291 479.985 478.984 477.29 492.046H380.518V474.171C397.315 474.171 410.902 460.593 410.902 443.807V347.041C410.902 334.895 420.763 325.041 432.917 325.041C462.27 353.229 481.418 399.176 481.418 451.083Z" fill="#B2C3FC"/>
<path d="M249.234 364.859C262.19 364.859 272.739 375.401 272.739 388.349V474.172H237.768C237.768 474.172 216.556 416.422 226.302 364.859H249.234Z" fill="#B2C3FC"/>
<g filter="url(#filter7_d)">
<path d="M521.606 196.927C541.205 196.927 557.093 181.05 557.093 161.464C557.093 141.878 541.205 126 521.606 126C502.007 126 486.119 141.878 486.119 161.464C486.119 181.05 502.007 196.927 521.606 196.927Z" fill="#4E6EE9"/>
</g>
<path d="M529.861 163.297C529.403 162.438 528.772 161.635 527.855 160.948C526.995 160.318 525.676 159.63 523.956 158.885C523.842 158.828 523.727 158.771 523.612 158.714C521.434 157.854 520.001 157.167 519.37 156.766C518.739 156.307 518.395 155.792 518.395 155.161C518.395 154.073 519.427 153.557 521.376 153.557C522.236 153.557 523.096 153.672 523.956 153.844C524.186 153.901 524.472 153.958 524.702 154.073C525.39 154.302 526.135 154.531 526.937 154.875C527.625 155.161 528.485 154.818 528.772 154.13L529.747 151.839C530.033 151.094 529.689 150.292 528.944 150.005C527.339 149.375 525.676 148.974 524.014 148.745V145.651C524.014 144.677 523.211 143.875 522.236 143.875H520.058C519.083 143.875 518.281 144.677 518.281 145.651V148.859C516.675 149.146 515.357 149.661 514.268 150.406C512.548 151.609 511.688 153.328 511.688 155.505C511.688 156.766 511.86 157.854 512.318 158.771C512.72 159.63 513.35 160.432 514.268 161.12C515.128 161.75 516.446 162.495 518.281 163.24C518.338 163.297 518.453 163.297 518.51 163.354C519.829 163.927 520.918 164.385 521.72 164.844C522.523 165.245 523.096 165.646 523.383 165.99C523.727 166.333 523.899 166.734 523.899 167.307C523.899 168.74 522.638 169.427 520.23 169.427C519.657 169.427 518.969 169.37 518.338 169.255C517.65 169.141 516.905 168.969 516.102 168.797C515.242 168.568 514.44 168.339 513.694 168.052C512.777 167.708 511.86 168.396 511.86 169.37V171.891C511.86 172.464 512.261 173.036 512.777 173.208C513.637 173.495 514.497 173.724 515.414 173.896C516.274 174.068 517.249 174.182 518.338 174.24V177.219C518.338 178.193 519.141 178.995 520.115 178.995H522.294C523.268 178.995 524.071 178.193 524.071 177.219V173.953C525.676 173.609 526.937 173.094 527.969 172.292C529.747 170.974 530.607 169.026 530.607 166.505C530.549 165.245 530.32 164.214 529.861 163.297Z" fill="white"/>
<path d="M238.398 401.926C231.69 401.926 226.187 396.484 226.187 389.723V379.354C226.187 372.65 231.633 367.15 238.398 367.15C245.105 367.15 250.609 372.593 250.609 379.354V389.723C250.552 396.484 245.105 401.926 238.398 401.926Z" fill="#4E6EE9"/>
<path d="M235.072 353.224L203.175 344.678C201.126 344.129 199.075 345.358 198.542 347.351C197.993 349.398 199.224 351.448 201.218 351.982L215.006 355.677L213.879 359.883C213.094 362.816 214.837 365.833 217.772 366.62L216.452 371.545C215.948 373.427 217.084 375.392 218.966 375.896L218.877 376.228C217.661 380.766 220.338 385.398 224.878 386.614L230.195 388.039C235.345 389.419 240.68 386.341 242.059 381.194L244.98 370.292C246.952 362.932 242.492 355.213 235.072 353.224Z" fill="#FFF3E8"/>
<g filter="url(#filter8_d)">
<path d="M596.478 562H105.279C94.6153 562 89.2837 549.167 96.7938 541.604L152.174 486.089C159.742 478.526 170.634 474.172 182.043 474.172H519.656C531.065 474.172 541.958 478.526 549.525 486.089L604.905 541.604C612.473 549.167 607.141 562 596.478 562Z" fill="url(#paint4_radial)"/>
</g>
<mask id="mask0" mask-type="alpha" maskUnits="userSpaceOnUse" x="249" y="296" width="233" height="266">
<path d="M481.418 451.083C481.418 458.932 480.959 466.609 480.157 474.172C479.469 480.245 478.551 486.203 477.347 492.047C471.844 518.974 461.008 543.036 446.447 562H284.262C266.547 538.911 254.336 508.375 250.552 474.172C249.692 466.667 249.291 458.932 249.291 451.083C249.291 365.49 301.288 296.109 365.383 296.109C390.608 296.109 413.941 306.823 432.974 325.042C462.27 353.229 481.418 399.177 481.418 451.083Z" fill="#4E6EE9"/>
</mask>
<g mask="url(#mask0)">
<path d="M272.518 474.167C272.518 461.024 272.518 447.938 272.518 434.794C272.518 413.868 272.518 392.942 272.518 372.017C272.518 367.174 272.518 362.332 272.518 357.49C272.518 356.567 271.076 356.567 271.076 357.49C271.076 370.633 271.076 383.719 271.076 396.862C271.076 417.788 271.076 438.714 271.076 459.64C271.076 464.482 271.076 469.325 271.076 474.167C271.076 475.089 272.518 475.089 272.518 474.167Z" fill="#B2C3FC"/>
<path d="M404.04 302.783C394.176 302.783 385.119 309.182 381.831 318.463C380.562 321.98 380.504 325.554 380.504 329.185C380.504 339.216 380.504 349.189 380.504 359.22C380.504 389.888 380.504 420.498 380.504 451.166C380.504 458.833 380.504 466.501 380.504 474.168C380.504 475.09 381.947 475.09 381.947 474.168C381.947 454.395 381.947 434.622 381.947 414.849C381.947 387.812 381.947 360.718 381.947 333.682C381.947 331.261 381.889 328.84 381.947 326.418C382.12 314.37 391.811 304.224 404.04 304.224C404.963 304.224 404.963 302.783 404.04 302.783Z" fill="#B2C3FC"/>
<path d="M309.782 474.167C309.782 456.066 309.782 437.964 309.782 419.921C309.782 393 309.782 366.136 309.782 339.215C309.782 335.526 309.782 331.836 309.782 328.205C309.782 321.402 311.686 315.292 316.589 310.392C317.224 309.758 316.243 308.72 315.551 309.354C310.763 314.139 308.34 320.249 308.34 326.994C308.34 329.531 308.34 332.009 308.34 334.546C308.34 345.729 308.34 356.971 308.34 368.154C308.34 396.689 308.34 425.224 308.34 453.76C308.34 460.562 308.34 467.422 308.34 474.224C308.34 475.089 309.782 475.089 309.782 474.167Z" fill="#B2C3FC"/>
</g>
<path d="M516.041 542.755H494.772C491.562 542.755 488.81 540.349 488.408 537.14L481.357 480.88H528.883L522.348 537.083C522.061 540.349 519.309 542.755 516.041 542.755Z" fill="#FCFCFC"/>
<path d="M505.206 525.167C512.583 525.167 518.564 519.19 518.564 511.818C518.564 504.445 512.583 498.469 505.206 498.469C497.829 498.469 491.848 504.445 491.848 511.818C491.848 519.19 497.829 525.167 505.206 525.167Z" fill="#84C201"/>
<path d="M530.145 480.88H480.268C478.433 480.88 477 479.39 477 477.614C477 475.781 478.491 474.349 480.268 474.349H530.145C531.979 474.349 533.412 475.838 533.412 477.614C533.412 479.448 531.979 480.88 530.145 480.88Z" fill="#212841"/>
<path d="M523.093 474.521H487.262C485.714 474.521 484.453 473.26 484.453 471.713V470.797C484.453 469.25 485.714 467.989 487.262 467.989H523.093C524.641 467.989 525.902 469.25 525.902 470.797V471.713C525.902 473.26 524.641 474.521 523.093 474.521Z" fill="#212841"/>
<path d="M516.099 468.734V463.464C516.099 462.089 517.188 461 518.564 461C519.94 461 521.029 462.089 521.029 463.464V468.734C521.029 470.109 519.94 471.198 518.564 471.198C517.188 471.198 516.099 470.109 516.099 468.734Z" fill="#212841"/>
<path d="M310.346 221.401C310.346 221.401 306.735 247.182 303.467 250.448C300.199 253.713 302.32 258.068 306.907 258.068C306.907 258.068 305.76 288.26 319.519 286.713C333.278 285.167 355.064 267.979 359.65 263.396C364.236 258.812 391.009 207.651 381.435 198.083C371.861 188.516 314.188 193.156 310.346 221.401Z" fill="#FCE7C7"/>
<path d="M367.676 183.588C367.676 183.588 314.933 175.682 305.015 211.088C302.32 220.656 309.2 220.999 319.519 217.963C329.839 214.926 331.73 240.479 340.903 242.426C350.076 244.317 358.274 238.932 362 235.15C365.784 231.369 370.715 226.385 370.715 233.26C370.715 248.327 359.994 246.609 359.994 252.51C359.994 262.078 359.593 263.453 359.593 263.453C361.886 265.744 396.283 236.354 386.365 195.848C386.365 195.848 420.075 176.426 407.749 153.051C403.908 145.775 391.697 158.38 385.563 156.489C379.543 154.598 360.051 143.14 367.676 183.588Z" fill="#4E6EE9"/>
<path d="M448.281 543.38H256.915C253.819 543.38 251.297 540.859 251.297 537.765V518.057H453.899V537.765C453.899 540.859 451.377 543.38 448.281 543.38Z" fill="#212841"/>
<path d="M439.683 535.015H266.719C258.235 535.015 251.355 528.14 251.355 519.661V431.833C251.355 421.635 259.61 413.385 269.815 413.385H436.644C446.849 413.385 455.104 421.635 455.104 431.833V519.661C455.047 528.14 448.167 535.015 439.683 535.015Z" fill="#FCFCFC"/>
<path d="M439.683 535.015H266.719C258.235 535.015 251.355 528.14 251.355 519.661V431.833C251.355 421.635 259.61 413.385 269.815 413.385H436.644C446.849 413.385 455.104 421.635 455.104 431.833V519.661C455.047 528.14 448.167 535.015 439.683 535.015Z" fill="url(#paint5_linear)"/>
<path d="M350.878 489.811C359.522 489.811 366.529 482.809 366.529 474.171C366.529 465.533 359.522 458.53 350.878 458.53C342.234 458.53 335.227 465.533 335.227 474.171C335.227 482.809 342.234 489.811 350.878 489.811Z" fill="#D3DEFF"/>
<path d="M154.181 432.789L183.534 512.883L185.999 511.967L156.646 431.873C156.417 431.185 155.614 430.842 154.926 431.071C154.238 431.357 153.894 432.102 154.181 432.789Z" fill="#212841"/>
<path d="M165.589 447.055L187.432 529.498L190.012 528.811L168.112 446.368C167.94 445.68 167.195 445.222 166.507 445.451C165.819 445.623 165.36 446.311 165.589 447.055Z" fill="#212841"/>
<path d="M217.989 441.384L223.091 443.045C224.467 443.503 225.212 444.936 224.753 446.311L198.726 526.863L188.75 523.654L214.778 443.102C215.179 441.727 216.613 440.983 217.989 441.384Z" fill="#212841"/>
<path d="M202.911 472.894H177.113H165.991C162.666 472.894 160.086 475.815 160.487 479.138L166.851 527.894C167.94 536.43 175.221 542.789 183.82 542.789H196.089C204.688 542.789 211.969 536.43 213.058 527.894L219.422 479.138C219.88 475.815 217.301 472.894 213.918 472.894H202.911Z" fill="url(#paint6_linear)"/>
<path d="M71 440L80 449L89 440" stroke="#FFC14F" stroke-width="5" stroke-linecap="round" stroke-linejoin="round"/>
<path d="M89 118L80 109L71 118" stroke="#FFC14F" stroke-width="5" stroke-linecap="round" stroke-linejoin="round"/>
<circle cx="62" cy="178" r="6.5" stroke="white" stroke-width="3"/>
<rect x="55.5" y="171.5" width="48" height="13" rx="6.5" stroke="white" stroke-width="3"/>
<circle cx="97" cy="203" r="6.5" stroke="white" stroke-width="3"/>
<rect x="55.5" y="196.5" width="48" height="13" rx="6.5" stroke="white" stroke-width="3"/>
<defs>
<filter id="filter0_d" x="126.13" y="188.307" width="435.738" height="198.646" filterUnits="userSpaceOnUse" color-interpolation-filters="sRGB">
<feFlood flood-opacity="0" result="BackgroundImageFix"/>
<feColorMatrix in="SourceAlpha" type="matrix" values="0 0 0 0 0 0 0 0 0 0 0 0 0 0 0 0 0 0 127 0"/>
<feOffset/>
<feGaussianBlur stdDeviation="15"/>
<feColorMatrix type="matrix" values="0 0 0 0 0 0 0 0 0 0 0 0 0 0 0 0 0 0 0.2 0"/>
<feBlend mode="normal" in2="BackgroundImageFix" result="effect1_dropShadow"/>
<feBlend mode="normal" in="SourceGraphic" in2="effect1_dropShadow" result="shape"/>
</filter>
<filter id="filter1_d" x="388" y="208" width="199.311" height="104.745" filterUnits="userSpaceOnUse" color-interpolation-filters="sRGB">
<feFlood flood-opacity="0" result="BackgroundImageFix"/>
<feColorMatrix in="SourceAlpha" type="matrix" values="0 0 0 0 0 0 0 0 0 0 0 0 0 0 0 0 0 0 127 0"/>
<feOffset/>
<feGaussianBlur stdDeviation="15"/>
<feColorMatrix type="matrix" values="0 0 0 0 0 0 0 0 0 0 0 0 0 0 0 0 0 0 0.1 0"/>
<feBlend mode="normal" in2="BackgroundImageFix" result="effect1_dropShadow"/>
<feBlend mode="normal" in="SourceGraphic" in2="effect1_dropShadow" result="shape"/>
</filter>
<filter id="filter2_d" x="514" y="247" width="29" height="29" filterUnits="userSpaceOnUse" color-interpolation-filters="sRGB">
<feFlood flood-opacity="0" result="BackgroundImageFix"/>
<feColorMatrix in="SourceAlpha" type="matrix" values="0 0 0 0 0 0 0 0 0 0 0 0 0 0 0 0 0 0 127 0"/>
<feOffset/>
<feGaussianBlur stdDeviation="5"/>
<feColorMatrix type="matrix" values="0 0 0 0 1 0 0 0 0 0.700064 0 0 0 0 0.145833 0 0 0 1 0"/>
<feBlend mode="normal" in2="BackgroundImageFix" result="effect1_dropShadow"/>
<feBlend mode="normal" in="SourceGraphic" in2="effect1_dropShadow" result="shape"/>
</filter>
<filter id="filter3_d" x="0" y="204.891" width="157.739" height="157.688" filterUnits="userSpaceOnUse" color-interpolation-filters="sRGB">
<feFlood flood-opacity="0" result="BackgroundImageFix"/>
<feColorMatrix in="SourceAlpha" type="matrix" values="0 0 0 0 0 0 0 0 0 0 0 0 0 0 0 0 0 0 127 0"/>
<feOffset/>
<feGaussianBlur stdDeviation="20"/>
<feColorMatrix type="matrix" values="0 0 0 0 0 0 0 0 0 0 0 0 0 0 0 0 0 0 0.2 0"/>
<feBlend mode="normal" in2="BackgroundImageFix" result="effect1_dropShadow"/>
<feBlend mode="normal" in="SourceGraphic" in2="effect1_dropShadow" result="shape"/>
</filter>
<filter id="filter4_d" x="0" y="111" width="157.739" height="157.688" filterUnits="userSpaceOnUse" color-interpolation-filters="sRGB">
<feFlood flood-opacity="0" result="BackgroundImageFix"/>
<feColorMatrix in="SourceAlpha" type="matrix" values="0 0 0 0 0 0 0 0 0 0 0 0 0 0 0 0 0 0 127 0"/>
<feOffset/>
<feGaussianBlur stdDeviation="20"/>
<feColorMatrix type="matrix" values="0 0 0 0 0 0 0 0 0 0 0 0 0 0 0 0 0 0 0.2 0"/>
<feBlend mode="normal" in2="BackgroundImageFix" result="effect1_dropShadow"/>
<feBlend mode="normal" in="SourceGraphic" in2="effect1_dropShadow" result="shape"/>
</filter>
<filter id="filter5_d" x="0" y="299" width="157.739" height="157.688" filterUnits="userSpaceOnUse" color-interpolation-filters="sRGB">
<feFlood flood-opacity="0" result="BackgroundImageFix"/>
<feColorMatrix in="SourceAlpha" type="matrix" values="0 0 0 0 0 0 0 0 0 0 0 0 0 0 0 0 0 0 127 0"/>
<feOffset/>
<feGaussianBlur stdDeviation="20"/>
<feColorMatrix type="matrix" values="0 0 0 0 0 0 0 0 0 0 0 0 0 0 0 0 0 0 0.2 0"/>
<feBlend mode="normal" in2="BackgroundImageFix" result="effect1_dropShadow"/>
<feBlend mode="normal" in="SourceGraphic" in2="effect1_dropShadow" result="shape"/>
</filter>
<filter id="filter6_d" x="135.338" y="71.3906" width="93.8797" height="37.0469" filterUnits="userSpaceOnUse" color-interpolation-filters="sRGB">
<feFlood flood-opacity="0" result="BackgroundImageFix"/>
<feColorMatrix in="SourceAlpha" type="matrix" values="0 0 0 0 0 0 0 0 0 0 0 0 0 0 0 0 0 0 127 0"/>
<feOffset dy="4"/>
<feGaussianBlur stdDeviation="2"/>
<feColorMatrix type="matrix" values="0 0 0 0 0 0 0 0 0 0 0 0 0 0 0 0 0 0 0.25 0"/>
<feBlend mode="normal" in2="BackgroundImageFix" result="effect1_dropShadow"/>
<feBlend mode="normal" in="SourceGraphic" in2="effect1_dropShadow" result="shape"/>
</filter>
<filter id="filter7_d" x="461.119" y="101" width="120.974" height="120.927" filterUnits="userSpaceOnUse" color-interpolation-filters="sRGB">
<feFlood flood-opacity="0" result="BackgroundImageFix"/>
<feColorMatrix in="SourceAlpha" type="matrix" values="0 0 0 0 0 0 0 0 0 0 0 0 0 0 0 0 0 0 127 0"/>
<feOffset/>
<feGaussianBlur stdDeviation="12.5"/>
<feColorMatrix type="matrix" values="0 0 0 0 0 0 0 0 0 0 0 0 0 0 0 0 0 0 0.2 0"/>
<feBlend mode="normal" in2="BackgroundImageFix" result="effect1_dropShadow"/>
<feBlend mode="normal" in="SourceGraphic" in2="effect1_dropShadow" result="shape"/>
</filter>
<filter id="filter8_d" x="73.2827" y="464.172" width="555.173" height="127.828" filterUnits="userSpaceOnUse" color-interpolation-filters="sRGB">
<feFlood flood-opacity="0" result="BackgroundImageFix"/>
<feColorMatrix in="SourceAlpha" type="matrix" values="0 0 0 0 0 0 0 0 0 0 0 0 0 0 0 0 0 0 127 0"/>
<feOffset dy="10"/>
<feGaussianBlur stdDeviation="10"/>
<feColorMatrix type="matrix" values="0 0 0 0 0 0 0 0 0 0 0 0 0 0 0 0 0 0 0.1 0"/>
<feBlend mode="normal" in2="BackgroundImageFix" result="effect1_dropShadow"/>
<feBlend mode="normal" in="SourceGraphic" in2="effect1_dropShadow" result="shape"/>
</filter>
<linearGradient id="paint0_linear" x1="529" y1="361.5" x2="451" y2="616.5" gradientUnits="userSpaceOnUse">
<stop stop-color="#FFC04E"/>
<stop offset="1" stop-color="white" stop-opacity="0"/>
</linearGradient>
<linearGradient id="paint1_linear" x1="163.155" y1="414.597" x2="269.296" y2="514.226" gradientUnits="userSpaceOnUse">
<stop stop-color="#FAAB42"/>
<stop offset="1" stop-color="white" stop-opacity="0"/>
</linearGradient>
<linearGradient id="paint2_linear" x1="459" y1="195.5" x2="228" y2="319" gradientUnits="userSpaceOnUse">
<stop stop-color="#FFC14F"/>
<stop offset="1" stop-color="#F9A63F"/>
</linearGradient>
<linearGradient id="paint3_linear" x1="232.809" y1="100" x2="161.309" y2="76.5" gradientUnits="userSpaceOnUse">
<stop stop-color="#F9A63F"/>
<stop offset="1" stop-color="#FFC14F"/>
</linearGradient>
<radialGradient id="paint4_radial" cx="0" cy="0" r="1" gradientUnits="userSpaceOnUse" gradientTransform="translate(318 452.5) rotate(31.7492) scale(225.199 1320.95)">
<stop stop-color="#F9A63F"/>
<stop offset="1" stop-color="#FFC14F"/>
</radialGradient>
<linearGradient id="paint5_linear" x1="353" y1="553.5" x2="353" y2="474" gradientUnits="userSpaceOnUse">
<stop stop-color="#B2C3FC"/>
<stop offset="1" stop-color="white" stop-opacity="0"/>
</linearGradient>
<linearGradient id="paint6_linear" x1="213.5" y1="478" x2="160" y2="539" gradientUnits="userSpaceOnUse">
<stop offset="0.449521" stop-color="#4E6EE9"/>
<stop offset="1" stop-color="#3750B2"/>
</linearGradient>
</defs>
</svg>
