<svg width="694" height="622" viewBox="0 0 694 622" fill="none" xmlns="http://www.w3.org/2000/svg">
<path d="M7.34485 284.491C1.88202 337.29 -2.54834 404.031 20.9583 447.749C41.9434 486.778 94.2623 526.646 129.218 553.464C181.812 593.813 231.967 622 318.186 622C389.669 622 428.391 592.504 479.279 553.464C497.106 539.787 562.22 515.316 593.161 457.771C616.668 414.053 630 364.079 630 311C630 264.1 605.728 231.472 600.952 179.746C593.161 95.369 541.697 87.4744 497.106 56.2611C452.516 25.0477 384.76 0 318.186 0C217.382 0 169.591 49.0808 113.66 102.158C53.9583 158.813 20.9583 152.914 7.34485 284.491Z" fill="#FCFCFC"/>
<path d="M503.986 82.5992C503.986 82.5992 622.139 112.892 655.586 241.887C662.212 345.46 523.454 410.067 519.679 440.485C515.904 470.902 462.666 503.167 435.084 461.353C407.502 419.539 360.967 536.434 314.355 518.337C267.743 500.318 251.82 288.433 122.36 445.182C68.358 526.898 -46.83 384.347 21.5857 300.719C90.0013 217.091 60.6733 120.105 169.22 126.356C344.528 126.356 311.991 40.7851 503.986 82.5992Z" fill="#E5EBFF"/>
<path d="M445.258 424.964C445.258 424.964 419.127 322.205 434.367 283.006C434.367 283.006 444.059 252.022 451.227 274.047C451.227 274.047 456.996 336.784 456.035 355.559C456.035 355.559 481.336 319.505 473.935 351.42C473.935 351.42 468.417 415.203 460.984 429.127C453.626 443.09 445.258 424.964 445.258 424.964Z" fill="url(#paint0_linear)"/>
<path d="M411.498 535.941C409.363 534.245 352.315 421.964 369.651 393.248C369.651 393.248 374.453 376.309 389.067 389.545C389.067 389.545 436.24 429.622 423.461 541.378L413.815 541.873L411.498 535.941Z" fill="url(#paint1_linear)"/>
<path d="M509.288 499.522C509.288 499.522 505.535 360.9 525.904 337.938C525.904 337.938 536.35 326.058 539.123 337.566C539.822 340.468 539.539 343.5 539.176 346.463L530.553 416.824C530.553 416.824 540.353 384.109 553.467 374.519C557.921 371.262 563.963 373.815 564.367 379.318C564.914 386.778 562.208 401.503 547.641 430.183C547.641 430.183 561.252 406.743 567.753 409.371C567.753 409.371 580.82 411.223 561.557 451.638L509.289 528.999L505.711 510.95L509.288 499.522Z" fill="url(#paint2_linear)"/>
<path d="M436.53 450.976C423.996 452.527 385.5 510.001 385.5 537.001C401.886 587.405 412.878 505.983 434.18 490.646C455.482 475.308 452.199 449.037 436.53 450.976Z" fill="#FE774C"/>
<path d="M406.105 536.902C412.321 516.129 431.053 473.587 456.255 469.6C481.457 465.613 486.579 495.493 485.99 510.932C487.827 490.706 498.198 446.921 524.988 433.585C551.607 420.334 532.273 471.823 519.052 499.735C529.82 477.397 572.452 430.314 581.312 437.031C592.476 445.494 545.31 507.42 512.976 517.931C487.109 526.341 430.951 534.082 406.105 536.902Z" fill="#FEBA4B"/>
<path d="M467.079 553.032C404.561 577.886 323.933 559.61 290.519 545.236C305.755 537.654 340.342 521.889 356.804 519.481C373.266 517.074 380.442 530.198 381.972 537.062C388.768 530.471 404.486 516.073 412.998 511.203C421.509 506.333 422.109 526.292 421.345 536.88C428.172 526.073 444.143 503.18 453.415 498.063C462.688 492.946 458.596 517.234 455.391 530.018C463.07 518.058 481.758 492.74 495.082 487.146C508.405 481.553 494.271 504.059 485.538 516.011C492.373 511.16 528.367 476.326 552.25 475.396C576.132 474.467 554.143 518.418 467.079 553.032Z" fill="#FCFCFC"/>
<path d="M191.889 454.07C207.897 471.883 209.795 447.719 195.494 436.758C181.783 408.701 199.549 379.979 200.159 376.328C202.542 360.677 192.749 350.497 180.767 369.724C168.786 388.951 171.266 387.411 169.017 386.838C166.768 386.265 164.644 354.886 155.869 348.266C146.978 341.652 143.046 352.607 148.268 366.545C153.606 380.476 142.435 368.624 138.477 358.465C134.804 349.223 117.426 326.639 111.591 332.802C110.487 333.915 110.353 335.672 110.787 337.164C111.351 338.882 112.452 341.853 113.554 344.824C114.92 348.363 111.732 351.81 108.06 350.851C100.472 348.713 91.2622 346.784 90.134 349.531C88.1806 354.191 104.68 363.292 113.058 367.018C121.32 370.751 135.087 381.056 120.191 379.681C105.302 378.423 81.4655 379.887 103.71 389.479C103.949 389.582 104.304 389.679 104.544 389.782C108.913 390.702 144.835 398.704 148.037 401.673C151.368 404.868 161.068 413.419 146.173 412.045C131.632 410.767 107.037 409.124 124.276 420.982C125.129 421.634 128.458 422.729 129.525 423.019C133.202 424.094 143.169 427.031 152.768 429.638C159.283 431.37 167.417 536.705 169.017 540.231C170.215 542.847 183.676 471.195 186.033 469.545L191.889 454.07Z" fill="#D1DBFD"/>
<path d="M126.266 243.914C126.266 243.914 118.627 253.861 120.76 265.995C122.893 278.13 131.998 276.526 133.208 270.057C134.418 263.589 130.019 238.562 126.266 243.914Z" fill="#839EFF"/>
<path d="M102.522 264.594C102.522 264.594 92.3052 260.765 76.2999 268.51C60.2946 276.256 77.3212 286.783 90.0012 279.701C90.0012 279.701 110.004 267.107 102.522 264.594Z" fill="#839EFF"/>
<path d="M150.867 160.453C150.867 160.453 155.643 172.044 167.256 176.253C178.87 180.463 182.036 171.773 176.983 167.503C171.93 163.233 148.105 154.529 150.867 160.453Z" fill="#839EFF"/>
<path d="M53.4853 321.633C53.4853 321.633 41.0063 322.736 33.4923 332.504C25.9782 342.272 33.3108 347.939 38.8786 344.457C44.4465 340.974 59.9884 320.8 53.4853 321.633Z" fill="#839EFF"/>
<path d="M150.773 201.753C150.773 201.753 134.771 199.725 129.262 212.892C125.703 221.573 141.03 220.202 146.452 214.556C151.785 208.846 157.856 200.662 150.773 201.753Z" fill="#839EFF"/>
<path d="M45.6905 364.524C45.6905 364.524 47.3383 380.575 61.3677 382.951C70.6403 384.523 65.8764 369.881 59.078 365.918C52.4448 362.005 43.0491 357.952 45.6905 364.524Z" fill="#839EFF"/>
<path d="M78.2008 395.936C78.2008 395.936 81.4615 403.806 89.5457 407.073C97.6298 410.34 96.9449 401.548 94.7608 398.023C91.1145 392.41 74.8334 387.459 78.2008 395.936Z" fill="#839EFF"/>
<path d="M159.917 382.4C159.917 382.4 166.174 388.178 174.859 387.743C183.544 387.308 179.297 379.611 175.769 377.34C170.202 373.708 153.326 376.055 159.917 382.4Z" fill="#839EFF"/>
<path d="M236.471 412.935C236.471 412.935 235.131 420.443 237.686 428.75C243.304 446.916 249.918 435.586 247.561 425.29C246.035 418.834 239.499 404.348 236.471 412.935Z" fill="#839EFF"/>
<path d="M70.2439 301.713C70.2439 301.713 63.0959 311.338 67.9398 326.435C69.2041 330.513 78.5403 330.666 76.914 315.628C75.2878 300.589 70.9022 298.782 70.2439 301.713Z" fill="#839EFF"/>
<path d="M216.684 382.252C216.684 382.252 211.218 392.989 218.535 407.024C220.531 410.817 229.677 409.44 225.546 394.843C221.519 380.384 216.874 379.326 216.684 382.252Z" fill="#839EFF"/>
<path d="M113.065 389.56C113.065 389.56 125.043 390.499 135.272 378.376C137.992 375.16 133.223 367.165 121.336 376.531C109.449 385.896 110.262 390.523 113.065 389.56Z" fill="#839EFF"/>
<path d="M199.461 373.714C199.461 373.714 210.011 379.44 224.288 372.546C228.11 370.7 227.042 361.506 212.356 365.187C197.67 368.869 196.52 373.45 199.461 373.714Z" fill="#839EFF"/>
<path d="M230.93 393.426C230.93 393.426 235.688 404.472 251.22 407.835C255.37 408.746 260.151 400.788 246.406 394.687C232.496 388.537 228.771 391.382 230.93 393.426Z" fill="#839EFF"/>
<path d="M113.779 150.159C129.32 148.673 149.161 152.074 156.052 168.14C159.09 175.189 158.477 183.272 156.704 190.543C154.076 201.406 148.923 211.696 143.065 221.094C131.487 239.788 115.842 255.367 100.014 270.353C74.4004 294.647 42.3661 323.356 44.581 362.216C46.563 396.192 86.7081 394.046 111.333 389.942C122.349 388.08 133.307 385.446 144.047 382.459C155.608 379.25 167.117 374.407 179.15 372.991C200.078 370.555 222.672 378.929 233.288 397.935C235.578 402.067 237.137 406.484 238.026 411.096C238.159 411.855 239.297 411.654 239.164 410.896C235.751 392.81 221.444 379.067 204.11 373.911C194.116 370.902 183.436 370.672 173.246 372.78C161.007 375.249 149.168 379.993 137.124 383.131C118.131 388.119 97.8038 392.639 78.0928 390.872C64.2633 389.634 50.4954 383.849 46.8204 369.172C42.3579 351.349 50.1078 330.906 59.6296 316.092C70.751 298.808 86.3103 284.964 101.133 270.938C116.698 256.233 132.004 240.948 143.434 222.749C152.353 208.512 162.972 188.814 158.424 171.397C153.418 152.263 132.136 147.785 115.047 148.919C114.579 148.924 114.123 149.004 113.579 149.022C112.883 149.066 113.082 150.204 113.779 150.159Z" fill="#7C99FF"/>
<path d="M113.779 150.159C129.32 148.673 149.161 152.074 156.052 168.14C159.09 175.189 158.477 183.272 156.704 190.543C154.076 201.406 148.923 211.696 143.065 221.094C131.487 239.788 115.842 255.367 100.014 270.353C74.4004 294.647 42.3661 323.356 44.581 362.216C46.563 396.192 86.7081 394.046 111.333 389.942C122.349 388.08 133.307 385.446 144.047 382.459C155.608 379.25 167.117 374.407 179.15 372.991C200.078 370.555 222.672 378.929 233.288 397.935C235.578 402.067 237.137 406.484 238.026 411.096C238.159 411.855 239.297 411.654 239.164 410.896C235.751 392.81 221.444 379.067 204.11 373.911C194.116 370.902 183.436 370.672 173.246 372.78C161.007 375.249 149.168 379.993 137.124 383.131C118.131 388.119 97.8038 392.639 78.0928 390.872C64.2633 389.634 50.4954 383.849 46.8204 369.172C42.3579 351.349 50.1078 330.906 59.6296 316.092C70.751 298.808 86.3103 284.964 101.133 270.938C116.698 256.233 132.004 240.948 143.434 222.749C152.353 208.512 162.972 188.814 158.424 171.397C153.418 152.263 132.136 147.785 115.047 148.919C114.579 148.924 114.123 149.004 113.579 149.022C112.883 149.066 113.082 150.204 113.779 150.159Z" fill="#839EFE"/>
<path d="M333 257L452 562" stroke="black" stroke-opacity="0.15" stroke-width="2" stroke-linecap="round"/>
<path d="M338 257L219 562" stroke="black" stroke-opacity="0.15" stroke-width="2" stroke-linecap="round"/>
<path d="M333.655 246L341.231 573" stroke="black" stroke-opacity="0.15" stroke-width="2" stroke-linecap="round"/>
<g filter="url(#filter0_d)">
<path d="M487.308 332.016H128.511C119.959 332.016 113.025 325.086 113.025 316.538V123.562C113.025 115.014 119.959 108.084 128.511 108.084H487.308C495.86 108.084 502.794 115.014 502.794 123.562V316.538C502.794 325.086 495.86 332.016 487.308 332.016Z" fill="#FFC14F"/>
<path d="M487.308 332.016H128.511C119.959 332.016 113.025 325.086 113.025 316.538V123.562C113.025 115.014 119.959 108.084 128.511 108.084H487.308C495.86 108.084 502.794 115.014 502.794 123.562V316.538C502.794 325.086 495.86 332.016 487.308 332.016Z" fill="url(#paint3_linear)"/>
</g>
<path d="M76.8267 455.655C76.8267 455.655 72.6663 449.263 65.27 452.652C57.8737 456.117 57.4885 452.652 57.4885 456.579C57.4885 460.429 57.7196 462.2 55.7164 463.663C53.7133 465.204 55.1771 470.209 55.1771 470.209C55.1771 470.209 59.6457 475.291 61.3407 475.137C63.0357 474.906 65.1159 475.753 66.6568 475.522C68.1977 475.214 72.0499 474.367 72.0499 474.367C72.0499 474.367 76.5955 472.519 77.443 472.442C78.2905 472.365 80.2937 470.825 80.5248 469.516C80.833 468.207 80.9871 465.974 80.9871 465.974C81.2953 463.894 80.1396 461.815 78.2905 460.891L76.4414 459.967C76.4414 459.967 78.2135 456.733 76.8267 455.655Z" fill="white"/>
<path d="M81.2951 476.601C81.2951 476.601 72.8202 468.9 84.3769 466.59C95.9336 464.28 95.1631 461.969 96.704 460.429C98.2449 458.889 103.638 458.119 106.72 458.119C109.802 458.119 115.195 460.429 115.195 463.51C115.195 466.59 117.506 468.13 119.817 468.13C122.129 468.13 122.899 471.21 122.899 473.52C122.899 475.83 122.899 480.451 118.277 480.451C113.654 480.451 82.0656 483.531 81.2951 476.601Z" fill="#F0F0FC"/>
<path d="M71.8185 478.834C71.5103 471.981 66.5024 475.985 67.9663 471.75C69.4301 467.514 69.7383 468.978 68.9679 465.281C68.1974 461.585 65.732 461.2 70.2776 460.276C74.8233 459.352 75.5167 459.198 76.7494 457.35C77.9821 455.502 84.9161 458.736 86.7652 459.968C88.6143 461.2 89.6929 462.509 91.9272 462.047C94.1615 461.585 98.7071 456.657 99.4775 460.43C100.248 464.203 98.9382 465.281 100.787 466.436C102.636 467.591 103.715 467.36 104.254 468.824C104.794 470.287 103.715 472.905 102.559 474.753C101.25 476.524 72.0497 483.532 71.8185 478.834Z" fill="#B2C3FC"/>
<path d="M86.2259 464.511C86.2259 464.511 76.4412 462.662 76.4412 466.051C76.4412 469.439 75.979 468.977 75.4397 471.903C74.9774 474.829 75.5937 476.677 78.9067 476.523C82.2966 476.292 84.9161 479.219 87.2275 478.295C89.5388 477.371 92.0042 475.368 92.0042 474.444C92.0042 473.52 92.0042 471.518 92.0042 470.517C92.0042 469.516 93.9304 470.055 93.0058 467.129C92.0813 464.203 92.0042 464.203 91.542 463.74C91.1568 463.124 89.6929 464.434 86.2259 464.511Z" fill="white"/>
<path d="M113.5 479.296C113.5 479.296 124.363 478.218 123.439 474.907C122.514 471.596 123.131 471.981 122.899 468.978C122.591 466.051 121.513 464.434 117.969 465.589C114.425 466.744 110.803 464.819 108.646 466.436C106.412 468.053 104.409 470.672 104.64 471.596C104.871 472.52 105.41 474.445 105.718 475.369C105.95 476.293 103.792 476.447 105.641 478.911C107.491 481.452 107.491 481.452 108.107 481.76C108.723 482.069 109.879 480.374 113.5 479.296Z" fill="white"/>
<path d="M128.832 476.447L112.652 554.608C112.036 557.611 109.416 559.69 106.335 559.69H68.9679C65.8862 559.69 63.3437 557.534 62.7273 554.608L46.5479 476.447C45.3923 471.056 49.1675 465.897 54.4065 465.127C54.4836 469.285 57.8735 472.674 62.111 472.674H113.269C115.426 472.674 117.352 471.826 118.739 470.44C120.126 469.054 120.973 467.206 120.973 465.127C126.289 465.974 129.987 471.056 128.832 476.447Z" fill="#526BC5"/>
<path d="M54.4067 465.05H55.8705C55.4083 465.05 54.869 465.05 54.4067 465.127V465.05Z" fill="#F2F2F2"/>
<path d="M120.973 465.05V465.127C120.511 465.05 120.049 465.05 119.509 465.05H120.973Z" fill="#F2F2F2"/>
<path d="M314.502 147.48L347.545 138.039C348.434 137.785 349.29 138.261 349.544 139.15L355.201 158.995C355.454 159.883 354.977 160.74 354.088 160.994L320.972 170.456C320.082 170.71 319.205 170.16 318.951 169.271C318.002 165.379 315.449 155.297 313.411 149.553C313.083 148.686 313.613 147.734 314.502 147.48Z" fill="#FFD381"/>
<path d="M241.009 531.12L242.241 552.374L250.793 550.757V523.805C250.793 523.805 241.009 522.188 241.009 531.12Z" fill="#526BC5"/>
<path d="M244.245 549.063C242.627 548.986 241.086 549.91 240.47 551.374C239.622 553.299 238.621 556.071 238.621 558.381C238.621 562.462 267.358 560.999 267.204 558.15C266.588 546.522 257.728 553.299 252.489 548.37C251.256 547.215 247.558 548.986 246.171 549.14C245.477 549.063 244.784 549.063 244.245 549.063Z" fill="#0F1A5D"/>
<path d="M167.508 515.566L160.882 550.449L169.588 550.68L178.679 510.483C178.602 510.483 169.434 506.787 167.508 515.566Z" fill="#526BC5"/>
<path d="M162.577 549.063C160.96 548.986 159.419 549.91 158.802 551.374C157.955 553.299 156.953 556.071 156.953 558.381C156.953 562.462 185.691 560.999 185.537 558.15C184.92 546.522 176.06 553.299 170.821 548.37C169.589 547.215 165.89 548.986 164.504 549.14C163.81 549.063 163.194 549.063 162.577 549.063Z" fill="#0F1A5D"/>
<path d="M291.55 197.686L282.613 213.241L280.918 216.167L276.372 224.099L262.658 228.257C258.96 229.412 254.954 227.256 253.798 223.56L245.015 194.297C243.86 190.601 246.017 186.674 249.715 185.519L258.344 182.901L269.669 179.358L277.913 176.817C281.688 175.662 285.618 177.818 286.773 181.515L291.55 197.686Z" fill="#FFD381"/>
<path d="M260.193 178.28L267.666 177.972C268.745 177.895 269.67 178.819 269.747 179.897L269.824 181.977C269.824 183.055 268.976 183.979 267.898 183.979L260.424 184.287C259.346 184.364 258.421 183.44 258.344 182.362L258.267 180.282C258.267 179.204 259.114 178.357 260.193 178.28Z" fill="#F48B30"/>
<path d="M281.534 197.455C282.536 200.92 281.997 204.462 280.302 207.311C278.761 209.853 276.295 211.855 273.213 212.779C270.132 213.703 266.973 213.318 264.276 212.086C261.272 210.623 258.883 208.004 257.882 204.539C254.8 194.22 260.809 190.832 266.202 189.215C272.751 187.213 279.608 190.909 281.534 197.455Z" fill="#FFC14F"/>
<path d="M271.066 205.381C273.921 204.532 275.547 201.53 274.697 198.677C273.848 195.823 270.845 194.199 267.99 195.048C265.135 195.897 263.509 198.898 264.359 201.752C265.208 204.605 268.211 206.23 271.066 205.381Z" fill="#FFD381"/>
<path d="M280.302 207.312C278.761 209.853 276.295 211.855 273.213 212.779C270.132 213.703 266.973 213.318 264.276 212.086C265.201 209.006 267.666 206.465 270.979 205.463C274.369 204.385 277.836 205.232 280.302 207.312Z" fill="#FFD381"/>
<path d="M272.212 218.708L261.117 222.019C260.501 222.173 259.885 221.865 259.654 221.249C259.499 220.633 259.808 220.017 260.424 219.786L271.518 216.475C272.135 216.321 272.751 216.629 272.982 217.245C273.136 217.861 272.828 218.554 272.212 218.708Z" fill="#FFC14F"/>
<path d="M282.613 213.241L280.918 216.167L278.144 217.014C277.528 217.169 276.912 216.86 276.68 216.244C276.68 216.167 276.603 216.013 276.603 215.936C276.603 215.397 276.912 214.935 277.451 214.781L282.613 213.241Z" fill="#CCCCCC"/>
<path d="M332.776 198.609L360.015 209.771C363.666 211.228 365.352 215.366 363.899 219.014L352.179 247.245C350.685 250.793 346.62 252.504 342.97 251.047L315.73 239.885C312.08 238.428 310.394 234.29 311.847 230.641L323.566 202.411C325.131 198.893 329.196 197.182 332.776 198.609Z" fill="#FFD381"/>
<path d="M349.818 228.031C348.414 231.366 345.739 233.747 342.672 234.876C339.907 235.882 336.731 235.879 333.749 234.62C330.768 233.362 328.548 231.088 327.337 228.404C325.932 225.388 325.767 221.808 327.171 218.473C329.8 212.229 336.992 209.247 343.269 211.813C349.457 214.591 352.447 221.787 349.818 228.031Z" fill="#FFC14F"/>
<path d="M336.655 227.575C339.403 228.724 342.56 227.428 343.706 224.681C344.852 221.934 343.553 218.775 340.804 217.626C338.056 216.477 334.899 217.773 333.753 220.52C332.607 223.267 333.906 226.426 336.655 227.575Z" fill="#FFD381"/>
<path d="M342.642 234.947C339.877 235.953 336.701 235.949 333.72 234.691C330.738 233.433 328.518 231.159 327.307 228.475C329.986 226.681 333.513 226.247 336.708 227.595C339.902 228.944 342.055 231.774 342.642 234.947Z" fill="#FFD381"/>
<path d="M344.721 245.1L318.494 234.115C317.926 233.875 317.638 233.169 317.877 232.601C318.116 232.033 318.822 231.747 319.39 231.986L345.617 242.971C346.185 243.211 346.473 243.917 346.234 244.485C345.965 245.124 345.36 245.37 344.721 245.1Z" fill="#FFC14F"/>
<path d="M246.834 268.995L276.265 268.687C280.194 268.61 283.353 271.767 283.43 275.694L283.584 306.266C283.584 310.116 280.502 313.273 276.573 313.35L247.142 313.658C243.213 313.735 240.054 310.578 239.977 306.651L239.823 276.079C239.9 272.229 242.982 269.072 246.834 268.995Z" fill="#FFD381"/>
<path d="M273.953 291.019C273.953 294.638 272.413 297.873 270.024 300.106C267.867 302.108 264.939 303.34 261.703 303.34C258.467 303.34 255.54 302.108 253.383 300.106C250.917 297.873 249.376 294.638 249.376 291.019C249.376 284.243 254.846 278.698 261.626 278.621C268.406 278.775 273.953 284.243 273.953 291.019Z" fill="#FFC14F"/>
<path d="M261.646 295.718C264.625 295.707 267.031 293.286 267.021 290.309C267.011 287.332 264.588 284.927 261.61 284.937C258.631 284.947 256.225 287.368 256.235 290.345C256.245 293.322 258.668 295.728 261.646 295.718Z" fill="#FFD381"/>
<path d="M270.024 300.182C267.867 302.184 264.939 303.416 261.703 303.416C258.468 303.416 255.54 302.184 253.383 300.182C255.155 297.487 258.236 295.716 261.703 295.716C265.17 295.716 268.252 297.487 270.024 300.182Z" fill="#FFD381"/>
<path d="M275.88 308.73L247.45 308.807C246.834 308.807 246.294 308.268 246.294 307.652C246.294 307.036 246.834 306.497 247.45 306.497L275.88 306.42C276.496 306.42 277.035 306.959 277.035 307.575C277.035 308.268 276.573 308.73 275.88 308.73Z" fill="#FFC14F"/>
<path d="M401.647 260.446L431.078 260.138C435.007 260.061 438.166 263.218 438.243 267.146L438.397 297.717C438.397 301.567 435.315 304.724 431.386 304.801L401.955 305.109C398.026 305.186 394.867 302.029 394.79 298.102L394.636 267.531C394.713 263.68 397.795 260.523 401.647 260.446Z" fill="#FFD381"/>
<path d="M428.767 280.929C428.767 284.548 427.226 287.783 424.837 290.016C422.68 292.018 419.752 293.25 416.516 293.25C413.281 293.25 410.353 292.018 408.196 290.016C405.73 287.783 404.189 284.548 404.189 280.929C404.189 274.153 409.66 268.608 416.439 268.531C423.219 268.685 428.767 274.153 428.767 280.929Z" fill="#FFC14F"/>
<path d="M416.461 285.629C419.439 285.619 421.846 283.197 421.836 280.22C421.825 277.243 419.403 274.838 416.424 274.848C413.446 274.858 411.039 277.28 411.049 280.257C411.059 283.234 413.482 285.639 416.461 285.629Z" fill="#FFD381"/>
<path d="M424.837 290.093C422.68 292.095 419.753 293.328 416.517 293.328C413.281 293.328 410.353 292.095 408.196 290.093C409.968 287.398 413.05 285.627 416.517 285.627C419.984 285.627 423.065 287.398 424.837 290.093Z" fill="#FFD381"/>
<path d="M430.693 298.641L402.263 298.718C401.647 298.718 401.108 298.179 401.108 297.563C401.108 296.947 401.647 296.408 402.263 296.408L430.693 296.331C431.309 296.331 431.848 296.87 431.848 297.486C431.848 298.179 431.386 298.641 430.693 298.641Z" fill="#FFC14F"/>
<path d="M170.744 198.302L142.854 200.382C141.621 200.459 140.62 199.534 140.543 198.379L139.464 184.287C139.387 183.055 140.311 182.054 141.467 181.977L169.357 179.898C170.59 179.821 171.592 180.745 171.669 181.9L172.747 195.992C172.824 197.147 171.9 198.225 170.744 198.302Z" fill="#FFD381"/>
<path d="M387.162 200.536L421.447 198.148C422.372 198.071 423.142 198.764 423.142 199.612L424.606 220.172C424.683 221.096 423.99 221.866 423.142 221.866L388.78 224.253C387.856 224.33 387.085 223.637 387.085 222.713C386.931 218.709 386.546 208.313 385.698 202.307C385.621 201.46 386.238 200.613 387.162 200.536Z" fill="#FFB938"/>
<path d="M151.252 176.433L153.948 175.817C154.719 175.663 155.566 176.048 155.875 176.818C156.799 178.897 158.571 183.363 159.033 187.522C159.11 188.523 158.34 189.447 157.338 189.447H154.719C153.794 189.447 153.024 188.754 153.024 187.83C152.947 185.827 152.485 182.208 150.25 179.205C149.48 178.127 150.019 176.664 151.252 176.433Z" fill="#F48B30"/>
<path d="M105.357 232.227C105.896 236.462 107.052 245.318 107.283 252.094C107.36 253.326 108.438 254.327 109.671 254.25L147.423 251.478C148.656 251.401 149.58 250.246 149.503 249.014L147.654 230.302C147.5 229.146 146.498 228.222 145.343 228.299L107.591 229.686C106.127 229.686 105.203 230.918 105.357 232.227Z" fill="#FFD381"/>
<path d="M323.596 140.317L336.031 138.686C336.793 138.549 337.523 139.141 337.66 139.903L338.197 143.193C338.334 143.954 337.762 144.758 336.979 144.822L324.893 146.273C324.206 146.389 323.518 145.945 323.328 145.279L322.42 142.095C322.114 141.301 322.686 140.497 323.596 140.317Z" fill="#F48B30"/>
<path d="M339.366 201.276L351.8 199.645C352.562 199.508 353.292 200.1 353.429 200.862L353.966 204.152C354.103 204.913 353.531 205.717 352.748 205.781L340.663 207.232C339.975 207.348 339.287 206.904 339.097 206.238L338.19 203.053C337.884 202.26 338.456 201.456 339.366 201.276Z" fill="#F48B30"/>
<path d="M339.103 281.891L372.864 288.291C373.773 288.464 374.325 289.274 374.154 290.182L370.318 310.459C370.147 311.367 369.336 311.919 368.428 311.746L334.59 305.332C333.682 305.159 333.144 304.274 333.316 303.366C334.211 299.46 336.446 289.303 337.198 283.254C337.294 282.332 338.194 281.719 339.103 281.891Z" fill="#FFD381"/>
<path d="M350.44 279.573L362.284 283.7C363.027 283.919 363.413 284.776 363.195 285.518L362.201 288.7C361.982 289.442 361.11 289.904 360.382 289.609L348.931 285.479C348.264 285.274 347.848 284.568 347.977 283.887L348.592 280.634C348.674 279.787 349.546 279.326 350.44 279.573Z" fill="#F48B30"/>
<path d="M188.773 139.855L221.362 128.997C222.21 128.689 223.134 129.151 223.443 129.998L229.991 149.558C230.3 150.405 229.837 151.329 228.99 151.637L196.323 162.495C195.475 162.803 194.551 162.264 194.243 161.416C193.087 157.566 190.159 147.555 187.848 141.934C187.386 141.087 187.848 140.163 188.773 139.855Z" fill="#FFD381"/>
<path d="M197.478 132.308L209.806 130.152C210.576 129.998 211.269 130.537 211.424 131.307L212.117 134.619C212.271 135.389 211.732 136.159 210.961 136.313L199.019 138.315C198.326 138.392 197.633 138.007 197.401 137.391L196.323 134.234C196.092 133.31 196.631 132.462 197.478 132.308Z" fill="#F48B30"/>
<path d="M385.391 188.137L418.52 178.897C419.367 178.666 420.292 179.128 420.523 180.052L426.07 199.919C426.301 200.766 425.839 201.69 424.914 201.921L391.708 211.162C390.861 211.393 389.936 210.854 389.705 210.007C388.78 206.08 386.315 195.992 384.312 190.217C384.004 189.37 384.543 188.445 385.391 188.137Z" fill="#FFD381"/>
<path d="M394.482 181.129L406.963 179.589C407.733 179.512 408.427 180.051 408.581 180.821L409.043 184.133C409.197 184.903 408.581 185.673 407.81 185.75L395.791 187.136C395.098 187.213 394.482 186.751 394.25 186.135L393.403 182.978C393.095 182.054 393.634 181.206 394.482 181.129Z" fill="#F48B30"/>
<path d="M291.627 197.84L278.067 200.997C274.446 201.844 272.212 205.386 272.982 209.006L276.218 224.099L291.627 197.84Z" fill="#F48B30"/>
<path d="M449.569 266.375C449.569 266.375 449.569 239.423 451.88 235.573C454.191 231.723 471.912 217.862 471.912 211.701C471.912 205.541 458.043 180.129 449.569 182.439C441.094 184.749 421.062 198.61 423.373 207.081C425.685 215.551 421.832 227.102 418.751 228.642L423.373 230.953C423.373 230.953 423.373 234.033 421.062 238.653C418.751 243.273 422.603 256.364 431.848 256.364V266.375C431.848 266.375 429.537 282.546 431.848 284.086C434.16 285.627 449.569 296.407 449.569 266.375Z" fill="#FFEFD0"/>
<path d="M449.569 266.375C449.569 266.375 449.569 239.423 451.88 235.573C454.191 231.723 471.912 217.862 471.912 211.701C471.912 205.541 458.043 180.129 449.569 182.439C441.094 184.749 421.062 198.61 423.373 207.081C425.685 215.551 421.832 227.102 418.751 228.642L423.373 230.953C423.373 230.953 423.373 234.033 421.062 238.653C418.751 243.273 422.603 256.364 431.848 256.364V266.375C431.848 266.375 429.537 282.546 431.848 284.086C434.16 285.627 449.569 296.407 449.569 266.375Z" fill="url(#paint4_linear)"/>
<path d="M433.389 183.979C433.389 183.979 422.603 178.589 427.996 178.589C433.389 178.589 439.553 177.049 444.946 180.899C444.946 180.899 454.191 172.429 460.355 176.279C466.518 180.129 478.845 204.771 475.764 211.701C472.682 218.632 459.43 232.647 454.114 232.955C448.798 233.263 458.043 225.563 461.125 221.712C464.207 217.862 463.436 210.161 462.666 209.391C462.666 209.391 458.66 219.094 448.028 215.552C443.405 214.012 446.487 204.001 447.257 204.001C447.257 204.001 418.751 217.092 405.653 204.001C392.555 190.91 401.03 183.209 433.389 183.979Z" fill="#212841"/>
<path d="M357.886 264.065L351.722 252.899C350.412 250.589 351.26 247.663 353.648 246.354L365.898 239.577C368.287 238.268 371.291 239.192 372.524 241.579L385.622 267.145L381.769 282.546L369.442 279.466L357.886 264.065Z" fill="#FF7448"/>
<path d="M445.716 227.102C445.716 227.102 444.946 225.562 446.487 226.332C448.028 227.102 442.634 274.845 413.357 264.065C402.648 260.137 418.751 247.123 418.751 245.583C418.751 244.043 416.439 238.653 422.603 238.653C428.766 238.653 445.716 227.102 445.716 227.102Z" fill="#212841"/>
<path d="M449.723 257.597C449.723 257.597 461.896 263.295 472.682 270.226C481.003 275.539 483.468 359.552 468.83 356.472L418.751 358.012C418.751 358.012 411.046 287.937 418.751 280.236C425.3 273.691 429.537 266.375 431.848 262.294L434.16 277.156C434.16 277.156 451.11 271.766 449.723 257.597Z" fill="white"/>
<path fill-rule="evenodd" clip-rule="evenodd" d="M367.13 285.626C367.13 294.867 387.162 297.177 387.162 297.177L391.784 292.557C391.784 292.557 389.473 289.477 387.932 282.546C386.981 278.267 387.498 272.813 387.852 269.085C388.071 266.776 388.227 265.129 387.932 264.835C387.162 264.065 386.391 264.835 384.85 266.375C384.34 266.885 383.914 268.493 383.405 270.415C382.377 274.298 381.008 279.466 377.916 279.466C375.682 279.466 370.747 274.428 366.244 269.831C361.432 264.918 357.114 260.51 357.114 263.295C357.114 268.685 369.441 283.316 369.441 283.316C369.441 283.316 367.13 283.316 367.13 285.626ZM453.421 343.381C465.979 343.381 472.682 307.188 472.682 307.188L456.503 296.407C456.503 296.407 451.88 309.498 448.798 321.049C448.035 323.998 445.122 322.482 440.658 320.158C438.362 318.963 435.655 317.553 432.619 316.429C414.128 309.498 391.785 292.557 391.785 292.557L387.163 297.177C424.144 340.3 446.487 343.381 453.421 343.381Z" fill="#FFEFD0"/>
<path fill-rule="evenodd" clip-rule="evenodd" d="M367.13 285.626C367.13 294.867 387.162 297.177 387.162 297.177L391.784 292.557C391.784 292.557 389.473 289.477 387.932 282.546C386.981 278.267 387.498 272.813 387.852 269.085C388.071 266.776 388.227 265.129 387.932 264.835C387.162 264.065 386.391 264.835 384.85 266.375C384.34 266.885 383.914 268.493 383.405 270.415C382.377 274.298 381.008 279.466 377.916 279.466C375.682 279.466 370.747 274.428 366.244 269.831C361.432 264.918 357.114 260.51 357.114 263.295C357.114 268.685 369.441 283.316 369.441 283.316C369.441 283.316 367.13 283.316 367.13 285.626ZM453.421 343.381C465.979 343.381 472.682 307.188 472.682 307.188L456.503 296.407C456.503 296.407 451.88 309.498 448.798 321.049C448.035 323.998 445.122 322.482 440.658 320.158C438.362 318.963 435.655 317.553 432.619 316.429C414.128 309.498 391.785 292.557 391.785 292.557L387.163 297.177C424.144 340.3 446.487 343.381 453.421 343.381Z" fill="url(#paint5_linear)"/>
<path d="M164.272 319.74C164.272 319.74 175.675 361.4 184.689 370.333C193.704 379.265 188.773 363.017 188.773 363.017C188.773 363.017 174.905 323.821 177.37 311.577C179.835 299.333 164.272 319.74 164.272 319.74Z" fill="#4E6EE9"/>
<path d="M431.849 533.585V550.526H442.635V532.045L431.849 533.585Z" fill="#4A598D"/>
<path d="M198.557 349.927L189.851 361.4C187.155 364.943 185.768 369.255 185.845 373.721C186.153 385.195 185.46 410.222 176.522 436.481C165.603 468.467 157.873 509.84 156.322 524.832C156.069 527.281 157.832 529.369 160.278 529.656C167.132 530.462 172.103 530.35 175.405 530.02C178.667 529.694 181.051 527.188 181.767 523.988C186.516 502.744 188.369 476.152 192.856 471.596C197.71 466.667 209.189 454.423 212.425 426.701C215.661 398.902 230.377 331.137 198.557 349.927Z" fill="#F48B30"/>
<path d="M204.567 351.467L200.252 365.328C198.018 372.412 197.633 379.882 199.097 387.197C204.798 415.689 220.361 491.925 232.072 529.658C232.534 531.044 233.767 531.968 235.23 531.968H253.721C255.647 531.968 257.188 530.351 257.034 528.426C255.878 509.867 250.1 422.928 241.471 385.195C240.161 379.42 238.081 373.798 235.462 368.485L224.598 346.692L204.567 351.467Z" fill="#FFC14F"/>
<path d="M204.567 351.467L200.252 365.328C198.018 372.412 197.633 379.882 199.097 387.197C204.798 415.689 220.361 491.925 232.072 529.658C232.534 531.044 233.767 531.968 235.23 531.968H253.721C255.647 531.968 257.188 530.351 257.034 528.426C255.878 509.867 250.1 422.928 241.471 385.195C240.161 379.42 238.081 373.798 235.462 368.485L224.598 346.692L204.567 351.467Z" fill="url(#paint6_linear)"/>
<path d="M454.653 309.73L471.911 311.039C471.911 311.039 481.157 277.156 474.223 270.226C467.289 263.295 454.962 270.996 454.962 287.167C454.962 296.023 453.344 301.875 451.88 305.34C451.032 307.419 452.496 309.653 454.653 309.73Z" fill="white"/>
<path d="M208.342 242.195C208.342 242.195 206.724 250.358 208.342 255.286C209.96 260.215 192.009 257.751 192.009 257.751C192.009 257.751 200.175 239.731 208.342 242.195Z" fill="#FFEFD0"/>
<path d="M195.244 254.439C195.244 254.439 212.271 252.899 218.127 251.975C228.682 250.358 254.646 263.295 272.597 225.639C272.751 225.331 273.136 225.177 273.445 225.331L280.456 228.18C280.764 228.334 280.918 228.642 280.841 228.95C279.454 233.725 268.976 266.606 240.161 274.923C209.112 283.932 219.744 287.166 222.21 292.095C224.675 297.023 225.446 301.875 220.592 308.42C215.661 314.966 221.208 339.068 224.675 345.999C226.293 349.233 197.71 354.161 197.71 350.08C197.71 350.08 188.695 314.195 174.057 306.803C159.341 299.333 143.855 251.975 195.244 254.439Z" fill="#4E6EE9"/>
<path d="M279.377 229.104C279.377 229.104 280.224 223.406 282.613 222.559C285.078 221.712 285.849 221.712 289.932 217.63C293.322 214.242 294.015 202.229 294.015 198.841C294.015 196.377 291.55 198.841 289.085 207.004C288.083 210.315 281.765 217.63 278.452 216.013C275.216 214.396 275.216 210.315 275.216 207.004C275.216 203.769 272.751 202.922 272.751 203.769C272.751 204.617 271.904 215.166 271.133 216.86C270.286 218.478 273.599 222.559 272.751 226.64C272.058 230.721 279.377 229.104 279.377 229.104Z" fill="#F0C8A5"/>
<path d="M201.793 208.698C200.791 206.003 206.107 208.544 210.807 218.477C210.807 218.477 213.273 221.712 214.891 221.712C216.508 221.712 213.273 225.793 213.273 225.793C213.273 225.793 212.117 227.795 214.891 231.491C217.356 234.726 209.96 246.199 199.405 246.199C188.772 246.276 168.356 219.325 201.793 208.698Z" fill="#FFEFD0"/>
<path d="M162.577 208.698C162.577 208.698 167.508 197.301 188.696 193.989C191.623 193.527 191.854 197.532 194.397 196.454C205.799 191.525 206.647 205.463 206.647 208.698C206.647 211.932 204.182 213.626 201.716 216.013C199.251 218.477 196.015 223.329 190.314 225.023C184.612 226.64 189.466 229.951 193.549 229.951C197.633 229.951 194.397 240.578 199.251 243.042C204.182 245.506 205.799 254.439 190.236 261.831C174.75 269.147 195.167 279.774 195.167 296.099C195.167 312.424 193.549 321.434 174.75 321.434C155.952 321.434 160.035 348.386 138 347.539C115.965 346.692 82.451 321.434 114.347 287.166C146.244 252.899 150.25 267.607 142.931 243.889C135.689 220.171 157.724 221.788 162.577 208.698Z" fill="#212841"/>
<path d="M206.801 544.519C203.95 549.14 201.639 550.526 202.332 554.299C202.949 558.072 206.647 557.225 205.876 560.537C205.106 563.848 210.499 560.306 216.894 561.153C223.288 562.077 220.669 556.84 221.825 552.143C222.98 547.138 216.2 547.908 215.661 545.675C215.045 543.441 209.035 540.823 206.801 544.519Z" fill="#B2C3FC"/>
<path d="M398.719 148.787V158.49C398.719 159.568 399.644 160.415 400.722 160.415C411.431 160.03 462.589 158.567 475.379 163.957C476.688 164.496 478.075 163.572 478.075 162.186V148.633C478.075 147.555 477.151 146.708 476.072 146.708C465.748 147.093 417.672 148.556 400.799 146.862C399.721 146.785 398.719 147.632 398.719 148.787Z" fill="#FFD381"/>
<path d="M418.751 358.012L451.649 355.933C451.649 355.933 445.716 452.729 445.716 538.975H427.996C427.996 538.975 412.587 427.317 418.751 358.012Z" fill="#526BC5"/>
<path d="M483.468 532.044L492.637 550.372L502.344 545.751L494.409 529.118L483.468 532.044Z" fill="#4A598D"/>
<path d="M442.635 545.135C442.635 545.135 449.569 545.135 449.569 555.146C449.569 555.146 450.339 560.537 437.241 558.226C437.241 558.226 433.389 555.146 430.307 558.226C427.226 561.307 404.112 559.767 404.112 558.226C404.112 552.066 407.194 549.756 420.292 548.216C433.389 546.676 430.307 541.285 431.848 541.285C433.389 541.285 433.389 547.446 442.635 545.135Z" fill="#0F1A5D"/>
<path d="M501.959 545.136C501.959 545.136 508.893 545.136 508.893 555.147C508.893 555.147 509.663 560.537 496.566 558.227C496.566 558.227 492.714 555.147 489.632 558.227C486.55 561.307 463.437 559.767 463.437 558.227C463.437 552.066 466.518 549.756 479.616 548.216C492.714 546.676 485.78 540.516 487.32 540.516C495.025 540.516 492.714 547.446 501.959 545.136Z" fill="#0F1A5D"/>
<path d="M430.307 361.862C430.307 361.862 440.323 440.408 482.698 533.585H496.566C496.566 533.585 480.386 456.579 477.305 418.076C474.223 379.573 471.911 359.552 468.83 356.472C465.748 353.391 430.307 357.242 430.307 357.242V361.862Z" fill="#6688FF"/>
<path d="M430.307 361.862C430.307 361.862 440.323 440.408 482.698 533.585H496.566C496.566 533.585 480.386 456.579 477.305 418.076C474.223 379.573 471.911 359.552 468.83 356.472C465.748 353.391 430.307 357.242 430.307 357.242V361.862Z" fill="url(#paint7_linear)"/>
<g filter="url(#filter1_d)">
<path d="M650.347 240.964H504.655C497.182 240.964 491.173 234.957 491.173 227.488V194.298C491.173 186.829 497.182 180.822 504.655 180.822H650.347C657.82 180.822 663.83 186.829 663.83 194.298V227.488C663.753 234.957 657.743 240.964 650.347 240.964Z" fill="#84C201"/>
</g>
<path d="M546.568 210.854C546.568 213.395 546.106 215.783 545.258 218.016C544.179 220.942 542.407 223.483 540.173 225.562C536.629 228.797 531.852 230.876 526.69 230.876C521.451 230.876 516.752 228.951 513.207 225.639C510.896 223.56 509.124 220.942 507.968 218.016C507.121 215.86 506.659 213.472 506.659 211.008C506.659 199.996 515.519 191.064 526.536 190.987C537.631 190.91 546.568 199.842 546.568 210.854Z" fill="white"/>
<path d="M597.34 201.886H561.823C560.667 201.886 559.743 200.962 559.743 199.807V199.345C559.743 198.19 560.667 197.266 561.823 197.266H597.34C598.496 197.266 599.421 198.19 599.421 199.345V199.807C599.421 200.885 598.496 201.886 597.34 201.886Z" fill="white"/>
<path d="M631.856 213.935H562.054C560.821 213.935 559.742 212.934 559.742 211.625C559.742 210.393 560.744 209.314 562.054 209.314H631.856C633.089 209.314 634.167 210.316 634.167 211.625C634.167 212.857 633.089 213.935 631.856 213.935Z" fill="white"/>
<path d="M631.856 225.29H562.054C560.821 225.29 559.743 224.289 559.743 222.98C559.743 221.748 560.744 220.67 562.054 220.67H631.856C633.089 220.67 634.168 221.671 634.168 222.98C634.168 224.289 633.089 225.29 631.856 225.29Z" fill="white"/>
<path d="M526.637 214.706C529.913 214.695 532.56 212.031 532.549 208.756C532.538 205.482 529.873 202.836 526.597 202.847C523.32 202.858 520.673 205.522 520.684 208.797C520.696 212.071 523.361 214.717 526.637 214.706Z" fill="#D0DBFF"/>
<path d="M537.878 215.938C540.006 215.931 541.725 214.202 541.717 212.075C541.71 209.949 539.98 208.231 537.852 208.238C535.725 208.245 534.006 209.975 534.013 212.101C534.02 214.228 535.751 215.946 537.878 215.938Z" fill="#D0DBFF"/>
<path d="M515.612 215.938C517.74 215.931 519.459 214.202 519.451 212.075C519.444 209.949 517.714 208.231 515.586 208.238C513.459 208.245 511.74 209.975 511.747 212.101C511.754 214.228 513.485 215.946 515.612 215.938Z" fill="#D0DBFF"/>
<path d="M508.893 219.71L509.817 218.786H509.894C511.204 217.015 513.284 215.86 515.596 215.86C517.137 215.86 518.524 216.322 519.679 217.169C521.605 215.629 523.994 214.705 526.613 214.705C529.31 214.705 531.698 215.629 533.624 217.246C534.78 216.399 536.167 215.937 537.708 215.937H537.785C540.25 215.937 542.407 217.169 543.717 219.094L543.64 219.171L544.257 219.787" fill="#D0DBFF"/>
<path d="M675.001 320.279H529.31C521.836 320.279 515.827 314.273 515.827 306.803V273.614C515.827 266.144 521.836 260.138 529.31 260.138H675.001C682.474 260.138 688.484 266.144 688.484 273.614V306.803C688.407 314.273 682.397 320.279 675.001 320.279Z" fill="#FF7448"/>
<path d="M571.222 290.17C571.222 292.711 570.76 295.098 569.912 297.331C568.834 300.257 567.062 302.799 564.827 304.878C561.283 308.112 556.507 310.191 551.345 310.191C546.106 310.191 541.406 308.266 537.862 304.955C535.55 302.876 533.778 300.257 532.623 297.331C531.775 295.175 531.313 292.788 531.313 290.324C531.313 279.312 540.173 270.379 551.191 270.302C562.285 270.225 571.222 279.158 571.222 290.17Z" fill="white"/>
<path d="M551.291 293.252C554.567 293.241 557.214 290.577 557.203 287.302C557.192 284.028 554.527 281.382 551.251 281.393C547.974 281.404 545.327 284.068 545.338 287.343C545.35 290.617 548.015 293.263 551.291 293.252Z" fill="#FFDDD2"/>
<path d="M562.533 294.484C564.66 294.477 566.379 292.748 566.372 290.621C566.365 288.495 564.634 286.777 562.507 286.784C560.379 286.791 558.66 288.521 558.667 290.647C558.675 292.774 560.405 294.492 562.533 294.484Z" fill="#FFDDD2"/>
<path d="M540.267 294.484C542.394 294.477 544.113 292.748 544.106 290.621C544.099 288.495 542.368 286.777 540.241 286.784C538.113 286.791 536.394 288.521 536.401 290.647C536.409 292.774 538.139 294.492 540.267 294.484Z" fill="#FFDDD2"/>
<path d="M533.547 298.255L534.472 297.331H534.549C535.859 295.56 537.939 294.405 540.25 294.405C541.791 294.405 543.178 294.867 544.333 295.714C546.26 294.174 548.648 293.25 551.267 293.25C553.964 293.25 556.352 294.174 558.279 295.791C559.434 294.944 560.821 294.482 562.362 294.482H562.439C564.904 294.482 567.062 295.714 568.371 297.639L568.294 297.716L568.911 298.332" fill="#FFDDD2"/>
<path d="M643.028 281.201H586.708C585.475 281.201 584.397 280.2 584.397 278.891C584.397 277.659 585.398 276.581 586.708 276.581H643.028C644.26 276.581 645.339 277.582 645.339 278.891C645.262 280.123 644.26 281.201 643.028 281.201Z" fill="white"/>
<path d="M656.51 293.25H586.708C585.475 293.25 584.397 292.249 584.397 290.94C584.397 289.708 585.398 288.63 586.708 288.63H656.51C657.743 288.63 658.822 289.631 658.822 290.94C658.822 292.172 657.743 293.25 656.51 293.25Z" fill="white"/>
<path d="M621.455 304.606H586.708C585.475 304.606 584.397 303.605 584.397 302.296C584.397 301.063 585.398 299.985 586.708 299.985H621.455C622.688 299.985 623.766 300.986 623.766 302.296C623.689 303.605 622.688 304.606 621.455 304.606Z" fill="white"/>
<circle cx="432" cy="288" r="1" fill="#212841"/>
<circle cx="432" cy="309" r="1" fill="#212841"/>
<circle cx="432" cy="344" r="1" fill="#212841"/>
<defs>
<filter id="filter0_d" x="83.0247" y="78.084" width="449.769" height="283.932" filterUnits="userSpaceOnUse" color-interpolation-filters="sRGB">
<feFlood flood-opacity="0" result="BackgroundImageFix"/>
<feColorMatrix in="SourceAlpha" type="matrix" values="0 0 0 0 0 0 0 0 0 0 0 0 0 0 0 0 0 0 127 0"/>
<feOffset/>
<feGaussianBlur stdDeviation="15"/>
<feColorMatrix type="matrix" values="0 0 0 0 0 0 0 0 0 0 0 0 0 0 0 0 0 0 0.2 0"/>
<feBlend mode="normal" in2="BackgroundImageFix" result="effect1_dropShadow"/>
<feBlend mode="normal" in="SourceGraphic" in2="effect1_dropShadow" result="shape"/>
</filter>
<filter id="filter1_d" x="461.173" y="150.822" width="232.657" height="120.141" filterUnits="userSpaceOnUse" color-interpolation-filters="sRGB">
<feFlood flood-opacity="0" result="BackgroundImageFix"/>
<feColorMatrix in="SourceAlpha" type="matrix" values="0 0 0 0 0 0 0 0 0 0 0 0 0 0 0 0 0 0 127 0"/>
<feOffset/>
<feGaussianBlur stdDeviation="15"/>
<feColorMatrix type="matrix" values="0 0 0 0 0 0 0 0 0 0 0 0 0 0 0 0 0 0 0.2 0"/>
<feBlend mode="normal" in2="BackgroundImageFix" result="effect1_dropShadow"/>
<feBlend mode="normal" in="SourceGraphic" in2="effect1_dropShadow" result="shape"/>
</filter>
<linearGradient id="paint0_linear" x1="443.87" y1="316.267" x2="430.351" y2="423.202" gradientUnits="userSpaceOnUse">
<stop stop-color="#CED7FB"/>
<stop offset="1" stop-color="white" stop-opacity="0"/>
</linearGradient>
<linearGradient id="paint1_linear" x1="372.529" y1="383.788" x2="447.5" y2="620" gradientUnits="userSpaceOnUse">
<stop stop-color="#CAD5FB"/>
<stop offset="1" stop-color="white" stop-opacity="0"/>
</linearGradient>
<linearGradient id="paint2_linear" x1="544.957" y1="348.562" x2="508.5" y2="644.5" gradientUnits="userSpaceOnUse">
<stop stop-color="#C9D4FA"/>
<stop offset="1" stop-color="white" stop-opacity="0"/>
</linearGradient>
<linearGradient id="paint3_linear" x1="220.611" y1="400.436" x2="368.789" y2="155.837" gradientUnits="userSpaceOnUse">
<stop stop-color="#F48B30"/>
<stop offset="0.9999" stop-color="#FFC14F"/>
<stop offset="1" stop-color="white" stop-opacity="0"/>
</linearGradient>
<linearGradient id="paint4_linear" x1="448.27" y1="270.128" x2="421.802" y2="203.793" gradientUnits="userSpaceOnUse">
<stop stop-color="#F2CEAB"/>
<stop offset="1" stop-color="#FFEFD0"/>
</linearGradient>
<linearGradient id="paint5_linear" x1="396.879" y1="307.153" x2="481.413" y2="314.829" gradientUnits="userSpaceOnUse">
<stop stop-color="#FFEFD0"/>
<stop offset="1" stop-color="#F0C8A5"/>
</linearGradient>
<linearGradient id="paint6_linear" x1="198.518" y1="601.91" x2="219.699" y2="394.672" gradientUnits="userSpaceOnUse">
<stop stop-color="#F48B30"/>
<stop offset="1" stop-color="#FFC14F"/>
</linearGradient>
<linearGradient id="paint7_linear" x1="534.244" y1="544.69" x2="443.798" y2="395.72" gradientUnits="userSpaceOnUse">
<stop stop-color="#526BC5"/>
<stop offset="1" stop-color="#6688FF"/>
</linearGradient>
</defs>
</svg>
