<svg width="657" height="622" viewBox="0 0 657 622" fill="none" xmlns="http://www.w3.org/2000/svg">
<path d="M34.3448 284.491C28.882 337.29 24.4517 404.031 47.9583 447.749C68.9434 486.778 121.262 526.646 156.218 553.464C208.812 593.813 258.967 622 345.186 622C416.669 622 455.391 592.504 506.279 553.464C524.106 539.787 589.22 515.316 620.161 457.771C643.668 414.053 657 364.079 657 311C657 264.1 632.728 231.472 627.952 179.746C620.161 95.369 568.697 87.4744 524.106 56.2611C479.516 25.0477 411.76 0 345.186 0C244.382 0 196.591 49.0808 140.66 102.158C80.9583 158.813 47.9583 152.914 34.3448 284.491Z" fill="white"/>
<path d="M210.63 443.301C194.896 448.878 209.027 474.092 218.06 486.001C211.941 491.666 198.218 509.791 192.274 536.98C184.844 570.966 330.381 598.852 394.19 597.98C457.999 597.109 453.191 524.344 455.814 512.58C458.436 500.816 439.523 481.19 425.657 479.03C413.635 477.157 399.434 479.175 389.819 486.001C394.015 480.773 391.568 470.461 389.819 465.958C382.827 458.638 374.96 471.623 371.9 479.03C364.558 473.453 358.352 485.711 356.167 492.537C359.08 471.042 360.013 428.661 340.433 431.101C320.853 433.541 310.131 468.718 307.217 486.001C307.509 482.225 306.081 474.15 298.04 472.058C289.998 469.967 285.365 480.482 284.054 486.001C282.306 474.818 276.1 452.8 265.261 454.194C254.422 455.588 253.169 482.951 253.898 496.458C246.031 476.415 226.364 437.724 210.63 443.301Z" fill="url(#paint0_linear)"/>
<path d="M454.033 455.283C440.69 451.19 439.279 467.861 440.241 476.707C447.938 514.44 514.011 518.277 549.613 505.166C585.215 492.056 594.837 455.283 577.838 455.283C565.039 455.283 533.702 474.456 523.997 482.667C528.924 476.492 528.613 457.513 514.259 448.924C503.246 442.334 511.427 474.149 502.302 485.954C502.088 470.818 492.072 429.638 480.012 433.22C468.974 436.498 468.738 457.884 470.253 470.801C468.966 465.716 464.693 458.554 454.033 455.283Z" fill="#FE774C"/>
<path d="M512.722 444.838C498.146 440.726 492.642 489.518 491.712 514.427C509.38 527.173 552.141 521.328 574.266 494.616C582.977 484.099 579.236 453.026 554.467 478.645C540.586 493.001 527.753 507.477 515.482 508.723C523.539 504.072 556.165 482.314 564.697 447.653C575.363 404.327 540.541 398.562 536.312 424.229C528.154 473.748 523.439 480.995 509.919 495.45C521.82 474.249 527.297 448.95 512.722 444.838Z" fill="#FFC14F"/>
<path d="M452.47 502.835C445.458 484.023 433.131 571.141 422 578C499.219 559.944 562.246 509.973 549.307 508.294C538.955 506.95 524.124 515.012 518.002 519.212C530.246 509.414 550.475 489.146 533.446 486.458C516.416 483.771 496.575 507.174 488.784 519.212C493.932 509.554 501.89 489.481 492.54 486.458C483.191 483.435 461.931 496.116 452.47 502.835Z" fill="white"/>
<path fill-rule="evenodd" clip-rule="evenodd" d="M94.5523 411.225C90.3213 435.926 135.279 513.328 137.006 514.426L139.201 518.671L147.343 507.759C146.824 491.492 142.855 475.539 137.646 461.295C141.346 441.804 138.308 422.9 136.488 414.424C135.822 411.322 134.839 407.503 131.742 406.812C128.662 406.124 126.378 409.939 126.378 409.939C124.281 414.215 123.406 421.595 123.234 429.905C119.274 422.727 115.604 416.919 112.949 412.938C110.243 408.881 106.971 404.408 102.115 403.953C95.9105 403.371 94.5523 411.225 94.5523 411.225Z" fill="url(#paint1_linear)"/>
<path d="M117.332 521.151C117.332 521.151 52.1269 463.227 49.2357 423.291C49.2357 423.291 48.6373 390.047 61.0987 407.524C61.0987 407.524 93.9659 456.472 101.286 472.455C101.286 472.455 99.3416 450.5 110.475 469.082C110.475 469.082 127.991 505.797 127.128 520.985C126.352 536.169 117.332 521.151 117.332 521.151Z" fill="#FE774C"/>
<path d="M152.918 544.758C152.918 544.758 108.344 503.685 111.092 477.414C113.753 451.157 140.202 477.686 140.202 477.686C140.202 477.686 132.5 444 143.5 444C152.918 438.016 179.361 478.963 181.013 487.991C181.013 487.991 186.586 449.473 197.067 488.786C197.067 488.786 199.023 472.913 216.5 481C216.5 481 224.933 483.465 221 516.5C208.838 578.261 177.212 559.507 177.212 559.507L152.918 544.758Z" fill="#FEBA4B"/>
<path d="M195.167 563.712C175.624 563.712 156.385 557.914 141.283 545.51C122.796 530.326 101.354 509.715 107.966 500.355C117.716 486.556 134.318 503.474 137.673 507.149C137.673 507.149 132.523 477.683 150.935 501.258C150.935 501.258 169.986 521.106 171.104 522.331C172.223 523.556 161.876 475.93 191.477 513.281C191.477 513.281 197.235 489.204 212.66 495.934C228.084 502.663 220 557.5 220 557.5L204.616 562.278C201.556 563.229 198.371 563.712 195.167 563.712Z" fill="white"/>
<g filter="url(#filter0_d)">
<rect x="231" y="192" width="224" height="221" rx="30" fill="white"/>
</g>
<g filter="url(#filter1_d)">
<path d="M291.949 111H243.051C234.739 111 228 117.746 228 126.065V140.081C228 146.976 233.541 152.523 240.43 152.523H240.73V159.418C240.73 161.742 243.5 162.866 245.148 161.217L253.834 152.598H291.949C300.261 152.598 307 145.852 307 137.533V126.14C307 117.821 300.261 111 291.949 111Z" fill="#5071E1"/>
</g>
<path d="M43.3441 151.074C43.3441 151.074 41.9536 140.221 39.797 139.42C37.6404 138.62 24.4044 139.766 23.299 141.231C22.1991 142.703 30.4682 146.828 30.4682 146.828L43.3441 151.074Z" fill="#22283F"/>
<path d="M46.2413 162.192L42.9302 149.492C42.7699 148.861 42.3969 148.307 41.8713 147.918C39.9889 146.543 35.1639 143.636 30.4948 145.881C30.1125 146.065 30.0889 146.615 30.4629 146.82C32.3705 147.863 36.846 150.467 37.4924 152.166C38.3198 154.343 40.5794 166.113 40.5794 166.113L46.2359 162.184L46.2413 162.192Z" fill="#FFE0B1"/>
<path d="M237.55 222.948C237.55 222.948 238.874 209.198 239.627 209.036C241.16 208.712 240.179 213.642 242.637 213.642C245.094 213.642 252.01 203.344 251.99 206.738C251.99 207.472 248.38 218.295 240.712 223.854C233.064 229.414 237.55 222.948 237.55 222.948Z" fill="#FFE0B1"/>
<path d="M185.713 198.958C174.083 205.89 131.104 211.85 131.104 211.85L134.21 247.207C134.21 247.207 162.652 239.197 179.541 236.899C199.102 242.538 204.34 230.777 204.34 230.777C226.009 255.336 234.541 240.241 242.541 225.237C242.77 224.455 242.579 223.607 242.046 222.987C241.036 221.824 239.312 220.079 237.979 220.079C236.474 220.079 231.005 226.6 228.175 230.777C227.366 231.969 226.473 233.603 224.307 232.961C216.264 226.48 213.368 214.31 211.72 210.272C209.867 205.733 206.672 203.805 204.34 202.157C198.948 200.946 190.228 200.731 187.209 198.958C186.742 198.691 186.18 198.681 185.713 198.958Z" fill="#3D64F0"/>
<path d="M61.0649 207.321C62.576 183.571 50.7471 165.868 46.7314 160.089C46.255 159.404 45.4076 159.092 44.5976 159.295L40.5333 160.311C39.5456 160.558 38.901 161.508 39.0362 162.517L47.2723 224.008L68.1557 239.888C68.1557 239.888 134.134 240.762 134.134 233.83C134.134 229.262 133.512 223.235 134.627 216.707C134.627 211.94 135.604 211.835 134.667 211.255C103.385 191.876 92.8319 218.872 63.5511 209.667C62.1699 209.848 60.9792 208.714 61.0649 207.321Z" fill="#E98F46"/>
<path d="M24.4112 180.824C24.4112 180.824 22.6013 174.266 19.4244 173.508C16.2475 172.75 2.11234 179.164 3.22641 180.907C4.34048 182.65 11.7414 182.276 11.7414 182.276L24.4112 180.824Z" fill="#22283F"/>
<path d="M31.6236 191.79L24.4117 180.824C24.0523 180.282 23.5286 179.869 22.8995 179.671C20.6735 178.973 15.1723 177.765 11.4681 181.388C11.1646 181.688 11.3257 182.213 11.7473 182.288C13.8855 182.665 18.9647 183.695 20.1184 185.106C21.6009 186.903 27.5115 197.322 27.5115 197.322L31.6236 191.79Z" fill="#FFE0B1"/>
<path d="M213.222 189.261C213.222 189.261 229.768 174.319 215.823 167.826C202.325 161.542 193.401 166.897 189.952 173.223C189.781 173.49 189.657 173.795 189.552 174.1C188.476 177.39 181.932 197.347 180.293 198.768C178.664 200.181 162.915 222.996 176.622 226.757C179.613 227.577 182.911 226.972 185.304 224.999C187.52 223.172 190.147 219.966 191.809 214.444C191.809 214.444 198.474 212.208 201.884 203.273L204.954 203.72C204.954 203.72 207.093 198.329 205.903 202.878C205.903 202.878 206.172 203.171 206.596 203.618C208.518 205.641 211.99 204.101 214.499 202.878C219.366 200.503 218.804 190.758 213.222 189.261Z" fill="#22283F"/>
<path d="M57.4518 228.464C48.8049 216.8 38.395 198.953 32.3369 191.858C31.7317 191.149 30.7076 191.019 29.9085 191.498L26.4765 193.557C25.7291 194.006 25.3551 194.884 25.5721 195.729C30.8164 216.131 45.1192 239.779 49.5781 246.666C50.483 248.067 51.8166 249.145 53.3978 249.688C89.9751 262.237 126.888 250.513 138.461 246.289L138.711 246.197C139.987 245.732 140.501 245.544 140.918 245.384C135.651 235.408 134.482 225.678 134.652 220.51C134.693 219.267 134.785 218.021 134.644 216.785C134.638 216.734 134.632 216.683 134.626 216.633C134.173 216.283 132.729 215.395 132.219 215.206C103.24 204.496 107.672 227.931 67.3486 231.802C65.6912 232.46 59.927 231.802 57.4518 228.464Z" fill="#F8C264"/>
<path d="M202.43 186.362C201.916 186.524 201.392 186.199 201.335 185.665C201.182 184.226 200.592 181.804 198.363 182.633C195.248 183.797 201.039 193.513 201.392 197.976C201.514 199.528 201.552 200.866 201.548 201.951C201.543 203.679 202.84 205.237 204.564 205.37C206.13 205.491 207.526 204.389 207.773 202.838L208.698 197.041C208.698 197.041 216.004 197.442 216.451 191.377C216.794 186.686 214.689 177.77 213.718 173.975C213.603 173.527 212.975 173.527 212.851 173.965C211.965 177.255 209.317 184.187 202.43 186.362Z" fill="#FAE7CB"/>
<path d="M143 30L145.5 212.5" stroke="url(#paint2_linear)" stroke-width="2" stroke-linejoin="round"/>
<circle cx="255" cy="132" r="3" fill="#FCFCFC"/>
<circle cx="268" cy="132" r="3" fill="#FCFCFC"/>
<circle cx="281" cy="132" r="3" fill="#FCFCFC"/>
<path d="M534.001 308L589.001 308" stroke="black" stroke-width="2"/>
<path d="M637 570.5L578.5 252.5H524L578.5 570.5H637Z" stroke="black" stroke-width="2" stroke-linecap="round"/>
<path d="M544 362L599 362" stroke="black" stroke-width="2"/>
<path d="M539 334L594 334" stroke="black" stroke-width="2"/>
<path d="M529 280L584 280" stroke="black" stroke-width="2"/>
<path d="M547 388L603 388" stroke="black" stroke-width="2"/>
<path d="M552 415L608 415" stroke="black" stroke-width="2"/>
<path d="M557 441L613 441" stroke="black" stroke-width="2"/>
<path d="M561 468L619 468" stroke="black" stroke-width="2"/>
<path d="M566 495L624 495" stroke="black" stroke-width="2"/>
<path d="M570 521L628 521" stroke="black" stroke-width="2"/>
<path d="M575 548L633 548" stroke="black" stroke-width="2"/>
<path d="M525.5 570L578 252H523.5L471 570H525.5Z" stroke="black" stroke-width="2" stroke-linecap="round"/>
<path d="M545.605 167.831L536.776 162.978C536.776 162.978 534.953 177.96 535.894 180.704C535.894 180.704 536.526 181.403 537.621 181.092C538.098 180.95 538.588 181.234 538.756 181.687C539.787 184.535 542.77 191 547.835 188.942C548.544 188.657 549.356 188.994 549.73 189.667L552.346 194.339C552.346 194.339 561.395 196.527 563.289 187.673L553.829 167.094L545.605 167.831Z" fill="#FAE7CB"/>
<path d="M619.524 372.257L616.586 372.645C615.98 372.723 615.438 373.06 615.103 373.577C614.059 375.169 611.662 378.819 609.716 381.602C609.277 382.223 608.736 382.78 608.105 383.207C605.578 384.916 598.979 389.744 605.836 389.523C606.777 389.498 607.705 389.2 608.504 388.695L615.838 384.087C616.431 383.712 616.818 383.091 616.83 382.392C616.843 381.11 617.436 379.117 621.187 379.635C621.754 379.712 622.334 379.596 622.798 379.259L624.448 378.056C625.35 377.396 625.595 376.14 624.989 375.182L624.628 374.626C623.533 372.904 621.535 371.985 619.524 372.257Z" fill="#22283F"/>
<path d="M531.909 159.081C529.373 159.605 521.582 161.817 530.414 168.057C530.962 168.445 531.556 168.732 532.198 168.946C534.98 169.892 542.975 172.302 548.347 170.74C548.347 170.74 553.501 165.651 553.406 172.219C553.388 173.019 553.612 173.8 554.066 174.465C555.576 176.643 558.957 181.42 559.825 181.64C560.95 181.921 571.438 178.064 565.878 161.803C565.878 161.803 558.045 147.019 545.349 152.987C533.479 158.557 537.481 156.987 533.59 158.568C533.048 158.788 532.48 158.964 531.909 159.081Z" fill="#22283F"/>
<path d="M576.59 265.462L571.924 279.557C571.924 279.557 602.871 354.136 614.626 371.791C615.167 372.594 616.07 373.072 617.036 373.059L620.246 373.047C621.522 373.034 622.424 371.817 622.063 370.587C618.042 357.269 598.953 292.953 595.859 262.265L576.59 265.462Z" fill="url(#paint3_linear)"/>
<path d="M561.63 348.949L558.665 348.923C558.047 348.923 557.467 349.169 557.067 349.635C555.817 351.059 552.93 354.333 550.597 356.818C550.068 357.375 549.462 357.841 548.779 358.177C546.034 359.511 538.816 363.355 545.634 364.105C546.575 364.209 547.529 364.054 548.393 363.665L556.307 360.145C556.938 359.86 557.428 359.29 557.531 358.604C557.724 357.336 558.588 355.446 562.223 356.495C562.777 356.65 563.37 356.624 563.873 356.352L565.677 355.395C566.669 354.864 567.082 353.66 566.618 352.638L566.347 352.042C565.497 350.165 563.653 348.962 561.63 348.949Z" fill="#22283F"/>
<path d="M529.085 305.86C526.713 289.771 564.169 262.145 564.169 262.145C564.169 262.145 585.211 226.02 595.96 257.809C605.717 286.699 546.679 297.049 546.679 312.737L564.169 347.99C564.543 348.741 564.053 349.647 563.215 349.737L556.783 350.488C555.971 350.579 555.146 350.242 554.631 349.595C531.211 320.33 529.085 305.86 529.085 305.86Z" fill="#F8C264"/>
<path d="M552.591 194.002C555.581 193.019 561.356 190.741 563.766 187.324C564.295 186.56 565.339 186.405 566.06 186.987C573.407 192.941 605.037 221.39 598.077 264.31C597.858 265.644 597.084 266.834 595.976 267.598C591.735 270.497 580.316 275.921 566.486 263.094C565.635 262.304 565.042 261.256 564.836 260.104C563.302 251.445 556.161 211.838 551.341 196.462C551.019 195.426 551.586 194.339 552.591 194.002Z" fill="#354FAE"/>
<path d="M489.532 192.672C488.302 185.02 497.582 180.265 503.075 185.733L530.468 213.001C532.924 215.446 536.675 216.031 539.76 214.451L574.159 196.825C581.056 193.291 588.446 200.647 584.943 207.56L567.474 242.039C565.908 245.13 566.51 248.879 568.967 251.324L596.36 278.593C601.852 284.06 597.14 293.361 589.482 292.167L551.293 286.207C547.869 285.673 544.49 287.404 542.923 290.496L525.455 324.975C521.952 331.888 511.649 330.28 510.42 322.629L504.286 284.467C503.736 281.045 501.045 278.366 497.621 277.832L459.432 271.873C451.774 270.678 450.12 260.383 457.017 256.849L491.415 239.223C494.5 237.642 496.216 234.255 495.666 230.834L489.532 192.672Z" fill="#FFC14F"/>
<path d="M489.532 192.672C488.302 185.02 497.582 180.265 503.075 185.733L530.468 213.001C532.924 215.446 536.675 216.031 539.76 214.451L574.159 196.825C581.056 193.291 588.446 200.647 584.943 207.56L567.474 242.039C565.908 245.13 566.51 248.879 568.967 251.324L596.36 278.593C601.852 284.06 597.14 293.361 589.482 292.167L551.293 286.207C547.869 285.673 544.49 287.404 542.923 290.496L525.455 324.975C521.952 331.888 511.649 330.28 510.42 322.629L504.286 284.467C503.736 281.045 501.045 278.366 497.621 277.832L459.432 271.873C451.774 270.678 450.12 260.383 457.017 256.849L491.415 239.223C494.5 237.642 496.216 234.255 495.666 230.834L489.532 192.672Z" fill="url(#paint4_linear)"/>
<path d="M550.58 228.935C550.58 228.935 538.632 266.16 517.339 275.557C513.575 275.091 504.785 276.152 514.504 278.573C514.607 278.598 514.62 278.741 514.516 278.767C509.322 279.932 495.531 285.471 519.504 283.31C520.149 283.245 520.781 283.025 521.309 282.65C527.418 278.301 565.725 250.356 564.526 232.934C563.237 213.998 550.58 228.935 550.58 228.935Z" fill="#FCFCFC"/>
<path d="M551.527 199.316C551.527 199.316 560.227 187.373 568.295 206.038C568.553 206.646 568.747 207.267 568.837 207.915C570.074 216.638 570.164 225.077 569.249 233.335C569.069 235.005 567.419 236.118 565.795 235.704L551.527 232.08C550.019 231.704 549.026 230.268 549.207 228.714C549.916 222.515 550.56 201.788 551.527 199.316Z" fill="#B3C3F7"/>
<path d="M239.085 394.7C239.052 392.562 238.131 344.852 235.714 331.251C235.549 330.346 235.796 329.425 236.388 328.718C238.625 326.087 243.559 319.804 237.638 322.354C236.289 322.929 234.71 322.436 233.904 321.202C232.622 319.245 230.763 316.285 229.414 313.391C227.112 308.49 224.661 310.94 228.082 322.452C231.503 333.964 226.24 383.204 233.411 398.548C240.335 413.349 239.184 396.048 239.102 394.831C239.102 394.782 239.085 394.749 239.085 394.7Z" fill="#FFE0B1"/>
<path d="M253.5 474.92C253.5 474.92 323.665 472.85 322.464 499.131C321.527 519.787 309.405 548.846 306.576 555.638C305.853 557.382 304.159 558.5 302.267 558.5H301.034C299.027 558.5 297.432 556.839 297.514 554.832L304.422 505.709C304.504 503.818 302.925 502.289 301.034 502.437C265.637 500.79 251.016 504.638 247.776 500.79C243.599 495.79 253.5 474.92 253.5 474.92Z" fill="#E98F46"/>
<path d="M295.482 414.616L358.605 413.267C359.609 413.25 360.563 412.872 361.303 412.182C364.609 409.172 373.934 401.196 371.697 409.715C371.697 409.715 368.26 414.616 372.931 414.616C377.602 414.616 391.318 412.165 391.318 414.616C391.318 417.066 368.523 418.299 362.882 419.516C357.24 420.75 294.248 427.361 294.248 427.361L295.482 414.616Z" fill="#FFE0B1"/>
<path d="M268.049 475.286C268.049 475.286 269.136 481.126 263.122 489.122C264.841 510.685 264.377 547.614 242.046 553.47C242.046 553.47 205.616 555.46 188.889 545.708L186.718 541.366C185.978 539.886 187.047 538.143 188.709 538.143H235.089C236.964 538.143 238.346 536.367 237.852 534.558C232.98 507.702 230.151 504.85 230.151 485.066C238.325 470.939 268.049 475.286 268.049 475.286Z" fill="#F8C264"/>
<path d="M271.914 383.878C271.914 383.878 279.561 401.475 264.578 407.659V413.218H250.533L249.908 396.656L271.914 383.878Z" fill="#FAE7CB"/>
<path d="M300.071 415.569C300.482 414.385 299.627 413.152 298.377 413.103L267.062 411.803C267.062 411.803 249.792 411.984 248.575 410.241C247.605 408.843 242.144 396.903 239.973 392.134C239.48 391.032 238.214 390.539 237.095 390.983L231.076 393.367C230.122 393.746 229.612 394.765 229.908 395.752C231.635 401.706 237.029 421.572 234.283 429.253C231.52 436.966 229.398 484.873 229.398 484.873C229.398 484.873 236.026 504.23 268.279 475.285C268.279 475.285 267.588 435.354 269.15 434.137C270.433 433.134 289.035 430.864 295.811 430.058C297.209 429.894 298.278 428.759 298.344 427.345C298.508 424.237 298.936 418.842 300.071 415.569Z" fill="#5071E1"/>
<path d="M245.5 373.188C247.852 369.998 251.684 368.255 255.648 368.616C265.68 369.521 283.838 372.859 274.94 385.046C274.94 385.046 271.009 391.443 269.841 392.101C268.674 392.759 266.256 387.118 263.016 395.292C263.016 395.292 261.585 399.486 265.154 400.703C265.68 400.883 265.91 401.475 265.631 401.952C264.151 404.304 259.381 409.748 247.967 406.788C247.506 406.672 247.079 406.442 246.717 406.146C243.822 403.712 231.832 391.739 245.5 373.188Z" fill="#22283F"/>
<path d="M302.272 555.746L305.706 554.18C306.429 553.859 307.215 553.844 307.942 554.178C310.14 555.193 315.197 557.485 319.196 559.145C320.1 559.525 321.054 559.744 322.018 559.775C325.91 559.894 336.298 560.606 328.743 565.027C327.711 565.632 326.502 565.954 325.308 565.955L314.254 565.988C313.364 565.992 312.521 565.582 312.042 564.826C311.162 563.448 309.182 561.715 305.484 564.817C304.928 565.287 304.227 565.553 303.495 565.506L300.902 565.331C295.075 565.331 295.051 564.2 295.068 562.767L295.075 561.925C296.232 547.997 298.826 556.52 302.272 555.746Z" fill="#22283F"/>
<path d="M189.678 543.459L192.232 546.239C192.761 546.826 193.019 547.569 192.927 548.363C192.644 550.768 192.57 551.907 192.232 556.224C192.151 557.201 191.963 559.09 192.232 560.017C192.927 564.84 201.482 565.552 196.344 567.844C189.071 568.555 188.201 567.923 187.411 566.342L183.656 558.027C183.377 557.182 183.505 556.253 184.075 555.563C185.112 554.3 186.145 551.88 182.05 549.325C181.43 548.943 180.961 548.359 180.778 547.648L180.14 545.129C178.333 539.589 179.402 539.216 180.769 538.787L181.572 538.533C195.172 535.315 187.873 540.423 189.678 543.459Z" fill="#22283F"/>
<path d="M335.392 247.416C337.786 240.046 348.214 240.046 350.608 247.416L358.716 272.369C359.787 275.665 362.859 277.897 366.324 277.897H392.561C400.311 277.897 403.533 287.814 397.263 292.369L376.037 307.79C373.234 309.827 372.06 313.438 373.131 316.735L381.239 341.687C383.634 349.057 375.198 355.186 368.928 350.631L347.702 335.21C344.898 333.173 341.102 333.173 338.298 335.21L317.072 350.631C310.802 355.186 302.366 349.057 304.761 341.687L312.869 316.735C313.94 313.438 312.766 309.827 309.963 307.79L288.737 292.369C282.467 287.814 285.689 277.897 293.439 277.897H319.676C323.141 277.897 326.213 275.665 327.284 272.369L335.392 247.416Z" fill="#E6EBFE"/>
<defs>
<filter id="filter0_d" x="201" y="162" width="284" height="281" filterUnits="userSpaceOnUse" color-interpolation-filters="sRGB">
<feFlood flood-opacity="0" result="BackgroundImageFix"/>
<feColorMatrix in="SourceAlpha" type="matrix" values="0 0 0 0 0 0 0 0 0 0 0 0 0 0 0 0 0 0 127 0"/>
<feOffset/>
<feGaussianBlur stdDeviation="15"/>
<feColorMatrix type="matrix" values="0 0 0 0 0.178125 0 0 0 0 0.243437 0 0 0 0 0.475 0 0 0 0.2 0"/>
<feBlend mode="normal" in2="BackgroundImageFix" result="effect1_dropShadow"/>
<feBlend mode="normal" in="SourceGraphic" in2="effect1_dropShadow" result="shape"/>
</filter>
<filter id="filter1_d" x="213" y="96" width="109" height="81" filterUnits="userSpaceOnUse" color-interpolation-filters="sRGB">
<feFlood flood-opacity="0" result="BackgroundImageFix"/>
<feColorMatrix in="SourceAlpha" type="matrix" values="0 0 0 0 0 0 0 0 0 0 0 0 0 0 0 0 0 0 127 0"/>
<feOffset/>
<feGaussianBlur stdDeviation="7.5"/>
<feColorMatrix type="matrix" values="0 0 0 0 0.285313 0 0 0 0 0.37471 0 0 0 0 0.691667 0 0 0 0.3 0"/>
<feBlend mode="normal" in2="BackgroundImageFix" result="effect1_dropShadow"/>
<feBlend mode="normal" in="SourceGraphic" in2="effect1_dropShadow" result="shape"/>
</filter>
<linearGradient id="paint0_linear" x1="324" y1="431" x2="323.826" y2="581.423" gradientUnits="userSpaceOnUse">
<stop stop-color="#DCE4FF"/>
<stop offset="1" stop-color="white" stop-opacity="0"/>
</linearGradient>
<linearGradient id="paint1_linear" x1="81.9869" y1="338.85" x2="141.38" y2="528.298" gradientUnits="userSpaceOnUse">
<stop stop-color="#AFC0FF"/>
<stop offset="1" stop-color="white" stop-opacity="0"/>
</linearGradient>
<linearGradient id="paint2_linear" x1="146" y1="54.5" x2="146" y2="212.5" gradientUnits="userSpaceOnUse">
<stop offset="0.0749138" stop-color="white" stop-opacity="0"/>
<stop offset="0.461057" stop-color="#3F4F8E"/>
</linearGradient>
<linearGradient id="paint3_linear" x1="621.652" y1="365.157" x2="581.423" y2="281.041" gradientUnits="userSpaceOnUse">
<stop stop-color="#FFC154"/>
<stop offset="1" stop-color="#E18E42"/>
</linearGradient>
<linearGradient id="paint4_linear" x1="564.356" y1="298.718" x2="416.238" y2="193.878" gradientUnits="userSpaceOnUse">
<stop stop-color="#5071E1"/>
<stop offset="1" stop-color="#3D59BD"/>
</linearGradient>
</defs>
</svg>
