<svg width="692" height="707" viewBox="0 0 692 707" fill="none" xmlns="http://www.w3.org/2000/svg">
<path d="M12.7398 302.328C6.7804 358.438 1.94727 429.364 27.5909 475.824C50.4836 517.299 107.559 559.668 145.692 588.166C203.068 631.045 257.783 661 351.84 661C429.82 661 472.063 629.655 527.577 588.166C547.025 573.632 618.058 547.627 651.812 486.474C677.456 440.015 692 386.908 692 330.5C692 280.659 665.522 245.985 660.311 191.017C651.812 101.349 595.669 92.9592 547.025 59.7887C498.381 26.6182 424.465 0 351.84 0C241.871 0 189.736 52.1582 128.72 108.563C63.5908 168.77 27.5909 162.502 12.7398 302.328Z" fill="#FCFCFC"/>
<path fill-rule="evenodd" clip-rule="evenodd" d="M624.106 402.305C627.087 427.513 581.646 508.752 579.846 509.897L577.557 514.322L569.069 502.947C569.61 485.987 573.747 469.356 579.179 454.505C573.974 427.094 581.555 400.796 581.555 400.796C585.503 390.691 590.926 400.964 590.926 400.964C594.107 404.232 595.552 410.808 595.959 418.649C603.317 405.742 609.302 397.831 609.302 397.831C624.106 382.329 624.106 402.305 624.106 402.305Z" fill="url(#paint0_linear)"/>
<path d="M600.357 516.908C600.357 516.908 668.336 456.52 671.35 414.884C671.35 414.884 676.031 383.192 658.982 398.446C658.982 398.446 642.94 408.313 617.085 466.14C617.085 466.14 619.112 443.251 607.505 462.624C607.505 462.624 589.244 500.901 590.144 516.736C590.144 529.482 600.357 516.908 600.357 516.908Z" fill="#FE774C"/>
<path d="M563.258 541.52C563.258 541.52 609.729 498.699 606.864 471.31C604.09 443.936 576.515 471.593 576.515 471.593C576.515 471.593 596.503 418.555 578.077 406.846C559.65 395.137 535.69 472.925 533.968 482.337C533.968 482.337 528.158 442.18 517.231 483.166C517.231 483.166 506.264 433.727 488.043 442.159C488.043 442.159 473.319 437.057 485.999 501.445C498.678 565.834 537.93 556.896 537.93 556.896L563.258 541.52Z" fill="#FEBA4B"/>
<path d="M498.201 569.491C532.564 564.097 566.078 551.466 591.007 527.207C604.183 514.384 614.453 501.414 610.123 495.227C599.959 480.841 582.65 498.479 579.153 502.31C579.153 502.31 584.521 471.59 565.326 496.169C565.326 496.169 545.464 516.861 544.298 518.138C543.133 519.415 553.919 469.763 523.059 508.703C523.059 508.703 517.056 483.601 500.975 490.618C484.894 497.634 377.279 508.703 377.279 508.703C348.131 538.985 374.156 588.963 415.678 582.445L498.201 569.491Z" fill="#FCFCFC"/>
<path d="M199.536 297.889C199.536 297.889 228.315 325.64 239.062 321.473C239.062 321.473 243.494 312.476 230.148 297.635C216.803 282.794 192.15 251.943 188.686 258.093C185.223 264.243 191.488 288.69 199.536 297.889Z" fill="#C5D2FF"/>
<path d="M37.5076 498.752C37.5076 498.752 41.0731 489.604 44.1293 489.604C47.1855 489.604 53.96 493.161 53.96 497.888C53.96 502.615 52.7884 500.277 50.3944 502.615C48.0004 504.953 44.2821 510.137 47.4911 512.119C50.751 514.051 44.8424 516.185 42.6012 516.185C40.36 516.185 35.4192 527.723 32.5158 528.841C29.6125 529.959 19.2215 531.179 16.8785 528.841C14.5354 526.503 18.2537 519.591 21.9721 518.574C25.6904 517.558 27.6769 510.035 29.7653 507.901C31.9555 505.817 37.5076 504.19 37.5076 498.752Z" fill="#22283F"/>
<path d="M54.1123 503.784L33.9416 500.887C33.9416 500.887 27.5236 506.986 26.5049 512.678L54.0613 517.557C54.0613 517.557 56.6591 507.392 54.1123 503.784Z" fill="#4366E0"/>
<path d="M159.296 376.11C159.296 376.11 184 471.814 185.375 490.823C186.751 509.781 193.22 526.198 163.829 528.586C134.439 530.975 51.9229 516.744 51.9229 516.744L150.382 508.104C150.382 508.104 148.854 414.076 147.683 412.907C146.46 411.688 153.235 373.213 159.296 376.11Z" fill="#F78636"/>
<path d="M116.254 376.262C112.791 377.481 109.938 379.972 108.308 383.276C105.099 389.68 99.8531 400.556 98.7325 406.096C97.0516 414.228 99.4456 425.156 105.914 437.151C113.453 451.178 132.401 498.649 127.664 503.376C122.927 508.103 53.9596 495.6 46.8285 502.715C39.6975 509.831 38.0166 516.591 40.3597 516.591C42.7537 516.591 146.409 533.211 153.947 528.636C161.486 524.062 167.7 516.947 167.7 484.418C167.7 451.89 161.384 400.607 158.786 370.874C158.073 362.539 128.632 371.941 116.254 376.262Z" fill="url(#paint1_linear)"/>
<path d="M134.083 255.501C134.083 255.501 108.105 281.168 108.105 378.194C108.105 387.292 113.199 380.024 159.296 376.11C159.296 376.11 176.207 307.089 182.574 304.802C197.651 299.363 203.713 291.231 191.692 251.943C183.797 226.327 143.2 230.393 134.083 255.501Z" fill="#4E6EE9"/>
<path d="M215.785 256.67C218.688 256.009 226.532 261.803 226.532 261.803C226.532 261.803 207.125 328.384 198.721 332.959C190.316 337.533 180.537 334.229 181.199 325.996C182.472 310.138 211.251 257.737 215.785 256.67Z" fill="#A4B8FF"/>
<path d="M156.188 295.704C156.188 295.704 170.4 320.049 183.439 331.281C189.348 336.364 198.516 331.84 198.007 324.064C197.701 319.337 196.224 313.289 192.506 305.615C181.657 283.556 167.853 255.653 161.69 261.752C155.526 267.851 149.77 282.133 156.188 295.704Z" fill="#A4B8FF"/>
<path d="M223.272 217.128C223.272 217.128 224.596 215.044 227.907 213.367C231.014 211.791 228.314 206.15 233.102 199.237C237.585 192.732 248.332 165.438 205.648 161.576C162.963 157.713 195.053 209.453 223.272 217.128Z" fill="#FFC353"/>
<path d="M223.272 217.128C223.272 217.128 224.596 215.044 227.907 213.367C231.014 211.791 228.314 206.15 233.102 199.237C237.585 192.732 248.332 165.438 205.648 161.576C162.963 157.713 195.053 209.453 223.272 217.128Z" fill="url(#paint2_linear)"/>
<path d="M231.319 191.562C231.319 191.562 223.373 209.656 223.679 216.619C223.984 223.633 225.156 228.004 222.1 227.293C219.044 226.581 215.682 228.106 213.899 232.019C212.116 235.933 202.388 239.033 192.863 233.747L183.032 249.351C183.032 249.351 171.215 247.674 170.654 239.135C170.094 230.596 166.478 133.011 231.319 191.562Z" fill="#FFEFD0"/>
<path d="M229.944 179.365C229.944 179.365 235.547 191.106 224.087 197.459C212.626 203.812 210.843 203.05 208.806 212.198C206.768 221.347 188.177 221.855 186.903 229.225C185.63 236.595 195.97 263.685 184.357 281.575C172.743 299.466 163.727 283.862 161.69 299.11C159.653 314.358 154.559 337.483 141.825 338.754C129.091 340.025 131.835 320.222 120.119 315.648C108.404 311.073 91.3982 298.093 97.0011 271.156C102.604 244.218 126.544 259.72 126.544 237.865C126.544 216.01 125.016 208.895 145.9 198.984C166.784 189.073 156.342 167.726 177.99 161.881C199.637 156.036 221.031 163.507 229.944 179.365Z" fill="#FFC353"/>
<path d="M229.944 179.365C229.944 179.365 235.547 191.106 224.087 197.459C212.626 203.812 210.843 203.05 208.806 212.198C206.768 221.347 188.177 221.855 186.903 229.225C185.63 236.595 195.97 263.685 184.357 281.575C172.743 299.466 163.727 283.862 161.69 299.11C159.653 314.358 154.559 337.483 141.825 338.754C129.091 340.025 131.835 320.222 120.119 315.648C108.404 311.073 91.3982 298.093 97.0011 271.156C102.604 244.218 126.544 259.72 126.544 237.865C126.544 216.01 125.016 208.895 145.9 198.984C166.784 189.073 156.342 167.726 177.99 161.881C199.637 156.036 221.031 163.507 229.944 179.365Z" fill="url(#paint3_linear)"/>
<path d="M21.3601 498.752C21.3601 498.752 24.9257 489.604 27.9818 489.604C31.038 489.604 37.8125 493.161 37.8125 497.888C37.8125 502.615 36.641 500.277 34.247 502.615C31.853 504.953 28.1346 510.137 31.3436 512.119C34.5526 514.101 28.6949 516.185 26.4537 516.185C24.2125 516.185 19.2717 527.723 16.3684 528.841C13.465 529.959 3.07406 531.179 0.730996 528.841C-1.61207 526.503 2.10627 519.591 5.82461 518.574C9.54295 517.558 11.5295 510.035 13.6178 507.901C15.8081 505.817 21.3601 504.19 21.3601 498.752Z" fill="#22283F"/>
<path d="M404.146 310.037H271.559C271.151 307.089 270.744 304.039 270.387 300.939C268.554 285.081 267.637 267.496 267.892 248.029C267.892 248.029 264.275 187.395 292.29 165.336C292.494 165.184 294.327 163.862 297.282 162.084C298.606 161.321 300.134 160.406 301.866 159.491C315.975 151.918 342.92 141.245 363.804 155.527C365.129 156.442 366.351 157.255 367.574 158.119C368.898 159.034 370.222 159.949 371.445 160.813C371.699 160.965 371.903 161.169 372.158 161.321C394.264 177.484 400.682 192.935 404.146 310.037Z" fill="url(#paint4_linear)"/>
<path d="M334.567 159.542C328.2 159.542 323.005 154.409 323.005 148.005V131.08H346.079V148.005C346.079 154.409 340.934 159.542 334.567 159.542Z" fill="#FFDD9C"/>
<path d="M478.359 141.652C478.359 141.652 475.914 121.017 413.721 179.923C395.18 197.458 377.607 215.145 380.714 221.499C383.822 227.852 390.392 235.476 421.514 215.806C452.636 196.137 478.359 141.652 478.359 141.652Z" fill="#9BB1FF"/>
<path d="M313.072 131.639C313.072 131.639 302.222 123.965 300.236 115.528C298.708 109.276 289.692 84.7274 313.072 69.1239C336.451 53.5205 357.182 66.1761 360.137 69.1239C363.091 72.0718 369.152 82.6944 367.573 96.5697C365.994 110.445 361.767 119.848 356.928 124.676C352.14 129.505 313.072 131.639 313.072 131.639Z" fill="#22283F"/>
<path d="M307.265 113.087C307.265 114.104 307.367 115.171 307.57 116.137C308.742 121.575 313.377 138.958 324.227 142.973C337.113 147.7 354.432 139.567 358.863 117.916C363.295 96.2133 363.804 86.7598 353.158 86.7598C342.564 86.7598 307.214 96.5691 307.214 96.5691V113.087H307.265Z" fill="#FFEFD0"/>
<path d="M299.982 109.124C299.982 109.124 305.737 119.747 308.284 102.364C310.373 88.2347 337.012 105.77 345.417 100.687C364.518 89.0987 359.883 114.766 361.156 105.414C361.971 99.4163 367.829 65.7698 351.172 65.7698C334.516 65.719 294.633 72.1738 299.982 109.124Z" fill="#22283F"/>
<path d="M404.145 310.036H371.444V160.812C394.111 177.178 400.682 191.664 404.145 310.036Z" fill="url(#paint5_linear)"/>
<path d="M297.282 162.083V310.036H279.047C278.792 309.833 278.537 309.833 278.232 310.036H271.559C271.151 307.088 270.744 304.039 270.387 300.938C268.554 285.081 267.637 267.495 267.892 248.029C267.892 248.029 264.275 187.394 292.29 165.336C292.443 165.183 294.277 163.913 297.282 162.083Z" fill="url(#paint6_linear)"/>
<path d="M303.547 170.622H296.467C295.601 170.622 294.938 169.961 294.938 169.097C294.938 168.233 295.601 167.572 296.467 167.572H303.547C304.413 167.572 305.075 168.233 305.075 169.097C305.075 169.91 304.413 170.622 303.547 170.622Z" fill="#FCFCFC"/>
<path d="M373.889 170.622H366.809C365.943 170.622 365.281 169.961 365.281 169.097C365.281 168.233 365.943 167.572 366.809 167.572H373.889C374.755 167.572 375.418 168.233 375.418 169.097C375.418 169.91 374.704 170.622 373.889 170.622Z" fill="#FCFCFC"/>
<path d="M367.777 456.11C368.49 449.96 361.41 498.854 360.646 515.271C360.187 525.436 346.282 518.727 346.282 518.727C346.282 518.727 341.29 462.209 344.601 458.905C347.912 455.602 367.777 456.11 367.777 456.11Z" fill="#C7D3FE"/>
<path d="M367.777 456.11C368.49 449.96 361.41 498.854 360.646 515.271C360.187 525.436 346.282 518.727 346.282 518.727C346.282 518.727 341.29 462.209 344.601 458.905C347.912 455.602 367.777 456.11 367.777 456.11Z" fill="url(#paint7_linear)"/>
<path d="M297.995 455.398C297.282 449.248 306.094 500.226 305.89 511.204C305.585 526.35 319.49 517.964 319.49 517.964C319.49 517.964 324.482 461.446 321.171 458.142C317.86 454.839 297.995 455.398 297.995 455.398Z" fill="#C7D3FE"/>
<path d="M297.995 455.398C297.282 449.248 306.094 500.226 305.89 511.204C305.585 526.35 319.49 517.964 319.49 517.964C319.49 517.964 324.482 461.446 321.171 458.142C317.86 454.839 297.995 455.398 297.995 455.398Z" fill="url(#paint8_linear)"/>
<path d="M342.055 516.236C342.055 516.236 341.902 511.153 345.264 514.508C348.626 517.862 347.25 513.389 353.159 513.389C359.119 513.389 359.373 516.642 361.207 514.812C363.041 512.983 365.18 513.135 365.18 514.812C365.18 516.236 367.217 518.37 367.829 526.96C368.032 529.958 365.638 532.551 362.633 532.551H343.787C340.731 532.551 338.286 529.908 338.591 526.858C338.999 523.046 339.916 518.37 342.055 516.236Z" fill="#22283F"/>
<path d="M301.153 515.575C301.153 515.575 301.001 510.289 304.515 513.796C308.03 517.303 306.553 512.627 312.767 512.627C318.93 512.627 319.236 516.033 321.12 514.101C323.005 512.17 325.246 512.373 325.246 514.101C325.246 515.575 327.335 517.811 327.997 526.757C328.251 529.908 325.756 532.551 322.598 532.551H302.987C299.778 532.551 297.282 529.806 297.588 526.604C297.995 522.64 298.912 517.811 301.153 515.575Z" fill="#22283F"/>
<path d="M484.828 129.861C484.828 129.861 525.169 158.12 530.976 181.347C535.204 198.119 547.938 301.905 519.363 310.342C490.787 318.779 411.276 321.778 411.429 301.956C411.582 282.134 411.582 255.196 417.49 222.973C423.399 190.75 447.543 122.135 484.828 129.861Z" fill="url(#paint9_linear)"/>
<path d="M482.791 120.966C483.249 121.017 486.866 130.572 489.209 136.468C490.38 139.416 489.973 142.719 488.139 145.311C485.949 148.412 482.18 151.614 476.322 151.156C476.322 151.156 471.076 146.226 473.673 137.23C476.271 128.234 478.461 120.61 482.791 120.966Z" fill="#FFDD9C"/>
<path d="M430.276 112.122C430.276 112.122 431.04 115.121 432.364 120.61C433.739 126.099 430.938 132.198 431.549 134.536C432.16 136.874 435.624 133.774 436.082 135.654C436.541 137.535 436.184 145.057 439.291 148.564C442.398 152.071 475.762 149.885 475.762 149.885C475.762 149.885 469.955 142.363 474.947 136.62C479.938 130.877 481.925 129.047 484.268 120.152C486.56 111.258 486.458 79.8478 466.899 84.6763C447.339 89.5047 429.002 107.039 430.276 112.122Z" fill="#FFEFD0"/>
<path d="M430.887 113.8C430.887 113.8 419.019 114.054 417.644 100.433C416.32 86.8114 423.043 69.7848 439.343 65.7188C439.343 65.7188 432.11 73.1901 436.949 70.6488C436.949 70.6488 465.473 56.7226 485.287 74.4608C494.71 82.8978 489.056 91.4873 494.354 92.8088C499.651 94.1302 508.769 98.3487 506.324 108.412C504.185 117.256 508.667 120.204 511.112 124.321C513.557 128.437 515.798 134.689 510.704 137.484C506.222 139.924 497.868 140.381 489.77 136.417C487.427 135.248 480.601 131.639 482.333 123.355C483.148 119.34 486.866 99.7719 476.272 105.312C476.272 105.312 473.928 110.394 474.183 111.462C474.438 112.529 471.127 113.19 469.344 112.885C467.052 112.478 468.122 91.6398 452.586 98.8062C437.051 105.973 435.319 114.664 430.887 113.8Z" fill="#303D6F"/>
<path d="M475.762 149.886C475.762 149.886 473.775 144.193 475.966 140.635C478.156 137.078 483.097 128.539 477.392 129.962C471.687 131.385 469.497 134.333 467.408 137.789C465.32 141.245 461.602 147.141 458.698 145.362C455.795 143.634 440.769 136.519 434.657 141.855C428.544 147.192 433.74 151.665 431.957 154.612C430.174 157.56 433.587 165.133 431.244 168.996C428.901 172.859 434.758 181.398 431.753 186.429C428.697 191.461 426.099 209.148 442.042 205.235C457.985 201.321 461.041 191.105 461.398 182.465C461.755 173.825 473.062 178.704 475.354 170.724C477.647 162.745 480.142 160.254 475.762 149.886Z" fill="#303D6E"/>
<path d="M274.276 196.505C274.276 196.505 264.753 193.398 271.976 178.347C279.199 163.295 293.777 178.952 291.021 183.211C288.255 187.42 284.811 186.371 283.388 188.536C281.916 190.711 278.3 199.094 274.276 196.505Z" fill="#FFEFD0"/>
<path d="M280.046 177.966C279.752 177.301 279.075 174.794 280.359 174.216C281.643 173.637 286.643 167.406 290.556 165.71C294.459 163.964 292.811 166.798 289.559 170.174C287.844 171.932 285.541 178.122 284.69 177.78C283.838 177.437 280.046 177.966 280.046 177.966Z" fill="#FFEFD0"/>
<path d="M259.436 258.143C261.83 257.686 268.197 262.769 268.197 262.769C268.197 262.769 249.809 317.253 242.729 320.811C235.649 324.369 227.601 321.269 228.416 314.458C229.995 301.243 255.666 258.804 259.436 258.143Z" fill="#C5D2FF"/>
<path d="M493.385 180.279C494.047 169.351 515.746 161.169 527.665 173.112C539.585 185.056 536.121 271.46 537.7 305.462C538.617 324.572 500.415 334.738 500.415 304.649C500.465 275.729 492.927 187.445 493.385 180.279Z" fill="url(#paint10_linear)"/>
<path d="M508.208 454.076C508.208 454.076 508.208 530.467 503.624 530.467C499.039 530.467 489.871 529.959 489.871 529.959C489.871 529.959 475.711 454.127 481.314 454.127C486.917 454.127 508.208 454.076 508.208 454.076Z" fill="#D0DAFE"/>
<path d="M508.208 454.076C508.208 454.076 508.208 530.467 503.624 530.467C499.039 530.467 489.871 529.959 489.871 529.959C489.871 529.959 475.711 454.127 481.314 454.127C486.917 454.127 508.208 454.076 508.208 454.076Z" fill="url(#paint11_linear)"/>
<path d="M468.885 454.076C468.885 454.076 468.885 530.467 464.301 530.467C459.717 530.467 451.21 527.519 451.21 527.519C451.21 527.519 436.388 454.127 441.991 454.127C447.594 454.127 468.885 454.076 468.885 454.076Z" fill="#D0DAFE"/>
<path d="M468.885 454.076C468.885 454.076 468.885 530.467 464.301 530.467C459.717 530.467 451.21 527.519 451.21 527.519C451.21 527.519 436.388 454.127 441.991 454.127C447.594 454.127 468.885 454.076 468.885 454.076Z" fill="url(#paint12_linear)"/>
<path d="M445.403 511.865C445.403 511.865 446.167 503.733 450.242 511.102C453.044 516.134 464.912 511.102 468.936 511.102C472.909 511.102 475.965 529.654 472.909 529.654C469.853 529.654 455.998 532.195 453.961 530.162C451.923 528.129 447.594 531.026 437.814 531.026C436.541 531.026 424.061 530.62 421.362 527.265C412.346 516.083 427.066 518.015 436.337 516.388C441.838 515.423 441.634 515.626 445.403 511.865Z" fill="#22283F"/>
<path d="M484.014 511.865C484.014 511.865 484.778 503.733 488.853 511.102C491.654 516.134 503.522 511.102 507.546 511.102C511.519 511.102 514.575 529.654 511.519 529.654C508.463 529.654 494.608 532.195 492.571 530.162C490.534 528.129 486.204 531.026 476.424 531.026C475.151 531.026 462.671 530.62 459.972 527.265C450.956 516.083 465.677 518.015 474.947 516.388C480.448 515.423 480.244 515.626 484.014 511.865Z" fill="#444F7B"/>
<path d="M291.882 444.724C291.882 469.172 291.882 493.619 291.882 518.066C291.882 521.573 291.882 525.08 291.882 528.587C291.882 529.806 293.817 529.806 293.817 528.587C293.817 504.139 293.817 479.692 293.817 455.245C293.817 451.738 293.817 448.231 293.817 444.724C293.766 443.505 291.882 443.505 291.882 444.724Z" fill="#1D1D1B"/>
<path d="M221.795 370.824H273.088C297.588 370.824 319.592 386.275 327.284 409.452C327.436 409.909 327.589 410.366 327.691 410.824C327.691 410.824 320.458 419.617 292.8 418.804L256.992 418.854C256.992 418.854 215.886 376.72 221.795 370.824Z" fill="#CDD8FE"/>
<path d="M195.308 373.213C195.308 373.213 256.686 355.577 282.154 416.262C282.154 416.262 204.476 434.559 195.308 373.213Z" fill="#B1C3FF"/>
<path d="M397.932 369.858L353.719 413.975C346.69 420.989 335.28 420.989 328.251 413.975L284.038 369.858C277.009 362.844 277.009 351.459 284.038 344.445L328.251 300.329C335.28 293.315 346.69 293.315 353.719 300.329L397.932 344.445C404.961 351.459 404.961 362.844 397.932 369.858Z" fill="#4E6EE9"/>
<path d="M321.884 334.026L336.451 341.447C337.623 342.056 339.049 341.802 339.966 340.887L351.528 329.35C353.617 327.266 357.131 329.045 356.673 331.942L354.126 348.054C353.922 349.375 354.584 350.646 355.756 351.205L370.324 358.626C372.922 359.947 372.31 363.861 369.407 364.318L353.26 366.859C351.936 367.063 350.917 368.079 350.713 369.401L348.167 385.512C347.708 388.409 343.786 389.019 342.462 386.427L335.025 371.891C334.414 370.722 333.14 370.061 331.867 370.265L315.72 372.806C312.817 373.263 311.034 369.756 313.123 367.673L324.685 356.135C325.602 355.22 325.857 353.797 325.245 352.628L317.809 338.092C316.484 335.5 319.286 332.705 321.884 334.026Z" fill="white"/>
<path d="M554.153 445.232H172.132V458.447H554.153V445.232Z" fill="#4E6EE9"/>
<path d="M554.152 445.232H429.868V458.447H554.152V445.232Z" fill="#9BB1FF"/>
<path d="M534.797 418.804H192.506C188.584 418.804 185.375 422.006 185.375 425.919V443.708H541.928V425.919C541.928 422.006 538.719 418.804 534.797 418.804Z" fill="#B1C3FF"/>
<path d="M537.548 418.804H411.583C409.138 418.804 407.202 420.786 407.202 423.175V443.708H541.928V423.175C541.928 420.786 539.942 418.804 537.548 418.804Z" fill="#CDD8FE"/>
<path d="M429.868 306.53C412.804 306.53 395.791 306.53 378.728 306.53C364.822 306.53 350.917 306.53 337.011 306.53C313.53 306.53 289.997 306.53 266.516 306.53C256.226 306.53 245.937 306.53 235.648 306.53C214.968 306.53 194.237 306.53 173.557 306.53C173.099 306.53 172.589 306.53 172.131 306.53C171.622 306.53 171.163 306.988 171.163 307.496C171.163 322.947 171.163 338.398 171.163 353.849C171.163 378.499 171.163 403.099 171.163 427.749C171.163 433.391 171.163 439.083 171.163 444.725C171.163 445.233 171.622 445.691 172.131 445.691C180.637 445.691 189.194 445.691 197.701 445.691C218.279 445.691 238.806 445.691 259.384 445.691C284.19 445.691 308.996 445.691 333.751 445.691C355.246 445.691 376.741 445.691 398.236 445.691C405.266 445.691 412.346 445.691 419.375 445.691C422.635 445.691 426.149 446.046 429.409 445.691C429.562 445.691 429.715 445.691 429.817 445.691C431.039 445.691 431.039 443.759 429.817 443.759C421.31 443.759 412.753 443.759 404.247 443.759C383.669 443.759 363.141 443.759 342.563 443.759C317.757 443.759 292.951 443.759 268.196 443.759C246.701 443.759 225.206 443.759 203.711 443.759C196.682 443.759 189.602 443.759 182.573 443.759C180.383 443.759 178.192 443.759 176.002 443.759C175.034 443.759 173.455 443.454 172.589 443.759C172.487 443.81 172.284 443.759 172.182 443.759C172.487 444.064 172.844 444.42 173.15 444.725C173.15 429.274 173.15 413.823 173.15 398.372C173.15 373.722 173.15 349.122 173.15 324.472C173.15 318.83 173.15 313.138 173.15 307.496C172.844 307.801 172.487 308.157 172.182 308.462C190.926 308.462 209.671 308.462 228.415 308.462C239.01 308.462 249.605 308.462 260.25 308.462C282.968 308.462 305.685 308.462 328.403 308.462C345.008 308.462 361.613 308.462 378.218 308.462C394.824 308.462 411.378 308.462 427.983 308.462C428.645 308.462 429.307 308.462 429.97 308.462C431.09 308.462 431.09 306.53 429.868 306.53Z" fill="#22283F"/>
<path d="M195.358 375.246C197.549 380.379 201.522 385.004 205.342 388.969C215.631 399.693 229.027 407.062 243.086 411.738C255.412 415.855 268.35 417.939 281.339 418.701C282.969 418.803 282.969 416.262 281.339 416.16C251.796 414.331 217.516 404.725 200.299 378.6C199.331 377.126 198.364 375.551 197.651 373.924C196.886 372.45 194.696 373.721 195.358 375.246Z" fill="#CDD8FE"/>
<path d="M430.785 444.724C430.785 429.273 430.785 413.771 430.785 398.32C430.785 373.67 430.785 349.019 430.785 324.42C430.785 318.778 430.785 313.137 430.785 307.546C430.48 307.851 430.123 308.206 429.817 308.511C443.825 308.511 457.883 308.511 471.891 308.511C494.15 308.511 516.409 308.511 538.668 308.511C543.812 308.511 548.906 308.511 554.051 308.511C553.745 308.206 553.388 307.851 553.083 307.546C553.083 322.997 553.083 338.448 553.083 353.899C553.083 378.549 553.083 403.149 553.083 427.799C553.083 433.441 553.083 439.133 553.083 444.775C553.388 444.47 553.745 444.114 554.051 443.809C540.043 443.809 525.985 443.809 511.977 443.809C489.718 443.809 467.459 443.809 445.2 443.809C440.056 443.809 434.962 443.809 429.817 443.809C428.595 443.809 428.595 445.74 429.817 445.74C443.825 445.74 457.883 445.74 471.891 445.74C494.15 445.74 516.409 445.74 538.668 445.74C543.812 445.74 548.906 445.74 554.051 445.74C554.56 445.74 555.018 445.283 555.018 444.775C555.018 429.324 555.018 413.873 555.018 398.422C555.018 373.771 555.018 349.172 555.018 324.521C555.018 318.88 555.018 313.187 555.018 307.546C555.018 307.038 554.56 306.58 554.051 306.58C540.043 306.58 525.985 306.58 511.977 306.58C489.718 306.58 467.459 306.58 445.2 306.58C440.056 306.58 434.962 306.58 429.817 306.58C429.308 306.58 428.85 307.038 428.85 307.546C428.85 322.997 428.85 338.499 428.85 353.949C428.85 378.6 428.85 403.25 428.85 427.85C428.85 433.491 428.85 439.133 428.85 444.724C428.901 445.944 430.785 445.944 430.785 444.724Z" fill="#4E6EE9"/>
<path d="M502.197 254.688C492.723 254.688 482.842 253.874 473.47 255.348C457.628 257.839 443.468 267.75 435.624 281.727C431.243 289.554 428.9 298.499 428.9 307.495C428.9 308.004 429.359 308.461 429.868 308.461C443.876 308.461 457.934 308.461 471.941 308.461C494.201 308.461 516.46 308.461 538.719 308.461C543.863 308.461 548.957 308.461 554.101 308.461C554.611 308.461 555.069 308.004 555.069 307.495C555.069 278.576 531.027 254.891 502.197 254.688C500.975 254.688 500.975 256.568 502.197 256.619C530.009 256.822 553.185 279.643 553.185 307.495C553.49 307.19 553.847 306.835 554.152 306.53C540.145 306.53 526.087 306.53 512.079 306.53C489.82 306.53 467.561 306.53 445.302 306.53C440.157 306.53 435.064 306.53 429.919 306.53C430.225 306.835 430.581 307.19 430.887 307.495C430.887 291.434 438.68 275.984 451.669 266.479C457.985 261.854 465.32 258.754 473.011 257.381C477.952 256.517 482.944 256.619 487.884 256.619C492.672 256.619 497.46 256.619 502.197 256.619C503.42 256.619 503.42 254.688 502.197 254.688Z" fill="#4E6EE9"/>
<path d="M244.46 254.688C234.986 254.688 225.104 253.874 215.732 255.348C199.891 257.839 185.731 267.75 177.887 281.727C173.506 289.554 171.163 298.499 171.163 307.495C171.163 308.004 171.622 308.461 172.131 308.461C186.138 308.461 200.197 308.461 214.204 308.461C236.463 308.461 258.722 308.461 280.981 308.461C286.126 308.461 291.22 308.461 296.364 308.461C296.873 308.461 297.332 308.004 297.332 307.495C297.332 278.576 273.29 254.891 244.46 254.688C243.238 254.688 243.238 256.568 244.46 256.619C272.271 256.822 295.447 279.643 295.447 307.495C295.753 307.19 296.109 306.835 296.415 306.53C282.408 306.53 268.349 306.53 254.342 306.53C232.083 306.53 209.824 306.53 187.565 306.53C182.42 306.53 177.326 306.53 172.182 306.53C172.487 306.835 172.844 307.19 173.15 307.495C173.15 291.434 180.943 275.984 193.932 266.479C200.248 261.854 207.582 258.754 215.274 257.381C220.215 256.517 225.206 256.619 230.147 256.619C234.935 256.619 239.723 256.619 244.46 256.619C245.683 256.619 245.683 254.688 244.46 254.688Z" fill="#1D1D1B"/>
<path d="M429.868 334.383C443.875 334.383 457.934 334.383 471.941 334.383C494.2 334.383 516.459 334.383 538.719 334.383C543.863 334.383 548.957 334.383 554.101 334.383C555.324 334.383 555.324 332.451 554.101 332.451C540.094 332.451 526.035 332.451 512.028 332.451C489.769 332.451 467.51 332.451 445.251 332.451C440.106 332.451 435.013 332.451 429.868 332.451C428.646 332.451 428.646 334.383 429.868 334.383Z" fill="#4E6EE9"/>
<path d="M172.132 334.382C180.689 334.382 189.246 334.382 197.804 334.382C218.331 334.382 238.909 334.382 259.436 334.382C284.191 334.382 308.946 334.382 333.752 334.382C355.247 334.382 376.691 334.382 398.186 334.382C405.266 334.382 412.296 334.382 419.376 334.382C422.686 334.382 426.201 334.738 429.461 334.382C429.614 334.382 429.767 334.382 429.868 334.382C431.091 334.382 431.091 332.451 429.868 332.451C421.311 332.451 412.754 332.451 404.197 332.451C383.669 332.451 363.091 332.451 342.564 332.451C317.809 332.451 293.054 332.451 268.248 332.451C246.753 332.451 225.309 332.451 203.814 332.451C196.734 332.451 189.705 332.451 182.625 332.451C179.314 332.451 175.799 332.095 172.539 332.451C172.386 332.451 172.234 332.451 172.132 332.451C170.909 332.451 170.909 334.382 172.132 334.382Z" fill="#22283F"/>
<path d="M194.34 333.417C194.34 345.971 194.34 358.525 194.34 371.078C194.34 391.002 194.34 410.926 194.34 430.9C194.34 435.525 194.34 440.1 194.34 444.725C194.34 445.944 196.275 445.944 196.275 444.725C196.275 432.171 196.275 419.617 196.275 407.063C196.275 387.139 196.275 367.216 196.275 347.241C196.275 342.616 196.275 338.042 196.275 333.417C196.224 332.197 194.34 332.197 194.34 333.417Z" fill="#22283F"/>
<path d="M220.826 333.417C220.826 345.971 220.826 358.525 220.826 371.078C220.826 391.002 220.826 410.926 220.826 430.9C220.826 435.525 220.826 440.1 220.826 444.725C220.826 445.944 222.762 445.944 222.762 444.725C222.762 432.171 222.762 419.617 222.762 407.063C222.762 387.139 222.762 367.216 222.762 347.241C222.762 342.616 222.762 338.042 222.762 333.417C222.711 332.197 220.826 332.197 220.826 333.417Z" fill="#22283F"/>
<path d="M247.313 333.417C247.313 345.971 247.313 358.525 247.313 371.078C247.313 391.002 247.313 410.926 247.313 430.9C247.313 435.525 247.313 440.1 247.313 444.725C247.313 445.944 249.249 445.944 249.249 444.725C249.249 432.171 249.249 419.617 249.249 407.063C249.249 387.139 249.249 367.216 249.249 347.241C249.249 342.616 249.249 338.042 249.249 333.417C249.198 332.197 247.313 332.197 247.313 333.417Z" fill="#22283F"/>
<path d="M273.8 333.417C273.8 345.971 273.8 358.525 273.8 371.078C273.8 391.002 273.8 410.926 273.8 430.9C273.8 435.525 273.8 440.1 273.8 444.725C273.8 445.944 275.735 445.944 275.735 444.725C275.735 432.171 275.735 419.617 275.735 407.063C275.735 387.139 275.735 367.216 275.735 347.241C275.735 342.616 275.735 338.042 275.735 333.417C275.684 332.197 273.8 332.197 273.8 333.417Z" fill="#22283F"/>
<path d="M300.286 333.417C300.286 345.971 300.286 358.525 300.286 371.078C300.286 391.002 300.286 410.926 300.286 430.9C300.286 435.525 300.286 440.1 300.286 444.725C300.286 445.944 302.222 445.944 302.222 444.725C302.222 432.171 302.222 419.617 302.222 407.063C302.222 387.139 302.222 367.216 302.222 347.241C302.222 342.616 302.222 338.042 302.222 333.417C302.171 332.197 300.286 332.197 300.286 333.417Z" fill="#22283F"/>
<path d="M326.773 333.417C326.773 345.971 326.773 358.525 326.773 371.078C326.773 391.002 326.773 410.926 326.773 430.9C326.773 435.525 326.773 440.1 326.773 444.725C326.773 445.944 328.709 445.944 328.709 444.725C328.709 432.171 328.709 419.617 328.709 407.063C328.709 387.139 328.709 367.216 328.709 347.241C328.709 342.616 328.709 338.042 328.709 333.417C328.658 332.197 326.773 332.197 326.773 333.417Z" fill="#22283F"/>
<path d="M353.26 333.417C353.26 345.971 353.26 358.525 353.26 371.078C353.26 391.002 353.26 410.926 353.26 430.9C353.26 435.525 353.26 440.1 353.26 444.725C353.26 445.944 355.195 445.944 355.195 444.725C355.195 432.171 355.195 419.617 355.195 407.063C355.195 387.139 355.195 367.216 355.195 347.241C355.195 342.616 355.195 338.042 355.195 333.417C355.144 332.197 353.26 332.197 353.26 333.417Z" fill="#22283F"/>
<path d="M379.747 333.417C379.747 345.971 379.747 358.525 379.747 371.078C379.747 391.002 379.747 410.926 379.747 430.9C379.747 435.525 379.747 440.1 379.747 444.725C379.747 445.944 381.683 445.944 381.683 444.725C381.683 432.171 381.683 419.617 381.683 407.063C381.683 387.139 381.683 367.216 381.683 347.241C381.683 342.616 381.683 338.042 381.683 333.417C381.632 332.197 379.747 332.197 379.747 333.417Z" fill="#22283F"/>
<path d="M406.233 333.417C406.233 345.971 406.233 358.525 406.233 371.078C406.233 391.002 406.233 410.926 406.233 430.9C406.233 435.525 406.233 440.1 406.233 444.725C406.233 445.944 408.169 445.944 408.169 444.725C408.169 432.171 408.169 419.617 408.169 407.063C408.169 387.139 408.169 367.216 408.169 347.241C408.169 342.616 408.169 338.042 408.169 333.417C408.118 332.197 406.233 332.197 406.233 333.417Z" fill="#22283F"/>
<path d="M451.312 333.417C451.312 345.971 451.312 358.525 451.312 371.078C451.312 391.002 451.312 410.926 451.312 430.9C451.312 435.525 451.312 440.1 451.312 444.725C451.312 445.944 453.248 445.944 453.248 444.725C453.248 432.171 453.248 419.617 453.248 407.063C453.248 387.139 453.248 367.216 453.248 347.241C453.248 342.616 453.248 338.042 453.248 333.417C453.197 332.197 451.312 332.197 451.312 333.417Z" fill="#4E6EE9"/>
<path d="M477.799 333.417C477.799 345.971 477.799 358.525 477.799 371.078C477.799 391.002 477.799 410.926 477.799 430.9C477.799 435.525 477.799 440.1 477.799 444.725C477.799 445.944 479.734 445.944 479.734 444.725C479.734 432.171 479.734 419.617 479.734 407.063C479.734 387.139 479.734 367.216 479.734 347.241C479.734 342.616 479.734 338.042 479.734 333.417C479.683 332.197 477.799 332.197 477.799 333.417Z" fill="#4E6EE9"/>
<path d="M504.286 333.417C504.286 345.971 504.286 358.525 504.286 371.078C504.286 391.002 504.286 410.926 504.286 430.9C504.286 435.525 504.286 440.1 504.286 444.725C504.286 445.944 506.222 445.944 506.222 444.725C506.222 432.171 506.222 419.617 506.222 407.063C506.222 387.139 506.222 367.216 506.222 347.241C506.222 342.616 506.222 338.042 506.222 333.417C506.171 332.197 504.286 332.197 504.286 333.417Z" fill="#4E6EE9"/>
<path d="M530.772 333.417C530.772 345.971 530.772 358.525 530.772 371.078C530.772 391.002 530.772 410.926 530.772 430.9C530.772 435.525 530.772 440.1 530.772 444.725C530.772 445.944 532.708 445.944 532.708 444.725C532.708 432.171 532.708 419.617 532.708 407.063C532.708 387.139 532.708 367.216 532.708 347.241C532.708 342.616 532.708 338.042 532.708 333.417C532.657 332.197 530.772 332.197 530.772 333.417Z" fill="#4E6EE9"/>
<path d="M171.163 437.1C171.163 447.418 171.163 457.736 171.163 468.104C171.163 484.47 171.163 500.836 171.163 517.252C171.163 521.064 171.163 524.825 171.163 528.637C171.163 529.857 173.099 529.857 173.099 528.637C173.099 518.32 173.099 508.002 173.099 497.634C173.099 481.268 173.099 464.902 173.099 448.485C173.099 444.673 173.099 440.912 173.099 437.1C173.048 435.881 171.163 435.881 171.163 437.1Z" fill="#1D1D1B"/>
<path d="M553.185 437.1C553.185 447.418 553.185 457.736 553.185 468.104C553.185 484.47 553.185 500.836 553.185 517.252C553.185 521.064 553.185 524.825 553.185 528.637C553.185 529.857 555.12 529.857 555.12 528.637C555.12 518.32 555.12 508.002 555.12 497.634C555.12 481.268 555.12 464.902 555.12 448.485C555.12 444.673 555.12 440.912 555.12 437.1C555.069 435.881 553.185 435.881 553.185 437.1Z" fill="#4E6EE9"/>
<path d="M428.9 437.1C428.9 447.418 428.9 457.736 428.9 468.104C428.9 484.47 428.9 500.836 428.9 517.252C428.9 521.064 428.9 524.825 428.9 528.637C428.9 529.857 430.836 529.857 430.836 528.637C430.836 518.32 430.836 508.002 430.836 497.634C430.836 481.268 430.836 464.902 430.836 448.485C430.836 444.673 430.836 440.912 430.836 437.1C430.785 435.881 428.9 435.881 428.9 437.1Z" fill="#4E6EE9"/>
<path d="M418.541 263.277C418.541 267.089 418.541 270.901 418.541 274.713C418.541 275.933 420.477 275.933 420.477 274.713C420.477 270.901 420.477 267.089 420.477 263.277C420.426 262.057 418.541 262.057 418.541 263.277Z" fill="#22283F"/>
<path d="M319.42 263.277C319.42 267.089 319.42 270.901 319.42 274.713C319.42 275.933 321.355 275.933 321.355 274.713C321.355 270.901 321.355 267.089 321.355 263.277C321.355 262.057 319.42 262.057 319.42 263.277Z" fill="#22283F"/>
<path d="M370.508 237.915C370.508 233.137 369.999 228.055 370.814 223.328C372.393 214.383 379.422 207.521 387.725 204.37C404.381 198.017 428.575 206.759 428.83 226.937C429.085 245.793 428.83 264.649 428.83 283.505C428.83 291.485 428.83 299.465 428.83 307.444C428.83 308.664 430.766 308.664 430.766 307.444C430.766 287.063 430.766 266.682 430.766 246.301C430.766 241.473 430.766 236.695 430.766 231.867C430.766 229.275 430.918 226.581 430.562 223.989C428.219 205.59 406.927 197.153 390.628 201.422C381.51 203.811 373.208 210.113 369.999 219.11C367.91 225.005 368.674 231.714 368.674 237.864C368.624 239.186 370.508 239.186 370.508 237.915Z" fill="#4E6EE9"/>
<path d="M344.327 256.11C344.327 257.178 344.735 258.092 345.448 258.804C346.161 259.516 347.078 259.922 348.147 259.922C350.236 259.922 351.968 258.245 351.968 256.11V254.433C354.005 251.79 358.589 249.859 363.938 248.486C365.72 248.029 367.656 247.622 369.541 247.267L369.693 234.865C356.654 238.88 349.828 246.098 346.67 250.469C346.11 251.231 345.651 251.943 345.295 252.502C344.684 253.569 344.327 254.84 344.327 256.11Z" fill="#4059B6"/>
<path d="M390.323 258.651C390.323 261.752 390.323 264.852 390.323 267.952C390.323 269.172 392.259 269.172 392.259 267.952C392.259 264.852 392.259 261.752 392.259 258.651C392.259 257.431 390.323 257.431 390.323 258.651Z" fill="#22283F"/>
<path d="M394.754 256.11C394.754 257.178 394.346 258.092 393.633 258.804C392.92 259.516 392.003 259.922 390.934 259.922C388.845 259.922 387.114 258.245 387.114 256.11V254.433C385.076 251.79 380.492 249.859 375.143 248.486C373.361 248.029 371.425 247.622 369.54 247.267L369.388 234.865C382.427 238.88 389.253 246.098 392.411 250.469C392.971 251.231 393.43 251.943 393.786 252.502C394.397 253.569 394.754 254.84 394.754 256.11Z" fill="#4059B6"/>
<path d="M324.259 259.16V261.142C324.259 263.581 322.272 265.614 319.776 265.614C317.331 265.614 315.294 263.632 315.294 261.142C315.294 259.668 315.701 258.194 316.465 256.923C320.133 250.875 333.529 232.832 369.745 232.832L369.541 248.13C369.592 248.13 331.899 249.299 324.259 259.16Z" fill="#4E6EE9"/>
<path d="M423.839 261.194C423.839 262.413 423.329 263.532 422.514 264.345C421.699 265.158 420.579 265.666 419.356 265.666C416.911 265.666 414.874 263.684 414.874 261.194V259.211C411.41 254.739 401.834 252.096 392.36 250.469C385.891 249.351 379.524 248.792 375.144 248.487C371.731 248.233 369.541 248.182 369.541 248.182V247.267L369.388 234.866L369.337 232.884C405.552 232.884 418.949 250.978 422.616 256.975C423.431 258.195 423.839 259.669 423.839 261.194Z" fill="#4E6EE9"/>
<path d="M369.337 232.782C371.729 232.782 373.667 230.848 373.667 228.462C373.667 226.076 371.729 224.142 369.337 224.142C366.946 224.142 365.008 226.076 365.008 228.462C365.008 230.848 366.946 232.782 369.337 232.782Z" fill="#4E6EE9"/>
<path d="M429.798 281.573C429.798 282.387 429.696 283.149 429.543 283.911C429.441 284.369 429.289 284.775 429.136 285.182C427.659 289.096 423.889 291.84 419.509 291.84C415.587 291.84 412.174 289.655 410.442 286.453C410.289 286.199 410.137 285.894 410.035 285.589C409.525 284.369 409.22 282.997 409.22 281.573C409.22 276.948 412.276 273.035 416.504 271.764C417.471 271.459 418.49 271.307 419.56 271.307C419.713 271.307 419.814 271.307 419.916 271.307C419.967 271.307 420.018 271.307 420.069 271.307C421.75 271.408 423.329 271.866 424.704 272.679C425.774 273.289 426.742 274.102 427.506 275.068C428.677 276.491 429.441 278.219 429.747 280.099C429.747 280.608 429.798 281.065 429.798 281.573Z" fill="#FE774C"/>
<path d="M399.696 273.594C399.696 274.255 399.645 274.865 399.492 275.475C399.39 275.83 399.288 276.186 399.186 276.542C398.015 279.693 394.908 281.98 391.342 281.98C388.133 281.98 385.382 280.201 383.956 277.559C383.854 277.355 383.702 277.101 383.6 276.847C383.192 275.831 382.938 274.712 382.938 273.594C382.938 269.833 385.433 266.631 388.846 265.615C389.61 265.36 390.476 265.259 391.342 265.259C391.444 265.259 391.546 265.259 391.648 265.259C391.699 265.259 391.749 265.259 391.8 265.259C393.176 265.31 394.449 265.716 395.57 266.377C396.436 266.885 397.2 267.546 397.862 268.308C398.83 269.477 399.441 270.85 399.696 272.425C399.645 272.781 399.696 273.188 399.696 273.594Z" fill="#FFC14F"/>
<path d="M347.181 258.651C347.181 261.752 347.181 264.852 347.181 267.952C347.181 269.172 349.116 269.172 349.116 267.952C349.116 264.852 349.116 261.752 349.116 258.651C349.065 257.431 347.181 257.431 347.181 258.651Z" fill="#22283F"/>
<path d="M356.501 273.594C356.501 274.255 356.45 274.865 356.297 275.475C356.195 275.83 356.094 276.186 355.992 276.542C354.82 279.693 351.713 281.98 348.148 281.98C344.939 281.98 342.188 280.201 340.762 277.559C340.66 277.355 340.507 277.101 340.405 276.847C339.998 275.831 339.743 274.712 339.743 273.594C339.743 269.833 342.239 266.631 345.652 265.615C346.416 265.36 347.282 265.259 348.148 265.259C348.249 265.259 348.351 265.259 348.453 265.259C348.504 265.259 348.555 265.259 348.606 265.259C349.981 265.31 351.255 265.716 352.375 266.377C353.241 266.885 354.005 267.546 354.667 268.308C355.635 269.477 356.246 270.85 356.501 272.425C356.501 272.781 356.501 273.188 356.501 273.594Z" fill="#23BF79"/>
<path d="M429.136 285.183C427.659 289.096 423.89 291.841 419.509 291.841C415.587 291.841 412.174 289.655 410.443 286.453C410.29 286.199 410.137 285.894 410.035 285.589L415.638 281.93C416.402 281.422 417.37 281.625 417.93 282.336C418.541 283.099 418.338 284.217 417.523 284.776L416.097 285.742C415.434 286.199 415.231 287.063 415.689 287.724C416.147 288.385 417.064 288.588 417.726 288.08L421.903 285.03C422.464 284.624 423.279 284.674 423.788 285.132C424.399 285.691 424.45 286.657 423.839 287.266L422.565 288.588C422.158 289.045 422.26 289.757 422.82 290.011C423.177 290.164 423.584 290.113 423.839 289.909L429.136 285.183Z" fill="#FFC14F"/>
<path d="M213.8 256.405C213.8 256.405 213.263 253.768 216.252 252.312C219.242 250.857 227.376 249.296 229.381 251.054C231.387 252.862 237.178 251.326 239.595 253.486C242.012 255.646 238.39 255.176 236.253 255.403C234.116 255.629 231.258 255.049 230.677 257.953C230.097 260.856 230.5 269.95 224.759 271.333C218.966 272.666 212.794 262.363 213.8 256.405Z" fill="#FFEFD0"/>
<path d="M313.428 278.661C313.428 278.661 310.168 277.644 307.01 279.931C306.399 280.389 306.348 281.253 306.857 281.761C307.112 282.015 307.468 282.117 307.774 282.117C308.945 282.015 311.9 282.015 313.683 283.743L313.428 278.661Z" fill="#FE774C"/>
<path d="M319.846 285.064C319.846 285.064 320.864 288.317 318.572 291.468C318.114 292.078 317.248 292.128 316.738 291.62C316.484 291.366 316.382 291.01 316.382 290.705C316.484 289.536 316.484 286.588 314.752 284.81L319.846 285.064Z" fill="#FE774C"/>
<path d="M326.162 270.782C314.65 273.628 311.696 279.575 311.085 283.539C310.728 285.827 312.715 287.758 314.956 287.402C318.929 286.792 324.888 283.844 327.741 272.358C327.944 271.392 327.079 270.528 326.162 270.782Z" fill="#FE774C"/>
<path d="M320.98 280.064C321.696 279.35 321.696 278.191 320.98 277.477C320.264 276.762 319.103 276.762 318.386 277.477C317.67 278.191 317.67 279.35 318.386 280.064C319.103 280.779 320.264 280.779 320.98 280.064Z" fill="#F8F9FC"/>
<path d="M270.514 264.067C270.514 264.067 271.841 261.721 269.449 259.433C267.057 257.144 259.801 253.181 257.351 254.304C254.901 255.426 249.87 252.233 246.866 253.532C243.865 254.881 247.46 255.49 249.486 256.37C251.459 257.201 254.379 257.534 254.045 260.448C253.711 263.362 250.56 271.942 255.636 274.98C260.66 278.021 269.7 270.054 270.514 264.067Z" fill="#FFEFD0"/>
<defs>
<linearGradient id="paint0_linear" x1="637.018" y1="322.534" x2="572.338" y2="523.648" gradientUnits="userSpaceOnUse">
<stop stop-color="#AFC0FF"/>
<stop offset="1" stop-color="white" stop-opacity="0"/>
</linearGradient>
<linearGradient id="paint1_linear" x1="51.4008" y1="511.187" x2="161.278" y2="393.255" gradientUnits="userSpaceOnUse">
<stop stop-color="#F78636"/>
<stop offset="1" stop-color="#FFC14F"/>
</linearGradient>
<linearGradient id="paint2_linear" x1="211.302" y1="161.37" x2="211.302" y2="217.128" gradientUnits="userSpaceOnUse">
<stop stop-color="#FFB800"/>
<stop offset="1" stop-color="#FFD381"/>
</linearGradient>
<linearGradient id="paint3_linear" x1="163.805" y1="159.901" x2="163.805" y2="338.794" gradientUnits="userSpaceOnUse">
<stop stop-color="#FFB800"/>
<stop offset="1" stop-color="#FFD381"/>
</linearGradient>
<linearGradient id="paint4_linear" x1="335.942" y1="200.808" x2="335.942" y2="287.086" gradientUnits="userSpaceOnUse">
<stop stop-color="#B1C3FF"/>
<stop offset="1" stop-color="#FCFCFC"/>
</linearGradient>
<linearGradient id="paint5_linear" x1="387.795" y1="160.812" x2="387.795" y2="251.871" gradientUnits="userSpaceOnUse">
<stop stop-color="#B1C3FF"/>
<stop offset="1" stop-color="white"/>
</linearGradient>
<linearGradient id="paint6_linear" x1="282.51" y1="162.083" x2="282.51" y2="236.06" gradientUnits="userSpaceOnUse">
<stop stop-color="#BACAFF"/>
<stop offset="1" stop-color="white"/>
</linearGradient>
<linearGradient id="paint7_linear" x1="355.647" y1="455.578" x2="355.647" y2="520.899" gradientUnits="userSpaceOnUse">
<stop stop-color="white"/>
<stop offset="1" stop-color="white" stop-opacity="0"/>
</linearGradient>
<linearGradient id="paint8_linear" x1="310.13" y1="454.885" x2="310.13" y2="520.28" gradientUnits="userSpaceOnUse">
<stop stop-color="white"/>
<stop offset="1" stop-color="white" stop-opacity="0"/>
</linearGradient>
<linearGradient id="paint9_linear" x1="474.451" y1="179.004" x2="474.451" y2="322.225" gradientUnits="userSpaceOnUse">
<stop stop-color="#B1C3FF"/>
<stop offset="1" stop-color="#FCFCFC"/>
</linearGradient>
<linearGradient id="paint10_linear" x1="530.973" y1="282.333" x2="515.541" y2="161.082" gradientUnits="userSpaceOnUse">
<stop stop-color="#F7F8FF"/>
<stop offset="1" stop-color="white" stop-opacity="0"/>
<stop offset="1" stop-color="#FCFCFC"/>
</linearGradient>
<linearGradient id="paint11_linear" x1="494.105" y1="454.076" x2="494.105" y2="530.467" gradientUnits="userSpaceOnUse">
<stop stop-color="white"/>
<stop offset="1" stop-color="white" stop-opacity="0"/>
</linearGradient>
<linearGradient id="paint12_linear" x1="454.805" y1="454.076" x2="454.805" y2="530.467" gradientUnits="userSpaceOnUse">
<stop stop-color="white"/>
<stop offset="1" stop-color="white" stop-opacity="0"/>
</linearGradient>
</defs>
</svg>
