<svg width="838" height="741" viewBox="0 0 838 741" fill="none" xmlns="http://www.w3.org/2000/svg">
<path d="M214.535 284.491C209.072 337.29 219.231 379.751 228.69 441C233.731 492.251 289.234 529.683 324.19 556.5C376.784 596.849 439.157 622 525.376 622C596.858 622 635.58 592.504 686.469 553.464C704.296 539.787 769.41 515.316 800.351 457.771C823.857 414.053 837.19 364.079 837.19 311C837.19 264.1 812.918 231.472 808.142 179.746C800.351 95.369 748.887 87.4744 704.296 56.2611C659.706 25.0477 591.949 0 525.376 0C424.571 0 376.781 49.0808 320.849 102.158C261.148 158.813 228.148 152.914 214.535 284.491Z" fill="#FCFCFC"/>
<path d="M529.609 502.574C507.609 500.174 479.776 535.24 468.609 553.074C463.109 576.074 509.109 587.073 534.609 584.073C560.109 581.073 639.109 502.574 612.109 487.574C590.509 475.574 543.443 526.24 522.609 553.074C534.109 537.24 551.609 504.974 529.609 502.574Z" fill="url(#paint0_linear)"/>
<path d="M477.657 502.266C465.257 499.866 418.491 531.266 396.657 547.266C396.657 600.266 438.157 547.266 463.157 539.266C488.157 531.265 493.157 505.266 477.657 502.266Z" fill="#FE774C"/>
<path d="M422.157 574.575C434.491 556.742 465.457 522.075 490.657 526.075C515.857 530.075 511.491 560.075 506.157 574.575C514.157 555.909 537.557 517.475 567.157 513.075C596.57 508.703 562.264 551.692 541.061 574.149C558.208 556.234 613.308 524.639 619.657 533.766C627.657 545.266 563.657 589.575 529.657 589.575C502.457 589.575 446.657 579.575 422.157 574.575Z" fill="#FEBA4B"/>
<path d="M476.083 607.046C408.944 611.355 337.917 569.046 310.583 545.046C327.417 542.546 365.183 538.246 381.583 541.046C397.983 543.846 395.967 557.48 400.083 565.546C408.583 561.38 427.983 552.546 437.583 550.546C447.183 548.546 441.583 567.713 437.583 577.546C447.417 569.38 469.683 552.546 480.083 550.546C490.483 548.546 479.083 570.38 472.083 581.546C483.083 572.546 508.683 554.246 523.083 553.046C537.483 551.846 517.083 568.88 505.083 577.546C513.083 575.046 558.083 553.046 581.083 559.546C604.083 566.046 569.583 601.046 476.083 607.046Z" fill="#FCFCFC"/>
<path fill-rule="evenodd" clip-rule="evenodd" d="M260.588 231.092C239.833 248.333 219.992 364.8 220.835 367.261L219.646 373.218L236.391 368.846C248.786 352.281 257.507 333.291 263.639 315.012C286.152 295.706 298.767 269.808 301.631 263.485C302.067 262.522 302.337 261.503 302.305 260.446C302.048 251.778 293.209 255.076 293.209 255.076C287.787 256.909 281.157 263.107 274.477 271.016C275.646 264.026 276.441 257.817 276.981 252.727C278.009 243.028 278.829 228.257 269.09 227.72C264.667 227.476 260.588 231.092 260.588 231.092Z" fill="url(#paint1_linear)"/>
<path d="M195.962 358.325C195.962 358.325 177.188 249.058 206.013 207.108C206.013 207.108 225.681 173.359 230.307 200.867C230.307 200.867 232.13 212.47 218.678 297.236C218.678 297.236 234.172 273.892 230.479 301.18C230.479 301.18 218.732 351.539 205.821 365.935C192.999 380.396 195.962 358.325 195.962 358.325Z" fill="#FE774C"/>
<path d="M212.561 410.009C212.561 410.009 200.899 333.849 224.478 309.942C247.96 285.983 253.168 333.316 253.168 333.316C253.168 333.316 274.508 267.584 300.972 270.459C327.435 273.335 291.038 365.664 285.513 375.939C285.513 375.939 321.617 342.115 300.823 389.47C300.823 389.47 348.905 350.732 359.84 372.633C359.84 372.633 377.748 378.983 316.654 430.656C255.56 482.33 224.979 443.936 224.979 443.936L212.561 410.009Z" fill="#FEBA4B"/>
<path d="M251.363 468.113C224.424 440.817 202.197 408.112 195.666 370.322C192.149 349.975 191.924 331.543 202.108 329.931C221.809 325.01 225.325 351.804 225.844 357.441C225.844 357.441 242.751 328.053 243.072 361.955C243.072 361.955 246.784 393.079 246.957 394.958C247.13 396.837 272.495 347.867 273.422 401.893C273.422 401.893 296.893 385.125 306.838 402.195C316.783 419.266 408.914 503.55 408.914 503.55C414.481 549.66 358.498 576.668 325.874 543.611L251.363 468.113Z" fill="white"/>
<circle cx="517.792" cy="306.793" r="183.5" transform="rotate(-2 517.792 306.793)" stroke="#FF8753" stroke-opacity="0.5" stroke-width="4" stroke-linecap="round" stroke-linejoin="round" stroke-dasharray="20 20"/>
<circle cx="341" cy="438" r="124" fill="#7D9AFF"/>
<mask id="mask0" mask-type="alpha" maskUnits="userSpaceOnUse" x="217" y="314" width="248" height="248">
<circle cx="341" cy="438" r="124" fill="#7D9AFF"/>
</mask>
<g mask="url(#mask0)">
<path d="M448 390.761V591.239C448 598.808 441.849 605 434.332 605H393.668C386.151 605 380 598.808 380 591.239V390.761C380 383.192 386.151 377 393.668 377H434.332C441.849 377 448 383.192 448 390.761Z" fill="#95ACFF"/>
<path d="M372 390.761V591.239C372 598.808 365.849 605 358.332 605H317.668C310.151 605 304 598.808 304 591.239V390.761C304 383.192 310.151 377 317.668 377H358.332C365.849 377 372 383.192 372 390.761Z" fill="#95ACFF"/>
<path d="M260 390.761V591.239C260 598.808 253.849 605 246.332 605H205.668C198.151 605 192 598.808 192 591.239V390.761C192 383.192 198.151 377 205.668 377H246.332C253.849 377 260 383.192 260 390.761Z" fill="#95ACFF"/>
<path d="M388.808 351.904C397.609 351.904 404.744 344.757 404.744 335.941C404.744 327.124 397.609 319.978 388.808 319.978C380.006 319.978 372.871 327.124 372.871 335.941C372.871 344.757 380.006 351.904 388.808 351.904Z" fill="white"/>
<path d="M428.478 331.306C428.478 332.594 427.964 333.709 427.107 334.568C426.507 335.168 425.736 335.598 424.794 335.855C424.451 335.941 424.108 335.941 423.765 335.941H353.593C353.251 335.941 352.908 335.941 352.565 335.855C350.509 335.426 348.967 333.538 348.967 331.306C348.967 330.019 349.481 328.903 350.337 328.045C351.194 327.187 352.308 326.672 353.593 326.672H423.765C426.422 326.672 428.478 328.732 428.478 331.306Z" fill="#91A7F7"/>
<path d="M424.879 335.855C424.537 335.941 424.194 335.941 423.851 335.941H353.679C353.336 335.941 352.994 335.941 352.651 335.855C352.994 332.68 353.85 329.504 354.964 326.672C356.678 322.295 359.248 318.347 362.504 315H415.026C418.196 318.347 420.852 322.295 422.566 326.672C423.68 329.59 424.537 332.68 424.879 335.855Z" fill="#95ACFF"/>
</g>
<path d="M652 166C652 118.504 690.504 80 738 80C785.496 80 824 118.504 824 166C824 198.632 805.825 227.019 779.046 241.591L700.932 243.624C671.991 229.778 652 200.224 652 166Z" fill="#7D9AFE"/>
<path fill-rule="evenodd" clip-rule="evenodd" d="M263.784 535.03C272.443 517.343 287.305 500.542 311.752 491.058L343.266 478C359.652 487.741 385.541 512.752 404.957 544.255C386.283 555.519 364.398 562 341 562C311.806 562 284.969 551.911 263.784 535.03Z" fill="#5071E1"/>
<path d="M349.706 404.53C343.895 401.156 341.823 387.786 341.325 377.493C341.194 374.788 337.589 373.117 335.303 374.569C328.355 378.982 316.972 383.812 302.677 383.812C278.007 383.812 278.778 443.663 292.655 459.01C306.532 474.356 298.823 478.96 304.219 496.609C308.267 509.847 334.771 520.071 349.924 524.247C351.508 524.684 353.13 523.718 353.308 522.086C354.934 507.162 345.117 476.999 338.986 461.16C338.492 459.885 338.919 458.443 340.011 457.622C353.253 447.667 358.22 441.16 358.957 436.757C359.728 432.153 349.706 420.644 352.019 416.807C354.332 412.97 358.958 409.901 349.706 404.53Z" fill="#FFEFD0"/>
<path d="M282.717 368.438C239.819 386.729 270.157 437.217 291.245 460.874C291.657 461.336 292.209 461.654 292.82 461.758C312.65 465.141 318.341 432.118 304.074 419.237C294.2 410.322 300.592 407.845 306.946 407.624C308.69 407.563 310.152 406.177 310.644 404.503C313.316 395.422 326.66 389.141 330.771 388.449C334.302 387.855 341.427 381.964 344.894 378.784C345.14 378.558 345.348 378.285 345.502 377.989C356.533 356.708 344.463 343.797 339.161 342.268C333.822 340.729 336.873 345.347 282.717 368.438Z" fill="#22283F"/>
<path d="M793.282 198.796C793.867 217.749 770.263 223.553 757 224C743.5 206.334 712.9 167.2 698.5 152C684.1 136.8 699.166 126.667 708.5 123.5C730.5 82.5001 764.5 113.5 763.5 123.5C762.7 131.5 766.166 133.834 768 134C790 133.5 801.5 156.5 792 171C787.981 177.135 787.327 181.955 788.071 185.431C789.073 190.109 793.134 194.014 793.282 198.796Z" fill="#22283F"/>
<path d="M722 185.5C738.8 171.1 769.019 219.383 779.685 241.216C762.668 241.216 743.939 245.297 726.931 242.672C715.333 240.882 702.603 245.978 696.792 243.748C695.307 236.572 705.5 221.505 705.5 205.001C705.5 194.501 715.784 191.256 722 185.5Z" fill="#FFC054"/>
<path d="M697 160C697 158.274 703.52 154.291 704.874 138.734C704.967 137.665 705.598 136.566 706.67 136.603C708.942 136.683 710.457 139.372 711 141C715.8 152.6 728.333 150.167 734 147.5C746.5 141.5 734.5 153 734 159C733.613 163.647 735.068 171.167 735.918 174.667C735.972 174.889 736.002 175.11 736.005 175.338C736.14 185.424 734.933 204.06 729 200.5C723.934 197.46 721.125 187.076 719.972 180.005C719.674 178.177 717.865 176.965 716.039 177.276C702.781 179.533 701.463 170.663 701 166.5C700.5 162 697 163.5 697 160Z" fill="#FFEFD0"/>
<circle cx="755" cy="352" r="7.5" stroke="#ECF0FF" stroke-width="5"/>
<circle cx="627" cy="73" r="7.5" stroke="#F9F0E1" stroke-width="5"/>
<circle cx="303" cy="159" r="7.5" stroke="#ECF0FF" stroke-width="5"/>
<path d="M613.906 95.5421C610.928 95.4884 608.555 93.1699 608.606 90.3635C608.657 87.5572 611.114 85.3257 614.093 85.3794C617.071 85.433 619.444 87.7516 619.393 90.5579C619.341 93.3643 616.885 95.5958 613.906 95.5421Z" stroke="#FCFCFC" stroke-width="3" stroke-miterlimit="10"/>
<path d="M593.499 95.7208C590.52 95.6671 588.147 93.3486 588.199 90.5422C588.25 87.7359 590.707 85.5044 593.685 85.5581C596.664 85.6118 599.037 87.9303 598.986 90.7366C598.934 93.543 596.478 95.7745 593.499 95.7208Z" stroke="#FCFCFC" stroke-width="3" stroke-miterlimit="10"/>
<path d="M573.361 95.1866C570.382 95.1329 568.009 92.8144 568.061 90.0081C568.112 87.2017 570.568 84.9702 573.547 85.0239C576.526 85.0776 578.899 87.3961 578.847 90.2025C578.796 93.0088 576.34 95.2403 573.361 95.1866Z" stroke="#FCFCFC" stroke-width="3" stroke-miterlimit="10"/>
<path d="M660.824 105.808L669.095 107.592C669.635 107.681 670.174 107.324 670.264 106.789C670.354 106.254 669.994 105.719 669.455 105.63L661.183 103.847C660.644 103.757 660.105 104.114 660.015 104.649C659.925 105.184 660.284 105.719 660.824 105.808Z" fill="#FCFCFC"/>
<path d="M660.105 96.8025H668.556C669.095 96.8025 669.545 96.3566 669.545 95.8216C669.545 95.2867 669.095 94.8408 668.556 94.8408H660.105C659.565 94.8408 659.116 95.2867 659.116 95.8216C659.116 96.3566 659.565 96.8025 660.105 96.8025Z" fill="#FCFCFC"/>
<path d="M654.8 112.228L661.903 116.775C662.352 117.043 662.982 116.954 663.251 116.508C663.521 116.062 663.431 115.438 662.982 115.17L655.879 110.623C655.429 110.356 654.8 110.445 654.53 110.891C654.171 111.247 654.351 111.871 654.8 112.228Z" fill="#FCFCFC"/>
<path d="M609.569 243.174C609.052 241.879 609.985 240.465 611.379 240.431L711.452 238.049C712.575 238.022 713.5 238.925 713.5 240.048V244C713.5 245.105 712.605 246 711.5 246H661L611.84 245.513C611.029 245.505 610.304 245.009 610.002 244.256L609.569 243.174Z" fill="#22283F"/>
<path d="M783.785 242.065L710.5 246L706 239.5H783.716C784.425 239.5 785 240.075 785 240.784C785 241.466 784.466 242.029 783.785 242.065Z" fill="#22283F"/>
<path d="M672.888 185H595.576C588.048 185 583.219 193.004 586.729 199.663L608.203 240.399C608.722 241.384 609.743 242 610.856 242H710.027C712.286 242 713.734 239.599 712.681 237.601L690.58 195.674C687.119 189.109 680.309 185 672.888 185Z" fill="#6688FF"/>
<ellipse cx="644" cy="215.5" rx="6" ry="7.5" transform="rotate(-53.476 644 215.5)" fill="#E0E7FF"/>
<g filter="url(#filter0_d)">
<circle cx="670.5" cy="421.5" r="30.5" fill="#93ABFF"/>
</g>
<path d="M690 413.895V430.105C690 431.697 688.659 433 687.02 433H654.98C653.341 433 652 431.697 652 430.105V413.895C652 413.489 652.089 413.113 652.238 412.795C652.685 411.724 653.729 411 654.98 411H687.02C688.659 411 690 412.303 690 413.895Z" fill="url(#paint2_linear)"/>
<path d="M686.99 411H670.985H654.98C653.729 411 652.685 411.724 652.238 412.795L667.528 420.292C669.704 421.363 672.296 421.363 674.472 420.292L689.762 412.795C689.314 411.724 688.242 411 686.99 411Z" fill="#5071E1"/>
<g filter="url(#filter1_d)">
<path d="M462.995 292H398.005C386.957 292 378 300.994 378 312.087V330.775C378 339.968 385.365 347.364 394.521 347.364H394.919V356.558C394.919 359.656 398.602 361.155 400.791 358.956L412.336 347.464H462.995C474.043 347.464 483 338.469 483 327.377V312.187C483 301.094 474.043 292 462.995 292Z" fill="url(#paint3_linear)"/>
</g>
<ellipse cx="407.5" cy="320" rx="5.5" ry="5" fill="white"/>
<ellipse cx="431.5" cy="320" rx="5.5" ry="5" fill="white"/>
<ellipse cx="455.5" cy="320" rx="5.5" ry="5" fill="white"/>
<g filter="url(#filter2_d)">
<path d="M571.862 66H633.138C643.554 66 652 74.9941 652 86.0868V104.775C652 113.968 645.056 121.364 636.423 121.364H636.047V130.558C636.047 133.656 632.575 135.155 630.511 132.956L619.626 121.464H571.862C561.445 121.464 553 112.469 553 101.377V86.1867C553 75.094 561.445 66 571.862 66Z" fill="#5278FF"/>
</g>
<circle r="5" transform="matrix(-1 0 0 1 624 94)" fill="white"/>
<ellipse rx="5.5" ry="5" transform="matrix(-1 0 0 1 601.5 94)" fill="white"/>
<circle r="5" transform="matrix(-1 0 0 1 579 94)" fill="white"/>
<circle cx="725" cy="495" r="5.5" stroke="#ECF0FF" stroke-width="3"/>
<circle cx="788" cy="317" r="16" stroke="#ECF0FF" stroke-width="6"/>
<defs>
<filter id="filter0_d" x="610" y="361" width="121" height="121" filterUnits="userSpaceOnUse" color-interpolation-filters="sRGB">
<feFlood flood-opacity="0" result="BackgroundImageFix"/>
<feColorMatrix in="SourceAlpha" type="matrix" values="0 0 0 0 0 0 0 0 0 0 0 0 0 0 0 0 0 0 127 0"/>
<feOffset/>
<feGaussianBlur stdDeviation="15"/>
<feColorMatrix type="matrix" values="0 0 0 0 0.23934 0 0 0 0 0.393852 0 0 0 0 0.941667 0 0 0 0.3 0"/>
<feBlend mode="normal" in2="BackgroundImageFix" result="effect1_dropShadow"/>
<feBlend mode="normal" in="SourceGraphic" in2="effect1_dropShadow" result="shape"/>
</filter>
<filter id="filter1_d" x="348" y="262" width="165" height="128" filterUnits="userSpaceOnUse" color-interpolation-filters="sRGB">
<feFlood flood-opacity="0" result="BackgroundImageFix"/>
<feColorMatrix in="SourceAlpha" type="matrix" values="0 0 0 0 0 0 0 0 0 0 0 0 0 0 0 0 0 0 127 0"/>
<feOffset/>
<feGaussianBlur stdDeviation="15"/>
<feColorMatrix type="matrix" values="0 0 0 0 0 0 0 0 0 0 0 0 0 0 0 0 0 0 0.15 0"/>
<feBlend mode="normal" in2="BackgroundImageFix" result="effect1_dropShadow"/>
<feBlend mode="normal" in="SourceGraphic" in2="effect1_dropShadow" result="shape"/>
</filter>
<filter id="filter2_d" x="523" y="40" width="159" height="128" filterUnits="userSpaceOnUse" color-interpolation-filters="sRGB">
<feFlood flood-opacity="0" result="BackgroundImageFix"/>
<feColorMatrix in="SourceAlpha" type="matrix" values="0 0 0 0 0 0 0 0 0 0 0 0 0 0 0 0 0 0 127 0"/>
<feOffset dy="4"/>
<feGaussianBlur stdDeviation="15"/>
<feColorMatrix type="matrix" values="0 0 0 0 1 0 0 0 0 1 0 0 0 0 1 0 0 0 1 0"/>
<feBlend mode="normal" in2="BackgroundImageFix" result="effect1_dropShadow"/>
<feBlend mode="normal" in="SourceGraphic" in2="effect1_dropShadow" result="shape"/>
</filter>
<linearGradient id="paint0_linear" x1="542.907" y1="485.766" x2="542.907" y2="584.558" gradientUnits="userSpaceOnUse">
<stop stop-color="#DDE4FE"/>
<stop offset="1" stop-color="white" stop-opacity="0"/>
</linearGradient>
<linearGradient id="paint1_linear" x1="305.661" y1="149.1" x2="214.256" y2="384.551" gradientUnits="userSpaceOnUse">
<stop stop-color="#AFC0FF"/>
<stop offset="1" stop-color="white" stop-opacity="0"/>
</linearGradient>
<linearGradient id="paint2_linear" x1="671" y1="411" x2="697.626" y2="419.606" gradientUnits="userSpaceOnUse">
<stop offset="0.0001" stop-color="#DDE8FC"/>
<stop offset="1" stop-color="#FFFCF2"/>
</linearGradient>
<linearGradient id="paint3_linear" x1="430.5" y1="292" x2="518.221" y2="292" gradientUnits="userSpaceOnUse">
<stop stop-color="#FFA15C"/>
<stop offset="1" stop-color="#FFE145" stop-opacity="0.8"/>
</linearGradient>
</defs>
</svg>
