<svg width="709" height="637" viewBox="0 0 709 637" fill="none" xmlns="http://www.w3.org/2000/svg">
<path d="M26.8575 284.491C21.3947 337.29 16.9644 404.031 40.471 447.749C61.4561 486.778 113.775 526.646 148.731 553.464C201.325 593.813 251.48 622 337.699 622C409.181 622 447.903 592.504 498.792 553.464C516.619 539.787 581.733 515.316 612.674 457.771C636.18 414.053 649.513 364.079 649.513 311C649.513 264.1 625.241 231.472 620.465 179.746C612.674 95.369 549.103 68.7134 504.513 37.5C459.922 6.28665 404.272 0 337.699 0C236.894 0 198.944 11.9228 143.013 65C83.3113 121.655 40.471 152.914 26.8575 284.491Z" fill="#FCFCFC"/>
<path d="M222.567 556.043C279.64 548.366 390.649 528.605 402.72 531.577C549.347 517.117 667.164 429.997 600.607 326.52C572.657 283.066 494.542 239.51 433.989 208.774C330.73 156.359 285.503 122.556 168.418 139.609C51.334 156.663 69.4155 203.291 98.7193 314.289C114.204 372.943 63.5543 409.41 76.7988 471.736C95.8523 561.396 151.225 565.639 222.567 556.043Z" fill="#EEF2FF"/>
<path d="M524.205 430.388C502.743 435.788 488.841 478.345 484.573 498.948C487.414 522.426 534.368 516.743 557.233 505.062C580.099 493.382 626.871 392.31 596.34 387.636C571.915 383.896 545.405 447.767 535.203 480.17C540.479 461.326 545.667 424.988 524.205 430.388Z" fill="url(#paint0_linear)"/>
<path d="M475.388 448.165C462.927 450.227 429.998 495.93 415.091 518.524C433.521 568.216 454.001 504.092 474.659 487.898C495.317 471.704 490.964 445.588 475.388 448.165Z" fill="#FE774C"/>
<path d="M448.497 535.262C453.859 514.253 470.838 470.981 495.856 465.969C520.875 460.956 527.213 490.602 527.254 506.052C528.264 485.768 536.839 441.596 563.061 427.178C589.118 412.851 571.902 465.086 559.831 493.514C569.679 470.755 610.353 421.971 619.48 428.321C630.98 436.321 586.382 500.121 554.504 511.944C529.001 521.402 473.206 531.43 448.497 535.262Z" fill="#FEBA4B"/>
<path d="M510.348 546.954C448.897 574.341 367.59 559.372 333.617 546.374C348.53 538.177 382.445 521.012 398.795 517.935C415.145 514.857 417.995 528.341 424.66 534.473C431.181 527.61 446.298 512.582 454.604 507.368C462.909 502.155 464.323 522.073 463.992 532.683C470.372 521.607 485.396 498.081 494.451 492.59C503.507 487.098 500.41 511.533 497.73 524.437C504.914 512.173 522.553 486.113 535.637 479.981C548.721 473.848 535.517 496.912 527.28 509.211C533.911 504.085 568.453 467.81 592.278 465.906C616.102 464.003 595.926 508.815 510.348 546.954Z" fill="#FCFCFC"/>
<path fill-rule="evenodd" clip-rule="evenodd" d="M91.9824 381.415C84.0576 403.37 120.299 498.934 122.006 500.4L123.73 505.364L134.303 494.765C136.289 476.978 134.471 458.993 131.035 442.672C139.266 418.699 137.472 394.162 136.815 387.814C136.707 386.762 136.43 385.735 135.85 384.851C131.875 378.793 126.825 385.007 126.825 385.007C123.584 388.751 121.355 396.28 119.839 405.107C117.966 400.215 116.14 395.867 114.508 392.189C110.551 383.274 102.44 369.746 95.2288 376.314C92.9731 378.368 91.9824 381.415 91.9824 381.415Z" fill="url(#paint1_linear)"/>
<path d="M99.539 504.636C99.539 504.636 37.6516 431.365 40.7674 387.443C40.7674 387.443 40.6475 353.652 56.152 372.142C56.152 372.142 62.597 379.998 89.7105 449.117C89.7105 449.117 91.0373 424.915 100.241 446.887C100.241 446.887 113.549 489.596 110.227 505.992C107.001 522.396 99.539 504.636 99.539 504.636Z" fill="#FE774C"/>
<path d="M134.569 535.911C134.569 535.911 92.4942 484.216 99.6045 456.052C106.619 427.891 131.247 460.913 131.247 460.913C131.247 460.913 118.357 402.533 139.355 393.081C160.354 383.628 173.668 468.444 174.05 478.529C174.05 478.529 186.156 437.479 191.399 481.912C191.399 481.912 210.286 431.948 228.039 443.491C228.039 443.491 244.179 440.379 221.256 505.694C198.333 571.009 158.698 555.774 158.698 555.774L134.569 535.911Z" fill="#FEBA4B"/>
<path d="M160.123 559.909C122.875 536.171 75.8068 493.816 91.6802 480.765C104.218 468.46 118.582 486.905 121.439 490.881C121.439 490.881 121.171 461.553 136.268 486.699C136.268 486.699 152.676 508.287 153.628 509.612C154.581 510.938 152.04 463.296 176.407 503.187C176.407 503.187 186.564 480.394 201.463 488.768C216.362 497.142 318.092 480.877 318.092 480.877C331.165 512.742 317.931 549.526 285.171 560.159C246.041 572.858 194.778 581.994 160.123 559.909Z" fill="white"/>
<path d="M453.338 122.901V529.748C453.338 546.564 439.661 560.214 422.811 560.214H222.204C205.355 560.214 191.677 546.564 191.677 529.748V122.901C191.677 106.085 205.355 92.4341 222.204 92.4341H422.712C439.661 92.3352 453.338 105.986 453.338 122.901Z" fill="#6688FF"/>
<path d="M403.512 393.999C387.982 363.561 340.637 325.953 308.512 333.499C234.012 350.999 222.512 393.999 214.512 436.499C206.512 478.999 209.511 546.499 214.511 554.999C219.511 563.499 401.512 562.999 412.512 554.999C423.512 546.999 428.512 442.999 403.512 393.999Z" fill="#526BC5"/>
<path d="M298.062 387.354C295.305 377.61 311.799 367.901 320.391 364.264C333.62 366.992 336.832 381.67 337.542 385.145C338.11 387.925 347.729 404.431 352.468 412.337L338.468 420.947C337.14 419.834 333.998 416.792 332.053 413.526C330.108 410.26 325.189 406.161 322.972 404.52C306.033 404.999 301.509 399.535 298.062 387.354Z" fill="#FFD381"/>
<path d="M307.936 357C297.48 357 300.094 361.642 288.07 374.021C279.705 384.337 283.366 387.947 283.365 406H296.958C296.783 402.389 300.593 398.063 301.012 396C301.535 393.421 303.787 394.745 307.936 386C312.642 376.084 312.642 374.021 312.642 370.411C319.961 375.568 324.515 373.2 326.758 376.084C330.467 380.855 337.587 388.592 339.529 388.592C348.168 388.592 335.645 374.021 335.645 370.411C335.645 366.8 321.007 357 307.936 357Z" fill="#FCE7C7"/>
<path d="M295.785 403.952L279.418 398.766C278.592 398.504 277.697 398.796 277.192 399.501C266.421 414.535 238.787 452.165 217.77 482.018C176.993 539.937 194.514 546.603 220.625 554.166C258.795 565.222 286.542 456.031 297.145 406.229C297.359 405.224 296.765 404.263 295.785 403.952Z" fill="#6688FF"/>
<path d="M332.795 409.031L345.497 402.327C347.003 401.532 348.812 401.741 349.986 402.974C368.923 422.858 444.206 522.354 451.512 528.5C459.106 534.889 435.701 554.627 402.975 555.767C376.2 556.699 342.41 457.837 330.789 413.513C330.32 411.727 331.162 409.893 332.795 409.031Z" fill="#6688FF"/>
<path d="M422.515 547.85C376.922 547.85 331.329 547.85 285.737 547.85C265.22 547.85 244.704 547.85 224.187 547.85C213.086 547.85 203.373 541.421 203.175 529.353C203.076 526.781 203.175 524.11 203.175 521.538C203.175 478.41 203.175 435.183 203.175 392.055C203.175 332.21 203.175 272.267 203.175 212.422C203.175 182.153 202.481 151.785 203.175 121.615C203.373 111.328 211.401 103.415 221.61 103.217C222.898 103.217 224.187 103.217 225.475 103.217C233.603 103.217 241.829 103.217 249.957 103.217C278.799 103.217 307.641 103.217 336.384 103.217C361.361 103.217 386.239 103.217 411.216 103.217C416.37 103.217 422.614 102.524 427.669 103.909C436.985 106.58 441.049 115.087 441.049 123.989C441.049 161.578 441.049 199.167 441.049 236.755C441.049 297.392 441.049 358.028 441.049 418.565C441.049 454.967 441.247 491.27 441.049 527.671C440.95 538.651 433.913 547.554 422.515 547.85C414.883 548.048 414.883 559.918 422.515 559.72C439.661 559.226 452.744 545.872 452.844 528.858C452.844 525.198 452.844 521.538 452.844 517.878C452.844 499.183 452.844 480.488 452.844 461.891C452.844 401.947 452.844 341.904 452.844 281.96C452.844 233.491 452.844 185.021 452.844 136.552C452.844 132.101 452.844 127.748 452.844 123.297C452.744 110.734 446.599 99.1611 434.706 93.9185C427.867 90.951 420.731 91.3466 413.495 91.3466C402.989 91.3466 392.483 91.3466 381.977 91.3466C329.545 91.3466 277.213 91.3466 224.782 91.3466C212.095 91.3466 200.102 96.2925 194.354 108.262C191.479 114.098 191.182 120.033 191.182 126.264C191.182 141.498 191.182 156.731 191.182 172.063C191.182 229.93 191.182 287.895 191.182 345.762C191.182 398.386 191.182 451.01 191.182 503.535C191.182 512.933 190.488 522.725 191.38 532.122C192.966 548.543 206.941 559.622 222.998 559.622C230.134 559.622 237.27 559.622 244.406 559.622C299.514 559.622 354.621 559.622 409.729 559.622C413.991 559.622 418.253 559.622 422.614 559.622C430.146 559.72 430.146 547.85 422.515 547.85Z" fill="#212841"/>
<path d="M322.013 97.2817L250.65 96.7871L255.903 112.515C258.084 119.044 264.229 123.495 271.167 123.495H322.013H372.858C379.796 123.495 385.941 119.044 388.122 112.515L393.375 96.7871L322.013 97.2817Z" fill="#212841"/>
<path d="M450.365 122.901C450.365 154.357 450.365 185.714 450.365 217.169C450.365 278.103 450.365 338.937 450.365 399.87C450.365 441.415 450.365 483.059 450.365 524.605C450.365 529.65 450.465 534.496 448.68 539.343C443.923 552.104 431.93 557.247 419.244 557.247C397.438 557.247 375.534 557.247 353.729 557.247C323.499 557.247 293.17 557.247 262.94 557.247C252.533 557.247 242.126 557.247 231.719 557.247C224.682 557.247 217.546 557.841 210.905 554.873C199.904 549.928 194.651 539.343 194.551 527.77C194.551 523.22 194.551 518.571 194.551 514.021C194.551 494.336 194.551 474.75 194.551 455.066C194.551 395.221 194.551 335.277 194.551 275.432C194.551 228.743 194.551 182.054 194.551 135.464C194.551 131.606 194.551 127.649 194.551 123.791C194.651 108.261 206.346 95.6989 222.105 95.4021C237.864 95.1054 253.723 95.4021 269.482 95.4021C320.03 95.4021 370.578 95.2043 421.028 95.4021C436.985 95.4021 449.969 106.58 450.365 122.901C450.465 126.759 456.411 126.759 456.312 122.901C455.916 104.206 441.148 89.7639 422.514 89.3682C416.667 89.2693 410.819 89.3682 404.872 89.3682C376.723 89.3682 348.674 89.3682 320.526 89.3682C292.774 89.3682 265.022 89.3682 237.27 89.3682C232.314 89.3682 227.259 89.2693 222.303 89.3682C203.769 89.7639 189.1 104.305 188.704 122.901C188.109 156.533 188.704 190.264 188.704 223.995C188.704 286.609 188.704 349.224 188.704 411.74C188.704 450.516 188.605 489.192 188.704 527.968C188.704 539.343 193.065 549.928 202.481 556.753C210.311 562.49 219.132 563.182 228.449 563.182C252.632 563.182 276.717 563.182 300.901 563.182C331.329 563.182 361.757 563.182 392.185 563.182C401.007 563.182 409.828 563.182 418.649 563.182C429.651 563.182 440.157 560.611 447.788 552.005C457.997 540.53 456.312 525.99 456.312 511.943C456.312 490.874 456.312 469.804 456.312 448.735C456.312 387.011 456.312 325.286 456.312 263.562C456.312 219.049 456.312 174.437 456.312 129.924C456.312 127.55 456.312 125.275 456.312 122.901C456.312 119.043 450.365 119.043 450.365 122.901Z" fill="#526BC5"/>
<path d="M360.668 114.592C363.952 114.592 366.614 111.935 366.614 108.657C366.614 105.379 363.952 102.722 360.668 102.722C357.383 102.722 354.721 105.379 354.721 108.657C354.721 111.935 357.383 114.592 360.668 114.592Z" fill="white"/>
<path d="M286.154 110.635H339.853C341.538 110.635 342.826 109.349 342.826 107.668C342.826 105.986 341.538 104.7 339.853 104.7H286.154C284.469 104.7 283.181 105.986 283.181 107.668C283.181 109.349 284.469 110.635 286.154 110.635Z" fill="white"/>
<path d="M127.11 224.119C128.102 226.097 129.093 228.076 130.084 230.054C130.48 230.944 131.769 230.153 131.372 229.263C130.381 227.284 129.39 225.306 128.399 223.328C127.903 222.536 126.615 223.328 127.11 224.119Z" fill="#FF7448"/>
<path d="M288.314 512.539H243.712C232.215 512.539 222.898 503.241 222.898 491.767C222.898 480.292 232.215 470.994 243.712 470.994H288.314C299.811 470.994 309.128 480.292 309.128 491.767C309.128 503.241 299.811 512.539 288.314 512.539Z" fill="#FF7448"/>
<path d="M403.287 512.54H358.686C347.189 512.54 337.872 503.242 337.872 491.768C337.872 480.293 347.189 470.995 358.686 470.995H403.287C414.785 470.995 424.101 480.293 424.101 491.768C424.101 503.242 414.785 512.54 403.287 512.54Z" fill="#23BF79"/>
<path d="M253.426 497.01L258.977 497.109C260.067 497.109 260.959 496.219 260.959 495.032V492.262C261.058 492.262 261.256 492.164 261.355 492.164C262.743 491.768 264.626 491.273 267.104 491.273C269.681 491.273 271.465 491.867 272.853 492.262C272.952 492.262 273.15 492.361 273.249 492.361V494.241V495.131C273.249 496.219 274.141 497.208 275.231 497.208L280.782 497.307C281.872 497.307 282.764 496.417 282.764 495.23V493.647C282.665 493.054 282.566 492.46 282.268 491.867C282.07 491.273 281.773 490.878 281.376 490.383C278.799 486.921 274.637 485.536 267.104 485.437C256.796 485.338 252.931 489.79 252.732 489.987C252.336 490.383 252.138 490.878 251.84 491.372C251.543 491.966 251.444 492.559 251.345 493.153V494.735C251.444 496.021 252.336 497.01 253.426 497.01Z" fill="white"/>
<path d="M396.944 498.395L392.285 494.636C391.393 493.943 390.006 494.042 389.213 495.031L387.33 497.307C387.231 497.208 387.032 497.208 386.933 497.109C385.546 496.515 383.563 495.724 381.482 493.943C379.4 492.262 378.211 490.481 377.319 489.294C377.22 489.195 377.121 488.997 377.022 488.899L378.31 487.316L378.905 486.525C379.698 485.535 379.599 484.151 378.608 483.458L373.949 479.699C373.057 478.908 371.67 479.106 370.877 480.095L369.786 481.381C369.489 481.875 369.192 482.568 368.993 483.161C368.795 483.755 368.795 484.348 368.696 484.942C368.597 489.591 371.174 493.548 377.418 498.592C386.041 505.616 392.285 504.33 392.583 504.33C393.177 504.231 393.772 504.033 394.268 503.736C394.862 503.439 395.457 503.044 395.853 502.549L396.944 501.263C397.935 500.472 397.836 499.087 396.944 498.395Z" fill="white"/>
<path d="M374.941 423.713H269.087C266.014 423.713 263.536 421.24 263.536 418.173C263.536 415.107 266.014 412.634 269.087 412.634H375.04C378.112 412.634 380.59 415.107 380.59 418.173C380.491 421.24 378.013 423.713 374.941 423.713Z" fill="white"/>
<path d="M352.739 440.331H291.288C289.603 440.331 288.314 439.045 288.314 437.363C288.314 435.681 289.603 434.396 291.288 434.396H352.739C354.424 434.396 355.712 435.681 355.712 437.363C355.712 439.045 354.424 440.331 352.739 440.331Z" fill="white"/>
<path d="M127.352 230.624C127.352 230.624 128.045 226.074 131.019 227.855C133.992 229.734 131.019 233.394 130.325 233.394C129.631 233.394 127.352 233.295 127.352 230.624Z" fill="#FFDA94"/>
<path d="M132.308 230.327C132.308 230.327 134.885 238.438 137.363 245.956C140.534 255.748 138.651 259.804 116.648 249.319L115.558 236.262C115.558 236.262 128.343 245.263 132.407 248.132C132.407 248.132 127.451 233.294 127.451 231.316C127.352 228.348 132.308 230.327 132.308 230.327Z" fill="#6688FF"/>
<path d="M107.529 286.099H118.432C118.432 286.099 119.423 339.514 123.388 356.33H120.414C120.414 356.33 96.6269 309.839 107.529 286.099Z" fill="#526BC5"/>
<path d="M92.6621 294.622C92.6621 294.622 95.6355 313.416 98.609 328.254C101.582 343.092 101.582 355.951 101.582 355.951H106.538C106.538 355.951 108.52 316.384 106.538 287.698C104.556 259.012 92.6621 294.622 92.6621 294.622Z" fill="#6688FF"/>
<path d="M114.666 236.262C114.666 236.262 119.423 236.262 119.423 246.154C119.423 256.046 118.432 286.512 118.432 286.512L103.565 285.721C103.565 285.721 87.2112 228.349 114.666 236.262Z" fill="#6688FF"/>
<path d="M111.593 229.832C111.593 229.832 117.441 228.942 117.044 225.975C116.549 223.007 114.864 212.324 113.774 211.434C112.683 210.642 99.6002 210.642 102.177 220.336C104.754 229.931 105.052 225.876 105.844 230.822C106.637 235.668 107.133 238.636 107.133 238.636C107.133 238.636 118.63 241.801 117.044 238.042C115.459 234.284 113.575 235.471 111.593 229.832Z" fill="#FFDA94"/>
<path d="M104.06 226.468C104.06 226.468 95.3381 222.413 96.5275 217.17C97.7168 211.928 110.007 206.982 111.593 204.806C113.179 202.629 118.432 209.751 112.881 212.62C107.331 215.489 109.71 218.159 108.917 219.247C108.124 220.336 106.142 220.731 106.142 220.731C106.142 220.731 103.862 219.05 103.069 220.237C102.276 221.226 105.547 222.71 104.06 226.468Z" fill="#212841"/>
<path d="M105.547 230.326C105.547 230.326 78.5877 241.9 82.5523 293.435C82.6514 294.721 83.6426 295.711 84.8319 295.908L108.421 299.173C110.007 299.371 111.395 298.184 111.494 296.601C111.791 285.027 112.584 243.482 110.205 238.734C107.529 233.294 107.529 233.294 105.547 230.326Z" fill="#FFC14F"/>
<path d="M137.561 206.586L130.028 214.401C129.434 215.093 129.236 215.984 129.632 216.775L130.524 218.654L131.317 220.336L132.209 222.215C132.605 223.007 133.398 223.501 134.39 223.402L145.193 222.512C146.68 222.413 147.572 220.831 146.977 219.446L144.4 214.104L143.607 212.423L141.03 207.081C140.436 205.795 138.552 205.498 137.561 206.586Z" fill="#FF7448"/>
<path d="M127.649 217.566L130.424 223.303C130.92 224.392 129.928 225.776 128.541 225.776C126.261 225.875 124.18 224.985 123.387 223.106C122.495 221.226 123.09 219.05 124.576 217.368C125.468 216.478 127.153 216.478 127.649 217.566Z" fill="#FF7448"/>
<path d="M127.352 230.326C127.352 230.326 128.343 227.358 129.334 226.369C130.325 225.38 131.316 227.358 130.325 228.348C129.334 229.337 127.352 230.128 127.352 230.326Z" fill="#FFDA94"/>
<path d="M100.592 360.897C100.592 360.897 98.6097 357.435 100.592 355.16C102.574 352.885 105.548 355.952 106.539 354.864C107.53 353.775 111.495 357.831 114.468 357.831C117.441 357.831 116.45 360.799 116.45 360.799H100.592V360.897Z" fill="#212841"/>
<path d="M117.442 360.897C117.442 360.897 115.459 357.435 117.442 355.16C119.424 352.885 122.397 355.952 123.388 354.864C124.38 353.775 128.344 357.831 131.318 357.831C134.291 357.831 133.3 360.799 133.3 360.799H117.442V360.897Z" fill="#212841"/>
<path d="M131.317 360.782C119.721 360.782 108.224 360.782 96.6273 360.782C96.0326 360.782 95.3388 361.277 95.2397 361.87C91.3742 384.226 87.4097 406.581 83.5442 429.035C77.3 464.547 71.1549 500.058 64.9107 535.569C63.424 543.779 62.0364 551.99 60.5497 560.299C60.3515 561.189 60.9462 562.178 61.9373 562.178C70.6594 562.178 79.4805 562.178 88.2026 562.178C91.3742 562.178 97.1229 563.761 98.3122 560.002C99.5016 556.045 99.8981 551.693 100.592 547.637C101.979 539.922 103.367 532.107 104.755 524.392C112.287 481.659 119.622 439.026 127.055 396.294C129.038 385.116 130.921 373.938 132.903 362.761C133.2 360.881 130.326 360.09 130.029 361.969C125.073 390.457 120.216 419.045 115.261 447.533C109.017 483.539 102.971 519.644 96.33 555.551C96.2308 556.243 95.1406 559.013 95.537 559.705C95.8344 560.299 96.9246 559.507 96.2308 559.112C95.4379 558.518 92.1672 559.112 91.176 559.112C81.4628 559.112 71.7496 559.112 62.1355 559.112C62.6311 559.705 63.1267 560.398 63.5231 560.991C67.3886 538.636 71.3532 516.28 75.2186 493.826C81.4628 458.315 87.6079 422.803 93.8521 387.292C95.3388 379.082 96.7264 370.872 98.2131 362.563C97.7176 362.958 97.222 363.255 96.8255 363.651C108.422 363.651 119.919 363.651 131.516 363.651C133.2 363.75 133.2 360.782 131.317 360.782Z" fill="#212841"/>
<path d="M96.6272 363.75C108.224 363.75 119.721 363.75 131.317 363.75C130.822 363.354 130.326 363.057 129.93 362.662C133.795 385.017 137.76 407.372 141.625 429.827C147.869 465.338 154.014 500.849 160.259 536.361C161.745 544.571 163.133 552.781 164.62 561.09C165.115 560.497 165.611 559.804 166.007 559.211C157.583 559.211 149.059 559.211 140.634 559.211C139.246 559.211 132.507 558.222 131.416 559.211C131.912 559.507 132.308 559.903 132.804 560.2C132.804 560.2 132.705 560.101 132.804 560.002C132.804 559.903 132.705 559.606 132.705 559.606C132.804 559.211 132.507 558.32 132.407 558.024C129.93 545.263 127.848 532.503 125.569 519.743C118.234 477.901 110.999 435.96 103.763 394.118C101.88 383.434 100.096 372.751 98.2131 362.068C97.9157 360.189 95.0414 360.98 95.3387 362.86C100.394 392.337 105.548 421.814 110.602 451.391C116.747 487.001 122.595 522.809 129.335 558.32C129.533 559.112 129.434 560.497 129.93 561.189C131.119 563.167 134.588 562.277 136.57 562.277C146.383 562.277 156.195 562.277 166.007 562.277C166.998 562.277 167.593 561.288 167.395 560.398C163.529 538.042 159.565 515.687 155.699 493.233C149.455 457.721 143.31 422.21 137.066 386.699C135.579 378.489 134.192 370.278 132.705 361.969C132.606 361.376 131.912 360.881 131.317 360.881C119.721 360.881 108.224 360.881 96.6272 360.881C94.7441 360.782 94.7441 363.75 96.6272 363.75Z" fill="#212841"/>
<path d="M99.9973 380.961C111.395 380.961 122.893 380.961 134.291 380.961C136.174 380.961 136.174 377.993 134.291 377.993C122.893 377.993 111.395 377.993 99.9973 377.993C98.1142 377.993 98.1142 380.961 99.9973 380.961Z" fill="#212841"/>
<path d="M102.969 397.778C114.367 397.778 125.864 397.778 137.263 397.778C139.146 397.778 139.146 394.811 137.263 394.811C125.864 394.811 114.367 394.811 102.969 394.811C101.086 394.811 101.086 397.778 102.969 397.778Z" fill="#212841"/>
<path d="M105.944 414.594C117.342 414.594 128.839 414.594 140.237 414.594C142.12 414.594 142.12 411.626 140.237 411.626C128.839 411.626 117.342 411.626 105.944 411.626C104.06 411.626 104.06 414.594 105.944 414.594Z" fill="#212841"/>
<path d="M108.916 431.409C120.314 431.409 131.812 431.409 143.21 431.409C145.093 431.409 145.093 428.441 143.21 428.441C131.812 428.441 120.314 428.441 108.916 428.441C107.033 428.441 107.033 431.409 108.916 431.409Z" fill="#212841"/>
<path d="M110.899 448.225C122.297 448.225 133.794 448.225 145.192 448.225C147.075 448.225 147.075 445.258 145.192 445.258C133.794 445.258 122.297 445.258 110.899 445.258C109.016 445.258 109.016 448.225 110.899 448.225Z" fill="#212841"/>
<path d="M113.872 465.042C125.27 465.042 136.768 465.042 148.166 465.042C150.049 465.042 150.049 462.074 148.166 462.074C136.768 462.074 125.27 462.074 113.872 462.074C111.989 462.074 111.989 465.042 113.872 465.042Z" fill="#212841"/>
<path d="M116.847 481.857C128.245 481.857 139.742 481.857 151.141 481.857C153.024 481.857 153.024 478.89 151.141 478.89C139.742 478.89 128.245 478.89 116.847 478.89C114.964 478.89 114.964 481.857 116.847 481.857Z" fill="#212841"/>
<path d="M119.82 498.673C131.218 498.673 142.715 498.673 154.113 498.673C155.996 498.673 155.996 495.705 154.113 495.705C142.715 495.705 131.218 495.705 119.82 495.705C117.936 495.705 117.936 498.673 119.82 498.673Z" fill="#212841"/>
<path d="M123.784 515.489C135.183 515.489 146.68 515.489 158.078 515.489C159.961 515.489 159.961 512.521 158.078 512.521C146.68 512.521 135.183 512.521 123.784 512.521C121.901 512.521 121.901 515.489 123.784 515.489Z" fill="#212841"/>
<path d="M125.766 532.305C137.164 532.305 148.661 532.305 160.059 532.305C161.943 532.305 161.943 529.338 160.059 529.338C148.661 529.338 137.164 529.338 125.766 529.338C123.883 529.338 123.883 532.305 125.766 532.305Z" fill="#212841"/>
<path d="M128.74 549.121C140.138 549.121 151.635 549.121 163.033 549.121C164.916 549.121 164.916 546.153 163.033 546.153C151.635 546.153 140.138 546.153 128.74 546.153C126.856 546.153 126.856 549.121 128.74 549.121Z" fill="#212841"/>
<g filter="url(#filter0_d)">
<path d="M668.927 474.082H501.424C495.973 474.082 491.513 469.631 491.513 464.19V392.97C491.513 387.529 495.973 383.078 501.424 383.078H668.927C674.379 383.078 678.839 387.529 678.839 392.97V464.19C678.839 469.73 674.379 474.082 668.927 474.082Z" fill="#FCFCFC"/>
</g>
<path d="M557.92 428.58C557.92 434.812 555.343 440.45 551.081 444.407C547.216 448.067 541.863 450.342 536.115 450.342C530.366 450.342 525.014 448.067 521.148 444.407C516.986 440.45 514.31 434.812 514.31 428.58C514.31 416.512 524.023 406.818 536.115 406.818C548.207 406.818 557.92 416.611 557.92 428.58Z" fill="#E8EDFA"/>
<path d="M536.115 432.933C540.932 432.933 544.837 429.036 544.837 424.228C544.837 419.421 540.932 415.523 536.115 415.523C531.298 415.523 527.393 419.421 527.393 424.228C527.393 429.036 531.298 432.933 536.115 432.933Z" fill="#A9BCFF"/>
<path d="M551.081 444.406C547.215 448.066 541.863 450.341 536.115 450.341C530.366 450.341 525.014 448.066 521.148 444.406C523.924 438.866 529.573 435.107 536.115 435.107C542.656 435.107 548.405 438.965 551.081 444.406Z" fill="#A9BCFF"/>
<path d="M654.357 413.94H576.552C575.065 413.94 573.876 412.753 573.876 411.269C573.876 409.786 575.065 408.599 576.552 408.599H654.357C655.844 408.599 657.033 409.786 657.033 411.269C657.033 412.654 655.844 413.94 654.357 413.94Z" fill="#A9BCFF"/>
<path d="M647.022 427.492H576.552C575.065 427.492 573.876 426.305 573.876 424.821C573.876 423.337 575.065 422.15 576.552 422.15H647.022C648.509 422.15 649.698 423.337 649.698 424.821C649.698 426.206 648.509 427.492 647.022 427.492Z" fill="#A9BCFF"/>
<path d="M653.464 442.824H576.452C574.966 442.824 573.776 441.637 573.776 440.153C573.776 438.669 574.966 437.482 576.452 437.482H653.464C654.951 437.482 656.14 438.669 656.14 440.153C656.24 441.637 655.05 442.824 653.464 442.824Z" fill="#A9BCFF"/>
<path d="M234.792 184.824H123.784C118.332 184.824 113.872 180.372 113.872 174.932V153.17C113.872 147.73 118.332 143.278 123.784 143.278H234.792C240.243 143.278 244.703 147.73 244.703 153.17V174.932C244.703 180.471 240.243 184.824 234.792 184.824Z" fill="#23BF79"/>
<path d="M180.774 166.03H129.235C127.847 166.03 126.757 164.942 126.757 163.557C126.757 162.172 127.847 161.084 129.235 161.084H180.774C182.162 161.084 183.252 162.172 183.252 163.557C183.252 164.942 182.162 166.03 180.774 166.03Z" fill="white"/>
<path d="M220.322 164.15C219.826 173.152 206.148 173.251 206.148 164.15C206.148 155.05 219.826 155.149 220.322 164.15C220.421 166.623 224.286 166.623 224.187 164.15C223.89 158.215 219.429 153.27 213.284 153.27C207.338 153.27 202.382 158.215 202.382 164.15C202.382 169.888 207.04 174.834 212.789 175.031C219.132 175.328 223.89 170.283 224.187 164.15C224.286 161.678 220.421 161.678 220.322 164.15Z" fill="white"/>
<path d="M219.132 170.876C220.718 172.458 222.402 174.14 223.988 175.723C225.772 177.503 228.448 174.734 226.763 172.953C225.178 171.37 223.493 169.689 221.907 168.106C220.123 166.424 217.348 169.095 219.132 170.876Z" fill="white"/>
<path d="M477.221 114.889H412.499C401.497 114.889 392.577 123.791 392.577 134.771V153.269C392.577 162.369 399.912 169.689 409.03 169.689H409.427V178.789C409.427 181.856 413.094 183.34 415.274 181.163L426.772 169.788H477.221C488.222 169.788 497.143 160.885 497.143 149.905V134.87C497.143 123.89 488.222 114.889 477.221 114.889Z" fill="#E5EBFF"/>
<path d="M445.108 146.542C447.845 146.542 450.064 144.328 450.064 141.596C450.064 138.865 447.845 136.65 445.108 136.65C442.371 136.65 440.152 138.865 440.152 141.596C440.152 144.328 442.371 146.542 445.108 146.542Z" fill="#A8B1D4"/>
<path d="M467.408 146.542C470.145 146.542 472.364 144.328 472.364 141.596C472.364 138.865 470.145 136.65 467.408 136.65C464.671 136.65 462.452 138.865 462.452 141.596C462.452 144.328 464.671 146.542 467.408 146.542Z" fill="#A8B1D4"/>
<path d="M422.806 146.542C425.543 146.542 427.762 144.328 427.762 141.596C427.762 138.865 425.543 136.65 422.806 136.65C420.069 136.65 417.851 138.865 417.851 141.596C417.851 144.328 420.069 146.542 422.806 146.542Z" fill="#A8B1D4"/>
<path d="M255.983 199.136C249.364 211.315 263.591 223.146 271.533 227.539C277.843 222.183 319.054 259.114 320.201 267.094C321.348 275.074 342.015 288.08 345.746 292.243C349.477 296.406 339.989 328.032 380.728 327.251C393.105 327.013 371.118 320.55 376.24 310.853C381.942 300.06 368.422 297.441 366.179 289.243C363.935 281.044 373.182 274.367 366.676 256.967C360.874 241.448 342.588 242.824 346.568 230.848C353.96 208.608 336.381 188.967 321.267 183.86C294.991 174.982 264.258 183.911 255.983 199.136Z" fill="#212841"/>
<path d="M294.04 341.5C290.84 338.3 290.373 329.5 290.54 325.5L323.54 314C326.207 319.5 329.94 332.7 323.54 341.5C315.54 352.5 298.04 345.5 294.04 341.5Z" fill="#FFD381"/>
<path d="M268.233 224.664C272.859 221.693 284.485 216.217 293.979 218.076" stroke="#FF7448" stroke-width="3" stroke-linecap="round"/>
<path d="M335.123 253.21C349.143 278.602 345.681 316.841 324.115 328.748C302.549 340.656 271.047 321.723 257.026 296.331C243.006 270.939 249.123 240.702 270.689 228.794C292.255 216.886 321.103 227.818 335.123 253.21Z" fill="#FCE7C7"/>
<path d="M277.451 226.438C269.565 233.988 272.248 243.414 277.345 254.46C284.432 274.811 326.216 275.817 339.72 272.121C345.896 270.431 352.736 262.857 332.582 234.677C312.429 206.498 287.31 217.001 277.451 226.438Z" fill="#313A5C"/>
<path d="M275.35 279.369C280.15 272.664 280.611 261.341 280.198 257.307C286.417 247.829 294.934 228.184 279.25 225.427C259.644 221.98 241.2 243.616 238.718 262.957C236.236 282.298 252.445 313.112 265.025 306.041C269.819 303.346 269.35 287.75 275.35 279.369Z" fill="#313A5C"/>
<defs>
<filter id="filter0_d" x="461.513" y="353.078" width="247.326" height="151.004" filterUnits="userSpaceOnUse" color-interpolation-filters="sRGB">
<feFlood flood-opacity="0" result="BackgroundImageFix"/>
<feColorMatrix in="SourceAlpha" type="matrix" values="0 0 0 0 0 0 0 0 0 0 0 0 0 0 0 0 0 0 127 0"/>
<feOffset/>
<feGaussianBlur stdDeviation="15"/>
<feColorMatrix type="matrix" values="0 0 0 0 0 0 0 0 0 0 0 0 0 0 0 0 0 0 0.15 0"/>
<feBlend mode="normal" in2="BackgroundImageFix" result="effect1_dropShadow"/>
<feBlend mode="normal" in="SourceGraphic" in2="effect1_dropShadow" result="shape"/>
</filter>
<linearGradient id="paint0_linear" x1="530.828" y1="410.005" x2="565.181" y2="502.632" gradientUnits="userSpaceOnUse">
<stop stop-color="#DDE4FE"/>
<stop offset="1" stop-color="white" stop-opacity="0"/>
</linearGradient>
<linearGradient id="paint1_linear" x1="89.6094" y1="300.927" x2="124.416" y2="516.199" gradientUnits="userSpaceOnUse">
<stop stop-color="#AFC0FF"/>
<stop offset="1" stop-color="white" stop-opacity="0"/>
</linearGradient>
</defs>
</svg>
