<svg width="685" height="622" viewBox="0 0 685 622" fill="none" xmlns="http://www.w3.org/2000/svg">
<path d="M685 289.316V324.684C685 328.158 682.141 331 678.647 331H610.353C606.859 331 604 328.158 604 324.684V289.316C604 288.432 604.191 287.611 604.508 286.916C605.461 284.579 607.685 283 610.353 283H678.647C682.141 283 685 285.842 685 289.316Z" fill="#1B9A5A"/>
<path d="M678.584 283H644.468H610.353C607.685 283 605.461 284.579 604.508 286.916L637.099 303.274C641.737 305.611 647.264 305.611 651.901 303.274L684.492 286.916C683.539 284.579 681.252 283 678.584 283Z" fill="#29B475"/>
<path d="M41.3448 284.491C35.882 337.29 31.4517 404.031 54.9583 447.749C75.9434 486.778 128.262 526.646 163.218 553.464C215.812 593.813 265.967 622 352.186 622C423.669 622 462.391 592.504 513.279 553.464C531.106 539.787 596.22 515.316 627.161 457.771C650.668 414.053 664 364.079 664 311C664 264.1 639.728 231.472 634.952 179.746C627.161 95.369 575.697 87.4744 531.106 56.2611C486.516 25.0477 418.76 0 352.186 0C251.382 0 203.591 49.0808 147.66 102.158C87.9583 158.813 54.9583 152.914 41.3448 284.491Z" fill="#FCFCFC"/>
<path d="M117.746 428.165C151.617 437.139 163.786 481.698 186.591 511.235C209.396 540.772 295.17 636.778 372.017 570.661C448.865 504.545 470.824 464.451 492.147 469.371C526.014 477.186 609.459 489.503 610.601 394.168C611.743 298.833 644.376 319.905 639.017 271.119C633.659 222.333 549.086 233.698 515.903 160.32C482.72 86.9429 382.518 9.45313 281.313 53.0389C180.108 96.6248 176.141 201.303 98.569 253.584C20.9967 305.865 -9.1824 394.502 117.746 428.165Z" fill="#E4F5ED"/>
<path d="M527.326 259.824C527.326 259.824 556.788 160.871 587.596 130.835C587.596 130.835 597.699 121.348 603.426 121.104C611.195 120.773 604.937 135.221 601.408 142.917C593.318 160.562 578.027 193.294 570.817 204.672C570.817 204.672 605.068 186.095 588.441 209.863C588.441 209.863 552.292 262.702 538.977 271.177C525.707 279.723 527.326 259.824 527.326 259.824Z" fill="url(#paint0_linear)"/>
<path d="M291.652 310.21C289.579 308.439 246.233 195.077 254.889 166.124C254.889 166.124 260.288 149.365 274.424 163.111C274.424 163.111 320.147 204.835 303.415 316.067L293.757 316.22L291.652 310.21Z" fill="url(#paint1_linear)"/>
<path d="M498.297 392.199C498.297 392.199 564.025 241.648 599.587 224.903C599.587 224.903 620.343 215.941 612.866 235.588C612.654 236.146 612.368 236.703 612.049 237.207L564.025 313.148C564.025 313.148 598.734 274.598 617.402 278.876C619.554 279.369 621.317 281.018 621.427 283.223C621.728 289.239 616.78 304.71 575.742 336.486C575.742 336.486 602.625 317.985 608.348 324.193C608.348 324.193 621.615 332.938 579.838 367.002L474 444.778L488.519 402.793L498.297 392.199Z" fill="url(#paint2_linear)"/>
<path d="M127.74 319.484C127.74 319.484 126.975 198.059 104.045 182.04C104.045 182.04 89.4041 170.611 92.4469 186.336L104.682 249.887C104.682 249.887 92.2666 216.835 79.0984 213.427C76.9617 212.874 74.6754 213.863 74.0243 215.972C72.584 220.637 73.1282 232.688 90.826 262.332C90.826 262.332 77.7939 243.05 72.3785 245.681C72.3785 245.681 61.2932 248.033 80.1616 281.526L130.183 360.719L131.474 329.064L127.74 319.484Z" fill="url(#paint3_linear)"/>
<path d="M651 314.5C636.333 312.334 581.5 298 581.5 346C581.5 368.727 593 413.5 548.5 416.5" stroke="#31A53A" stroke-width="3" stroke-linecap="round" stroke-dasharray="10 20"/>
<path d="M172.934 450.93C172.925 436.104 179.059 379.761 131.579 386.803C109.098 390.137 66.4962 408.081 57.0002 364.503" stroke="#1B9A5A" stroke-width="3" stroke-linecap="round" stroke-dasharray="10 20"/>
<path d="M372.127 418.819L379.173 485.547H288.277L295.323 418.819H315.828C311.6 423.258 308.993 429.318 308.993 435.942C308.993 449.611 320.055 460.674 333.725 460.674C347.395 460.674 358.457 449.611 358.457 435.942C358.457 429.318 355.85 423.258 351.622 418.819H372.127Z" fill="#3652B7"/>
<path d="M532.499 450.035H134.951C123.607 450.035 114.376 440.804 114.376 429.46V210.604C114.376 199.26 123.607 190.029 134.951 190.029H532.499C543.843 190.029 553.074 199.26 553.074 210.604V429.53C553.003 440.804 543.843 450.035 532.499 450.035Z" fill="#4063DF"/>
<path d="M541.588 422.131H124.452C120.577 422.131 117.406 418.96 117.406 415.085V211.59C117.406 202.218 125.016 194.538 134.458 194.538H531.653C541.025 194.538 548.705 202.148 548.705 211.59V415.085C548.634 418.96 545.464 422.131 541.588 422.131Z" fill="#FCFCFC"/>
<path d="M333.725 443.833C338.2 443.833 341.828 440.205 341.828 435.73C341.828 431.255 338.2 427.627 333.725 427.627C329.249 427.627 325.622 431.255 325.622 435.73C325.622 440.205 329.249 443.833 333.725 443.833Z" fill="#3652B7"/>
<path d="M442.73 491.395H223.311C220.07 491.395 217.462 488.788 217.462 485.547C217.462 482.305 220.07 479.698 223.311 479.698H442.659C445.901 479.698 448.508 482.305 448.508 485.547C448.578 488.788 445.971 491.395 442.73 491.395Z" fill="#4063DF"/>
<path d="M426.478 222.778C426.478 222.778 389.619 233.662 386.938 254.404C384.204 275.168 392.034 280.847 412.912 286.632C442.65 294.873 439.733 303.499 457.972 316.093C495.282 341.968 541.569 336.22 527.175 270.01C515.301 215.271 542.855 232.44 530.179 211.153C517.481 189.815 490.407 191.345 466.986 201.08C443.565 210.814 426.478 222.778 426.478 222.778Z" fill="#E4F5ED"/>
<path d="M175.96 410.998C175.96 410.998 142.068 404.304 142.068 379.149C142.068 353.994 125.157 347.934 121.634 328.064C117.124 302.698 139.813 293.82 144.886 279.445C155.667 248.935 160.599 248.301 191.603 252.317C208.091 254.431 197.381 266.339 230.709 272.399C248.747 275.64 237.474 306.432 253.116 312.915C285.67 326.373 275.946 367.875 238.319 358.715C210.064 351.81 222.676 415.79 175.96 410.998Z" fill="#E4F5ED"/>
<path d="M346.364 398H283.636C280.536 398 278 395.453 278 392.34V313.66C278 310.547 280.536 308 283.636 308H346.364C349.464 308 352 310.547 352 313.66V392.34C352 395.509 349.464 398 346.364 398Z" fill="#E4F5ED"/>
<path d="M337.53 342.393C337.53 347.31 335.947 351.889 333.29 355.619C329.164 361.328 322.494 365.059 314.863 365.059C307.289 365.059 300.563 361.328 296.437 355.619C293.78 351.889 292.197 347.31 292.197 342.393C292.197 329.901 302.315 319.727 314.863 319.727C327.412 319.727 337.53 329.901 337.53 342.393Z" fill="white"/>
<path d="M314.92 345.106C320.195 345.106 324.472 340.829 324.472 335.554C324.472 330.278 320.195 326.001 314.92 326.001C309.644 326.001 305.367 330.278 305.367 335.554C305.367 340.829 309.644 345.106 314.92 345.106Z" fill="#DDE8DE"/>
<path d="M332.854 355.761C328.727 361.47 322.058 365.201 314.427 365.201C306.853 365.201 300.126 361.47 296 355.761C300.352 350.391 306.966 347 314.427 347C321.888 347 328.501 350.391 332.854 355.761Z" fill="#DDE8DE"/>
<path d="M435.364 398H372.636C369.536 398 367 395.453 367 392.34V313.66C367 310.547 369.536 308 372.636 308H435.364C438.464 308 441 310.547 441 313.66V392.34C441 395.509 438.464 398 435.364 398Z" fill="#E4F5ED"/>
<path d="M426.53 342.393C426.53 347.31 424.947 351.889 422.29 355.619C418.164 361.328 411.494 365.059 403.863 365.059C396.289 365.059 389.563 361.328 385.437 355.619C382.78 351.889 381.197 347.31 381.197 342.393C381.197 329.901 391.315 319.727 403.863 319.727C416.412 319.727 426.53 329.901 426.53 342.393Z" fill="white"/>
<path d="M403.92 345.106C409.195 345.106 413.472 340.829 413.472 335.554C413.472 330.278 409.195 326.001 403.92 326.001C398.644 326.001 394.367 330.278 394.367 335.554C394.367 340.829 398.644 345.106 403.92 345.106Z" fill="#DDE8DE"/>
<path d="M422.29 355.619C418.164 361.328 411.494 365.058 403.863 365.058C396.289 365.058 389.563 361.328 385.437 355.619C389.789 350.249 396.402 346.857 403.863 346.857C411.325 346.857 417.938 350.249 422.29 355.619Z" fill="#DDE8DE"/>
<path d="M413.84 369.778C413.84 368.157 413.84 343.496 403.483 339.691C393.125 335.886 394.816 339.902 396.93 347.653C399.043 355.404 399.184 392.467 404.61 397.893C410.036 403.318 443.646 422.625 448.649 427.628C452.101 431.08 518.688 531.207 560.261 593.777C579.145 622.244 623.677 612.661 628.398 578.91C629.243 572.639 628.398 567.354 624.804 563.76C606.836 545.793 491.278 422.836 488.108 394.651C484.937 366.466 485.289 318.904 484.232 305.305C483.175 291.706 480.709 280.08 480.709 274.443C480.709 268.806 472.042 275.147 472.042 282.757C472.042 290.367 471.619 305.587 470.985 306.221C470.351 306.855 443.294 267.256 440.687 264.649C438.079 262.042 431.526 268.172 438.009 280.009C444.492 291.847 460.416 312.915 459.711 311.365C458.302 308.335 428.003 275.923 422.719 268.383C417.434 260.844 410.036 270.708 416.518 280.009C423.001 289.31 433.288 303.191 433.288 303.191C433.288 303.191 419.125 311.858 416.307 311.858C413.488 311.858 413.277 317.143 412.431 318.059C411.586 318.975 405.174 330.037 403.06 332.151C400.946 334.265 409.12 341.241 416.8 333.561C424.48 325.88 427.792 320.102 429.06 321.3C430.329 322.498 441.814 328.981 441.039 333.279C440.264 337.577 439.559 345.187 435.684 349.062C431.808 352.938 413.84 369.778 413.84 369.778Z" fill="url(#paint4_linear)"/>
<path d="M433.076 303.544C440.686 307.983 448.225 314.606 451.749 322.78C451.96 323.273 452.735 322.85 452.524 322.357C448.93 314.043 441.32 307.278 433.569 302.769C433.006 302.487 432.583 303.262 433.076 303.544Z" fill="#C69438"/>
<path d="M470.633 306.503C475.917 312.07 481.9 317.811 484.084 325.35C484.225 325.914 485.071 325.632 484.93 325.139C482.675 317.459 476.622 311.576 471.267 305.869C470.844 305.517 470.21 306.151 470.633 306.503Z" fill="#C69438"/>
<path d="M454.215 305.375C457.526 308.828 460.627 312.633 463.375 316.508C463.727 317.001 464.432 316.508 464.15 316.085C461.331 312.14 458.231 308.335 454.849 304.741C454.496 304.318 453.862 304.952 454.215 305.375Z" fill="#C69438"/>
<path d="M413.418 369.566C410.881 373.865 411.374 379.29 413.418 383.659C413.629 384.152 414.404 383.729 414.193 383.236C412.29 379.149 411.868 374.076 414.193 370.06C414.475 369.496 413.7 369.073 413.418 369.566Z" fill="#C69438"/>
<path d="M286.304 391.339C283.485 398.385 252.693 433.827 211.403 479.628C193.012 499.991 171.803 541.141 153.905 580.6C151.792 585.321 149.678 589.971 147.634 594.551C143.688 603.571 136.219 610.617 126.918 613.788C122.479 615.338 117.617 616.113 112.615 615.901C91.476 615.267 74.2128 598.004 73.5786 576.795C73.5786 576.372 73.5786 575.879 73.5786 575.456C73.6491 566.296 77.454 557.488 83.9365 551.006C87.4597 547.412 91.0532 543.819 94.5763 540.225C133.26 501.119 171.239 461.871 171.873 457.503C173.071 449.259 173.494 346.228 173.494 333.192C173.494 320.157 180.754 323.323 180.754 332.261C180.754 344.924 182.654 381.615 183.852 374.357C185.05 367.1 188.08 319.877 188.08 312.76C188.08 305.573 195.971 304.506 195.971 312.76C195.971 321.014 195.182 363.286 198.649 363.577C201.169 363.788 202.388 324.377 202.388 306.602C202.388 295.275 210.416 294.798 210.416 306.602C210.416 321.154 210.205 365.69 212.037 363.788C213.939 361.885 216.476 329.027 216.476 317.33C216.476 307.807 223.522 308.801 223.522 317.33C223.522 335.84 223.522 394.58 223.522 406.277C223.522 418.044 238.671 420.721 257.837 401.556C277.003 382.531 289.122 384.292 286.304 391.339Z" fill="#FFC14F"/>
<path d="M516.221 116.326V243.651C516.221 247.526 514.53 251.049 511.853 253.445C511.641 253.657 511.43 253.797 511.148 254.009C508.964 255.77 506.145 256.827 503.115 256.827H413.84C410.599 256.827 407.71 255.7 405.385 253.797C402.496 251.402 400.664 247.738 400.664 243.721V116.326C400.664 109.068 406.582 103.149 413.84 103.149H503.115C510.303 103.149 516.221 109.068 516.221 116.326Z" fill="#6688FF"/>
<path d="M516.221 221.385V243.651C516.221 250.909 510.303 256.828 503.045 256.828H413.84C406.582 256.828 400.664 250.979 400.664 243.651V214.268C402.355 209.618 405.173 203.77 409.824 199.119C418.913 190.029 421.45 185.027 413.347 176.923C405.244 168.82 403.834 161.774 414.051 156.137C424.268 150.5 428.496 137.112 435.542 133.589C442.589 130.066 452.101 133.589 456.329 133.589C456.329 133.589 481.343 125.838 486.627 162.479C486.627 162.479 508.471 166.918 497.197 193.834C492.617 204.756 495.435 220.61 502.834 218.848C505.793 218.144 511.007 219.342 516.221 221.385Z" fill="#212841"/>
<path fill-rule="evenodd" clip-rule="evenodd" d="M412.566 256.768C409.84 256.514 407.4 255.447 405.385 253.797C405.239 253.677 405.096 253.553 404.956 253.426C415.52 231.273 433.963 215.254 453.511 215.254C473.942 215.254 492.101 232.959 502.414 256.827H416.913L413.841 256.756C413.428 256.756 413.001 256.762 412.567 256.768C412.567 256.768 412.566 256.768 412.566 256.768Z" fill="#3B62EA"/>
<path d="M444.139 204.051V218.002C444.139 223.146 448.296 227.303 453.51 227.303C458.654 227.303 462.882 223.146 462.882 218.002V203.205L444.139 204.051Z" fill="#FCB045"/>
<path d="M454.709 211.168C467.94 211.168 478.666 197.192 478.666 179.953C478.666 162.714 467.94 148.738 454.709 148.738C441.477 148.738 430.751 162.714 430.751 179.953C430.751 197.192 441.477 211.168 454.709 211.168Z" fill="#FFC14F"/>
<path d="M428.144 175.866C428.144 175.866 460.627 165.72 463.868 150.5C463.868 150.5 475.847 165.297 478.454 177.275C481.061 189.254 492.053 169.313 477.256 156.841C462.459 144.37 429.553 140.424 428.144 175.866Z" fill="#212841"/>
<path d="M451.538 177.416C451.326 182.137 447.733 186.153 442.8 186.153C438.079 186.153 434.063 182.137 434.063 177.416C434.063 172.977 437.516 169.172 441.884 168.749C447.169 168.256 451.256 172.272 451.538 177.416C451.538 177.98 452.454 177.98 452.454 177.416C452.172 172.202 448.296 167.833 442.871 167.833C437.657 167.833 433.217 172.202 433.288 177.416C433.288 182.63 437.657 186.999 442.871 186.999C448.296 186.999 452.242 182.63 452.454 177.416C452.454 176.852 451.538 176.852 451.538 177.416Z" fill="#212841"/>
<path d="M475.284 177.416C475.072 182.137 471.479 186.153 466.546 186.153C461.825 186.153 457.809 182.137 457.809 177.416C457.809 172.977 461.262 169.172 465.63 168.749C470.915 168.256 475.002 172.272 475.284 177.416C475.284 177.98 476.2 177.98 476.2 177.416C475.918 172.202 472.042 167.833 466.617 167.833C461.403 167.833 456.964 172.202 457.034 177.416C457.034 182.63 461.403 186.999 466.617 186.999C472.042 186.999 475.988 182.63 476.2 177.416C476.129 176.852 475.284 176.852 475.284 177.416Z" fill="#212841"/>
<path d="M452.313 177.698C453.722 176.218 455.624 176.359 457.104 177.698C457.527 178.05 458.161 177.487 457.738 177.064C455.977 175.373 453.44 175.232 451.749 177.064C451.256 177.487 451.89 178.121 452.313 177.698Z" fill="#212841"/>
<path d="M475.706 177.839C476.622 177.839 477.468 177.839 478.384 177.839C478.948 177.839 478.948 176.923 478.384 176.923C477.468 176.923 476.622 176.923 475.706 176.923C475.143 176.923 475.143 177.839 475.706 177.839Z" fill="#212841"/>
<path d="M430.751 177.839C431.667 177.839 432.513 177.839 433.429 177.839C433.992 177.839 433.992 176.923 433.429 176.923C432.513 176.923 431.667 176.923 430.751 176.923C430.117 176.923 430.117 177.839 430.751 177.839Z" fill="#212841"/>
<path d="M485.993 184.814C486.205 181.855 485.571 178.896 484.232 176.218C483.175 174.245 482.611 171.497 486.909 171.497C493.744 171.497 489.023 186.506 486.909 186.506C485.993 186.576 485.853 185.871 485.993 184.814Z" fill="#FFC14F"/>
<path d="M534.823 208.701C534.823 208.701 526.438 229.206 516.221 241.396C516.01 241.678 515.728 241.959 515.517 242.241C514.46 243.439 513.473 244.496 512.416 245.412L511.178 253.254C508.994 255.016 505.908 255.796 502.878 255.796L492.555 254.603L495.012 241.889C495.012 241.889 488.671 238.154 489.093 229.065C489.516 219.975 489.234 213.281 491.419 209.054C493.603 204.826 494.871 206.165 495.928 210.674C496.985 215.184 495.928 223.992 497.338 224.273C498.465 224.485 503.891 222.16 515.587 203.276C515.799 202.923 516.08 202.501 516.292 202.078C518.406 198.696 520.661 194.82 523.127 190.311C524.395 188.056 527.848 188.549 528.27 191.086C528.27 191.156 528.27 191.156 528.27 191.227C528.27 191.227 527.848 193.129 527.354 193.411C527.284 193.411 527.284 193.481 527.354 193.481C527.566 193.552 531.089 192.425 531.582 195.313C531.794 196.652 530.878 198.907 530.878 198.907C530.878 198.907 533.203 198.766 533.766 201.373C534.33 203.98 533.062 204.896 533.062 204.896C533.062 204.896 535.528 205.249 534.823 208.701Z" fill="#FFC14F"/>
<path fill-rule="evenodd" clip-rule="evenodd" d="M511.111 254.038C508.932 255.782 506.128 256.827 503.115 256.827H491.901L494.208 242.241C494.208 242.241 488.671 238.154 489.093 229.065C489.177 227.272 489.233 225.573 489.286 223.968C489.501 217.431 489.665 212.448 491.419 209.053C493.603 204.826 494.871 206.165 495.928 210.674C496.411 212.734 496.453 215.69 496.49 218.321C496.534 221.451 496.572 224.12 497.337 224.273C498.465 224.485 503.89 222.159 515.587 203.276C515.645 203.179 515.709 203.077 515.774 202.97C515.922 202.732 516.082 202.474 516.221 202.214V241.396C516.221 241.396 516.221 241.396 516.221 241.396C516.116 241.537 515.992 241.677 515.869 241.818C515.746 241.959 515.622 242.1 515.517 242.241C514.46 243.439 513.473 244.496 512.416 245.412L511.111 254.038Z" fill="#FFC14F"/>
<path d="M526.931 193.27C522.422 200.739 517.983 208.349 512.768 215.395C512.416 215.818 513.191 216.311 513.543 215.818C518.758 208.842 523.267 201.232 527.706 193.692C527.988 193.199 527.213 192.776 526.931 193.27Z" fill="#C69438"/>
<path d="M530.385 198.766C525.17 206.376 519.956 213.986 514.319 221.314C513.967 221.736 514.742 222.23 515.094 221.736C520.731 214.408 525.945 206.798 531.16 199.189C531.512 198.695 530.737 198.273 530.385 198.766Z" fill="#C69438"/>
<path d="M532.568 204.755C527.143 212.647 521.787 220.539 516.291 228.36C515.939 228.853 516.714 229.276 517.066 228.783C522.562 220.961 527.918 213.07 533.343 205.178C533.625 204.755 532.85 204.332 532.568 204.755Z" fill="#C69438"/>
<path d="M348.522 38.8174H193.506C185.755 38.8174 179.413 45.159 179.413 52.9098V95.8917C179.413 103.643 185.755 109.984 193.506 109.984H316.039L332.316 126.261C334.43 128.375 338.094 126.895 338.094 123.865V109.984H348.522C356.273 109.984 362.615 103.643 362.615 95.8917V52.9098C362.615 45.159 356.273 38.8174 348.522 38.8174Z" fill="#1B9A5A"/>
<path d="M413.801 576.925H347.214C344.325 576.925 342 574.6 342 571.711V540.214C342 537.325 344.325 535 347.214 535H413.801C416.69 535 419.015 537.325 419.015 540.214V571.711C419.015 574.6 416.69 576.925 413.801 576.925Z" fill="#6688FF"/>
<path d="M396.819 557.971H352.357C351.23 557.971 350.314 557.055 350.314 555.927C350.314 554.8 351.23 553.884 352.357 553.884H396.819C397.946 553.884 398.862 554.8 398.862 555.927C398.862 557.055 397.946 557.971 396.819 557.971Z" fill="white"/>
<path d="M381.881 549.304H352.357C351.23 549.304 350.314 548.388 350.314 547.26C350.314 546.133 351.23 545.217 352.357 545.217H381.881C383.008 545.217 383.924 546.133 383.924 547.26C383.924 548.388 383.008 549.304 381.881 549.304Z" fill="white"/>
<path d="M372.087 566.567H352.428C351.301 566.567 350.385 565.651 350.385 564.524C350.385 563.396 351.301 562.48 352.428 562.48H372.087C373.214 562.48 374.131 563.396 374.131 564.524C374.131 565.722 373.214 566.567 372.087 566.567Z" fill="white"/>
<path d="M85.4706 371.035H7.04621C3.1708 371.035 0 367.864 0 363.989V266.046C0 262.171 3.1708 259 7.04621 259H85.4706C89.346 259 92.5168 262.171 92.5168 266.046V363.989C92.5168 367.934 89.346 371.035 85.4706 371.035Z" fill="#1B9A5A"/>
<path d="M31.7786 357.576H12.7538C11.4855 357.576 10.499 356.59 10.499 355.321C10.499 354.053 11.4855 353.066 12.7538 353.066H31.7786C33.0469 353.066 34.0334 354.053 34.0334 355.321C34.0334 356.519 33.0469 357.576 31.7786 357.576Z" fill="white"/>
<path d="M74.4784 301.277C74.4784 307.407 72.5055 313.114 69.1938 317.765C64.05 324.882 55.7355 329.532 46.2231 329.532C36.7812 329.532 28.3962 324.882 23.2524 317.765C19.9407 313.114 17.9678 307.407 17.9678 301.277C17.9678 285.705 30.5805 273.021 46.2231 273.021C61.8657 273.021 74.4784 285.705 74.4784 301.277Z" fill="white"/>
<path d="M46.2934 304.659C52.87 304.659 58.2015 299.328 58.2015 292.751C58.2015 286.174 52.87 280.843 46.2934 280.843C39.7167 280.843 34.3853 286.174 34.3853 292.751C34.3853 299.328 39.7167 304.659 46.2934 304.659Z" fill="#D0DBFF"/>
<path d="M69.1933 317.764C64.0495 324.881 55.735 329.532 46.2226 329.532C36.7807 329.532 28.3957 324.881 23.252 317.764C28.6775 311.071 36.9216 306.843 46.2226 306.843C55.5236 306.843 63.7677 311.071 69.1933 317.764Z" fill="#D0DBFF"/>
<path d="M233.33 275.349H155.328C151.312 275.349 148 272.108 148 268.021V162.328C148 158.312 151.241 155 155.328 155H233.259C237.276 155 240.587 158.241 240.587 162.328V268.021C240.587 272.038 237.346 275.349 233.33 275.349Z" fill="#6688FF"/>
<path d="M189.22 176.491H159.344C158.569 176.491 158.005 175.857 158.005 175.152C158.005 174.377 158.64 173.813 159.344 173.813H189.22C189.995 173.813 190.559 174.448 190.559 175.152C190.629 175.857 189.995 176.491 189.22 176.491Z" fill="#FCFCFC"/>
<path d="M179.215 170.713H159.415C158.64 170.713 158.076 170.079 158.076 169.374C158.076 168.599 158.71 168.035 159.415 168.035H179.215C179.99 168.035 180.554 168.669 180.554 169.374C180.554 170.079 179.919 170.713 179.215 170.713Z" fill="#FCFCFC"/>
<path d="M172.591 182.34H159.344C158.569 182.34 158.005 181.706 158.005 181.001C158.005 180.226 158.64 179.662 159.344 179.662H172.591C173.366 179.662 173.93 180.296 173.93 181.001C173.93 181.706 173.366 182.34 172.591 182.34Z" fill="#FCFCFC"/>
<path d="M188.656 247.371H158.78C158.005 247.371 157.441 246.737 157.441 246.032C157.441 245.257 158.076 244.693 158.78 244.693H188.656C189.431 244.693 189.995 245.328 189.995 246.032C189.995 246.807 189.361 247.371 188.656 247.371Z" fill="#FCFCFC"/>
<path d="M222.689 239.272H158.71C157.935 239.272 157.371 238.638 157.371 237.934C157.371 237.158 158.005 236.595 158.71 236.595H222.689C223.465 236.595 224.028 237.229 224.028 237.934C224.099 238.709 223.465 239.272 222.689 239.272Z" fill="#FCFCFC"/>
<path d="M230.299 231.371H158.78C158.005 231.371 157.441 230.737 157.441 230.032C157.441 229.257 158.076 228.693 158.78 228.693H230.299C231.074 228.693 231.638 229.328 231.638 230.032C231.708 230.807 231.074 231.371 230.299 231.371Z" fill="#FCFCFC"/>
<path d="M230.299 223.371H158.78C158.005 223.371 157.441 222.737 157.441 222.032C157.441 221.257 158.076 220.693 158.78 220.693H230.299C231.074 220.693 231.638 221.328 231.638 222.032C231.708 222.737 231.074 223.371 230.299 223.371Z" fill="#FCFCFC"/>
<path d="M230.299 215.371H158.78C158.005 215.371 157.441 214.737 157.441 214.032C157.441 213.257 158.076 212.693 158.78 212.693H230.299C231.074 212.693 231.638 213.328 231.638 214.032C231.708 214.737 231.074 215.371 230.299 215.371Z" fill="#FCFCFC"/>
<path d="M223.183 267.176C227.853 267.176 231.638 263.39 231.638 258.72C231.638 254.05 227.853 250.265 223.183 250.265C218.513 250.265 214.728 254.05 214.728 258.72C214.728 263.39 218.513 267.176 223.183 267.176Z" fill="#FCFCFC"/>
<path d="M270.309 78.4165C272.527 78.4165 274.326 76.6183 274.326 74.4001C274.326 72.182 272.527 70.3838 270.309 70.3838C268.091 70.3838 266.293 72.182 266.293 74.4001C266.293 76.6183 268.091 78.4165 270.309 78.4165Z" fill="white"/>
<path d="M299.692 78.4165C301.91 78.4165 303.708 76.6183 303.708 74.4001C303.708 72.182 301.91 70.3838 299.692 70.3838C297.473 70.3838 295.675 72.182 295.675 74.4001C295.675 76.6183 297.473 78.4165 299.692 78.4165Z" fill="white"/>
<path d="M241.279 78.4165C243.497 78.4165 245.295 76.6183 245.295 74.4001C245.295 72.182 243.497 70.3838 241.279 70.3838C239.06 70.3838 237.262 72.182 237.262 74.4001C237.262 76.6183 239.06 78.4165 241.279 78.4165Z" fill="white"/>
<rect x="425" y="231" width="25" height="11" rx="5.5" fill="#FF7448"/>
<rect x="465" y="231" width="25" height="11" rx="5.5" fill="#23BF79"/>
<path d="M381 257V276H400.5" stroke="#6688FF" stroke-width="3" stroke-linecap="round" stroke-linejoin="round"/>
<path d="M535.5 103L535.5 84L516 84" stroke="#6688FF" stroke-width="3" stroke-linecap="round" stroke-linejoin="round"/>
<path d="M400.25 83.75L381.25 83.75L381.25 103.25" stroke="#6688FF" stroke-width="3" stroke-linecap="round" stroke-linejoin="round"/>
<path d="M516 275.5L535 275.5L535 256" stroke="#6688FF" stroke-width="3" stroke-linecap="round" stroke-linejoin="round"/>
<defs>
<linearGradient id="paint0_linear" x1="579.529" y1="164.473" x2="515.209" y2="250.964" gradientUnits="userSpaceOnUse">
<stop stop-color="#1B9A5A" stop-opacity="0.4"/>
<stop offset="1" stop-color="white" stop-opacity="0"/>
</linearGradient>
<linearGradient id="paint1_linear" x1="258.099" y1="156.772" x2="278.885" y2="218.795" gradientUnits="userSpaceOnUse">
<stop stop-color="#1B9A5A" stop-opacity="0.4"/>
<stop offset="1" stop-color="white" stop-opacity="0"/>
</linearGradient>
<linearGradient id="paint2_linear" x1="614.852" y1="246.276" x2="521.877" y2="454.266" gradientUnits="userSpaceOnUse">
<stop stop-color="#1B9A5A" stop-opacity="0.4"/>
<stop offset="1" stop-color="white" stop-opacity="0"/>
</linearGradient>
<linearGradient id="paint3_linear" x1="88.3457" y1="192.256" x2="95.9258" y2="354.554" gradientUnits="userSpaceOnUse">
<stop stop-color="#1B9A5A" stop-opacity="0.4"/>
<stop offset="1" stop-color="white" stop-opacity="0"/>
</linearGradient>
<linearGradient id="paint4_linear" x1="441" y1="403.5" x2="595" y2="581.5" gradientUnits="userSpaceOnUse">
<stop stop-color="#FFC14F"/>
<stop offset="1" stop-color="#FCB045"/>
</linearGradient>
</defs>
</svg>
