<svg width="40" height="54" viewBox="0 0 40 54" fill="none" xmlns="http://www.w3.org/2000/svg">
<path d="M35.5771 22.0931H35.5027C34.4721 22.0968 33.4816 22.4931 32.7329 23.2009C32.1486 21.4936 30.5986 20.2705 28.7777 20.2705C27.6499 20.2852 26.578 20.7638 25.8151 21.5941C25.1257 20.1394 23.702 19.1639 22.0609 19.1639H21.9816C21.0372 19.1639 20.1178 19.4451 19.4901 20.0041V9.66016C19.4901 7.21485 17.594 5.22559 15.2799 5.22559C12.9682 5.22559 11.0795 7.21322 11.0778 9.65689L11.0598 30.1143L9.81879 28.6056C8.82008 27.3621 7.34938 26.5898 5.75894 26.4729C4.20039 26.3662 2.66716 26.9089 1.52256 27.9722L0.522614 28.8017C0.218993 29.0535 0.132361 29.4829 0.314207 29.8323L10.0386 48.5023C11.8077 51.901 15.1728 53.9998 18.8208 53.9998H29.7278C35.2588 53.9998 39.7632 49.2191 39.7689 43.3269C39.7714 40.6944 39.7742 38.7362 39.7759 37.1413C39.7816 32.8469 39.7836 31.2413 39.7726 26.5142C39.7669 24.0754 37.8851 22.0931 35.5771 22.0931ZM38.1021 37.1454C38.1004 38.7403 38.0976 40.6928 38.0951 43.3253C38.0902 48.2952 34.3369 52.326 29.7278 52.326H18.8208C15.7989 52.326 13.0025 50.5725 11.5228 47.73L2.11019 29.6529L2.60628 29.2451C2.6169 29.2361 2.62793 29.2284 2.63815 29.2185C3.44603 28.4585 4.53384 28.0682 5.64085 28.1422C6.77156 28.2288 7.81604 28.7817 8.5234 29.6685L11.2445 32.9813C11.4689 33.2543 11.8403 33.3569 12.173 33.2379C12.5056 33.119 12.7279 32.804 12.7283 32.4505L12.7443 9.65853C12.7451 8.13756 13.8905 6.89979 15.2807 6.89979C16.6705 6.89979 17.8163 8.13797 17.8163 9.66016V23.4044C17.8163 23.4518 17.8143 23.4992 17.8143 23.547C17.8143 23.5679 17.8163 23.5875 17.8163 23.6075V29.485C17.8163 29.9472 18.191 30.3219 18.6532 30.3219C19.1154 30.3219 19.4901 29.9472 19.4901 29.485V23.4326C19.4901 21.9639 20.6265 20.8377 21.9816 20.8377H22.0609C23.4511 20.8377 24.6161 22.0256 24.6161 23.5482V28.9243C24.6161 29.3865 24.9908 29.7612 25.453 29.7612C25.9152 29.7612 26.2899 29.3865 26.2899 28.9243V24.7059C26.2899 23.1837 27.4063 21.9451 28.8047 21.9451C30.1953 21.9451 31.3113 23.1837 31.3113 24.7059V28.6857C31.3113 29.1479 31.686 29.5226 32.1482 29.5226C32.6104 29.5226 32.9851 29.1479 32.9851 28.6857V26.5309C32.9851 25.0083 34.1121 23.7669 35.5027 23.7669H35.5771C36.964 23.7669 38.0955 25.0034 38.0988 26.5211C38.1098 31.2454 38.1078 32.853 38.1021 37.1454Z" fill="white"/>
<path d="M3.90412 2.84465L3.90412 19.6308C3.90412 20.093 4.27884 20.4677 4.74102 20.4677C5.20319 20.4677 5.57791 20.093 5.57791 19.6308L5.57792 2.86958L7.49771 4.78938C7.82503 5.11302 8.35218 5.11139 8.67787 4.7857C9.00315 4.46042 9.00478 3.93327 8.68114 3.60595L5.32047 0.244878C4.99356 -0.0816263 4.46355 -0.0816263 4.13705 0.244878L0.77638 3.60595C0.562661 3.81681 0.478481 4.12615 0.555714 4.41629C0.632539 4.70642 0.859335 4.93281 1.14947 5.01004C1.43961 5.08728 1.74854 5.0031 1.95981 4.78938L3.90412 2.84465Z" fill="white"/>
</svg>
