<svg width="196" height="16" viewBox="0 0 196 16" fill="none" xmlns="http://www.w3.org/2000/svg">
<path d="M48.9439 0.224609H45.4719L42.5599 7.56061L39.8159 0.336609H36.3439L34.0479 13.8886H37.5759L38.6959 6.10461L40.9359 11.7046L41.7759 13.8886H43.1759L46.4799 5.99261L47.4879 13.8886H51.0159L48.9439 0.224609Z" fill="#303030"/>
<path d="M30.6892 0.28081C29.5692 0.28081 28.6172 1.12081 28.6172 2.29681V11.8728C28.6732 13.0488 29.6252 13.9448 30.8012 13.8888C31.8652 13.8328 32.7612 12.9928 32.8172 11.8728V2.24081C32.7612 1.12081 31.8652 0.22481 30.6892 0.28081Z" fill="#303030"/>
<path d="M60.7029 0.280273H56.9509H56.8949L51.6309 13.8883H55.3829L56.3349 11.5363H61.2069L62.0469 13.8883H65.8549L60.7029 0.280273Z" fill="#303030"/>
<path d="M9.072 0.336914H5.208L0 13.9449H3.752L4.648 11.5369H9.52L10.416 13.9449H14.168L9.072 0.336914Z" fill="#303030"/>
<path d="M27.3287 6.32843H25.2007H20.6087V8.90443H23.4087C23.3527 9.46443 23.1287 9.96843 22.7927 10.3604C22.2327 10.8644 21.5047 11.1444 20.7767 11.0884C19.9367 11.1444 19.0967 10.8084 18.4807 10.1924C17.6407 9.35243 17.2487 8.23243 17.2487 7.11243C17.2487 6.55243 17.3607 5.93643 17.5847 5.43243C18.1447 3.92042 19.2087 3.19242 20.6087 3.19242C21.2807 3.19242 21.9527 3.41642 22.4567 3.80842C22.8487 4.20042 23.1847 4.64842 23.4087 5.15242L26.6007 3.86442C26.1527 2.91242 25.4807 2.07242 24.6407 1.40042C23.5207 0.616423 22.1207 0.168422 20.7767 0.224422C18.4807 0.224422 16.7447 0.952423 15.4567 2.40842C14.3367 3.69642 13.7207 5.37642 13.7767 7.11243C13.7207 8.68043 14.2247 10.2484 15.2327 11.5364C16.5207 13.1604 18.3127 13.9444 20.7207 13.9444C21.2807 13.9444 21.8407 13.8884 22.4007 13.7764C23.1287 13.6084 23.8567 13.3284 24.4727 12.9364C25.5927 12.2084 26.4327 11.0884 26.8807 9.85643C27.1607 8.68043 27.3287 7.50443 27.3287 6.32843Z" fill="#303030"/>
<path d="M87.4728 6.32828C88.3128 5.82428 89.3208 5.48828 90.3848 5.48828C92.9048 5.48828 93.8008 6.83228 93.8008 9.12828V14.7843H92.7368V13.3843C92.1768 14.1683 91.2808 14.8963 89.6008 14.8963C87.9208 14.8963 86.8008 13.8323 86.8008 12.1523C86.8008 10.3043 88.3128 9.29628 90.2728 9.29628C91.0008 9.29628 92.0088 9.46428 92.7368 9.96828C92.7368 7.78428 92.6248 6.38428 90.3288 6.38428C89.2648 6.38428 88.5928 6.66428 87.7528 7.11228L87.4728 6.32828ZM92.7368 12.4883V10.9763C92.0648 10.4723 91.2808 10.2483 90.3848 10.2483C89.2088 10.2483 87.9208 10.8083 87.9208 12.1523C87.9208 13.2723 88.8168 13.9443 89.9368 13.9443C91.4488 13.9443 92.2328 13.1603 92.7368 12.4883Z" fill="#303030"/>
<path d="M96.8255 5.65628H97.8895V6.88828C98.3935 6.10428 99.1775 5.48828 100.354 5.48828C101.082 5.48828 101.474 5.60028 101.754 5.82428L101.362 6.83228C100.914 6.55228 100.69 6.49628 100.074 6.49628C98.8975 6.49628 98.2815 7.22428 97.8335 8.00828V14.8403H96.7695V5.65628H96.8255Z" fill="#303030"/>
<path d="M103.32 3.13574H104.384V5.65574H108.08V6.66374H104.384V11.1997C104.384 12.9917 105 13.9437 106.456 13.9437C107.072 13.9437 107.576 13.7197 107.912 13.4397L108.248 14.2797C107.8 14.6157 107.072 14.9517 106.176 14.9517C104.16 14.9517 103.32 13.6637 103.32 11.3677V3.13574Z" fill="#303030"/>
<path d="M110.601 5.65628H111.665V6.94428C112.337 6.16028 113.681 5.48828 114.969 5.48828C117.433 5.48828 118.777 6.72028 118.777 9.57628V14.7843H117.713V9.74428C117.713 7.50428 116.761 6.44028 114.689 6.44028C113.401 6.44028 112.225 7.11228 111.665 7.84028V14.7283H110.601V5.65628Z" fill="#303030"/>
<path d="M129.36 13.6636C128.52 14.5596 127.232 14.9516 126 14.9516C123.088 14.9516 121.128 13.1036 121.128 10.1916C121.128 7.50364 122.752 5.43164 125.776 5.43164C128.128 5.43164 129.92 7.05564 129.92 9.57564C129.92 9.91164 129.92 10.1916 129.864 10.4156H122.304C122.36 12.5996 123.872 13.9436 126.056 13.9436C127.288 13.9436 128.408 13.4956 129.024 12.8236L129.36 13.6636ZM122.248 9.57564H128.856C128.8 7.67164 127.568 6.43964 125.664 6.43964C123.648 6.49564 122.472 7.78364 122.248 9.57564Z" fill="#303030"/>
<path d="M132.44 5.65628H133.504V6.88828C134.008 6.10428 134.792 5.48828 135.968 5.48828C136.696 5.48828 137.088 5.60028 137.368 5.82428L136.976 6.83228C136.528 6.55228 136.304 6.49628 135.688 6.49628C134.512 6.49628 133.896 7.22428 133.448 8.00828V14.8403H132.384V5.65628H132.44Z" fill="#303030"/>
<path d="M148.065 0C148.345 0.336 148.569 0.84 148.569 1.512C148.569 2.912 147.897 3.752 147.057 4.2L146.553 3.696C147.225 3.304 147.561 2.576 147.561 1.736C147.561 1.232 147.337 0.784 147.169 0.616L148.065 0Z" fill="#303030"/>
<path d="M139.161 7.89628C139.161 6.44028 140.337 5.48828 142.129 5.48828C143.417 5.48828 144.481 5.93628 144.985 6.49628L144.537 7.28028C143.977 6.77628 143.081 6.38428 142.129 6.38428C141.009 6.38428 140.281 7.05628 140.281 7.84028C140.281 10.2483 145.321 9.12828 145.321 12.3203C145.321 14.1123 143.753 14.9523 142.017 14.9523C140.729 14.9523 139.329 14.2803 138.881 13.6083L139.497 12.9363C140.001 13.6083 141.233 14.0003 142.185 14.0003C143.249 14.0003 144.257 13.4963 144.257 12.3763C144.257 10.1363 139.161 11.2563 139.161 7.89628Z" fill="#303030"/>
<path d="M168.28 13.4393C167.328 14.3913 165.536 15.0073 163.856 15.0073C159.6 15.0073 156.744 12.1513 156.744 7.72727C156.744 3.63927 159.432 0.447266 163.744 0.447266C165.536 0.447266 166.992 0.895266 168.056 1.79127L167.552 2.63127C166.544 1.84727 165.312 1.51127 163.8 1.51127C160.328 1.51127 157.976 4.14327 157.976 7.72727C157.976 11.4793 160.44 13.9433 164.024 13.9433C165.536 13.9433 166.936 13.4393 167.888 12.5993L168.28 13.4393Z" fill="#303030"/>
<path d="M170.576 0.560547H171.64V11.8726C171.64 13.2726 171.976 13.9446 172.984 13.9446C173.488 13.9446 173.936 13.7206 174.272 13.4966L174.552 14.3366C174.104 14.6726 173.432 14.9526 172.648 14.9526C171.304 14.9526 170.632 14.1126 170.632 12.4886L170.576 0.560547Z" fill="#303030"/>
<path d="M184.184 14.7846H183.12V13.3286C182.448 14.1686 181.104 14.9526 179.648 14.9526C177.408 14.9526 176.176 13.6646 176.176 10.9206V5.60059H177.24V10.6966C177.24 12.8246 178.08 13.9446 180.04 13.9446C181.328 13.9446 182.56 13.1046 183.12 12.3766V5.65659H184.184V14.7846Z" fill="#303030"/>
<path d="M187.376 0.560547H188.44V6.77655C189.168 6.04855 190.4 5.48855 191.632 5.48855C194.376 5.48855 196 7.39255 196 10.0806C196 13.1046 193.984 15.0086 191.016 15.0086C189.616 15.0086 188.272 14.6166 187.376 13.9446V0.560547ZM188.44 7.89655V13.2166C189.336 13.8326 190.176 14.0006 191.072 14.0006C193.2 14.0006 194.88 12.5446 194.88 10.1926C194.88 7.89655 193.536 6.49655 191.408 6.49655C190.12 6.49655 188.944 7.22455 188.44 7.89655Z" fill="#303030"/>
<path d="M85.3445 5.54461C85.5125 5.09661 85.6245 4.59261 85.6245 4.08861C85.6245 3.64061 85.5125 3.13661 85.3445 2.68861C85.1765 2.24061 84.8965 1.79261 84.5605 1.45661C84.2245 1.06461 83.7765 0.78461 83.2725 0.56061C82.7685 0.33661 82.1525 0.224609 81.4805 0.224609H76.2725V1.34461H81.4805C81.8725 1.34461 82.2645 1.40061 82.6005 1.56861C82.9365 1.73661 83.2725 1.90461 83.4965 2.12861C83.7765 2.35261 83.9445 2.63261 84.1125 2.96861C84.2805 3.30461 84.3365 3.64061 84.3365 4.08861C84.3365 4.53661 84.2805 4.87261 84.1125 5.20861C83.9445 5.54461 83.7205 5.88061 83.4965 6.10461C83.2165 6.38461 82.9365 6.55261 82.6005 6.72061C82.2645 6.88861 81.8725 6.94461 81.4805 6.94461H76.2725V14.0566H77.5605V8.00861H81.4805C82.1525 8.00861 82.7125 7.89661 83.2165 7.67261C83.7205 7.44861 84.1685 7.16861 84.5045 6.77661C84.8965 6.44061 85.1205 5.99261 85.3445 5.54461Z" fill="#303030"/>
<path d="M77.0565 0.167969H60.3125V1.34397H77.0565V0.167969Z" fill="url(#paint0_linear)"/>
<path d="M77.5604 12.8809H65.8564V14.0569H77.5604V12.8809Z" fill="url(#paint1_linear)"/>
<defs>
<linearGradient id="paint0_linear" x1="61.3288" y1="0.755969" x2="74.7363" y2="0.755969" gradientUnits="userSpaceOnUse">
<stop stop-color="#303030" stop-opacity="0"/>
<stop offset="1" stop-color="#303030"/>
</linearGradient>
<linearGradient id="paint1_linear" x1="66.5664" y1="13.4689" x2="75.924" y2="13.4689" gradientUnits="userSpaceOnUse">
<stop stop-color="#303030" stop-opacity="0"/>
<stop offset="1" stop-color="#303030"/>
</linearGradient>
</defs>
</svg>
