<svg width="196" height="15" viewBox="0 0 196 15" fill="none" xmlns="http://www.w3.org/2000/svg">
<path d="M48.9157 0.225586H45.4457L42.5354 7.55732L39.793 0.337521H36.323L34.0283 13.8816H37.5543L38.6736 6.10217L40.9123 11.6989L41.7518 13.8816H43.151L46.4531 5.99023L47.4605 13.8816H50.9865L48.9157 0.225586Z" fill="#01AC6A"/>
<path d="M30.6714 0.281785C29.552 0.281785 28.6006 1.1213 28.6006 2.29661V11.867C28.6566 13.0424 29.608 13.9378 30.7833 13.8819C31.8467 13.8259 32.7422 12.9864 32.7981 11.867V2.24065C32.7422 1.1213 31.8467 0.225817 30.6714 0.281785Z" fill="#01AC6A"/>
<path d="M60.6683 0.280273H56.9185H56.8625L51.6016 13.8804H55.3514L56.3028 11.5297H61.172L62.0115 13.8804H65.8173L60.6683 0.280273Z" fill="#01AC6A"/>
<path d="M9.06673 0.337891H5.20497L0 13.938H3.74982L4.6453 11.5314H9.51447L10.4099 13.938H14.1598L9.06673 0.337891Z" fill="#01AC6A"/>
<path d="M27.312 6.32585H25.1852H20.5959V8.90035H23.3943C23.3383 9.46003 23.1144 9.96373 22.7786 10.3555C22.219 10.8592 21.4914 11.1391 20.7638 11.0831C19.9243 11.1391 19.0848 10.8032 18.4691 10.1876C17.6296 9.34809 17.2379 8.22874 17.2379 7.10939C17.2379 6.54972 17.3498 5.93408 17.5737 5.43037C18.1333 3.91925 19.1967 3.19167 20.5959 3.19167C21.2675 3.19167 21.9391 3.41554 22.4428 3.80731C22.8346 4.19909 23.1704 4.64683 23.3943 5.15053L26.5844 3.86328C26.1367 2.91183 25.4651 2.07232 24.6256 1.40071C23.5062 0.617169 22.107 0.169429 20.7638 0.225396C18.4691 0.225396 16.7342 0.952974 15.4469 2.40813C14.3276 3.69538 13.7119 5.3744 13.7679 7.10939C13.7119 8.67648 14.2156 10.2436 15.223 11.5308C16.5103 13.1539 18.3012 13.9374 20.7078 13.9374C21.2675 13.9374 21.8272 13.8815 22.3869 13.7695C23.1144 13.6016 23.842 13.3218 24.4577 12.93C25.577 12.2024 26.4165 11.0831 26.8643 9.8518C27.1441 8.67648 27.312 7.50117 27.312 6.32585Z" fill="#01AC6A"/>
<path d="M87.4216 6.32389C88.2611 5.82018 89.2685 5.48438 90.3319 5.48438C92.8505 5.48438 93.7459 6.82759 93.7459 9.12226V14.775H92.6826V13.3758C92.1229 14.1593 91.2274 14.8869 89.5484 14.8869C87.8693 14.8869 86.75 13.8235 86.75 12.1445C86.75 10.2976 88.2611 9.29016 90.22 9.29016C90.9476 9.29016 91.955 9.45806 92.6826 9.96177C92.6826 7.77904 92.5706 6.37985 90.276 6.37985C89.2126 6.37985 88.541 6.65969 87.7014 7.10743L87.4216 6.32389ZM92.6826 12.4803V10.9692C92.0109 10.4655 91.2274 10.2416 90.3319 10.2416C89.1566 10.2416 87.8693 10.8013 87.8693 12.1445C87.8693 13.2639 88.7648 13.9355 89.8842 13.9355C91.3953 13.9355 92.1788 13.1519 92.6826 12.4803Z" fill="#01AC6A"/>
<path d="M96.7679 5.65228H97.8313V6.88356C98.335 6.10002 99.1185 5.48438 100.294 5.48438C101.021 5.48438 101.413 5.59631 101.693 5.82018L101.301 6.82759C100.854 6.54776 100.63 6.49179 100.014 6.49179C98.8387 6.49179 98.223 7.21937 97.7753 8.00291V14.8309H96.7119V5.65228H96.7679Z" fill="#01AC6A"/>
<path d="M103.26 3.13379H104.323V5.65233H108.017V6.65974H104.323V11.1931C104.323 12.9841 104.939 13.9355 106.394 13.9355C107.01 13.9355 107.513 13.7116 107.849 13.4318L108.185 14.2713C107.737 14.6071 107.01 14.9429 106.114 14.9429C104.099 14.9429 103.26 13.6557 103.26 11.361V3.13379Z" fill="#01AC6A"/>
<path d="M110.537 5.65228H111.6V6.93953C112.272 6.15598 113.615 5.48438 114.903 5.48438C117.365 5.48438 118.708 6.71566 118.708 9.57V14.775H117.645V9.7379C117.645 7.4992 116.694 6.43582 114.623 6.43582C113.335 6.43582 112.16 7.10743 111.6 7.83501V14.719H110.537V5.65228Z" fill="#01AC6A"/>
<path d="M129.285 13.6559C128.445 14.5514 127.158 14.9432 125.927 14.9432C123.016 14.9432 121.058 13.0963 121.058 10.1859C121.058 7.49951 122.681 5.42871 125.703 5.42871C128.054 5.42871 129.845 7.05177 129.845 9.5703C129.845 9.90611 129.845 10.1859 129.789 10.4098H122.233C122.289 12.5925 123.8 13.9358 125.983 13.9358C127.214 13.9358 128.333 13.488 128.949 12.8164L129.285 13.6559ZM122.177 9.5703H128.781C128.725 7.66741 127.494 6.43612 125.591 6.43612C123.576 6.49209 122.401 7.77934 122.177 9.5703Z" fill="#01AC6A"/>
<path d="M132.364 5.65228H133.427V6.88356C133.931 6.10002 134.714 5.48438 135.89 5.48438C136.617 5.48438 137.009 5.59631 137.289 5.82018L136.897 6.82759C136.449 6.54776 136.225 6.49179 135.61 6.49179C134.434 6.49179 133.819 7.21937 133.371 8.00291V14.8309H132.308V5.65228H132.364Z" fill="#01AC6A"/>
<path d="M147.978 0C148.258 0.335805 148.482 0.839512 148.482 1.51112C148.482 2.91031 147.81 3.74982 146.971 4.19756L146.467 3.69385C147.138 3.30208 147.474 2.5745 147.474 1.73499C147.474 1.23128 147.25 0.783544 147.082 0.615642L147.978 0Z" fill="#01AC6A"/>
<path d="M139.08 7.89098C139.08 6.43582 140.255 5.48438 142.046 5.48438C143.333 5.48438 144.397 5.93211 144.9 6.49179L144.453 7.27533C143.893 6.77163 142.997 6.37985 142.046 6.37985C140.927 6.37985 140.199 7.05146 140.199 7.83501C140.199 10.2416 145.236 9.12226 145.236 12.3124C145.236 14.1034 143.669 14.9429 141.934 14.9429C140.647 14.9429 139.248 14.2713 138.8 13.5997L139.415 12.928C139.919 13.5997 141.15 13.9914 142.102 13.9914C143.165 13.9914 144.173 13.4877 144.173 12.3684C144.173 10.1297 139.08 11.249 139.08 7.89098Z" fill="#01AC6A"/>
<path d="M168.183 13.4327C167.231 14.3841 165.44 14.9998 163.761 14.9998C159.508 14.9998 156.653 12.1454 156.653 7.72401C156.653 3.63839 159.34 0.448242 163.649 0.448242C165.44 0.448242 166.895 0.895982 167.959 1.79146L167.455 2.63097C166.448 1.84743 165.216 1.51162 163.705 1.51162C160.235 1.51162 157.885 4.14209 157.885 7.72401C157.885 11.4738 160.347 13.9364 163.929 13.9364C165.44 13.9364 166.839 13.4327 167.791 12.5932L168.183 13.4327Z" fill="#01AC6A"/>
<path d="M170.479 0.55957H171.542V11.865C171.542 13.2642 171.878 13.9358 172.885 13.9358C173.389 13.9358 173.837 13.7119 174.172 13.4881L174.452 14.3276C174.004 14.6634 173.333 14.9432 172.549 14.9432C171.206 14.9432 170.534 14.1037 170.534 12.4806L170.479 0.55957Z" fill="#01AC6A"/>
<path d="M184.078 14.7753H183.014V13.3202C182.343 14.1597 180.999 14.9432 179.544 14.9432C177.305 14.9432 176.074 13.656 176.074 10.9136V5.59668H177.138V10.6897C177.138 12.8165 177.977 13.9358 179.936 13.9358C181.223 13.9358 182.454 13.0963 183.014 12.3687V5.65265H184.078V14.7753Z" fill="#01AC6A"/>
<path d="M187.269 0.55957H188.332V6.77196C189.06 6.04438 190.291 5.48471 191.522 5.48471C194.264 5.48471 195.888 7.3876 195.888 10.074C195.888 13.0963 193.873 14.9992 190.906 14.9992C189.507 14.9992 188.164 14.6074 187.269 13.9358V0.55957ZM188.332 7.89131V13.2082C189.227 13.8239 190.067 13.9918 190.962 13.9918C193.089 13.9918 194.768 12.5366 194.768 10.186C194.768 7.89131 193.425 6.49212 191.298 6.49212C190.011 6.49212 188.836 7.2197 188.332 7.89131Z" fill="#01AC6A"/>
<path d="M85.2952 5.54152C85.4632 5.09378 85.5751 4.59007 85.5751 4.08636C85.5751 3.63862 85.4632 3.13492 85.2952 2.68718C85.1273 2.23944 84.8475 1.7917 84.5117 1.45589C84.1759 1.06412 83.7282 0.784284 83.2245 0.560414C82.7207 0.336545 82.1051 0.224609 81.4335 0.224609H76.2285V1.34396H81.4335C81.8253 1.34396 82.217 1.39993 82.5528 1.56783C82.8887 1.73573 83.2245 1.90363 83.4483 2.1275C83.7282 2.35137 83.8961 2.63121 84.064 2.96702C84.2319 3.30282 84.2878 3.63862 84.2878 4.08636C84.2878 4.5341 84.2319 4.86991 84.064 5.20571C83.8961 5.54152 83.6722 5.87732 83.4483 6.10119C83.1685 6.38103 82.8887 6.54893 82.5528 6.71683C82.217 6.88474 81.8253 6.94071 81.4335 6.94071H76.2285V14.0486H77.5158V8.00409H81.4335C82.1051 8.00409 82.6648 7.89215 83.1685 7.66828C83.6722 7.44441 84.1199 7.16457 84.4557 6.7728C84.8475 6.437 85.0714 5.98926 85.2952 5.54152Z" fill="#01AC6A"/>
<path d="M77.0116 0.166992H60.2773V1.34231H77.0116V0.166992Z" fill="url(#paint0_linear)"/>
<path d="M77.5146 12.873H65.8174V14.0484H77.5146V12.873Z" fill="url(#paint1_linear)"/>
<defs>
<linearGradient id="paint0_linear" x1="61.2931" y1="0.75465" x2="74.6927" y2="0.75465" gradientUnits="userSpaceOnUse">
<stop stop-color="#01AC6A" stop-opacity="0"/>
<stop offset="1" stop-color="#01AC6A"/>
</linearGradient>
<linearGradient id="paint1_linear" x1="66.5269" y1="13.4607" x2="75.879" y2="13.4607" gradientUnits="userSpaceOnUse">
<stop stop-color="#01AC6A" stop-opacity="0"/>
<stop offset="1" stop-color="#01AC6A"/>
</linearGradient>
</defs>
</svg>
