<svg width="327" height="25" viewBox="0 0 327 25" fill="none" xmlns="http://www.w3.org/2000/svg">
<path d="M81.5289 0.373047H75.7454L70.8947 12.593L66.3239 0.559611H60.5404L56.7158 23.1339H62.5926L64.4582 10.1677L68.1895 19.4959L69.5888 23.1339H71.9208L77.4245 9.98111L79.1035 23.1339H84.9803L81.5289 0.373047Z" fill="#01AC6A"/>
<path d="M51.1194 0.467037C49.2538 0.467037 47.668 1.86627 47.668 3.82519V19.7764C47.7613 21.7354 49.347 23.2279 51.306 23.1346C53.0783 23.0413 54.5708 21.6421 54.6641 19.7764V3.73191C54.5708 1.86627 53.0783 0.373755 51.1194 0.467037Z" fill="#01AC6A"/>
<path d="M101.118 0.46582H94.8677H94.7744L86.0059 23.1334H92.2558L93.8416 19.2155H101.957L103.356 23.1334H109.7L101.118 0.46582Z" fill="#01AC6A"/>
<path d="M15.1117 0.560547H8.67524L0 23.2281H6.2499L7.74242 19.217H15.858L17.3505 23.2281H23.6004L15.1117 0.560547Z" fill="#01AC6A"/>
<path d="M45.5217 10.5408H41.977H34.3279V14.8318H38.992C38.8987 15.7646 38.5256 16.6042 37.9659 17.2571C37.033 18.0967 35.8204 18.5631 34.6077 18.4698C33.2085 18.5631 31.8092 18.0034 30.7831 16.9773C29.3839 15.578 28.7309 13.7124 28.7309 11.8468C28.7309 10.9139 28.9175 9.88784 29.2906 9.0483C30.2234 6.52968 31.9958 5.31701 34.3279 5.31701C35.4472 5.31701 36.5666 5.69014 37.4062 6.34312C38.0591 6.99609 38.6188 7.74235 38.992 8.58189L44.3091 6.4364C43.5628 4.8506 42.4434 3.45137 41.0442 2.33198C39.1785 1.02603 36.8465 0.279774 34.6077 0.373057C30.7831 0.373057 27.8914 1.58573 25.7459 4.01106C23.8803 6.15655 22.8542 8.95502 22.9474 11.8468C22.8542 14.4587 23.6937 17.0706 25.3728 19.2161C27.5183 21.9212 30.5033 23.2272 34.5144 23.2272C35.4472 23.2272 36.3801 23.1339 37.3129 22.9473C38.5256 22.6675 39.7382 22.2011 40.7643 21.5481C42.63 20.3354 44.0292 18.4698 44.7755 16.4176C45.2419 14.4587 45.5217 12.4997 45.5217 10.5408Z" fill="#01AC6A"/>
<path d="M145.706 10.5408C147.106 9.70129 148.785 9.1416 150.557 9.1416C154.755 9.1416 156.247 11.3804 156.247 15.2049V24.6264H154.475V22.2944C153.542 23.6003 152.049 24.813 149.251 24.813C146.453 24.813 144.587 23.0406 144.587 20.2422C144.587 17.1639 147.106 15.4848 150.37 15.4848C151.583 15.4848 153.262 15.7646 154.475 16.6042C154.475 12.9662 154.288 10.6341 150.464 10.6341C148.691 10.6341 147.572 11.1005 146.173 11.8468L145.706 10.5408ZM154.475 20.8019V18.2833C153.355 17.4437 152.049 17.0706 150.557 17.0706C148.598 17.0706 146.453 18.0034 146.453 20.2422C146.453 22.1078 147.945 23.2272 149.811 23.2272C152.329 23.2272 153.635 21.9213 154.475 20.8019Z" fill="#01AC6A"/>
<path d="M161.285 9.42145H163.057V11.4737C163.897 10.1677 165.203 9.1416 167.161 9.1416C168.374 9.1416 169.027 9.32817 169.494 9.70129L168.841 11.3804C168.094 10.914 167.721 10.8207 166.695 10.8207C164.736 10.8207 163.71 12.0333 162.964 13.3393V24.7197H161.191V9.42145H161.285Z" fill="#01AC6A"/>
<path d="M172.105 5.22266H173.878V9.42035H180.034V11.0994H173.878V18.6553C173.878 21.6403 174.904 23.2261 177.329 23.2261C178.355 23.2261 179.195 22.853 179.755 22.3866L180.314 23.7858C179.568 24.3455 178.355 24.9052 176.863 24.9052C173.505 24.9052 172.105 22.7597 172.105 18.9351V5.22266Z" fill="#01AC6A"/>
<path d="M184.232 9.42145H186.005V11.5669C187.124 10.261 189.363 9.1416 191.508 9.1416C195.613 9.1416 197.852 11.1938 197.852 15.9512V24.6264H196.079V16.231C196.079 12.4998 194.493 10.7274 191.042 10.7274C188.897 10.7274 186.938 11.8468 186.005 13.0595V24.5332H184.232V9.42145Z" fill="#01AC6A"/>
<path d="M215.481 22.7603C214.082 24.2528 211.936 24.9058 209.884 24.9058C205.033 24.9058 201.769 21.8275 201.769 16.9768C201.769 12.4993 204.474 9.04785 209.511 9.04785C213.429 9.04785 216.414 11.753 216.414 15.9507C216.414 16.5104 216.414 16.9768 216.321 17.35H203.727C203.821 20.988 206.339 23.2267 209.977 23.2267C212.03 23.2267 213.895 22.4805 214.921 21.3611L215.481 22.7603ZM203.634 15.9507H214.642C214.548 12.7791 212.496 10.7269 209.324 10.7269C205.966 10.8202 204.007 12.9657 203.634 15.9507Z" fill="#01AC6A"/>
<path d="M220.612 9.42145H222.384V11.4737C223.224 10.1677 224.53 9.1416 226.489 9.1416C227.701 9.1416 228.354 9.32817 228.821 9.70129L228.168 11.3804C227.421 10.914 227.048 10.8207 226.022 10.8207C224.063 10.8207 223.037 12.0333 222.291 13.3393V24.7197H220.519V9.42145H220.612Z" fill="#01AC6A"/>
<path d="M246.638 0C247.104 0.559693 247.477 1.39923 247.477 2.51862C247.477 4.85067 246.358 6.2499 244.959 6.99616L244.119 6.15662C245.239 5.50365 245.798 4.29098 245.798 2.89175C245.798 2.05221 245.425 1.30595 245.145 1.0261L246.638 0Z" fill="#01AC6A"/>
<path d="M231.806 13.1527C231.806 10.7274 233.765 9.1416 236.75 9.1416C238.896 9.1416 240.668 9.88786 241.508 10.8207L240.761 12.1266C239.829 11.2871 238.336 10.6341 236.75 10.6341C234.885 10.6341 233.672 11.7535 233.672 13.0595C233.672 17.0706 242.067 15.2049 242.067 20.522C242.067 23.5071 239.455 24.9063 236.564 24.9063C234.418 24.9063 232.086 23.7869 231.34 22.6675L232.366 21.5481C233.205 22.6675 235.258 23.3205 236.843 23.3205C238.616 23.3205 240.295 22.481 240.295 20.6153C240.295 16.884 231.806 18.7497 231.806 13.1527Z" fill="#01AC6A"/>
<path d="M280.313 22.3866C278.727 23.9724 275.742 24.9985 272.944 24.9985C265.854 24.9985 261.097 20.2411 261.097 12.8718C261.097 6.0622 265.574 0.745117 272.757 0.745117C275.742 0.745117 278.167 1.49137 279.94 2.98389L279.1 4.38312C277.421 3.07717 275.369 2.51748 272.85 2.51748C267.067 2.51748 263.149 6.90174 263.149 12.8718C263.149 19.1217 267.253 23.2261 273.223 23.2261C275.742 23.2261 278.074 22.3866 279.66 20.9873L280.313 22.3866Z" fill="#01AC6A"/>
<path d="M284.138 0.933594H285.91V19.7766C285.91 22.1086 286.47 23.228 288.149 23.228C288.988 23.228 289.735 22.8549 290.294 22.4818L290.761 23.881C290.014 24.4407 288.895 24.9071 287.589 24.9071C285.35 24.9071 284.231 23.5079 284.231 20.8027L284.138 0.933594Z" fill="#01AC6A"/>
<path d="M306.804 24.6264H305.032V22.2011C303.912 23.6003 301.674 24.9062 299.248 24.9062C295.517 24.9062 293.465 22.7608 293.465 18.1899V9.32812H295.237V17.8168C295.237 21.3615 296.636 23.2272 299.901 23.2272C302.047 23.2272 304.099 21.8279 305.032 20.6153V9.42141H306.804V24.6264Z" fill="#01AC6A"/>
<path d="M312.122 0.933594H313.894V11.2879C315.107 10.0752 317.159 9.14242 319.212 9.14242C323.782 9.14242 326.488 12.314 326.488 16.7916C326.488 21.8288 323.129 25.0004 318.185 25.0004C315.853 25.0004 313.615 24.3474 312.122 23.228V0.933594ZM313.894 13.1536V22.0154C315.387 23.0415 316.786 23.3213 318.279 23.3213C321.823 23.3213 324.622 20.896 324.622 16.9781C324.622 13.1536 322.383 10.8215 318.838 10.8215C316.693 10.8215 314.734 12.0342 313.894 13.1536Z" fill="#01AC6A"/>
<path d="M142.162 9.23485C142.441 8.4886 142.628 7.64906 142.628 6.80952C142.628 6.06326 142.441 5.22372 142.162 4.47746C141.882 3.73121 141.415 2.98495 140.856 2.42525C140.296 1.77228 139.55 1.30587 138.71 0.93274C137.871 0.559612 136.844 0.373047 135.725 0.373047H127.05V2.23869H135.725C136.378 2.23869 137.031 2.33197 137.591 2.61182C138.15 2.89167 138.71 3.17151 139.083 3.54464C139.55 3.91777 139.829 4.38418 140.109 4.94387C140.389 5.50357 140.482 6.06326 140.482 6.80952C140.482 7.55577 140.389 8.11547 140.109 8.67516C139.829 9.23485 139.456 9.79455 139.083 10.1677C138.617 10.6341 138.15 10.9139 137.591 11.1938C137.031 11.4736 136.378 11.5669 135.725 11.5669H127.05V23.4137H129.195V13.3393H135.725C136.844 13.3393 137.777 13.1527 138.617 12.7796C139.456 12.4064 140.203 11.94 140.762 11.2871C141.415 10.7274 141.788 9.98111 142.162 9.23485Z" fill="#01AC6A"/>
<path d="M128.356 0.280273H100.465V2.2392H128.356V0.280273Z" fill="url(#paint0_linear)"/>
<path d="M129.195 21.4551H109.699V23.414H129.195V21.4551Z" fill="url(#paint1_linear)"/>
<defs>
<linearGradient id="paint0_linear" x1="102.158" y1="1.25974" x2="124.491" y2="1.25974" gradientUnits="userSpaceOnUse">
<stop stop-color="#01AC6A" stop-opacity="0"/>
<stop offset="1" stop-color="#01AC6A"/>
</linearGradient>
<linearGradient id="paint1_linear" x1="110.882" y1="22.4345" x2="126.469" y2="22.4345" gradientUnits="userSpaceOnUse">
<stop stop-color="#01AC6A" stop-opacity="0"/>
<stop offset="1" stop-color="#01AC6A"/>
</linearGradient>
</defs>
</svg>
