<svg width="36" height="49" viewBox="0 0 36 49" fill="none" xmlns="http://www.w3.org/2000/svg">
<path d="M31.4288 20.1383H31.3627C30.4466 20.1416 29.5661 20.4939 28.9006 21.1231C28.3812 19.6055 27.0035 18.5183 25.3849 18.5183C24.3823 18.5314 23.4296 18.9567 22.7514 19.6948C22.1386 18.4017 20.8731 17.5347 19.4144 17.5347H19.3439C18.5044 17.5347 17.6872 17.7846 17.1292 18.2815V9.08686C17.1292 6.91326 15.4438 5.14502 13.3868 5.14502C11.332 5.14502 9.65309 6.9118 9.65164 9.08396L9.63566 27.2683L8.53251 25.9272C7.64475 24.8219 6.33747 24.1354 4.92375 24.0315C3.53836 23.9367 2.1755 24.4191 1.15807 25.3642L0.269233 26.1016C-0.000652004 26.3254 -0.0776581 26.7071 0.0839822 27.0177L8.72793 43.6132C10.3004 46.6343 13.2916 48.4999 16.5342 48.4999H26.2294C31.1458 48.4999 35.1498 44.2504 35.1549 39.0128C35.157 36.6729 35.1596 34.9322 35.161 33.5145C35.1661 29.6973 35.1679 28.2701 35.1581 24.0682C35.153 21.9004 33.4803 20.1383 31.4288 20.1383ZM33.6732 33.5182C33.6718 34.9359 33.6692 36.6714 33.667 39.0114C33.6627 43.4291 30.3263 47.012 26.2294 47.012H16.5342C13.8481 47.012 11.3625 45.4534 10.0472 42.9267L1.68041 26.8582L2.12138 26.4957C2.13082 26.4877 2.14063 26.4808 2.14971 26.4721C2.86783 25.7965 3.83476 25.4496 4.81877 25.5153C5.82385 25.5923 6.75228 26.0838 7.38104 26.872L9.79984 29.8168C9.99926 30.0594 10.3294 30.1506 10.6251 30.0449C10.9208 29.9392 11.1184 29.6591 11.1188 29.3449L11.1329 9.08541C11.1336 7.73344 12.1518 6.6332 13.3875 6.6332C14.6229 6.6332 15.6414 7.73381 15.6414 9.08686V21.304C15.6414 21.3461 15.6396 21.3882 15.6396 21.4307C15.6396 21.4493 15.6414 21.4667 15.6414 21.4845V26.7089C15.6414 27.1198 15.9745 27.4528 16.3853 27.4528C16.7961 27.4528 17.1292 27.1198 17.1292 26.7089V21.329C17.1292 20.0236 18.1394 19.0225 19.3439 19.0225H19.4144C20.6501 19.0225 21.6857 20.0784 21.6857 21.4318V26.2106C21.6857 26.6214 22.0188 26.9545 22.4296 26.9545C22.8404 26.9545 23.1735 26.6214 23.1735 26.2106V22.4609C23.1735 21.1078 24.1658 20.0068 25.4088 20.0068C26.6449 20.0068 27.6369 21.1078 27.6369 22.4609V25.9984C27.6369 26.4093 27.97 26.7423 28.3808 26.7423C28.7917 26.7423 29.1248 26.4093 29.1248 25.9984V24.0831C29.1248 22.7297 30.1266 21.6262 31.3627 21.6262H31.4288C32.6616 21.6262 33.6674 22.7253 33.6703 24.0744C33.6801 28.2738 33.6783 29.7027 33.6732 33.5182Z" fill="white"/>
<path d="M3.27523 3.02858L3.27523 17.9496C3.27523 18.3605 3.60832 18.6935 4.01914 18.6935C4.42996 18.6935 4.76305 18.3605 4.76305 17.9496L4.76305 3.05074L6.46954 4.75722C6.76049 5.04491 7.22906 5.04346 7.51856 4.75396C7.8077 4.46482 7.80915 3.99624 7.52147 3.70529L4.53421 0.717669C4.24362 0.427443 3.77251 0.427443 3.48228 0.717669L0.49502 3.70529C0.305047 3.89272 0.230221 4.16769 0.298873 4.42559C0.367162 4.68349 0.568758 4.88472 0.826656 4.95337C1.08455 5.02202 1.35916 4.9472 1.54695 4.75722L3.27523 3.02858Z" fill="white"/>
</svg>
