<svg width="36" height="36" viewBox="0 0 36 36" fill="none" xmlns="http://www.w3.org/2000/svg">
<g clip-path="url(#clip0)">
<path d="M31.6557 12.4498H31.6008C30.8401 12.4525 30.109 12.7451 29.5565 13.2675C29.1251 12.0073 27.9811 11.1046 26.6371 11.1046C25.8047 11.1155 25.0135 11.4687 24.4504 12.0815C23.9416 11.0078 22.8907 10.2878 21.6794 10.2878H21.6209C20.9239 10.2878 20.2453 10.4953 19.782 10.908V3.27314C19.782 1.46827 18.3825 0 16.6744 0C14.9682 0 13.5741 1.46706 13.5729 3.27073L13.5596 18.3702L12.6436 17.2567C11.9065 16.3389 10.821 15.7688 9.64707 15.6825C8.4967 15.6038 7.36504 16.0044 6.52021 16.7892L5.78215 17.4015C5.55805 17.5872 5.49411 17.9042 5.62833 18.1621L12.8059 31.9424C14.1116 34.4509 16.5954 36 19.2879 36H27.3384C31.4207 36 34.7455 32.4714 34.7497 28.1224C34.7515 26.1794 34.7536 24.734 34.7548 23.5568C34.759 20.3872 34.7605 19.2021 34.7524 15.713C34.7482 13.913 33.3592 12.4498 31.6557 12.4498ZM33.5194 23.5599C33.5182 24.7371 33.5161 26.1782 33.5143 28.1212C33.5106 31.7895 30.7403 34.7646 27.3384 34.7646H19.2879C17.0575 34.7646 14.9935 33.4704 13.9014 31.3723L6.95393 18.0297L7.3201 17.7287C7.32794 17.7221 7.33608 17.7163 7.34362 17.7091C7.93992 17.1481 8.74282 16.8601 9.5599 16.9146C10.3945 16.9786 11.1654 17.3867 11.6875 18.0412L13.696 20.4864C13.8616 20.6879 14.1357 20.7636 14.3812 20.6758C14.6268 20.588 14.7908 20.3555 14.7911 20.0946L14.8029 3.27193C14.8035 2.14932 15.6489 1.23572 16.675 1.23572C17.7008 1.23572 18.5466 2.14962 18.5466 3.27314V13.4177C18.5466 13.4527 18.545 13.4877 18.545 13.523C18.545 13.5384 18.5466 13.5528 18.5466 13.5676V17.9058C18.5466 18.2469 18.8231 18.5235 19.1643 18.5235C19.5054 18.5235 19.782 18.2469 19.782 17.9058V13.4385C19.782 12.3545 20.6208 11.5233 21.6209 11.5233H21.6794C22.7055 11.5233 23.5655 12.4001 23.5655 13.5239V17.4919C23.5655 17.8331 23.842 18.1096 24.1832 18.1096C24.5243 18.1096 24.8009 17.8331 24.8009 17.4919V14.3784C24.8009 13.2548 25.6249 12.3406 26.657 12.3406C27.6834 12.3406 28.5071 13.2548 28.5071 14.3784V17.3158C28.5071 17.6569 28.7837 17.9335 29.1248 17.9335C29.466 17.9335 29.7426 17.6569 29.7426 17.3158V15.7254C29.7426 14.6015 30.5744 13.6852 31.6008 13.6852H31.6557C32.6794 13.6852 33.5146 14.5979 33.517 15.7181C33.5251 19.2051 33.5236 20.3917 33.5194 23.5599Z" fill="#3D64F0"/>
<path d="M21.9439 6.11837H29.9497L28.5143 7.55376C28.3544 7.70909 28.2905 7.93832 28.3472 8.15367C28.4039 8.36933 28.5722 8.53763 28.7879 8.59433C29.0032 8.65074 29.2324 8.58679 29.3878 8.42694L31.8686 5.94644C32.1099 5.70515 32.1099 5.31396 31.8686 5.07296L29.3878 2.59247C29.1462 2.35359 28.7571 2.3548 28.517 2.59488C28.2766 2.83527 28.2754 3.22436 28.5143 3.46595L29.9313 4.88295H21.9439C21.6028 4.88295 21.3262 5.15953 21.3262 5.50066C21.3262 5.84178 21.6028 6.11837 21.9439 6.11837Z" fill="#3D64F0"/>
</g>
<defs>
<clipPath id="clip0">
<rect width="36" height="36" fill="white"/>
</clipPath>
</defs>
</svg>
