<svg width="239" height="330" viewBox="0 0 239 330" fill="none" xmlns="http://www.w3.org/2000/svg">
<path d="M237.284 254.827C236.096 251.848 230.846 253.586 228.369 254.827C214.997 258.551 180.822 250.359 166.706 254.827C152.59 259.296 112.472 260.785 113.215 254.827C113.958 248.87 148.876 222.803 161.506 214.611C174.135 206.419 179.336 184.077 216.482 148.329C253.629 112.582 228.369 38.8526 200.881 24.7025C173.392 10.5525 171.906 -1.36337 109.501 0.126109C47.0947 1.61559 4.74793 44.8105 0.29022 50.0237C-4.16749 55.2369 44.123 107.369 49.3234 107.369C54.5239 107.369 57.4957 102.9 89.4415 80.5579C121.387 58.2157 139.961 85.0264 145.904 98.4317C151.847 111.837 129.56 158.011 109.501 169.927C89.4415 181.843 70.8684 201.206 61.2103 214.611C51.5522 228.017 11.4343 265.254 4.74793 268.977C-1.93842 272.701 4.005 320.364 4.74793 326.322C5.49086 332.28 234.313 330.046 237.284 326.322C240.256 322.599 238.77 258.551 237.284 254.827Z" fill="#EC6537"/>
</svg>
