<svg width="231" height="158" viewBox="0 0 231 158" fill="none" xmlns="http://www.w3.org/2000/svg">
<rect x="86.1035" width="64.996" height="64.996" rx="12" transform="rotate(7.24911 86.1035 0)" fill="url(#paint0_linear)"/>
<g clip-path="url(#clip0)">
<path d="M112.424 50.4457C83.7528 29.7207 108.692 11.6608 115.429 26.8172C125.747 13.8302 145.373 37.5588 112.424 50.4457Z" fill="white"/>
</g>
<path d="M203.585 382.146C205.16 396.636 213.429 463.785 217.367 495.548C221.887 532.168 99.6325 539.649 102.783 526.261C105.933 512.874 72.8569 365.214 68.9194 338.439C64.9818 311.663 50.4127 306.938 45.6876 296.307C29.5436 254.568 2.76793 247.087 5.13048 217.949C7.49302 188.811 -5.45469 140.679 2.76793 127.384C21.162 97.6448 -0.0571869 62.22 21.1617 74.9514C31.323 81.0481 35.0488 113.225 31.323 140.661C29.5616 153.631 45.6877 184.086 43.7189 168.729C41.7501 153.372 47.6565 142.741 50.8068 124.234C50.413 65.9581 59.8632 34.8512 80.7324 36.0324C101.602 37.2137 91.7577 115.965 94.514 120.297C96.719 123.762 104.095 118.065 107.508 115.965C112.233 100.215 115.777 56.5079 123.258 49.814C153.499 31.8586 158.959 67.5331 157.909 87.6148C190.46 59.4461 193.83 95.8052 191.426 117.902C192.408 110.877 202.503 113.648 207.523 115.965C222.879 123.447 233.117 194.717 229.179 199.836C225.242 204.955 217.367 221.099 217.367 238.424C217.367 255.749 192.56 311.663 196.497 325.445C200.435 339.226 201.616 364.033 203.585 382.146Z" fill="#24AADC"/>
<defs>
<linearGradient id="paint0_linear" x1="84.9315" y1="64.5883" x2="138.546" y2="14.417" gradientUnits="userSpaceOnUse">
<stop stop-color="#7EB900"/>
<stop offset="1" stop-color="#92D800"/>
</linearGradient>
<clipPath id="clip0">
<rect width="31.8385" height="31.8385" fill="white" transform="translate(100.438 18.5127) rotate(7.24911)"/>
</clipPath>
</defs>
</svg>
