<svg width="1024" height="639" viewBox="0 0 1024 639" fill="none" xmlns="http://www.w3.org/2000/svg">
<rect x="467.007" y="228.5" width="88.4974" height="88.4974" rx="18" transform="rotate(7.24911 467.007 228.5)" fill="url(#paint0_linear)"/>
<rect x="772" y="439.266" width="43.5267" height="43.5267" rx="10" transform="rotate(-15 772 439.266)" fill="#6688FF"/>
<rect x="177.703" y="493" width="43.5267" height="43.5267" rx="10" transform="rotate(8.85872 177.703 493)" fill="#F0C26E"/>
<g clip-path="url(#clip0)">
<path d="M502.844 297.187C463.807 268.968 497.764 244.378 506.937 265.015C520.986 247.332 547.707 279.64 502.844 297.187Z" fill="white"/>
</g>
<path d="M626.967 746.845C629.112 766.575 640.371 858.003 645.732 901.251C651.887 951.112 485.427 961.298 489.716 943.07C494.006 924.841 448.97 723.791 443.609 687.334C438.248 650.877 418.411 644.443 411.977 629.968C389.996 573.138 353.538 562.951 356.755 523.277C359.972 483.603 342.343 418.068 353.538 399.966C378.583 359.473 349.692 311.24 378.583 328.575C392.418 336.876 397.491 380.688 392.418 418.043C390.02 435.703 411.977 477.17 409.296 456.26C406.616 435.351 414.658 420.876 418.947 395.677C418.411 316.329 431.278 273.975 459.693 275.583C488.108 277.192 474.705 384.418 478.458 390.316C481.46 395.034 494.5 392 496.15 384.418C502.584 362.973 503.5 305.5 517.596 294.348C558.771 269.9 566.206 318.474 564.776 345.817C609.096 307.463 613.685 356.969 610.412 387.055C611.749 377.49 625.494 381.264 632.329 384.418C653.238 394.605 667.177 491.645 661.816 498.615C656.455 505.585 645.732 527.566 645.732 551.156C645.732 574.746 611.956 650.877 617.317 669.642C622.678 688.406 624.287 722.183 626.967 746.845Z" fill="#24AADC"/>
<path d="M564.679 345.638C563.785 362.794 562.416 399.43 559.414 418.731" stroke="#3F59B5" stroke-linecap="round"/>
<path d="M610.796 386.683C612.94 400.98 617.316 430.633 617.316 448.218" stroke="#3F59B5" stroke-linecap="round"/>
<path d="M409.261 461.855C404.803 481.532 398.272 525.221 405.282 538.872" stroke="#3F59B5" stroke-linecap="round"/>
<rect x="155.595" y="80.7012" width="88.4974" height="88.4974" rx="18" transform="rotate(-9.93804 155.595 80.7012)" fill="url(#paint1_linear)"/>
<path d="M224.186 109.131C227.801 110.452 228.631 115.191 225.68 117.661L201.003 138.322C198.052 140.793 193.533 139.143 192.869 135.352L187.314 103.65C186.65 99.8591 190.339 96.7704 193.954 98.0908L224.186 109.131Z" fill="white"/>
<path d="M-60.0523 335.711C-89.7403 392.845 -192.451 502.775 -240.096 550.599C-217.97 567.927 -157.483 589.641 -92.5378 537.876C-11.3568 473.169 139.549 409.052 194.202 383.129C248.855 357.205 254.238 322.266 233.844 318.278C213.45 314.29 179.706 355.316 133.946 356.8C88.1861 358.283 105.5 296 112.339 285.398C118.112 276.447 199.139 166.805 200.206 148.615C201.273 130.425 186.599 146.859 188.83 140.072C190.616 134.642 185 129.5 180.088 129.974C163.285 129.989 94.5041 208.411 62.2141 247.62C102.8 172.923 103 131 93.6199 132.07C78.2317 132.401 43.7691 202.115 28.4614 236.93C36.1618 210.795 51.3818 158.055 42.9735 158.604C34.5652 159.152 -22.9422 264.294 -60.0523 335.711Z" fill="#23BF79"/>
<path d="M82.3718 270.555C110.85 232.636 171.304 155.026 188.499 141.5M84.9999 142.5C74.9995 155.5 84.627 162.472 90.9993 157.5C99.9695 150.5 95.0003 129.5 84.9999 142.5Z" stroke="black"/>
<path d="M165.917 143.52C167.386 139.506 172.997 137.199 175.619 136.547C183.5 135 178.151 143.113 172.489 147.99C166.827 152.866 164.081 148.538 165.917 143.52Z" stroke="black"/>
<path d="M182.314 156.27C182.761 152.019 187.64 148.414 190.024 147.143C196.934 144.73 194.08 152.894 189.777 159.003C185.474 165.113 181.756 161.584 182.314 156.27Z" stroke="black"/>
<path d="M211.501 340.5C213 334.5 222.001 328.5 234 325.5C246 322.499 240 343 230.005 350.423C221.344 356.855 209.63 347.984 211.501 340.5Z" stroke="black"/>
<path d="M40.9999 167C44.1103 168.806 41.7896 175.12 40 178.5C36.404 184.467 32.4996 179.5 33.1192 174.843C33.3924 172.788 37.112 164.742 40.9999 167Z" stroke="black"/>
<rect x="732.689" y="135.423" width="94.2447" height="94.2447" rx="18" transform="rotate(-40.5273 732.689 135.423)" fill="url(#paint2_linear)"/>
<path d="M779.809 124.731C777.953 120.257 782.907 116.022 787.038 118.551L795.391 123.664C797.239 124.795 799.604 124.608 801.251 123.201L808.696 116.836C812.377 113.689 817.935 117.091 816.807 121.801L814.525 131.326C814.02 133.433 814.93 135.625 816.777 136.756L825.131 141.869C829.262 144.398 827.743 150.736 822.915 151.118L813.151 151.891C810.992 152.062 809.188 153.604 808.683 155.711L806.401 165.236C805.273 169.946 798.776 170.46 796.92 165.986L793.168 156.939C792.338 154.938 790.314 153.7 788.155 153.871L778.391 154.644C773.562 155.026 771.065 149.006 774.747 145.859L782.192 139.494C783.838 138.087 784.391 135.779 783.561 133.778L779.809 124.731Z" fill="white"/>
<path d="M1099.03 547.327C1156.04 623.801 1178.87 734.218 1206.33 798.784C1247.5 753.375 1328.5 659.024 1323.22 644.899C1316.61 627.241 1159.48 395.226 1144.33 377.232C1132.21 362.836 1078.35 281.496 1052.94 242.625C1032.37 208.443 1004.93 201.518 993.786 202.328C977.091 183.062 958.559 181.62 951.38 183.307C948.315 178.15 939.225 179.961 935.063 181.511C934.041 178.987 926.307 170.064 903.543 154.558C875.088 135.174 869.3 91.8188 869.3 85.7351C869.299 79.2489 868.698 70.5253 847.915 88.16C807.727 123.82 857.462 176.337 869.888 190.283C882.314 204.229 897.95 201.437 907.192 251.172C911.293 273.239 873.158 292.147 847.915 247.874C839.682 233.435 835.781 218.501 814.074 208.823C799.013 202.108 784.024 196.094 770.814 204.029C756.941 212.363 804.32 223.534 800.292 264.937C796.86 300.209 833.05 282.383 856.019 343.888C868.141 376.348 930.522 384.048 947.061 388.737C963.6 393.425 1020.16 441.514 1099.03 547.327Z" fill="#F7AB4D"/>
<path d="M853.419 94.9106C855.39 88.7985 860.759 85.4764 863.197 84.5793C867.92 81.6699 873.262 108.428 867.261 118.043C861.259 127.658 850.955 102.551 853.419 94.9106Z" stroke="#C69438" stroke-linecap="round"/>
<path d="M925.895 172.785C940.344 185.369 967.912 215.55 962.585 235.601" stroke="#C69438" stroke-linecap="round"/>
<path d="M951.05 183.819C959.29 184.865 978.383 193.741 989.391 218.78" stroke="#C69438" stroke-linecap="round"/>
<path d="M995.578 203.261C1000.04 205.023 1009.94 212.276 1013.81 227.191" stroke="#C69438" stroke-linecap="round"/>
<path d="M1126.05 348.318C1079.54 344.584 970.515 359.95 918.873 451.629" stroke="white" stroke-width="2"/>
<rect x="68.3408" width="28.1861" height="28.1861" rx="5" transform="rotate(8.85872 68.3408 0)" fill="#6688FF"/>
<rect x="916" y="41.8516" width="28.1861" height="28.1861" rx="5" transform="rotate(-31.7974 916 41.8516)" fill="#4AC201"/>
<defs>
<linearGradient id="paint0_linear" x1="465.411" y1="316.442" x2="538.412" y2="248.13" gradientUnits="userSpaceOnUse">
<stop stop-color="#7EB900"/>
<stop offset="1" stop-color="#92D800"/>
</linearGradient>
<linearGradient id="paint1_linear" x1="153.999" y1="168.643" x2="226.999" y2="100.331" gradientUnits="userSpaceOnUse">
<stop stop-color="#F0C26E"/>
<stop offset="1" stop-color="#FF7448"/>
</linearGradient>
<linearGradient id="paint2_linear" x1="730.99" y1="229.076" x2="808.731" y2="156.328" gradientUnits="userSpaceOnUse">
<stop stop-color="#6688FF"/>
<stop offset="1" stop-color="#CF48FF"/>
</linearGradient>
<clipPath id="clip0">
<rect width="43.3507" height="43.3507" fill="white" transform="translate(486.525 253.707) rotate(7.24911)"/>
</clipPath>
</defs>
</svg>
