<svg width="298" height="597" viewBox="0 0 298 597" fill="none" xmlns="http://www.w3.org/2000/svg">
<rect x="177.703" y="493" width="43.5267" height="43.5267" rx="10" transform="rotate(8.85872 177.703 493)" fill="#F0C26E"/>
<rect x="155.595" y="80.7012" width="88.4974" height="88.4974" rx="18" transform="rotate(-9.93804 155.595 80.7012)" fill="url(#paint0_linear)"/>
<path d="M224.186 109.131C227.801 110.452 228.631 115.191 225.68 117.661L201.003 138.322C198.052 140.793 193.533 139.143 192.869 135.352L187.314 103.65C186.65 99.8591 190.339 96.7704 193.954 98.0908L224.186 109.131Z" fill="white"/>
<path d="M-60.0523 335.711C-89.7403 392.845 -192.451 502.775 -240.096 550.599C-217.97 567.927 -157.483 589.641 -92.5378 537.876C-11.3568 473.169 139.549 409.052 194.202 383.129C248.855 357.205 254.238 322.266 233.844 318.278C213.45 314.29 179.706 355.316 133.946 356.8C88.1861 358.283 105.5 296 112.339 285.398C118.112 276.447 199.139 166.805 200.206 148.615C201.273 130.425 186.599 146.859 188.83 140.072C190.616 134.642 185 129.5 180.088 129.974C163.285 129.989 94.5041 208.411 62.2141 247.62C102.8 172.923 103 131 93.6199 132.07C78.2317 132.401 43.7691 202.115 28.4614 236.93C36.1618 210.795 51.3818 158.055 42.9735 158.604C34.5652 159.152 -22.9422 264.294 -60.0523 335.711Z" fill="#23BF79"/>
<path d="M82.3718 270.555C110.85 232.636 171.304 155.026 188.499 141.5M84.9999 142.5C74.9995 155.5 84.627 162.472 90.9993 157.5C99.9695 150.5 95.0003 129.5 84.9999 142.5Z" stroke="black"/>
<path d="M165.917 143.52C167.386 139.506 172.997 137.199 175.619 136.547C183.5 135 178.151 143.113 172.489 147.99C166.827 152.866 164.081 148.538 165.917 143.52Z" stroke="black"/>
<path d="M182.314 156.27C182.761 152.019 187.64 148.414 190.024 147.143C196.934 144.73 194.08 152.894 189.777 159.003C185.474 165.113 181.756 161.584 182.314 156.27Z" stroke="black"/>
<path d="M211.501 340.5C213 334.5 222.001 328.5 234 325.5C246 322.499 240 343 230.005 350.423C221.344 356.855 209.63 347.984 211.501 340.5Z" stroke="black"/>
<path d="M40.9999 167C44.1103 168.806 41.7896 175.12 40 178.5C36.404 184.467 32.4996 179.5 33.1192 174.843C33.3924 172.788 37.112 164.742 40.9999 167Z" stroke="black"/>
<rect x="68.3408" width="28.1861" height="28.1861" rx="5" transform="rotate(8.85872 68.3408 0)" fill="#6688FF"/>
<defs>
<linearGradient id="paint0_linear" x1="153.999" y1="168.643" x2="226.999" y2="100.331" gradientUnits="userSpaceOnUse">
<stop stop-color="#F0C26E"/>
<stop offset="1" stop-color="#FF7448"/>
</linearGradient>
</defs>
</svg>
