<svg width="636" height="345" viewBox="0 0 636 345" fill="none" xmlns="http://www.w3.org/2000/svg">
<rect x="493.595" y="15.7012" width="88.4974" height="88.4974" rx="18" transform="rotate(-9.93804 493.595 15.7012)" fill="url(#paint0_linear)"/>
<path d="M562.186 44.1321C565.801 45.4525 566.631 50.1915 563.68 52.6624L539.003 73.3234C536.052 75.7943 531.533 74.1439 530.869 70.3526L525.314 38.6513C524.65 34.8601 528.339 31.7714 531.954 33.0918L562.186 44.1321Z" fill="white"/>
<path d="M277.948 270.711C248.26 327.845 145.549 437.775 97.904 485.599C120.03 502.927 180.517 524.641 245.462 472.876C326.643 408.169 477.549 344.052 532.202 318.129C586.855 292.205 592.238 257.266 571.844 253.278C551.45 249.29 517.706 290.316 471.946 291.8C426.186 293.283 443.5 231 450.339 220.398C456.112 211.447 537.139 101.805 538.206 83.6151C539.273 65.4252 524.599 81.8586 526.83 75.0718C528.616 69.6424 523 64.5 518.088 64.9744C501.285 64.989 432.504 143.411 400.214 182.62C440.8 107.923 441 66 431.62 67.0704C416.232 67.4013 381.769 137.115 366.461 171.93C374.162 145.795 389.382 93.0552 380.974 93.6038C372.565 94.1525 315.058 199.294 277.948 270.711Z" fill="#23BF79"/>
<mask id="mask0" mask-type="alpha" maskUnits="userSpaceOnUse" x="0" y="32" width="636" height="500">
<path d="M277.948 270.711C248.26 327.845 145.549 437.775 97.904 485.599C120.03 502.927 180.517 524.641 245.462 472.876C326.643 408.169 477.549 344.052 532.202 318.129C586.855 292.205 592.238 257.266 571.844 253.278C551.45 249.29 517.706 290.316 471.946 291.8C426.186 293.283 443.5 231 450.339 220.398C456.112 211.447 537.139 101.805 538.206 83.6151C539.273 65.4252 524.599 81.8586 526.83 75.0718C528.616 69.6424 523 64.5 518.088 64.9744C501.285 64.989 432.504 143.411 400.214 182.62C440.8 107.923 441 66 431.62 67.0704C416.232 67.4013 381.769 137.115 366.461 171.93C374.162 145.795 389.382 93.0552 380.974 93.6038C372.565 94.1525 315.058 199.294 277.948 270.711Z" fill="#23BF79"/>
</mask>
<g mask="url(#mask0)">
<path d="M420.831 205.387C449.308 167.468 509.763 89.8585 526.958 76.3317M423.459 77.332C413.458 90.3318 423.086 97.3041 429.458 92.3316C438.429 85.3319 433.459 64.3321 423.459 77.332Z" stroke="black"/>
</g>
<path d="M503.917 78.5203C505.386 74.506 510.997 72.1987 513.619 71.5468C521.5 70 516.151 78.1127 510.489 82.9896C504.827 87.8665 502.081 83.5382 503.917 78.5203Z" stroke="black"/>
<path d="M520.314 91.2699C520.761 87.0186 525.64 83.4137 528.024 82.1427C534.934 79.7305 532.08 87.8938 527.777 94.0032C523.474 100.113 519.756 96.5839 520.314 91.2699Z" stroke="black"/>
<path d="M549.501 275.5C551 269.5 560.001 263.5 572 260.5C584 257.499 578 278 568.005 285.423C559.344 291.855 547.63 282.984 549.501 275.5Z" stroke="black"/>
<path d="M379 102C382.11 103.806 379.79 110.12 378 113.5C374.404 119.467 370.5 114.5 371.119 109.843C371.392 107.788 375.112 99.7422 379 102Z" stroke="black"/>
<defs>
<linearGradient id="paint0_linear" x1="491.999" y1="103.643" x2="564.999" y2="35.3311" gradientUnits="userSpaceOnUse">
<stop stop-color="#F0C26E"/>
<stop offset="1" stop-color="#FF7448"/>
</linearGradient>
</defs>
</svg>
