<svg width="314" height="411" viewBox="0 0 314 411" fill="none" xmlns="http://www.w3.org/2000/svg">
<rect x="118.007" y="0.5" width="88.4974" height="88.4974" rx="18" transform="rotate(7.24911 118.007 0.5)" fill="url(#paint0_linear)"/>
<g clip-path="url(#clip0)">
<path d="M153.844 69.1868C114.807 40.9679 148.764 16.3779 157.937 37.0146C171.986 19.3317 198.707 51.6401 153.844 69.1868Z" fill="white"/>
</g>
<path d="M277.967 518.845C280.112 538.575 291.371 630.003 296.732 673.251C302.887 723.112 136.427 733.298 140.716 715.07C145.006 696.841 99.9703 495.791 94.6089 459.334C89.2476 422.877 69.4106 416.443 62.977 401.968C40.9955 345.138 4.53833 334.951 7.75514 295.277C10.9719 255.603 -6.65744 190.068 4.53833 171.966C29.5833 131.473 0.69171 83.2398 29.583 100.575C43.4184 108.876 48.4913 152.688 43.4184 190.043C41.0201 207.703 62.9771 249.17 60.2964 228.26C57.6157 207.351 65.6577 192.876 69.9472 167.677C69.411 88.3294 82.2782 45.9748 110.693 47.5832C139.108 49.1916 125.705 156.418 129.458 162.316C132.46 167.034 145.5 164 147.15 156.418C153.584 134.973 154.5 77.4995 168.596 66.3479C209.771 41.9002 217.206 90.474 215.776 117.817C260.096 79.4628 264.685 128.969 261.412 159.055C262.749 149.49 276.494 153.264 283.329 156.418C304.238 166.605 318.177 263.645 312.816 270.615C307.455 277.585 296.732 299.566 296.732 323.156C296.732 346.746 262.956 422.877 268.317 441.642C273.678 460.406 275.287 494.183 277.967 518.845Z" fill="#24AADC"/>
<path d="M215.679 117.638C214.785 134.794 213.416 171.43 210.414 190.731" stroke="#3F59B5" stroke-linecap="round"/>
<path d="M261.796 158.683C263.94 172.98 268.316 202.633 268.316 220.218" stroke="#3F59B5" stroke-linecap="round"/>
<path d="M60.2615 233.855C55.8034 253.532 49.2718 297.221 56.2817 310.872" stroke="#3F59B5" stroke-linecap="round"/>
<defs>
<linearGradient id="paint0_linear" x1="116.411" y1="88.4423" x2="189.412" y2="20.1299" gradientUnits="userSpaceOnUse">
<stop stop-color="#7EB900"/>
<stop offset="1" stop-color="#92D800"/>
</linearGradient>
<clipPath id="clip0">
<rect width="43.3507" height="43.3507" fill="white" transform="translate(137.525 25.707) rotate(7.24911)"/>
</clipPath>
</defs>
</svg>
