<svg width="314" height="230" viewBox="0 0 314 230" fill="none" xmlns="http://www.w3.org/2000/svg">
<rect x="118.007" y="0.5" width="88.4974" height="88.4974" rx="18" transform="rotate(7.24911 118.007 0.5)" fill="url(#paint0_linear)"/>
<g clip-path="url(#clip0)">
<path d="M153.844 69.1868C114.807 40.9679 148.764 16.3779 157.937 37.0146C171.986 19.3317 198.707 51.6401 153.844 69.1868Z" fill="white"/>
</g>
<path d="M277.964 518.845C280.109 538.575 291.368 630.003 296.729 673.251C302.885 723.112 136.424 733.298 140.714 715.07C145.003 696.841 99.9673 495.791 94.606 459.334C89.2447 422.877 69.4077 416.443 62.9741 401.968C40.9926 345.138 4.5354 334.951 7.75221 295.277C10.969 255.603 -6.66037 190.068 4.5354 171.966C29.5804 131.473 0.68878 83.2398 29.5801 100.575C43.4154 108.876 48.4884 152.688 43.4154 190.043C41.0172 207.703 62.9741 249.17 60.2935 228.26C57.6128 207.351 65.6548 192.876 69.9442 167.677C69.4081 88.3294 82.2753 45.9748 110.69 47.5832C139.105 49.1916 125.702 156.418 129.455 162.316C132.457 167.034 145.497 164 147.147 156.418C153.581 134.973 154.497 77.4995 168.593 66.3479C209.768 41.9002 217.203 90.474 215.773 117.817C260.093 79.4628 264.682 128.969 261.409 159.055C262.746 149.49 276.491 153.264 283.326 156.418C304.235 166.605 318.174 263.645 312.813 270.615C307.452 277.585 296.729 299.566 296.729 323.156C296.729 346.746 262.953 422.877 268.314 441.642C273.675 460.406 275.284 494.183 277.964 518.845Z" fill="#24AADC"/>
<mask id="mask0" mask-type="alpha" maskUnits="userSpaceOnUse" x="0" y="47" width="314" height="677">
<path d="M277.967 518.845C280.112 538.575 291.371 630.003 296.732 673.251C302.887 723.112 136.427 733.298 140.716 715.07C145.006 696.841 99.9703 495.791 94.6089 459.334C89.2476 422.877 69.4106 416.443 62.977 401.968C40.9955 345.138 4.53833 334.951 7.75514 295.277C10.9719 255.603 -6.65744 190.068 4.53833 171.966C29.5833 131.473 0.69171 83.2398 29.583 100.575C43.4184 108.876 48.4913 152.688 43.4184 190.043C41.0201 207.703 62.9771 249.17 60.2964 228.26C57.6157 207.351 65.6577 192.876 69.9472 167.677C69.411 88.3294 82.2782 45.9748 110.693 47.5832C139.108 49.1916 125.705 156.418 129.458 162.316C132.46 167.034 145.5 164 147.15 156.418C153.584 134.973 154.5 77.4995 168.596 66.3479C209.771 41.9002 217.206 90.474 215.776 117.817C260.096 79.4628 264.685 128.969 261.412 159.055C262.749 149.49 276.494 153.264 283.329 156.418C304.238 166.605 318.177 263.645 312.816 270.615C307.455 277.585 296.732 299.566 296.732 323.156C296.732 346.746 262.956 422.877 268.317 441.642C273.678 460.406 275.287 494.183 277.967 518.845Z" fill="#24AADC"/>
</mask>
<g mask="url(#mask0)">
<path d="M215.755 118.271C214.848 135.278 213.458 171.597 210.411 190.731" stroke="#3F59B5" stroke-linecap="round"/>
<path d="M261.878 159.22C263.994 173.392 268.313 202.786 268.313 220.218" stroke="#3F59B5" stroke-linecap="round"/>
</g>
<defs>
<linearGradient id="paint0_linear" x1="116.411" y1="88.4423" x2="189.412" y2="20.1299" gradientUnits="userSpaceOnUse">
<stop stop-color="#7EB900"/>
<stop offset="1" stop-color="#92D800"/>
</linearGradient>
<clipPath id="clip0">
<rect width="43.3507" height="43.3507" fill="white" transform="translate(137.525 25.707) rotate(7.24911)"/>
</clipPath>
</defs>
</svg>
