<svg width="733" height="378" viewBox="0 0 733 378" fill="none" xmlns="http://www.w3.org/2000/svg">
<rect x="131.64" y="112.604" width="94.2447" height="94.2447" rx="18" transform="rotate(-40.5273 131.64 112.604)" fill="url(#paint0_linear)"/>
<path d="M178.759 101.913C176.903 97.4386 181.857 93.2037 185.988 95.7325L194.341 100.846C196.189 101.977 198.554 101.79 200.201 100.382L207.646 94.0176C211.327 90.8702 216.886 94.2727 215.757 98.983L213.475 108.508C212.971 110.614 213.88 112.806 215.727 113.937L224.081 119.051C228.212 121.58 226.694 127.917 221.865 128.3L212.101 129.073C209.942 129.244 208.138 130.786 207.633 132.892L205.351 142.417C204.223 147.128 197.726 147.642 195.871 143.168L192.118 134.121C191.288 132.12 189.264 130.881 187.105 131.052L177.341 131.825C172.512 132.208 170.016 126.188 173.697 123.04L181.142 116.676C182.788 115.268 183.341 112.961 182.511 110.96L178.759 101.913Z" fill="white"/>
<path d="M497.984 524.507C554.992 600.982 577.824 711.399 605.283 775.965C646.448 730.556 727.456 636.205 722.169 622.079C715.56 604.422 558.428 372.406 543.278 354.412C531.158 340.017 477.305 258.676 451.893 219.806C431.326 185.624 403.886 178.698 392.737 179.508C376.042 160.242 357.51 158.801 350.331 160.488C347.266 155.331 338.176 157.141 334.014 158.691C332.992 156.168 325.258 147.245 302.494 131.738C274.039 112.355 268.251 68.9995 268.251 62.9158C268.25 56.4295 267.649 47.7059 246.866 65.3407C206.678 101.001 256.414 153.518 268.839 167.464C281.265 181.41 296.901 178.618 306.143 228.353C310.244 250.419 272.109 269.328 246.866 225.054C238.633 210.616 234.732 195.681 213.025 186.004C197.964 179.289 182.975 173.275 169.766 181.21C155.892 189.544 203.271 200.715 199.243 242.118C195.811 277.39 232.002 259.564 254.97 321.069C267.092 353.528 329.473 361.229 346.012 365.917C362.551 370.606 419.107 418.695 497.984 524.507Z" fill="#F7AB4D"/>
<mask id="mask0" mask-type="alpha" maskUnits="userSpaceOnUse" x="28" y="48" width="818" height="737">
<path d="M497.984 524.507C554.992 600.982 577.824 711.399 605.283 775.965C646.448 730.556 727.456 636.205 722.169 622.079C715.56 604.422 558.428 372.406 543.278 354.412C531.158 340.017 477.305 258.676 451.893 219.806C431.326 185.624 403.886 178.698 392.737 179.508C376.042 160.242 357.51 158.801 350.331 160.488C347.266 155.331 338.176 157.141 334.014 158.691C332.992 156.168 325.258 147.245 302.494 131.738C274.039 112.355 268.251 68.9995 268.251 62.9158C268.25 56.4295 267.649 47.7059 246.866 65.3407C206.678 101.001 256.414 153.518 268.839 167.464C281.265 181.41 296.901 178.618 306.143 228.353C310.244 250.419 272.109 269.328 246.866 225.054C238.633 210.616 234.732 195.681 213.025 186.004C197.964 179.289 182.975 173.275 169.766 181.21C155.892 189.544 203.271 200.715 199.243 242.118C195.811 277.39 232.002 259.564 254.97 321.069C267.092 353.528 329.473 361.229 346.012 365.917C362.551 370.606 419.107 418.695 497.984 524.507Z" fill="#F7AB4D"/>
</mask>
<g mask="url(#mask0)">
<path d="M252.37 72.0913C254.341 65.9792 259.71 62.657 262.149 61.76C266.871 58.8506 272.214 85.6088 266.212 95.224C260.21 104.839 249.906 79.7314 252.37 72.0913Z" stroke="#C69438" stroke-linecap="round"/>
<path d="M334.231 159.133C345.682 169.473 367.174 194.679 361.536 212.781" stroke="#C69438" stroke-linecap="round"/>
<path d="M350.606 160.959C358.547 162.322 377.262 171.411 389.021 194.964" stroke="#C69438" stroke-linecap="round"/>
<path d="M393.027 180.015C397.661 181.959 408.096 189.552 412.761 204.372" stroke="#C69438" stroke-linecap="round"/>
</g>
<path d="M525.001 325.499C478.487 321.764 369.467 337.131 317.824 428.81" stroke="white" stroke-width="2"/>
<defs>
<linearGradient id="paint0_linear" x1="129.94" y1="206.258" x2="207.682" y2="133.509" gradientUnits="userSpaceOnUse">
<stop stop-color="#6688FF"/>
<stop offset="1" stop-color="#CF48FF"/>
</linearGradient>
</defs>
</svg>
