<svg width="422" height="616" viewBox="0 0 422 616" fill="none" xmlns="http://www.w3.org/2000/svg">
<rect x="130.689" y="112.423" width="94.2447" height="94.2447" rx="18" transform="rotate(-40.5273 130.689 112.423)" fill="url(#paint0_linear)"/>
<path d="M177.809 101.731C175.953 97.2569 180.907 93.0221 185.038 95.5509L193.391 100.664C195.239 101.795 197.604 101.608 199.251 100.201L206.696 93.836C210.377 90.6885 215.935 94.091 214.807 98.8013L212.525 108.326C212.02 110.433 212.93 112.625 214.777 113.756L223.131 118.869C227.262 121.398 225.743 127.736 220.915 128.118L211.151 128.891C208.992 129.062 207.188 130.604 206.683 132.711L204.401 142.236C203.273 146.946 196.776 147.46 194.92 142.986L191.168 133.939C190.338 131.938 188.314 130.7 186.155 130.871L176.391 131.644C171.562 132.026 169.065 126.006 172.747 122.859L180.192 116.494C181.838 115.087 182.391 112.779 181.561 110.778L177.809 101.731Z" fill="white"/>
<path d="M497.033 524.327C554.041 600.801 576.873 711.218 604.332 775.784C645.497 730.375 726.505 636.024 721.218 621.899C714.609 604.241 557.477 372.226 542.327 354.232C530.207 339.836 476.354 258.496 450.942 219.625C430.375 185.443 402.935 178.518 391.786 179.328C375.091 160.062 356.559 158.62 349.38 160.307C346.315 155.15 337.225 156.961 333.063 158.511C332.041 155.987 324.307 147.064 301.543 131.558C273.088 112.174 267.3 68.8188 267.3 62.7351C267.299 56.2489 266.698 47.5253 245.915 65.16C205.727 100.82 255.462 153.337 267.888 167.283C280.314 181.229 295.95 178.437 305.192 228.172C309.293 250.239 271.158 269.147 245.915 224.874C237.682 210.435 233.781 195.501 212.074 185.823C197.013 179.108 182.024 173.094 168.814 181.029C154.941 189.363 202.32 200.534 198.292 241.937C194.86 277.209 231.05 259.383 254.019 320.888C266.141 353.348 328.522 361.048 345.061 365.737C361.6 370.425 418.155 418.514 497.033 524.327Z" fill="#F7AB4D"/>
<path d="M251.419 71.9106C253.39 65.7985 258.759 62.4764 261.197 61.5793C265.92 58.6699 271.262 85.4281 265.261 95.0433C259.259 104.658 248.955 79.5508 251.419 71.9106Z" stroke="#C69438" stroke-linecap="round"/>
<path d="M323.895 149.785C338.344 162.369 365.912 192.55 360.585 212.601" stroke="#C69438" stroke-linecap="round"/>
<path d="M349.05 160.819C357.29 161.865 376.383 170.741 387.391 195.78" stroke="#C69438" stroke-linecap="round"/>
<path d="M393.578 180.261C398.042 182.023 407.938 189.276 411.81 204.191" stroke="#C69438" stroke-linecap="round"/>
<path d="M524.05 325.318C477.536 321.584 368.515 336.95 316.873 428.629" stroke="white" stroke-width="2"/>
<rect x="314" y="18.8516" width="28.1861" height="28.1861" rx="5" transform="rotate(-31.7974 314 18.8516)" fill="#4AC201"/>
<defs>
<linearGradient id="paint0_linear" x1="128.99" y1="206.076" x2="206.731" y2="133.328" gradientUnits="userSpaceOnUse">
<stop stop-color="#6688FF"/>
<stop offset="1" stop-color="#CF48FF"/>
</linearGradient>
</defs>
</svg>
